<svg id="Layer_1" data-name="Layer 1" xmlns="http://www.w3.org/2000/svg" viewBox="0 0 899.9 156.05"><defs><style>.cls-1{fill:#4a4f54;}.cls-2{fill:#00a7e1;}.cls-3{fill:#3dae2b;}.cls-4{fill:#7e57c5;}.cls-5{fill:#ff8300;}.cls-6{fill:#ffda00;}.cls-7{fill:#eb0045;}</style></defs><title>riversandlogo</title><path class="cls-1" d="M892.1,9.28c.63,0,.95.29.95.87a1.54,1.54,0,0,1-.1.55,2,2,0,0,1-.15.34h-4.29V22h-2V11h-3.3c-.63,0-1-.29-1-.87a1.4,1.4,0,0,1,.1-.56,3.57,3.57,0,0,1,.14-.33Z" transform="translate(-8.8 -7.03)"/><path class="cls-1" d="M906.76,22c0-.19,0-.55-.07-1.07s-.06-1.12-.1-1.82-.08-1.42-.12-2.18-.09-1.49-.12-2.17-.07-1.28-.1-1.8-.06-.87-.07-1.05c-.12.26-.28.58-.46,1l-.61,1.28c-.23.45-.45.93-.69,1.43s-.47,1-.69,1.46-.45.91-.65,1.33l-.53,1.08h-1.46c-.23-.45-.49-1-.81-1.65s-.64-1.34-1-2.05l-1-2.09c-.33-.69-.62-1.28-.86-1.77,0,.28,0,.69-.07,1.22s-.06,1.12-.1,1.78-.07,1.34-.11,2.05-.07,1.39-.11,2-.07,1.24-.09,1.77-.05.95-.06,1.24h-2c0-.32,0-.78.06-1.39s.07-1.29.1-2,.08-1.53.12-2.36.09-1.6.13-2.36.08-1.43.11-2,.06-1.07.09-1.39a1.15,1.15,0,0,1,.39-.86,1.36,1.36,0,0,1,.89-.29,2.39,2.39,0,0,1,.9.15,1.56,1.56,0,0,1,.56.37l.42.86.59,1.22c.21.45.44.92.68,1.42s.48,1,.71,1.45.45.92.66,1.34l.53,1.06c.2-.38.45-.89.75-1.52l1-2c.32-.68.63-1.31.92-1.92l.68-1.41a2.47,2.47,0,0,1,.56-.77,1.48,1.48,0,0,1,1-.3,2,2,0,0,1,.84.14,2.59,2.59,0,0,1,.4.21c0,.35,0,.84.09,1.49s.08,1.37.12,2.18.09,1.64.14,2.52.1,1.71.15,2.52.09,1.52.12,2.17.06,1.15.08,1.49Z" transform="translate(-8.8 -7.03)"/><circle class="cls-2" cx="27.12" cy="25.35" r="18.32" transform="translate(-8.13 44.36) rotate(-87.62)"/><path class="cls-1" d="M114.89,81.07q0-15.94,9.79-24.7t27.13-8.75q10.92,0,17.77,3t6.84,9.27a11.12,11.12,0,0,1-1.64,5.72,11.64,11.64,0,0,1-2.69,3.47,48,48,0,0,0-7.28-2.6,36.64,36.64,0,0,0-9.88-1.22q-20.28,0-20.28,21.5v50.26H114.89Z" transform="translate(-8.8 -7.03)"/><path class="cls-1" d="M198.62,11a11.85,11.85,0,0,1,12,12,12,12,0,1,1-23.92,0,11.83,11.83,0,0,1,12-12Zm-9.88,48.19q0-4.86,2.77-7t7.8-2.17a19.83,19.83,0,0,1,5.72.78c1.73.52,2.89.9,3.47,1.13v85.1H188.74Z" transform="translate(-8.8 -7.03)"/><path class="cls-1" d="M259.47,137.05q-8.16-15.08-14.91-28.34T233,85.05q-4.86-10.39-7.46-17.33t-2.6-9a8.53,8.53,0,0,1,2.43-6.16q2.43-2.5,7.45-2.51a21.17,21.17,0,0,1,6,.7,9,9,0,0,1,2.69,1q3.47,9.34,7.45,19T256.78,89q3.9,8.58,7.28,15.6t5.63,11.53q3.3-6.24,7.11-14.73t7.37-16.82q3.54-8.31,6.41-15.16t4.07-10a21,21,0,0,1,4.16-6.85q2.43-2.5,7.63-2.51a16.43,16.43,0,0,1,7.88,1.65,29.34,29.34,0,0,1,3.39,2q-1.05,3.65-3.56,10t-6.06,14.12q-3.55,7.82-7.63,16.3t-8.06,16.55q-4,8.05-7.54,15t-6,11.44Z" transform="translate(-8.8 -7.03)"/><path class="cls-1" d="M406.49,130.64q-1.38.87-4.33,2.43A43.88,43.88,0,0,1,394.8,136a82.39,82.39,0,0,1-10.23,2.43,72.76,72.76,0,0,1-12.74,1,54.21,54.21,0,0,1-18.11-2.95A42.08,42.08,0,0,1,339,127.78a41.14,41.14,0,0,1-10-14.21,48.23,48.23,0,0,1-3.64-19.33,49.14,49.14,0,0,1,3.55-19,43.45,43.45,0,0,1,9.88-14.73A44.72,44.72,0,0,1,353.72,51a50.9,50.9,0,0,1,18.8-3.37,49.83,49.83,0,0,1,16,2.33,37,37,0,0,1,11.7,6.25,25.51,25.51,0,0,1,9.62,20.19,26.22,26.22,0,0,1-2.25,11,19.9,19.9,0,0,1-8,8.5q-5.71,3.56-15.43,5.54a125.48,125.48,0,0,1-24.61,2q-3.47,0-6.5-.09c-2-.06-4.19-.14-6.5-.26a21.59,21.59,0,0,0,8.58,14.3q7.2,5.46,20.54,5.46a46.74,46.74,0,0,0,8.32-.69,46.13,46.13,0,0,0,6.85-1.74,47.12,47.12,0,0,0,5.2-2.08l3.21-1.56ZM345.66,89.56c2.65.12,5.2.18,7.62.18h7.28A79.08,79.08,0,0,0,376,88.52a31.43,31.43,0,0,0,9.19-3.12,9.71,9.71,0,0,0,4.33-4.33,12.73,12.73,0,0,0,1-5,10.87,10.87,0,0,0-5.29-9.88,24.32,24.32,0,0,0-13.08-3.29,26.51,26.51,0,0,0-11.27,2.25,24.49,24.49,0,0,0-8.15,6,27.46,27.46,0,0,0-5.11,8.58A31,31,0,0,0,345.66,89.56Z" transform="translate(-8.8 -7.03)"/><path class="cls-1" d="M422.09,81.05q0-15.94,9.8-24.7T459,47.59q10.92,0,17.77,3t6.85,9.27A11,11,0,0,1,482,65.62a11.48,11.48,0,0,1-2.69,3.47,46.93,46.93,0,0,0-7.28-2.6,36.64,36.64,0,0,0-9.88-1.22q-20.28,0-20.28,21.5V137H422.09Z" transform="translate(-8.8 -7.03)"/><path class="cls-1" d="M502,115.37a26.48,26.48,0,0,0,4.33,2.25,76.18,76.18,0,0,0,7.71,2.86A79.9,79.9,0,0,0,524.55,123a73.23,73.23,0,0,0,12.82,1q9,0,14.74-2.34t5.72-8.06a8.36,8.36,0,0,0-3.64-7.36q-3.65-2.52-13-3.56l-13.52-1.56a63.9,63.9,0,0,1-12.74-2.51,32.85,32.85,0,0,1-10-4.94,22.07,22.07,0,0,1-6.5-7.71,24,24,0,0,1-2.34-11,25.76,25.76,0,0,1,2.17-10.49,23.37,23.37,0,0,1,6.85-8.75,34.11,34.11,0,0,1,12.22-6,67,67,0,0,1,18.28-2.17q18,0,28,4t10,10.4a8,8,0,0,1-.78,3.64,16.15,16.15,0,0,1-1.73,2.77,11.08,11.08,0,0,1-2,2,6.55,6.55,0,0,1-1.56,1,21.75,21.75,0,0,0-3-2.17,34.92,34.92,0,0,0-6.32-2.94,64,64,0,0,0-22.36-3.73q-20.12,0-20.11,10.57a7.55,7.55,0,0,0,3.81,6.85q3.81,2.34,10.92,3.21l17.68,2.25q14.39,1.91,22.36,7.89t8,17.59a24.77,24.77,0,0,1-10.32,20.8q-10.3,7.8-29.72,7.8a94.8,94.8,0,0,1-17-1.39,103.65,103.65,0,0,1-13.26-3.2,66.72,66.72,0,0,1-9.1-3.56,27.47,27.47,0,0,1-4.51-2.6Z" transform="translate(-8.8 -7.03)"/><path class="cls-1" d="M673.44,136.69q-1.74.34-5.46.78c-2.49.28-5.4.57-8.75.86s-7.11.55-11.27.78-8.49.35-13,.35q-13.53,0-22.1-2.34t-13.52-6.24a20.1,20.1,0,0,1-6.76-9,30.92,30.92,0,0,1-1.82-10.49,33.08,33.08,0,0,1,2.17-12.48,20.61,20.61,0,0,1,7.1-9,34.53,34.53,0,0,1,12.91-5.46,88.31,88.31,0,0,1,19.42-1.82q6.58,0,12.48.43c3.93.29,6.87.55,8.84.78a22.54,22.54,0,0,0-2-10,15.49,15.49,0,0,0-5.47-6.24,22.33,22.33,0,0,0-8.32-3.12,61,61,0,0,0-10.74-.87q-9.88,0-15.86,2.25t-7.89,3.82a21.85,21.85,0,0,1-2.86-3.3,9.54,9.54,0,0,1-1.82-5.89,9.79,9.79,0,0,1,1.3-4.77,11.33,11.33,0,0,1,4.6-4.16,30.15,30.15,0,0,1,8.84-2.86,78.51,78.51,0,0,1,14-1,80.81,80.81,0,0,1,18.63,2,41,41,0,0,1,14.47,6.32,29.23,29.23,0,0,1,9.45,11.44q3.38,7.11,3.38,17.16ZM653.85,98.21c-1.16-.23-3.32-.58-6.5-1a108.31,108.31,0,0,0-14.3-.7q-11.79,0-17.16,3.56t-5.37,11.18a14.27,14.27,0,0,0,1.12,5.72,10.29,10.29,0,0,0,3.9,4.42,21.49,21.49,0,0,0,7.55,2.77,61.51,61.51,0,0,0,11.87.95,104.56,104.56,0,0,0,12.65-.6c3.12-.41,5.2-.72,6.24-1Z" transform="translate(-8.8 -7.03)"/><path class="cls-1" d="M685.59,84.51A36.15,36.15,0,0,1,688.8,69a33.92,33.92,0,0,1,8.84-11.61A39.15,39.15,0,0,1,711,50.11a54.12,54.12,0,0,1,16.9-2.52,54.91,54.91,0,0,1,17,2.52,39,39,0,0,1,13.44,7.28A33,33,0,0,1,767.06,69a37,37,0,0,1,3.12,15.51V137H750.42V89.54q0-11.79-5.72-17.94t-16.81-6.15q-11.28,0-16.9,6.15t-5.64,17.94V137H685.59Z" transform="translate(-8.8 -7.03)"/><path class="cls-1" d="M856.5,18.47c0-3.12.89-5.43,2.69-6.93s4.36-2.25,7.71-2.25a19.83,19.83,0,0,1,5.72.78c1.73.52,2.88.89,3.47,1.12V89.37a61.9,61.9,0,0,1-3.56,22,43.57,43.57,0,0,1-9.79,15.6A40.14,40.14,0,0,1,848,136.34a53.46,53.46,0,0,1-18.55,3.12A49.78,49.78,0,0,1,810.65,136a45.27,45.27,0,0,1-14.82-9.53A43.38,43.38,0,0,1,786,111.9a47.11,47.11,0,0,1-3.56-18.37,48.91,48.91,0,0,1,3.39-18.46,44.35,44.35,0,0,1,9.35-14.56,42.23,42.23,0,0,1,14-9.54,45.14,45.14,0,0,1,17.6-3.38,38.34,38.34,0,0,1,17.68,3.9,35.2,35.2,0,0,1,12,9.45Zm0,75.06a30.75,30.75,0,0,0-2-11.1,28.17,28.17,0,0,0-5.45-9,24.74,24.74,0,0,0-8.41-6,28.36,28.36,0,0,0-21.76,0,26.49,26.49,0,0,0-8.4,5.89A25.45,25.45,0,0,0,805,82.26a32.52,32.52,0,0,0-1.91,11.27A31.81,31.81,0,0,0,805,104.71a25.61,25.61,0,0,0,5.46,8.84,25.88,25.88,0,0,0,19.33,8,27.79,27.79,0,0,0,10.83-2.07,24.93,24.93,0,0,0,8.41-5.72A26.23,26.23,0,0,0,854.5,105,31.7,31.7,0,0,0,856.5,93.53Z" transform="translate(-8.8 -7.03)"/><circle class="cls-3" cx="27.12" cy="65.15" r="18.32" transform="translate(-47.9 82.51) rotate(-87.62)"/><circle class="cls-4" cx="27.12" cy="104.96" r="18.32" transform="translate(-87.68 120.67) rotate(-87.62)"/><circle class="cls-5" cx="70.51" cy="65.15" r="18.32" transform="translate(-6.32 125.86) rotate(-87.62)"/><circle class="cls-6" cx="70.51" cy="104.96" r="18.32" transform="translate(-46.09 164.01) rotate(-87.62)"/><circle class="cls-7" cx="70.51" cy="144.76" r="18.32" transform="translate(-85.86 202.16) rotate(-87.62)"/></svg>