<svg xmlns="http://www.w3.org/2000/svg" width="38" height="27" viewBox="0 0 38 27">
  <g fill="none" fill-rule="evenodd">
    <path fill="#FFF" d="M37.6071429,21.4722295 L34.506656,21.4722295 L34.506656,21.1895594 C34.506656,19.3471245 34.5266213,17.5042911 34.4966029,15.662404 C34.4849526,14.9497528 34.482134,14.2242529 34.2288336,13.5355062 C33.9961562,12.902636 33.6162056,12.4512903 32.9838002,12.2718078 C32.2786274,12.0717076 31.4767287,12.446609 31.1167904,13.1299275 C30.8361963,13.6625981 30.7109085,14.238247 30.7044726,14.8388461 C30.6812659,16.9933337 30.6701793,19.1480204 30.6542071,21.3026075 C30.6538313,21.3506156 30.6497443,21.3985739 30.6468317,21.4589326 L27.7419574,21.4589326 L27.7419574,21.200665 C27.7419574,19.549117 27.7557217,17.8973698 27.7355216,16.2460708 C27.7268308,15.5337682 27.7057851,14.8112066 27.5855238,14.1135953 C27.4480219,13.3161331 27.1082367,12.6118983 26.2907887,12.3374454 C25.5398132,12.0853531 24.7208149,12.4612505 24.3572593,13.2060233 C24.0679745,13.7985048 23.9365796,14.4216638 23.9339959,15.0880001 C23.9260567,17.1513022 23.9054808,19.2146042 23.8898844,21.2779561 C23.8894146,21.3339821 23.8897904,21.3900081 23.8897904,21.4589824 L20.7423735,21.4589824 L20.7423735,21.1756152 C20.7423735,19.0011575 20.7332129,16.8266998 20.7462256,14.6523417 C20.7528024,13.556074 20.9674406,12.5007924 21.4471235,11.5205608 C21.9486977,10.4956578 22.7110887,9.78415206 23.7320414,9.36378247 C24.3799962,9.09699893 25.0661433,8.92389092 25.7308689,8.96920976 C26.9537291,9.0525765 28.1510338,9.33793579 29.0823073,10.3163745 C29.3515329,10.1285254 29.6164836,9.94082576 29.884159,9.75750857 C30.3743177,9.42170094 30.9217886,9.23200923 31.4882381,9.13026594 C31.9813095,9.0417199 32.4879102,8.96198862 32.984223,8.98469784 C34.0288052,9.03250673 35.0072437,9.32269671 35.8386439,10.0545711 C36.6620581,10.7794733 37.1193799,11.7255414 37.3673249,12.8004944 C37.4598697,13.20184 37.4977802,13.6172793 37.5630314,14.0258959 C37.5673063,14.0529876 37.5919693,14.0764936 37.6071429,14.1016929 L37.6071429,21.4722295 Z M0,14.4669794 C0.0624062068,14.1638586 0.116705263,13.8585582 0.188632658,13.5579143 C0.443913637,12.4911215 0.940618023,11.5668483 1.65753525,10.7631498 C2.42696041,9.9006006 3.33958049,9.28385709 4.41816147,8.96087174 C4.83666956,8.83554153 5.27737805,8.78605344 5.71073354,8.72299204 C6.59450723,8.59444188 7.44750204,8.75608317 8.27985189,9.06381094 C9.11375719,9.37218269 9.84467339,9.85022083 10.4865995,10.4958448 C11.3530276,11.3673108 11.9389578,12.4024491 12.2285528,13.6217683 C12.4185523,14.4216029 12.4377833,15.2310974 12.3542136,16.0511928 C12.2484436,17.0894025 11.9013915,18.0351254 11.350341,18.8846462 C10.4254659,20.3103888 9.14618579,21.2252498 7.53691637,21.5975746 C6.25664644,21.8938096 5.00281902,21.7814087 3.79211975,21.2410523 C3.4894685,21.1059631 3.19798816,20.9430834 2.87521043,20.7798074 L2.87521043,21.0490939 C2.87521043,22.6749685 2.86422807,24.3010908 2.88166787,25.9267672 C2.88718262,26.4432466 2.71160625,26.7966976 2.26246067,27 L0,27 L0,14.4669794 Z M6.20889909,11.7424097 C4.37649449,11.7031759 2.90556511,13.3214712 2.87964109,15.1341522 C2.85098325,17.1350267 4.34623408,18.7048742 6.18754712,18.7117599 C8.00595275,18.7185961 9.46062069,17.2127512 9.5158153,15.3049084 C9.57346092,13.3125545 7.97734205,11.7029778 6.20889909,11.7424097 Z M14.6557363,21.4722295 L14.6557363,8.96201189 L17.697489,8.96201189 L17.697489,21.4722295 L14.6557363,21.4722295 Z"/>
    <path fill="#00AAE5" d="M16.4018847,1.84916219 C15.2767962,1.84777013 14.3761939,2.74100878 14.3756033,3.85883315 C14.375055,4.9718064 15.2871726,5.88626342 16.3953889,5.8837324 C17.5079919,5.88120139 18.4126013,4.97020342 18.4104079,3.85448824 C18.4082145,2.74480531 17.5125474,1.85055425 16.4018847,1.84916219 L16.4018847,1.84916219 Z M16.7024229,0 C17.0076432,0.0706154191 17.3202873,0.118620405 17.6169449,0.215600602 C19.2842254,0.760992928 20.3885188,2.43057935 20.2359509,4.1552998 C20.0765918,5.95683666 18.7419491,7.40082496 16.9886618,7.66869109 C14.8695405,7.99240837 12.9256383,6.55930345 12.5824553,4.42025526 C12.2522218,2.3621153 13.7079234,0.392012599 15.808907,0.0528561052 C15.89639,0.0387245847 15.9827762,0.0177593139 16.0697109,0 L16.7024229,0 Z"/>
    <path fill="#FFF" d="M4.20216324,3.85247321 C4.1736095,3.2526378 4.61414004,2.89211924 5.18436698,2.89285828 C5.7404509,2.89359731 6.1588523,3.27298299 6.15898614,3.856777 C6.15911999,4.44622245 5.72876172,4.81647888 5.1594717,4.82139128 C4.64603991,4.82582549 4.15741419,4.43439789 4.20216324,3.85247321 Z M0.00156094597,3.85614427 C-0.0254957391,3.22434599 0.44879727,2.92548168 0.960293222,2.89434459 C1.48887761,2.86217247 1.96806574,3.35717457 1.95956602,3.86636518 C1.95111081,4.3714588 1.47828634,4.84114584 0.959536703,4.82079029 C0.438161501,4.80030536 -0.0305688676,4.45400227 0.00156094597,3.85614427 Z M8.40019939,3.86507363 C8.36835788,3.31948877 8.8213879,2.89665172 9.38243892,2.89287756 C9.86908931,2.88958615 10.3648119,3.284512 10.3582301,3.84168265 C10.3514705,4.41158009 9.92690212,4.82234862 9.3608703,4.82142702 C8.86577034,4.82054931 8.41096146,4.49202226 8.40019939,3.86507363 Z M15.4021515,3.84872318 C15.3467304,3.32644784 15.7892511,2.89062535 16.3930373,2.89286574 C17.0020889,2.89510614 17.3716965,3.36541312 17.3567034,3.85241324 C17.3374265,4.47699989 16.9269893,4.80154949 16.3679148,4.82087838 C15.8664925,4.83818652 15.3600725,4.44567831 15.4021515,3.84872318 Z"/>
    <path fill="#00AAE5" d="M30.8140987,4.82142071 C30.2517971,4.81928124 29.8063416,4.38291724 29.81479,3.84256578 C29.8230537,3.31277799 30.2700789,2.89134575 30.8221316,2.89286122 C31.3727994,2.89437668 31.8169161,3.31990958 31.8213942,3.85041053 C31.8259646,4.38862251 31.3747845,4.82356019 30.8140987,4.82142071 Z M27.5211994,3.86903492 C27.5166435,4.40986364 27.0780675,4.82404712 26.512577,4.82141611 C25.9422516,4.8187851 25.5079062,4.38930609 25.5145541,3.83460882 C25.520923,3.30274337 25.9746079,2.88481405 26.5367047,2.89297464 C27.098941,2.90113523 27.5257553,3.32432657 27.5211994,3.86903492 Z M22.2336232,4.82138834 C21.6624331,4.82618779 21.2149353,4.40100994 21.2142864,3.85279559 C21.2136376,3.31054693 21.6473713,2.89411574 22.2140196,2.89285981 C22.7833096,2.89164873 23.2181555,3.30283192 23.2210288,3.84508058 C23.2238558,4.38441369 22.7866927,4.81672345 22.2336232,4.82138834 Z"/>
  </g>
</svg>
