<?xml version="1.0" encoding="UTF-8"?>
<svg width="100px" height="16px" viewBox="0 0 100 16" version="1.1" xmlns="http://www.w3.org/2000/svg" xmlns:xlink="http://www.w3.org/1999/xlink">
    <!-- Generator: sketchtool 42 (36781) - http://www.bohemiancoding.com/sketch -->
    <title>FE3F30F9-6F9A-42D7-9364-1285C2F046C7</title>
    <desc>Created with sketchtool.</desc>
    <defs></defs>
    <g id="Symbols" stroke="none" stroke-width="1" fill="none" fill-rule="evenodd">
        <g id="Logos/Customerlogo" fill="#FEFEFE">
            <g id="Logos/customerlogo">
                <path d="M7.25537102,12.2447724 C8.26974087,12.1526502 8.85984688,11.4134553 8.81355713,10.4944502 C8.76832744,9.59484515 8.13334511,8.95586503 7.11767962,8.91495878 C5.94783274,8.86795538 4.77433451,8.90398393 3.50507656,8.90398393 C3.50507656,9.90746207 3.48045936,10.8796785 3.52886926,11.8486801 C3.53711425,12.0144114 3.85442874,12.2990924 4.03452297,12.3029724 C5.10778563,12.3260306 6.18882214,12.3416615 7.25537102,12.2447724 Z M3.52498233,3.55036375 L3.52498233,6.23554355 C4.7301649,6.23554355 5.8662073,6.24097554 7.00213192,6.23033326 C7.193298,6.22844869 7.39117786,6.17656759 7.57327444,6.11448763 C8.21002356,5.89754036 8.54347468,5.38848472 8.50201413,4.72644634 C8.46444052,4.12637705 8.09883392,3.60911799 7.44477032,3.57209173 C6.14583039,3.4985935 4.83876325,3.55036375 3.52498233,3.55036375 Z M10.1474794,7.50430264 C11.826278,8.39515 12.5488928,9.67233423 12.3386455,11.3788679 C12.1294582,13.0758678 10.9884688,14.3775514 9.2334629,14.8257466 C8.61661955,14.9833853 7.96149588,15.0592115 7.32121319,15.0747315 C5.85171967,15.1105383 4.38057715,15.0863715 2.91014134,15.0863715 C1.02451119,15.0864824 0.658433451,14.8513545 1.17785639e-05,13.2172106 L1.17785639e-05,0.690362364 C2.72297998,0.721069771 5.44889282,0.695350932 8.16714959,0.818402273 C8.94076561,0.853433105 9.77103651,1.20629114 10.4393522,1.61180628 C12.6647939,2.96248874 12.3682097,6.27700409 10.1155595,7.2650731 C10.0655006,7.28702279 10.0267491,7.33203076 9.95972909,7.38413358 C10.0319317,7.43069355 10.0869376,7.47215409 10.1474794,7.50430264 Z M99.1768787,3.03578743 C98.077821,3.09365482 97.8017314,3.43520543 97.9011425,4.66217141 L99.8622733,4.66217141 L99.8622733,7.0992531 L97.8453121,7.0992531 L97.8453121,8.46212984 C97.8453121,9.88442597 97.8597998,11.3069438 97.8357715,12.7287965 C97.8291755,13.1274385 97.7609776,13.5402702 97.6302356,13.9186254 C97.3734629,14.6614786 96.7966667,15.0567948 95.9553239,15.0747537 C95.5282332,15.0839548 95.1009069,15.0764165 94.5938398,15.0764165 L94.5938398,14.4303416 C94.5938398,10.9761463 94.5919552,7.52206194 94.5944287,4.06797755 C94.59596,1.82910829 95.7952532,0.701470242 98.1758186,0.692712534 C98.7839458,0.690495393 99.3919552,0.691160535 99.9999647,0.690384535 L99.9999647,3.01838287 C99.7256419,3.02370401 99.4507303,3.02137601 99.1768787,3.03578743 Z M71.0985984,0.667536895 C71.4869376,0.6597769 71.8755124,0.666317467 72.3049588,0.666317467 L72.3049588,15.0536798 L69.1676207,15.0536798 C69.1530153,14.7663383 69.1393522,14.4987293 69.1210954,14.140661 C68.0434747,15.4708349 66.6115548,15.5819137 65.1102591,15.3355893 C63.5442992,15.0786226 62.4018963,14.1996369 61.8325206,12.8275591 C60.7984806,10.3348271 60.8626737,7.88621631 62.7473616,5.73658699 C64.2699764,3.99978937 67.1248645,3.82485693 69.0263958,5.32231414 C69.0263958,4.3619594 69.0205065,3.49904801 69.0278092,2.63635835 C69.0382921,1.36604725 69.7467727,0.694364304 71.0985984,0.667536895 Z M68.7174441,11.7039119 C68.9530153,11.1303374 69.0304005,10.499339 69.188351,9.85193376 C69.0544287,9.26827132 68.9838751,8.6582249 68.7687986,8.0971773 C68.4823439,7.35000069 67.8740989,6.89315873 66.9996584,6.84970276 C66.1483039,6.80746622 65.445477,7.12141343 65.0309894,7.82380378 C64.252662,9.14278113 64.2878799,10.5131961 64.9684452,11.8497998 C65.3315783,12.5629433 65.9852886,12.9577053 66.863616,12.9291041 C67.7614959,12.899727 68.4054299,12.463837 68.7174441,11.7039119 Z M24.4368316,10.7700741 L16.6600353,10.7700741 C16.6175147,11.6540484 17.1556773,12.4501129 17.9842992,12.7999778 C18.8701649,13.1741204 19.9467256,13.0584965 20.5489635,12.4322649 C20.8810012,12.0870561 21.2244641,12.0022504 21.6785277,12.0168835 C22.4817079,12.0428241 23.2864193,12.0291887 24.0906596,12.0351749 C24.1235218,12.0353967 24.1562662,12.0666584 24.2420141,12.1105577 C23.8199882,13.2846449 23.0927797,14.2497665 21.8969022,14.7956267 C19.7140989,15.7921208 17.489364,15.8259322 15.4835925,14.4740303 C13.4295289,13.0895365 12.9528504,11.021498 13.3597998,8.79127555 C14.1575618,4.4205141 18.3179859,3.69661747 20.9932509,4.63457909 C23.0471967,5.35470658 23.898669,6.94794429 24.2473145,8.84714751 C24.3589753,9.45564193 24.3718139,10.0803215 24.4368316,10.7700741 Z M18.8891284,6.69341648 C17.6994935,6.68942562 16.7117432,7.51231761 16.6797055,8.55237858 L20.9526148,8.55237858 C20.9139812,7.43748909 20.0773498,6.69740733 18.8891284,6.69341648 Z M41.5183628,10.7757944 L33.783616,10.7757944 C33.7160071,11.6163126 34.285265,12.4663646 35.1196584,12.811906 C36.0191873,13.1846075 37.1094111,13.032179 37.7279034,12.3780115 C37.9961013,12.0944391 38.2640636,12.0084141 38.641331,12.0165066 C39.5222497,12.0351306 40.4039929,12.022382 41.3655948,12.022382 C41.0019906,13.2051161 40.3134158,14.1089337 39.2405065,14.6738613 C37.1713663,15.7632537 35.0061131,15.8284376 32.9581743,14.7016864 C30.8691284,13.5524312 30.2296702,11.6329412 30.3897409,9.46679415 C30.6979859,5.2969057 34.3180094,3.6003492 37.8203651,4.53520682 C38.7137691,4.77366036 39.4560542,5.23903831 40.0438045,5.91559897 C41.257821,7.31306312 41.4996349,8.96760479 41.5183628,10.7757944 Z M35.861119,6.69536756 C34.7452179,6.74514238 33.8359128,7.55883323 33.7936278,8.55665766 L38.0992815,8.55665766 C37.9374441,7.31871683 37.0930389,6.64038246 35.861119,6.69536756 Z M79.6966549,4.30868149 C83.2215077,4.3259752 85.5457715,6.50875078 85.5441225,9.80031871 C85.5423557,13.1483129 83.1389399,15.429197 79.6156184,15.4265364 C76.0804005,15.423765 73.7846408,13.2321208 73.7928857,9.86783067 C73.8012485,6.5066445 76.1537809,4.29127693 79.6966549,4.30868149 Z M82.0200942,11.193792 C82.1511896,10.7538003 82.197715,10.2915264 82.2834629,9.83568212 C82.2040754,9.36908474 82.1735689,8.90326335 82.0405889,8.46493453 C81.7132627,7.38585187 80.8553121,6.78589344 79.7127915,6.7766923 C78.5654417,6.76749117 77.6436514,7.39904386 77.3021908,8.46116538 C77.0116137,9.36542645 77.0067845,10.2828795 77.2866431,11.190688 C77.6242167,12.2851798 78.4984217,12.9089725 79.6563722,12.9109679 C80.8275147,12.9131851 81.6889988,12.3049124 82.0200942,11.193792 Z M57.7271496,8.83201552 C59.2991166,9.29140719 60.0721437,10.1032135 60.1754417,11.3959177 C60.301119,12.966984 59.5715548,14.3227659 58.1459953,14.8968946 C56.1577739,15.6976152 54.120318,15.6742243 52.1529446,14.8380295 C50.7838045,14.2561408 50.1487044,13.1449096 50.026914,11.708978 L53.0503534,11.708978 C53.7809776,12.9533486 54.517609,13.3238329 55.8355124,13.0788388 C56.0432862,13.0401497 56.303828,12.9979131 56.4264429,12.8647738 C56.6404594,12.6321957 56.9022968,12.3211307 56.887927,12.0551846 C56.8755595,11.8237151 56.5521201,11.4983496 56.2911072,11.4087771 C55.6322144,11.1830721 54.9298587,11.0705522 54.2469376,10.9058186 C53.6967609,10.7730118 53.143404,10.6481868 52.6020612,10.4879983 C51.414311,10.1366923 50.5415194,9.48185963 50.395583,8.2369348 C50.2366902,6.88059863 50.693934,5.75052172 51.9446996,4.99281369 C53.7101885,3.9233756 57.0607185,4.11050232 58.6911072,5.34267858 C59.4944052,5.94984272 59.9564782,6.87306035 59.8849823,7.80780711 C58.9756773,7.80780711 58.0588339,7.81844939 57.1431684,7.79450426 C57.0258539,7.79128941 56.8707303,7.62688838 56.8065371,7.50350447 C56.3451708,6.61509596 54.7474087,6.21844939 53.9080683,6.83215409 C53.7070082,6.97915056 53.5073616,7.30529204 53.5436396,7.51215132 C53.5797998,7.71701517 53.8858068,7.97553385 54.123616,8.03639437 C55.1057126,8.28792905 56.1070082,8.47239521 57.1007656,8.68346705 C57.3107774,8.72814245 57.5218492,8.77204185 57.7271496,8.83201552 Z M47.6588928,4.51681563 C48.1829211,4.48976651 48.709894,4.51293563 49.2778563,4.51293563 L49.2778563,7.22327998 C48.9963486,7.22327998 48.7127208,7.22239313 48.4290931,7.22339084 C46.8228504,7.22860112 46.1349823,7.74885332 46.0154299,9.25861567 C45.9137809,10.544225 45.9720848,11.8411418 45.9630153,13.13307 C45.9586572,13.7587473 45.9623086,14.3844246 45.9623086,15.0375944 L42.8283863,15.0375944 C42.8283863,12.9029308 42.6845701,10.8073997 42.8640754,8.73670062 C43.0976443,6.04342825 44.7902238,4.66514238 47.6588928,4.51681563 Z M91.7253239,4.52201483 C92.2681979,4.49097485 92.8149588,4.51758054 93.4173145,4.51758054 L93.4173145,7.22437747 C93.0213192,7.22437747 92.6378092,7.21573062 92.2550059,7.22604032 C91.0627797,7.2578563 90.3805654,7.77788679 90.2002356,8.88435114 C90.0998822,9.49938613 90.1047114,10.1327125 90.0988221,10.7580572 C90.0853946,12.1751431 90.0945819,13.5924506 90.0945819,15.0483365 L86.9506478,15.0483365 C86.9325088,14.9610919 86.9050648,14.8916954 86.9053004,14.8224098 C86.9133098,12.8857369 86.8542992,10.94596 86.951119,9.01316705 C87.0883392,6.27344558 88.8246172,4.68763528 91.7253239,4.52201483 Z M25.7005889,15.046851 L25.7005889,4.65710524 L28.8268551,4.65710524 L28.8268551,15.046851 L25.7005889,15.046851 Z M27.1804122,0.000254971246 C28.2872438,-0.0163735883 29.1049117,0.684575625 29.1173969,1.66078293 C29.1294111,2.59674912 28.3128033,3.33550059 27.258033,3.34292801 C26.1947821,3.35057715 25.3718139,2.64552622 25.3476678,1.70678861 C25.3237574,0.769602993 26.1330624,0.0159966743 27.1804122,0.000254971246 Z"></path>
            </g>
        </g>
    </g>
</svg>