<?xml version="1.0" encoding="utf-8"?>
<!-- Generator: Adobe Illustrator 19.2.0, SVG Export Plug-In . SVG Version: 6.00 Build 0)  -->
<svg version="1.1"
	 id="svg2" xmlns:cc="http://creativecommons.org/ns#" xmlns:dc="http://purl.org/dc/elements/1.1/" xmlns:rdf="http://www.w3.org/1999/02/22-rdf-syntax-ns#" xmlns:svg="http://www.w3.org/2000/svg"
	 xmlns="http://www.w3.org/2000/svg" xmlns:xlink="http://www.w3.org/1999/xlink" x="0px" y="0px" viewBox="0 0 900 190"
	 style="enable-background:new 0 0 900 190;" xml:space="preserve">
<style type="text/css">
	.st0{fill:#1E347B;}
</style>
<g id="g10" transform="matrix(1.25,0,0,-1.25,-491.12492,1130.2403)">
	<g id="g3981" transform="matrix(5.7147952,0,0,5.7147952,-1946.739,-3647.8916)">
		<path id="path120" class="st0" d="M516.4,780.7L516.4,780.7v-6.6h3.7v6.6c0,2.5,1,3.3,2.7,3.3h1.3v3.3h-1.6
			C518.6,787.3,516.4,784.9,516.4,780.7L516.4,780.7z"/>
		<path id="path130" class="st0" d="M463.8,780.7L463.8,780.7v-6.6h3.7v6.6c0,2.5,1,3.3,2.7,3.3h1.3v3.3h-1.6
			C466,787.3,463.8,784.9,463.8,780.7L463.8,780.7z"/>
		<path id="path140" class="st0" d="M525.6,788.3L525.6,788.3c0,0.5,0,2.2,1.6,3.2c1.1,0.6,2.1,0.6,3.3,0.6h1.4v-2.9h-0.8
			c-0.6,0-1.1,0-1.4-0.6c-0.2-0.3-0.2-0.5-0.2-1v-0.4h2.5v-3h-2.5v-7.6c0,0-0.1-2.4-2.1-2.4h-1.7
			C525.6,774.1,525.5,787.9,525.6,788.3L525.6,788.3z"/>
		<path id="path150" class="st0" d="M419.3,777.5L419.3,777.5c0.5,0,1.1,0,1.6,0c0.8,0,1.5,0.1,2.1,0.8c0.4,0.6,0.4,1.1,0.4,1.4
			c0,1.5-1.1,2-1.6,2.1c-0.4,0.1-1.2,0.1-2.1,0.1h-2.6V778c0,0,0-0.5,0.5-0.5H419.3z M419.1,785.1L419.1,785.1c1.4,0,2.3,0,2.9,0.2
			c0.4,0.2,1,0.6,1,1.7c0,1-0.7,1.4-1.1,1.5c-0.5,0.2-1.2,0.2-2.4,0.2h-2.6v-3.6L419.1,785.1L419.1,785.1z M418.9,792.1L418.9,792.1
			c1,0,2,0,2.9,0c0.7-0.1,2.6-0.2,4.1-1.7c0.7-0.8,1.1-1.7,1.1-2.8c0-0.7-0.1-2.3-1.7-3.3c-0.4-0.3-0.5-0.3-0.9-0.4
			c0.6-0.3,1-0.5,1.2-0.7c0.7-0.5,1.9-1.6,1.9-3.7c0-0.5-0.1-1.8-0.9-3c-1.7-2.4-4.8-2.3-5.5-2.3c-0.9,0-1.7,0-2.5,0h-3.1
			c-2.5,0-2.6,2.6-2.6,2.6v15.4H418.9z"/>
		<path id="path160" class="st0" d="M443.4,787.1L443.4,787.1h3.8v-13h-3.8V787.1z"/>
		<path id="path170" class="st0" d="M489.6,780.6L489.6,780.6c0-1.7,0.5-2.5,1-3.1c0.5-0.6,1.1-0.8,1.8-0.8s1.3,0.3,1.5,0.4
			c0.8,0.6,1.3,1.6,1.3,3.6c0,0.3,0.1,2.2-1.1,3.2c-0.3,0.2-0.8,0.6-1.6,0.6C491.1,784.4,489.6,783.4,489.6,780.6z M499,792.1
			L499,792.1v-18h-3.8c0,0,0,1,0.1,1.5c-0.3-0.6-0.6-0.9-0.8-1.1c-1-0.9-2.5-0.9-2.9-0.9c-0.4,0-1.4,0-2.5,0.5
			c-1.5,0.7-3.4,2.6-3.4,6.3c0,0.5,0,1.7,0.5,3c0.8,2.4,2.8,4.1,5.4,4.1c1.4,0,2.4-0.5,2.9-0.9c0.3-0.3,0.4-0.5,0.5-0.6v3.7
			c0,0,0,2.3,2.5,2.3L499,792.1L499,792.1z"/>
		<path id="path180" class="st0" d="M437.9,782.2L437.9,782.2c0,0.1,0,0.3-0.1,0.6c-0.3,1.2-1.3,1.9-2.5,1.9c-1.2,0-2.2-0.7-2.6-1.8
			c-0.1-0.3-0.1-0.6-0.2-0.7L437.9,782.2L437.9,782.2z M432.5,779.5L432.5,779.5c0-0.6,0.2-1.1,0.5-1.6c0.7-1.2,1.9-1.3,2.4-1.3
			c1.4,0,2,0.7,2.3,1.2h3.9c-1.4-4-5-4.3-6.4-4.3c-1.2,0-2.1,0.3-2.5,0.4c-2.8,1-4.2,3.6-4.2,6.4c0,0.7,0.1,2.9,1.5,4.7
			c0.7,0.9,2.3,2.4,5.2,2.4c0.4,0,1.5,0,2.7-0.5c1.3-0.6,3-1.9,3.6-5c0-0.3,0.2-1.2,0.2-2.1c0-0.1,0-0.3,0-0.4L432.5,779.5
			L432.5,779.5z"/>
		<path id="path190" class="st0" d="M458.3,782.2L458.3,782.2c0,0.1,0,0.3-0.1,0.6c-0.3,1.2-1.3,1.9-2.5,1.9c-1.2,0-2.2-0.7-2.6-1.8
			c-0.1-0.3-0.2-0.6-0.2-0.7L458.3,782.2L458.3,782.2z M452.9,779.5L452.9,779.5c0-0.6,0.2-1.1,0.5-1.6c0.8-1.2,1.9-1.3,2.4-1.3
			c1.4,0,2,0.7,2.3,1.2h3.9c-1.4-4-4.9-4.3-6.4-4.3c-1.2,0-2.1,0.3-2.5,0.4c-2.8,1-4.2,3.6-4.2,6.4c0,0.7,0.1,2.9,1.5,4.7
			c0.7,0.9,2.3,2.4,5.2,2.4c0.5,0,1.6,0,2.7-0.5c1.3-0.6,3-1.9,3.6-5c0-0.3,0.2-1.2,0.2-2.1c0-0.1,0-0.3,0-0.4L452.9,779.5
			L452.9,779.5z"/>
		<path id="path200" class="st0" d="M480.7,783.2L480.7,783.2c0,0.3-0.1,0.4-0.3,0.7c-0.3,0.5-0.9,0.9-2.1,0.9c-0.4,0-0.6,0-0.7,0
			c-0.8-0.2-1.1-0.7-1.1-1.1c0-0.4,0.4-0.7,0.5-0.7c0.2-0.1,0.8-0.3,1.5-0.4l1.4-0.3l1.2-0.3c1.3-0.3,2.4-0.7,3-2
			c0.1-0.3,0.4-0.9,0.4-1.7c0-0.4,0-1.5-0.8-2.5c-0.7-1.1-2.2-2-5.1-2c-2.9,0-4.3,0.9-5.1,1.9c-0.4,0.5-0.9,1.3-1.1,2.8h3.6
			c0-0.1,0-0.6,0.3-1c0.3-0.4,1.1-0.9,2.3-0.9c0.1,0,0.4,0,0.8,0.1c0.1,0,1.2,0.3,1.2,1.2s-0.8,1-2.2,1.3c-2.5,0.6-3.7,0.8-4.6,1.7
			c-1,0.9-1,2-1,2.5c0,1.1,0.4,1.9,0.7,2.3c0.7,1.1,2.1,2,4.9,2c0.6,0,3.3,0,4.9-1.9c0.8-1,0.9-2,0.9-2.4L480.7,783.2L480.7,783.2z"
			/>
		<path id="path210" class="st0" d="M504.6,780.6L504.6,780.6c0-3,1.7-3.9,3.1-3.9c0.2,0,0.8,0,1.4,0.3c0.9,0.5,1.7,1.5,1.7,3.7
			c0,0.2,0,1-0.3,1.8c-0.2,0.7-0.9,2-2.9,2C506.3,784.5,504.6,783.7,504.6,780.6L504.6,780.6z M512.4,786L512.4,786
			c1.6-1.3,2.3-3.4,2.3-5.3c0-2.9-1.6-5.7-4.5-6.6c-0.5-0.2-1.3-0.3-2.5-0.3c-0.5,0-1.6,0-2.8,0.4c-2.7,1-4.1,3.6-4.1,6.5
			c0,2.5,1.1,4.1,1.8,4.9c0.8,0.8,2.5,2,5.3,2C508.6,787.5,510.6,787.4,512.4,786L512.4,786z"/>
		<path id="path220" class="st0" d="M447.5,790.9L447.5,790.9c0-1.1-1-2-2.2-2c-1.2,0-2.2,0.9-2.2,2c0,1.2,1,2,2.2,2
			C446.5,792.9,447.5,792,447.5,790.9z"/>
	</g>
</g>
</svg>
