<svg id="Layer_1" data-name="Layer 1" xmlns="http://www.w3.org/2000/svg" viewBox="0 0 466.22 77.19"><defs><style>.cls-1{fill:#023299;}.cls-1,.cls-2{fill-rule:evenodd;}.cls-2{fill:#cc0002;}</style></defs><title>logo</title><path class="cls-1" d="M68.47,38A3.69,3.69,0,0,1,72.4,41.9C72.4,44,72,46,72,48.32c0,1.66.41,3.31.41,5,0,2.9-2.69,4.35-5.17,4.35-3.31,0-5-1.66-4.76-5,0-1.86.21-2.69-1-4.14a7.46,7.46,0,0,0-5.38-1.86c-7.86,0-8.69,7.66-8.69,13.86,0,6.41.83,13.45,8.9,13.45,1.86,0,3.72-.21,5-1.45,1.45-1.45,1.45-2.69,1.45-4.55A6.47,6.47,0,0,1,63.5,64a4.4,4.4,0,0,1,3.93-1.66c3.93,0,5.79,2.9,5.79,6.62,0,9.52-8.9,13.87-17.38,13.87-5.59,0-11.17-1.66-15.11-6C37,72.94,35.36,66.11,35.36,60.53c0-5,1-11.17,3.72-15.52a17.86,17.86,0,0,1,14.69-7.45,13.93,13.93,0,0,1,10.76,4.55A3.65,3.65,0,0,1,68.47,38Z" transform="translate(-35.36 -26.38)"/><path class="cls-1" d="M89,57.21c0,2.9-2.69,4.14-5.38,4.14A5.52,5.52,0,0,1,78,56c0-6.41,8.69-7.45,13.45-7.45,3.31,0,7.45.21,10.14,1.86,3.72,2.07,4.14,5.79,4.14,9.52V71.7c0,.83-.21,2.9,1,2.9h1.45c2.07,0,3.1,1.66,3.1,3.52,0,3.52-3.52,4.76-6.41,4.76s-6-1-7-3.93A16.09,16.09,0,0,1,87.1,82.87c-5.59,0-11.17-3.1-11.17-9.31,0-14.9,19.45-7.24,19.45-15.52,0-2.28-2.28-3.52-4.35-3.52-1,0-2.07.21-2.07,1.45v1.24Zm6.41,10.55c-1.86,1.86-9.1,1-9.1,4.35,0,2.07,1.86,2.9,3.52,2.9,3.72,0,5.59-2.28,5.59-6V67.77Z" transform="translate(-35.36 -26.38)"/><path class="cls-1" d="M119.58,61.15c0-.83.21-4.35-1-4.35-.62,0-1.24.41-2.07.41-2.07,0-2.9-1.66-2.9-3.52,0-2.28,1-4.35,3.1-4.35,1.86.21,3.1.62,4.35.62a28.5,28.5,0,0,0,4.14-.62c1.86,0,2.07,1.24,2.07,2.69V56.8c1-5.17,4.76-8.07,10.14-8.07a8.08,8.08,0,0,1,8.28,7.86c0,3.1-2.07,6.21-5.38,6.21a4.08,4.08,0,0,1-4.35-4.14,5.52,5.52,0,0,1,.62-2.48c-7-.41-7.24,9.1-7.24,14.07,0,.83-.21,4.35,1.24,4.35.62,0,1.24-.41,2.07-.41,2.07,0,2.69,1.66,2.69,3.52,0,2.48-1,4.35-3.1,4.35-3.31,0-5.79-.62-8.48-.62-2.28,0-4.76.62-7,.62-2.07,0-3.1-1.86-3.1-4.35,0-1.86.83-3.52,2.9-3.52.83,0,1.45.41,2.07.41,1.24,0,1-3.52,1-4.35v-9.1Z" transform="translate(-35.36 -26.38)"/><path class="cls-1" d="M153.93,61.15c0-.83.21-4.35-1-4.35-.83,0-1.45.41-2.07.41-2.07,0-2.9-1.66-2.9-3.52,0-2.28,1-4.35,3.1-4.35,1.86.21,3.1.62,4.35.62a28.5,28.5,0,0,0,4.14-.62c1.86,0,1.86,1.24,1.86,2.69V56.8c1.24-5.17,5-8.07,10.35-8.07A8.08,8.08,0,0,1,180,56.59c0,3.1-2.07,6.21-5.38,6.21a4.25,4.25,0,0,1-4.55-4.14,5.88,5.88,0,0,1,.83-2.48c-7-.41-7.24,9.1-7.24,14.07,0,.83-.21,4.35,1.24,4.35.62,0,1.24-.41,2.07-.41,2.07,0,2.69,1.66,2.69,3.52,0,2.48-1,4.35-3.1,4.35-3.31,0-5.79-.62-8.48-.62-2.28,0-4.76.62-7,.62-2.07,0-3.1-1.86-3.1-4.35,0-1.86.83-3.52,2.9-3.52.62,0,1.24.41,2.07.41,1.24,0,1-3.52,1-4.35v-9.1Z" transform="translate(-35.36 -26.38)"/><path class="cls-1" d="M194.08,67.35c-1.24,0-2.9-.41-2.9,1.45A6.27,6.27,0,0,0,197.6,75c5.38,0,5-5,9.93-5A3.86,3.86,0,0,1,211.67,74c0,2.69-2.07,5-4.14,6.41a19.4,19.4,0,0,1-10.14,2.48c-10.14,0-16.55-6.83-16.55-17,0-9.93,6.21-17.38,16.35-17.38,3.72,0,7.86.83,10.55,3.31,3.1,2.69,4.55,7,4.55,11,0,3.72-.41,4.55-4.14,4.55Zm5.79-6.83c1,0,2.07.21,2.07-1a4.1,4.1,0,0,0-1.24-2.69,5.07,5.07,0,0,0-3.31-1.24A5.47,5.47,0,0,0,193,57.21c-.62.62-1.66,1.66-1.66,2.48,0,1,2.07.83,2.69.83Z" transform="translate(-35.36 -26.38)"/><path class="cls-1" d="M229.05,70.25c0,.83-.21,4.35,1.24,4.35.62,0,1.24-.41,2.07-.41,2.07,0,2.69,1.66,2.69,3.52,0,2.48-1,4.35-3.72,4.35s-5.17-.62-7.66-.62-4.76.62-6.83.62c-2.48,0-3.52-1.86-3.52-4.35,0-1.86.62-3.52,2.69-3.52.83,0,1.45.41,2.07.41,1.45,0,1.24-3.52,1.24-4.35V58.87c0-2.28,0-2.48-2.07-2.48-2.48,0-3.93-.62-3.93-3.31s1-3.73,3.52-3.73c1.86,0,2.48.21,2.48-2.07.21-6.83,6.21-9.73,12.42-9.73A13.87,13.87,0,0,1,238.16,39a6.43,6.43,0,0,1,3.73,5.59,4.56,4.56,0,0,1-4.76,4.76A3.94,3.94,0,0,1,233,45.63,4.86,4.86,0,0,1,233.4,44a2.24,2.24,0,0,0-1.24-.21c-2.28,0-3.1,1.45-3.1,3.52s.21,2.07,2.28,2.07c2.48,0,4.35.21,4.35,3.31,0,2.9-1.24,3.72-3.93,3.72-2.48,0-2.69-.21-2.69,2.48V70.25Z" transform="translate(-35.36 -26.38)"/><path class="cls-1" d="M269.4,65.28c0,10.35-5.17,17.59-16.14,17.59-10.76,0-16.55-6.62-16.55-17.18,0-10.76,5.79-17.18,16.55-17.18,10.14,0,16.14,6.62,16.14,16.76Zm-16.14-8.9c-5.17,0-6.42,5.17-6.42,9.31,0,3.72,1.24,9.31,5.79,9.31,2.28,0,4.14-.62,5.17-2.69a15.33,15.33,0,0,0,1.45-6.62c0-4.14-1-9.31-6-9.31Z" transform="translate(-35.36 -26.38)"/><path class="cls-1" d="M274,61.15c0-.83.21-4.35-1.24-4.35-.62,0-1.24.41-2.07.41-2.07,0-2.69-1.66-2.69-3.52,0-2.28,1-4.35,5.79-4.35a22.28,22.28,0,0,0,3.93.62,31.31,31.31,0,0,0,4.35-.62c2.07,0,1.66,1.86,1.66,3.52v14.9c0,1.24,0,3.52.83,4.76A4.29,4.29,0,0,0,288,74.39a5.19,5.19,0,0,0,4.55-2.48A11.71,11.71,0,0,0,294,65.49V61.15c0-.83.21-4.35-1.24-4.35-.62,0-1.24.41-2.07.41-2.07,0-2.69-1.66-2.69-3.52,0-2.28,1-4.35,5.38-4.35a22.28,22.28,0,0,0,3.93.62,31.31,31.31,0,0,0,4.35-.62c2.28,0,2.07,1.45,2.07,3.1v17.8c0,.83-.21,4.35,1,4.35.62,0,1.24-.41,2.07-.41,2.07,0,2.9,1.66,2.9,3.52,0,2.48-1.24,4.35-3.72,4.35-1.66,0-3.1-.62-4.55-.62-1.24,0-2.69.62-3.93.62-2.28,0-2.28-2.07-2.28-3.31V77.49c-2.28,3.52-6.83,5.38-11,5.38-3.31,0-7-1.24-8.9-3.93-1.66-2.69-1.45-6.41-1.45-9.52V61.15Z" transform="translate(-35.36 -26.38)"/><path class="cls-1" d="M318.24,61.15c0-.83.21-4.35-1.24-4.35-.62,0-1.24.41-2.07.41-2.07,0-2.69-1.66-2.69-3.52,0-2.28,1-4.35,3.1-4.35,1.86.21,3.1.62,4.35.62a28.5,28.5,0,0,0,4.14-.62c1.86,0,1.86,1.24,1.86,2.69V56.8c1.24-5.17,5-8.07,10.35-8.07a7.9,7.9,0,0,1,8.07,7.86c0,3.1-1.86,6.21-5.38,6.21a4.19,4.19,0,0,1-4.35-4.14,5.88,5.88,0,0,1,.83-2.48c-7-.41-7.24,9.1-7.24,14.07,0,.83-.21,4.35,1.24,4.35.62,0,1.24-.41,2.07-.41,2.07,0,2.69,1.66,2.69,3.52,0,2.48-1,4.35-3.1,4.35-3.52,0-6-.62-8.48-.62-2.28,0-4.76.62-7,.62-2.07,0-3.1-1.86-3.1-4.35,0-1.86.62-3.52,2.69-3.52.83,0,1.45.41,2.07.41,1.45,0,1.24-3.52,1.24-4.35v-9.1Z" transform="translate(-35.36 -26.38)"/><path class="cls-1" d="M501.58,65.08a2.17,2.17,0,0,1-.62,1.24l-34.14,33.94c-1.24,1.45-2.07.62-1.66-.41a36.57,36.57,0,0,0,3.31-7.66c1.86-6,1.86-11,1-13.86A11.37,11.37,0,0,0,458.33,70c-9.31,0-12,8.48-11.8,11.59.21,2.07,0,5.17,3.31,8.07a5.49,5.49,0,0,0,5.38,1.24c.62,0,1.86-.83,1.86,1.24,0,2.28-2.07,5.17-3.31,6.62a19.72,19.72,0,0,1-12.62,4.76,15.93,15.93,0,0,1-12-5.59,28.76,28.76,0,0,1-5.59-11,63.53,63.53,0,0,1-3.31-21.93,70.24,70.24,0,0,1,3.31-21.73A34.36,34.36,0,0,1,429.15,32a15.62,15.62,0,0,1,12-5.59,18.54,18.54,0,0,1,12.62,5c1.24,1.24,3.31,4.14,3.31,6.62,0,1.86-1.24,1-1.86,1a5.49,5.49,0,0,0-5.38,1.24c-3.31,2.9-3.1,6.21-3.31,8.07a11.49,11.49,0,0,0,11.8,11.59,11.15,11.15,0,0,0,11.17-8.28c.83-2.9.83-7.86-1-13.66a39.88,39.88,0,0,0-3.31-7.86c-.41-.83.41-1.86,1.66-.41L501,63.63a2.28,2.28,0,0,1,.62,1.45Z" transform="translate(-35.36 -26.38)"/><path class="cls-2" d="M376.18,64.66a2.12,2.12,0,0,0,.83,1.45l36.21,34.76c1,.83,1.24,0,1-.62-.21-.41-.41-.62-1.45-2.28-9.93-14.28-9.73-33.32-9.73-33.32s-.21-19,9.73-33.11a12.68,12.68,0,0,0,1.45-2.48c.21-.62,0-1.45-1-.62L377,63.21a2.12,2.12,0,0,0-.83,1.45Z" transform="translate(-35.36 -26.38)"/></svg>