<svg width="16" height="16" viewBox="0 0 16 16" xmlns="http://www.w3.org/2000/svg"><title>64C1571D-74D0-440D-B9F8-5C6964D9DCCE</title><path d="M13.1 4.697H2.9a.39.39 0 0 1-.4-.378c0-.21.18-.38.4-.38h10.2c.22 0 .4.17.4.38a.39.39 0 0 1-.4.378zm0 2.409H2.9a.39.39 0 0 1-.4-.38.39.39 0 0 1 .4-.38h10.2c.22 0 .4.17.4.38s-.18.38-.4.38zM11.6 9.54H4.4a.39.39 0 0 1-.4-.38.39.39 0 0 1 .4-.378h7.2c.22 0 .4.17.4.379 0 .21-.18.38-.4.38zM2 1.674c-.434 0-.8.39-.8.853v8.314c0 .462.366.853.8.853h2.22c.218 0 .397.167.4.375l.022 1.905 3.276-2.212a.427.427 0 0 1 .232-.069H14c.433 0 .8-.39.8-.851V2.525c0-.462-.367-.851-.8-.851H2zm2.25 13.41a.43.43 0 0 1-.177-.037.378.378 0 0 1-.223-.338l-.026-2.255H2c-.882 0-1.6-.724-1.6-1.613V2.527c0-.89.718-1.612 1.6-1.612h12c.882 0 1.6.722 1.6 1.611v8.316c0 .888-.718 1.611-1.6 1.611H8.278l-3.796 2.562a.416.416 0 0 1-.232.07z" fill="#757F8A" fill-rule="evenodd"/></svg>