<svg xmlns="http://www.w3.org/2000/svg" xmlns:xlink="http://www.w3.org/1999/xlink" width="114" height="16" viewBox="0 0 114 16">
  <defs>
    <path id="customerlogo-a" d="M3.79475086,7 C3.54013119,6.96911462 3.28440928,6.92793411 3.02758512,6.87645848 L2.39599609,6.75062915 C3.14442358,4.01212537 5.57598624,2 8.45065323,2 C9.80642026,2 11.0629848,2.44840997 12.0913837,3.20796156 C11.8643203,3.56714711 11.5722241,3.95378632 11.2062773,4.34843285 C10.4203733,3.79020819 9.47243863,3.46190803 8.45065323,3.46190803 C6.27150574,3.46190803 4.42193089,4.95126973 3.79475086,7 Z M13.97885,1 C14.1100942,2.0071794 13.9866357,2.97738781 13.6585253,3.8826169 C13.4783426,4.38340577 13.2336501,4.86402864 12.9366823,5.32112452 C11.2560897,7.90573284 7.8526392,9.72403336 4.25121026,9.9626643 C4.25121026,9.9626643 3.50601033,10.0377266 2.73077995,9.97498796 C2.5138934,9.33303713 2.39599609,8.64515264 2.39599609,7.93038017 C2.39599609,7.62116825 2.41824087,7.317558 2.46050594,7.01954941 C3.48487779,7.4127863 8.06952575,7.99199848 12.2048293,4.40021077 C12.5551845,4.03050087 12.8543767,3.6518283 13.1024059,3.2821184 C13.6918924,2.40153663 13.9933091,1.56688852 13.97885,1 Z M4.57555999,13 C4.09089052,12.5292075 3.67985565,11.9799495 3.36553486,11.3732239 L3.74140098,11.3721187 C4.15133683,11.3699084 4.56237171,11.3489106 4.97010952,11.3080202 C8.14079301,10.9952637 11.1598112,9.53646985 13.0589243,7.35159457 C13.2182827,7.1681402 13.3677499,6.98137038 13.5073259,6.79239027 C13.6996551,6.53268077 13.8733008,6.26855068 14.0304612,6 C13.9678169,6.19450584 13.8963803,6.39453742 13.8128545,6.60009473 C13.6282185,7.05320493 13.3886314,7.52731291 13.095192,8.0036312 C10.2893844,11.6837701 6.65051682,12.7778655 4.57555999,13 Z M14.4050522,5 C14.7860371,5.81607077 15,6.72723922 15,7.68816808 C15,11.1691854 12.2031996,14 8.7677855,14 C8.58111381,14 8.39662541,13.9900479 8.21322867,13.9745669 C10.8451903,12.6133432 12.9531613,10.4592702 13.888703,8.05197199 C14.1059409,7.49244379 14.2598631,6.92075194 14.3428283,6.34242536 C14.4072355,5.897899 14.4279768,5.4489495 14.4050522,5 Z"/>
  </defs>
  <g fill="none" fill-rule="evenodd">
    <path fill="#FFF" d="M21.536,3.256 C21.536,2.42399584 21.9679957,2.008 22.832,2.008 L25.808,2.008 C26.0106677,2.008 26.2239989,2.01866656 26.448,2.04 C26.6720011,2.06133344 26.8746658,2.08799984 27.056,2.12 C27.514669,2.21600048 27.9173316,2.3706656 28.264,2.584 C28.6106684,2.7973344 28.8986655,3.05866512 29.128,3.368 C29.3573345,3.67733488 29.5279994,4.0186648 29.64,4.392 C29.7520006,4.7653352 29.808,5.15999792 29.808,5.576 C29.808,5.87466816 29.7680004,6.17599848 29.688,6.48 C29.6079996,6.78400152 29.4906674,7.07466528 29.336,7.352 C29.1813326,7.62933472 28.9866678,7.88533216 28.752,8.12 C28.5173322,8.35466784 28.2400016,8.54666592 27.92,8.696 C28.0906675,8.93066784 28.2959988,9.22933152 28.536,9.592 C28.7760012,9.95466848 29.0213321,10.3386646 29.272,10.744 C29.5226679,11.1493354 29.7573322,11.551998 29.976,11.952 C30.1946678,12.352002 30.3786659,12.7013318 30.528,13 L27.872,13 C27.797333,12.8399992 27.6773342,12.6026682 27.512,12.288 C27.3466658,11.9733318 27.1573344,11.6320018 26.944,11.264 C26.7306656,10.8959982 26.5040012,10.5253352 26.264,10.152 C26.0239988,9.7786648 25.7973344,9.44800144 25.584,9.16 C25.242665,9.16 24.9466679,9.15733336 24.696,9.152 C24.4453321,9.14666664 24.149335,9.12800016 23.808,9.096 L23.808,13 L21.536,13 L21.536,3.256 Z M27.44,5.56 C27.44,5.19733152 27.3653341,4.87733472 27.216,4.6 C27.0666659,4.32266528 26.7946686,4.12000064 26.4,3.992 C26.2719994,3.94933312 26.1146676,3.91733344 25.928,3.896 C25.7413324,3.87466656 25.5573342,3.864 25.376,3.864 L23.808,3.864 L23.808,7.176 C23.8613336,7.19733344 23.983999,7.2213332 24.176,7.248 C24.368001,7.2746668 24.6559981,7.288 25.04,7.288 C25.5093357,7.288 25.8986651,7.24000048 26.208,7.144 C26.5173349,7.04799952 26.7626658,6.9200008 26.944,6.76 C27.1253342,6.5999992 27.253333,6.41600104 27.328,6.208 C27.402667,5.99999896 27.44,5.78400112 27.44,5.56 Z M34.624,2.424 C34.624,2.76533504 34.5013346,3.0559988 34.256,3.296 C34.0106654,3.5360012 33.7120018,3.656 33.36,3.656 C33.018665,3.656 32.7253346,3.5360012 32.48,3.296 C32.2346654,3.0559988 32.112,2.76533504 32.112,2.424 C32.112,2.08266496 32.2346654,1.79466784 32.48,1.56 C32.7253346,1.32533216 33.018665,1.208 33.36,1.208 C33.7120018,1.208 34.0106654,1.32533216 34.256,1.56 C34.5013346,1.79466784 34.624,2.08266496 34.624,2.424 Z M32.256,5.8 C32.256,5.43733152 32.3626656,5.18666736 32.576,5.048 C32.7893344,4.90933264 33.0719982,4.84 33.424,4.84 C33.6693346,4.84 33.895999,4.8666664 34.104,4.92 C34.312001,4.9733336 34.4426664,5.01066656 34.496,5.032 L34.496,13 L32.256,13 L32.256,5.8 Z M44.864,5.304 C44.8106664,5.50666768 44.7093341,5.807998 44.56,6.208 C44.4106659,6.608002 44.2293344,7.05866416 44.016,7.56 C43.8026656,8.06133584 43.5733346,8.58933056 43.328,9.144 C43.0826654,9.69866944 42.8373346,10.2319974 42.592,10.744 C42.3466654,11.2560026 42.1173344,11.7253312 41.904,12.152 C41.6906656,12.5786688 41.5093341,12.9146654 41.36,13.16 L39.12,13.16 C38.7999984,12.5733304 38.4720017,11.9360034 38.136,11.248 C37.7999983,10.5599966 37.4906681,9.90666976 37.208,9.288 C36.9253319,8.66933024 36.6853343,8.1333356 36.488,7.68 C36.2906657,7.2266644 36.1706669,6.94133392 36.128,6.824 C36.053333,6.65333248 35.9920002,6.49333408 35.944,6.344 C35.8959998,6.19466592 35.872,6.02933424 35.872,5.848 C35.872,5.71999936 35.8906665,5.59733392 35.928,5.48 C35.9653335,5.36266608 36.0266662,5.25600048 36.112,5.16 C36.1973338,5.06399952 36.3119993,4.98666696 36.456,4.928 C36.6000007,4.86933304 36.7839989,4.84 37.008,4.84 C37.3280016,4.84 37.5653326,4.87199968 37.72,4.936 C37.8746674,5.00000032 37.9573333,5.03733328 37.968,5.048 C38.0960006,5.4213352 38.2613323,5.87999728 38.464,6.424 C38.6666677,6.96800272 38.8799989,7.52266384 39.104,8.088 C39.3280011,8.65333616 39.5466656,9.19733072 39.76,9.72 C39.9733344,10.2426693 40.1546659,10.6639984 40.304,10.984 C40.3573336,10.8773328 40.4613326,10.6453351 40.616,10.288 C40.7706674,9.93066488 40.943999,9.5120024 41.136,9.032 C41.328001,8.5519976 41.527999,8.04266936 41.736,7.504 C41.944001,6.96533064 42.1333325,6.46133568 42.304,5.992 C42.4426674,5.60799808 42.6053324,5.32000096 42.792,5.128 C42.9786676,4.93599904 43.2746646,4.84 43.68,4.84 C44.021335,4.84 44.2933323,4.90399936 44.496,5.032 C44.6986677,5.16000064 44.8213331,5.2506664 44.864,5.304 Z M53.808,7.72 C53.808,8.05066832 53.7626671,8.349332 53.672,8.616 C53.5813329,8.882668 53.4373343,9.1093324 53.24,9.296 C53.0426657,9.4826676 52.781335,9.62666616 52.456,9.728 C52.130665,9.82933384 51.7280024,9.88 51.248,9.88 L48.048,9.88 C48.1440005,10.3173355 48.3999979,10.6879985 48.816,10.992 C49.2320021,11.2960015 49.7813299,11.448 50.464,11.448 C51.1466701,11.448 51.6719982,11.3973338 52.04,11.296 C52.4080018,11.1946662 52.6346662,11.1226669 52.72,11.08 L53.328,12.664 C53.3066666,12.6853334 53.2160008,12.7279997 53.056,12.792 C52.8959992,12.8560003 52.6800014,12.9226663 52.408,12.992 C52.1359986,13.0613337 51.8133352,13.125333 51.44,13.184 C51.0666648,13.242667 50.650669,13.272 50.192,13.272 C49.5519968,13.272 48.9626694,13.1866675 48.424,13.016 C47.8853306,12.8453325 47.416002,12.5840018 47.016,12.232 C46.615998,11.8799982 46.3040011,11.437336 46.08,10.904 C45.8559989,10.370664 45.744,9.74133696 45.744,9.016 C45.744,8.34399664 45.847999,7.73600272 46.056,7.192 C46.264001,6.64799728 46.5573314,6.18133528 46.936,5.792 C47.3146686,5.40266472 47.770664,5.1013344 48.304,4.888 C48.837336,4.6746656 49.4293301,4.568 50.08,4.568 C50.688003,4.568 51.2239977,4.65066584 51.688,4.816 C52.1520023,4.98133416 52.5413318,5.20799856 52.856,5.496 C53.1706682,5.78400144 53.4079992,6.11999808 53.568,6.504 C53.7280008,6.88800192 53.808,7.2933312 53.808,7.72 Z M51.696,7.528 C51.696,7.37866592 51.666667,7.21866752 51.608,7.048 C51.549333,6.87733248 51.4560006,6.72266736 51.328,6.584 C51.1999994,6.44533264 51.0293344,6.33066712 50.816,6.24 C50.6026656,6.14933288 50.3413349,6.104 50.032,6.104 C49.690665,6.104 49.3920013,6.17866592 49.136,6.328 C48.8799987,6.47733408 48.6666675,6.66399888 48.496,6.888 C48.3253325,7.11200112 48.1973338,7.357332 48.112,7.624 C48.0266662,7.890668 47.984,8.14666544 47.984,8.392 L50.848,8.392 C51.2000018,8.392 51.4293328,8.32000072 51.536,8.176 C51.6426672,8.03199928 51.696,7.81600144 51.696,7.528 Z M59.536,6.424 C59.0879978,6.424 58.7413346,6.46933288 58.496,6.56 C58.2506654,6.65066712 58.0800005,6.7226664 57.984,6.776 L57.984,13 L55.744,13 L55.744,5.544 C55.7866669,5.51199984 55.903999,5.4426672 56.096,5.336 C56.288001,5.2293328 56.5413318,5.12000056 56.856,5.008 C57.1706682,4.89599944 57.5359979,4.79466712 57.952,4.704 C58.3680021,4.61333288 58.8213309,4.568 59.312,4.568 C59.6106682,4.568 59.893332,4.58933312 60.16,4.632 C60.426668,4.67466688 60.6613323,4.73866624 60.864,4.824 C61.0666677,4.90933376 61.2266661,5.02133264 61.344,5.16 C61.4613339,5.29866736 61.52,5.46933232 61.52,5.672 C61.52,5.97066816 61.4613339,6.20533248 61.344,6.376 C61.2266661,6.54666752 61.1253338,6.67466624 61.04,6.76 C61.0079998,6.72799984 60.9386672,6.69333352 60.832,6.656 C60.7253328,6.61866648 60.6026674,6.58133352 60.464,6.544 C60.3253326,6.50666648 60.1733342,6.47733344 60.008,6.456 C59.8426658,6.43466656 59.6853341,6.424 59.536,6.424 Z M68.32,3.16 C68.4266672,2.7333312 68.583999,2.43466752 68.792,2.264 C69.000001,2.09333248 69.3066646,2.008 69.712,2.008 C70.053335,2.008 70.3093325,2.04266632 70.48,2.112 C70.6506675,2.18133368 70.7679997,2.23733312 70.832,2.28 C70.8960003,2.57866816 70.9786662,2.94666448 71.08,3.384 C71.1813338,3.82133552 71.2933327,4.29866408 71.416,4.816 C71.5386673,5.33333592 71.6639994,5.86666392 71.792,6.416 C71.9200006,6.96533608 72.0479994,7.49866408 72.176,8.016 C72.3040006,8.53333592 72.4239994,9.01599776 72.536,9.464 C72.6480006,9.91200224 72.7466662,10.2853318 72.832,10.584 C72.9600006,10.2106648 73.0986659,9.78133576 73.248,9.296 C73.3973341,8.81066424 73.5466659,8.30933592 73.696,7.792 C73.8453341,7.27466408 73.9919993,6.75733592 74.136,6.24 C74.2800007,5.72266408 74.4106661,5.24800216 74.528,4.816 C74.6453339,4.38399784 74.7466662,4.01066824 74.832,3.696 C74.9173338,3.38133176 74.9813331,3.16533392 75.024,3.048 C75.1306672,2.71733168 75.2826657,2.46133424 75.48,2.28 C75.6773343,2.09866576 75.9893312,2.008 76.416,2.008 C76.5973342,2.008 76.7626659,2.02933312 76.912,2.072 C77.0613341,2.11466688 77.1919994,2.1626664 77.304,2.216 C77.4160006,2.2693336 77.5039997,2.31999976 77.568,2.368 C77.6320003,2.41600024 77.6693333,2.44533328 77.68,2.456 C77.2639979,4.0026744 76.7466698,5.67199104 76.128,7.464 C75.5093302,9.25600896 74.8213371,11.1013238 74.064,13 L71.456,13 C71.3706662,12.7759989 71.2480008,12.3813362 71.088,11.816 C70.9279992,11.2506638 70.7573342,10.6186702 70.576,9.92 C70.3946658,9.22132984 70.2160009,8.51733688 70.04,7.808 C69.8639991,7.09866312 69.7226672,6.48800256 69.616,5.976 C69.4879994,6.52000272 69.3440008,7.11999672 69.184,7.776 C69.0239992,8.43200328 68.8560009,9.0799968 68.68,9.72 C68.5039991,10.3600032 68.3306675,10.9679971 68.16,11.544 C67.9893325,12.1200029 67.8346674,12.6053314 67.696,13 L65.104,13 C64.9439992,12.6053314 64.7653343,12.1520026 64.568,11.64 C64.3706657,11.1279974 64.1733343,10.5920028 63.976,10.032 L63.384,8.352 C63.1866657,7.7919972 63.0053342,7.2720024 62.84,6.792 C62.6746658,6.3119976 62.5333339,5.89333512 62.416,5.536 C62.2986661,5.17866488 62.2133336,4.9200008 62.16,4.76 C62.0426661,4.39733152 61.946667,4.07733472 61.872,3.8 C61.797333,3.52266528 61.76,3.26133456 61.76,3.016 C61.76,2.88799936 61.7786665,2.76533392 61.816,2.648 C61.8533335,2.53066608 61.9173329,2.42400048 62.008,2.328 C62.0986671,2.23199952 62.2159993,2.15466696 62.36,2.096 C62.5040007,2.03733304 62.6879989,2.008 62.912,2.008 C63.2320016,2.008 63.4826658,2.03999968 63.664,2.104 C63.8453342,2.16800032 63.9413333,2.20533328 63.952,2.216 C64.0373338,2.54666832 64.1439994,2.94133104 64.272,3.4 C64.4000006,3.85866896 64.5386659,4.34933072 64.688,4.872 C64.8373341,5.39466928 64.9946658,5.93333056 65.16,6.488 C65.3253342,7.04266944 65.4853326,7.5733308 65.64,8.08 C65.7946674,8.5866692 65.9413326,9.05866448 66.08,9.496 C66.2186674,9.93333552 66.3413328,10.2906653 66.448,10.568 C66.6186675,10.0133306 66.7919991,9.40000336 66.968,8.728 C67.1440009,8.05599664 67.3146658,7.38133672 67.48,6.704 C67.6453342,6.02666328 67.7999993,5.37866976 67.944,4.76 C68.0880007,4.14133024 68.2133328,3.60800224 68.32,3.16 Z M86.864,8.92 C86.864,9.52800304 86.760001,10.0959974 86.552,10.624 C86.343999,11.1520026 86.0453353,11.6106647 85.656,12 C85.2666647,12.3893353 84.8000027,12.6986655 84.256,12.928 C83.7119973,13.1573345 83.1040034,13.272 82.432,13.272 C81.7599966,13.272 81.1520027,13.1573345 80.608,12.928 C80.0639973,12.6986655 79.5973353,12.3893353 79.208,12 C78.8186647,11.6106647 78.520001,11.1520026 78.312,10.624 C78.103999,10.0959974 78,9.52800304 78,8.92 C78,8.31199696 78.103999,7.74400264 78.312,7.216 C78.520001,6.68799736 78.8186647,6.22933528 79.208,5.84 C79.5973353,5.45066472 80.0639973,5.14133448 80.608,4.912 C81.1520027,4.68266552 81.7599966,4.568 82.432,4.568 C83.1040034,4.568 83.7119973,4.68266552 84.256,4.912 C84.8000027,5.14133448 85.2666647,5.45066472 85.656,5.84 C86.0453353,6.22933528 86.343999,6.68799736 86.552,7.216 C86.760001,7.74400264 86.864,8.31199696 86.864,8.92 Z M84.592,8.92 C84.592,8.55733152 84.5466671,8.21866824 84.456,7.904 C84.3653329,7.58933176 84.2266676,7.31733448 84.04,7.088 C83.8533324,6.85866552 83.626668,6.677334 83.36,6.544 C83.093332,6.410666 82.7840018,6.344 82.432,6.344 C82.0799982,6.344 81.770668,6.410666 81.504,6.544 C81.237332,6.677334 81.0106676,6.85866552 80.824,7.088 C80.6373324,7.31733448 80.4986671,7.58933176 80.408,7.904 C80.3173329,8.21866824 80.272,8.55733152 80.272,8.92 C80.272,9.28266848 80.3173329,9.62133176 80.408,9.936 C80.4986671,10.2506682 80.6373324,10.5226655 80.824,10.752 C81.0106676,10.9813345 81.237332,11.162666 81.504,11.296 C81.770668,11.429334 82.0799982,11.496 82.432,11.496 C82.7840018,11.496 83.093332,11.429334 83.36,11.296 C83.626668,11.162666 83.8533324,10.9813345 84.04,10.752 C84.2266676,10.5226655 84.3653329,10.2506682 84.456,9.936 C84.5466671,9.62133176 84.592,9.28266848 84.592,8.92 Z M92.672,6.424 C92.2239978,6.424 91.8773346,6.46933288 91.632,6.56 C91.3866654,6.65066712 91.2160005,6.7226664 91.12,6.776 L91.12,13 L88.88,13 L88.88,5.544 C88.9226669,5.51199984 89.039999,5.4426672 89.232,5.336 C89.424001,5.2293328 89.6773318,5.12000056 89.992,5.008 C90.3066682,4.89599944 90.6719979,4.79466712 91.088,4.704 C91.5040021,4.61333288 91.9573309,4.568 92.448,4.568 C92.7466682,4.568 93.029332,4.58933312 93.296,4.632 C93.562668,4.67466688 93.7973323,4.73866624 94,4.824 C94.2026677,4.90933376 94.3626661,5.02133264 94.48,5.16 C94.5973339,5.29866736 94.656,5.46933232 94.656,5.672 C94.656,5.97066816 94.5973339,6.20533248 94.48,6.376 C94.3626661,6.54666752 94.2613338,6.67466624 94.176,6.76 C94.1439998,6.72799984 94.0746672,6.69333352 93.968,6.656 C93.8613328,6.61866648 93.7386674,6.58133352 93.6,6.544 C93.4613326,6.50666648 93.3093342,6.47733344 93.144,6.456 C92.9786658,6.43466656 92.8213341,6.424 92.672,6.424 Z M95.952,2.168 C95.952,1.80533152 96.0586656,1.55466736 96.272,1.416 C96.4853344,1.27733264 96.7679982,1.208 97.12,1.208 C97.3653346,1.208 97.591999,1.2346664 97.8,1.288 C98.008001,1.3413336 98.1386664,1.37866656 98.192,1.4 L98.192,7.896 C98.3733342,7.74666592 98.5866654,7.56800104 98.832,7.36 C99.0773346,7.15199896 99.3226654,6.9413344 99.568,6.728 C99.8133346,6.5146656 100.050666,6.30933432 100.28,6.112 C100.509334,5.91466568 100.703999,5.75200064 100.864,5.624 C101.024001,5.48533264 101.170666,5.36800048 101.304,5.272 C101.437334,5.17599952 101.565333,5.09866696 101.688,5.04 C101.810667,4.98133304 101.938666,4.9386668 102.072,4.912 C102.205334,4.8853332 102.357332,4.872 102.528,4.872 C102.752001,4.872 102.946666,4.90666632 103.112,4.976 C103.277334,5.04533368 103.415999,5.12533288 103.528,5.216 C103.640001,5.30666712 103.728,5.3919996 103.792,5.472 C103.856,5.5520004 103.898667,5.60799984 103.92,5.64 C103.781333,5.77866736 103.552002,5.98666528 103.232,6.264 C102.911998,6.54133472 102.570668,6.82933184 102.208,7.128 C101.845332,7.42666816 101.498668,7.709332 101.168,7.976 C100.837332,8.242668 100.592001,8.43466608 100.432,8.552 C100.794668,8.85066816 101.162665,9.1866648 101.536,9.56 C101.909335,9.9333352 102.269332,10.3173314 102.616,10.712 C102.962668,11.1066686 103.287998,11.5013314 103.592,11.896 C103.896002,12.2906686 104.165332,12.658665 104.4,13 L101.616,13 C101.370665,12.6693317 101.098668,12.333335 100.8,11.992 C100.501332,11.650665 100.200002,11.3200016 99.896,11 C99.5919985,10.6799984 99.2933348,10.3840014 99,10.112 C98.7066652,9.83999864 98.4373346,9.60266768 98.192,9.4 L98.192,13 L95.952,13 L95.952,2.168 Z M109.072,6.248 C108.442664,6.248 108.013334,6.32533256 107.784,6.48 C107.554666,6.63466744 107.44,6.82933216 107.44,7.064 C107.44,7.2773344 107.535999,7.44533272 107.728,7.568 C107.920001,7.69066728 108.239998,7.7786664 108.688,7.832 L110.064,8.008 C111.066672,8.13600064 111.797331,8.39733136 112.256,8.792 C112.714669,9.18666864 112.944,9.72532992 112.944,10.408 C112.944,11.2506709 112.616003,11.9306641 111.96,12.448 C111.303997,12.9653359 110.330673,13.224 109.04,13.224 C108.431997,13.224 107.890669,13.1760005 107.416,13.08 C106.941331,12.9839995 106.536002,12.8746673 106.2,12.752 C105.863998,12.6293327 105.597334,12.5120006 105.4,12.4 C105.202666,12.2879994 105.082667,12.2106669 105.04,12.168 L105.904,10.648 C105.936,10.6800002 106.034666,10.7413329 106.2,10.832 C106.365334,10.9226671 106.583999,11.0213328 106.856,11.128 C107.128001,11.2346672 107.447998,11.3279996 107.816,11.408 C108.184002,11.4880004 108.586664,11.528 109.024,11.528 C109.589336,11.528 109.991999,11.461334 110.232,11.328 C110.472001,11.194666 110.592,11.0000013 110.592,10.744 C110.592,10.4986654 110.493334,10.3146673 110.296,10.192 C110.098666,10.0693327 109.749336,9.97600032 109.248,9.912 L108.192,9.784 C107.733331,9.7306664 107.320002,9.64533392 106.952,9.528 C106.583998,9.41066608 106.272001,9.25333432 106.016,9.056 C105.759999,8.85866568 105.562667,8.61600144 105.424,8.328 C105.285333,8.03999856 105.216,7.69333536 105.216,7.288 C105.216,6.92533152 105.282666,6.58133496 105.416,6.256 C105.549334,5.93066504 105.759999,5.6480012 106.048,5.408 C106.336001,5.1679988 106.714664,4.97600072 107.184,4.832 C107.653336,4.68799928 108.223997,4.616 108.896,4.616 C109.64267,4.616 110.245331,4.6693328 110.704,4.776 C111.162669,4.8826672 111.482666,4.97866624 111.664,5.064 C112.240003,5.30933456 112.528,5.6453312 112.528,6.072 C112.528,6.34933472 112.453334,6.57333248 112.304,6.744 C112.154666,6.91466752 112.000001,7.04799952 111.84,7.144 C111.818667,7.12266656 111.749334,7.06400048 111.632,6.968 C111.514666,6.87199952 111.344001,6.7706672 111.12,6.664 C110.895999,6.5573328 110.613335,6.46133376 110.272,6.376 C109.930665,6.29066624 109.530669,6.248 109.072,6.248 Z"/>
    <use fill="#FFF" xlink:href="#customerlogo-a"/>
  </g>
</svg>
