<svg width="16" height="16" viewBox="0 0 16 16" xmlns="http://www.w3.org/2000/svg"><title>303FADCF-736F-42E8-BF66-A476F5D8ADE2</title><path d="M4.57 11.266c-.153.092-.249.168-.292.236-.032.049-.028.075.053.15.35.324.58.994.58 1.543 0 1.124-.803 2.357-2.252 2.357-1.435 0-2.188-1.102-2.188-2.285 0-.972.408-1.79 1.426-2.296.142-.07.289-.138.492-.229.939-.416 1.082-.485 1.483-.735.883-.552 1.577-1.316 2.165-2.506l.045-.057 6.087-4.852a3.644 3.644 0 0 1 .546-.355c.702-.37 1.434-.485 2.125-.185.222.096.433.234.633.416a.183.183 0 0 1-.006.27l-8.215 6.75-.116.078a283.386 283.386 0 0 1-1.242.836c-.67.448-1.126.746-1.323.864zm-.548-.96c-.417.26-.565.33-1.52.754a12.1 12.1 0 0 0-.48.223c-.9.447-1.244 1.14-1.244 1.984 0 1.011.637 1.943 1.881 1.943 1.254 0 1.944-1.06 1.944-2.015 0-.455-.197-1.028-.469-1.28-.2-.186-.235-.412-.106-.612.08-.125.204-.222.397-.338.19-.114.645-.412 1.28-.836a253.261 253.261 0 0 0 1.271-.856l.105-.07L15.118 2.6a1.905 1.905 0 0 0-.39-.23c-.599-.26-1.249-.157-1.881.176a3.346 3.346 0 0 0-.496.321L6.29 7.7c-.612 1.228-1.343 2.028-2.267 2.605zm-.644 2.885c.05-.455-.228-.858-.596-.858-.404 0-.793.38-.841.825-.047.426.238.771.631.771a.807.807 0 0 0 .806-.738zm.305.041c-.066.61-.543 1.04-1.11 1.04-.575 0-1.006-.522-.937-1.155.066-.618.588-1.126 1.146-1.126.563 0 .971.593.9 1.241zm3.569-6.674c.09.06.1.201.02.277L5.98 8.054c-.07.066-.177.05-.228-.037-.528-.898-1.134-1.511-1.88-1.977-.4-.251-.544-.32-1.484-.737-.202-.09-.35-.157-.49-.228C.877 4.57.47 3.751.47 2.78c0-1.183.753-2.286 2.188-2.286 1.449 0 2.251 1.233 2.252 2.358 0 .549-.23 1.218-.58 1.542-.08.075-.085.101-.053.15.044.069.14.144.293.236.197.118.652.417 1.292.844l.03.02a253.56 253.56 0 0 1 1.243.836l.116.079zm-.582.007l-.935-.628-.03-.02a44.49 44.49 0 0 0-1.28-.837c-.193-.116-.318-.213-.397-.337-.129-.201-.094-.427.106-.613.273-.252.47-.824.47-1.279C4.602 1.896 3.912.836 2.658.836 1.415.836.778 1.768.778 2.779c0 .845.345 1.537 1.244 1.984.137.068.281.134.48.222.955.424 1.103.495 1.52.756.743.464 1.356 1.068 1.89 1.928l.998-.942-.24-.162zm.466 2.877a.183.183 0 0 1 .002-.28l1.607-1.234a.141.141 0 0 1 .178.003l.796.654 5.748 4.722c.08.067.084.2.006.27-.2.183-.411.32-.633.417-.691.3-1.423.184-2.125-.185a3.644 3.644 0 0 1-.543-.352L7.96 10.099l-.824-.657zm1.003.379l4.215 3.36a3.346 3.346 0 0 0 .492.318c.633.333 1.283.436 1.882.176.134-.058.264-.134.39-.229L9.537 8.86l-.708-.581-1.336 1.026.646.516zM2.782 3.713c.368 0 .645-.404.596-.858a.807.807 0 0 0-.806-.739c-.392 0-.677.346-.631.772.048.445.437.825.841.825zm0 .342c-.558 0-1.08-.508-1.146-1.126-.069-.633.362-1.155.936-1.155.568 0 1.045.43 1.11 1.04.071.648-.337 1.241-.9 1.241z" stroke-width=".4" stroke="#75808B" fill="#75808B" fill-rule="nonzero"/></svg>