<svg width="30" height="30" viewBox="0 0 30 30" xmlns="http://www.w3.org/2000/svg"><title>0E84A8E1-1E1B-4BD5-9F20-26378FC58C37</title><path d="M24.321 20.412h-5.62v-1.726h5.62c1.618 0 2.937-1.281 2.937-2.855 0-1.578-1.319-2.86-2.937-2.86h-1.82l.156-1.77c.035-.283.05-.488.05-.684 0-2.899-2.421-5.255-5.397-5.255-2.242 0-4.275 1.381-5.057 3.436l-.887 2.345-1.807-1.765a1.846 1.846 0 0 0-1.305-.527c-1.013 0-1.838.802-1.838 1.786v1.213l-1.17.336c-1.432.387-2.506 1.808-2.506 3.31 0 1.814 1.516 3.29 3.381 3.29h5.176v1.726H6.121c-2.833 0-5.137-2.25-5.137-5.015 0-2.252 1.541-4.31 3.676-4.94.046-1.9 1.64-3.432 3.594-3.432.901 0 1.753.322 2.42.91 1.076-2.64 3.722-4.403 6.636-4.403 3.944 0 7.154 3.134 7.154 6.985 0 .23-.014.463-.044.73 2.544.051 4.596 2.087 4.596 4.584 0 2.526-2.107 4.581-4.695 4.581zm-9.283 6.056l-3.593-3.421 1.23-1.23 1.476 1.403v-8.792h1.756v8.764l1.403-1.37 1.247 1.216-3.52 3.43z" fill="#75808B" fill-rule="evenodd"/></svg>