<?xml version="1.0" encoding="UTF-8"?>
<svg width="42px" height="42px" viewBox="0 0 42 42" version="1.1" xmlns="http://www.w3.org/2000/svg" xmlns:xlink="http://www.w3.org/1999/xlink">
    <!-- Generator: Sketch 52.6 (67491) - http://www.bohemiancoding.com/sketch -->
    <title>Icons/dsv</title>
    <desc>Created with Sketch.</desc>
    <g id="Page-1" stroke="none" stroke-width="1" fill="none" fill-rule="evenodd">
        <g id="Color-Icons" transform="translate(-97.000000, -44.000000)">
            <g id="Icons/dsv" transform="translate(97.000000, 44.000000)">
                <rect id="Rectangle" fill="#FFFFFF" fill-rule="nonzero" x="5" y="5" width="32" height="32" rx="8"></rect>
                <path d="M17.311,20.5293 C17.643,20.5293 17.892,20.4623 18.06,20.3283 C18.227,20.1943 18.31,20.0153 18.31,19.7943 C18.31,19.5523 18.225,19.3673 18.056,19.2363 C17.886,19.1053 17.58,18.9733 17.138,18.8413 C16.695,18.7073 16.344,18.5593 16.082,18.3963 C15.582,18.0823 15.332,17.6723 15.332,17.1673 C15.332,16.7253 15.513,16.3603 15.873,16.0743 C16.234,15.7873 16.702,15.6443 17.277,15.6443 C17.659,15.6443 17.999,15.7153 18.299,15.8553 C18.598,15.9963 18.832,16.1973 19.003,16.4563 C19.174,16.7173 19.26,17.0053 19.26,17.3213 L18.31,17.3213 C18.31,17.0353 18.22,16.8103 18.04,16.6493 C17.861,16.4863 17.604,16.4053 17.269,16.4053 C16.958,16.4053 16.716,16.4723 16.544,16.6053 C16.372,16.7383 16.286,16.9253 16.286,17.1633 C16.286,17.3643 16.379,17.5323 16.565,17.6673 C16.751,17.8013 17.058,17.9323 17.484,18.0593 C17.912,18.1863 18.255,18.3303 18.514,18.4913 C18.772,18.6543 18.962,18.8413 19.082,19.0493 C19.203,19.2603 19.264,19.5053 19.264,19.7863 C19.264,20.2443 19.088,20.6083 18.738,20.8783 C18.387,21.1483 17.912,21.2833 17.311,21.2833 C16.914,21.2833 16.549,21.2103 16.216,21.0623 C15.883,20.9163 15.624,20.7123 15.44,20.4533 C15.255,20.1953 15.163,19.8933 15.163,19.5493 L16.116,19.5493 C16.116,19.8613 16.219,20.1023 16.425,20.2733 C16.631,20.4443 16.927,20.5293 17.311,20.5293 Z M26.1816,23.0918 L26.1816,13.6978 L13.7096,13.6978 L13.7096,9.5498 L32.4426,9.5498 L32.4426,26.1938 L26.2166,26.1938 L26.2166,32.4378 L13.7116,32.4378 L13.7116,23.0918 L26.1816,23.0918 Z M27.2686,31.916 L27.2686,27.27 L31.9156,27.27 L27.2686,31.917 L27.2686,31.916 Z M24.4766,15.7197 L22.5006,21.2077 L21.5776,21.2077 L19.6106,15.7197 L20.6546,15.7197 L22.0346,20.0127 L23.4286,15.7197 L24.4766,15.7197 Z M13.5347,18.3242 C13.5347,17.7282 13.4057,17.2742 13.1467,16.9602 C12.8877,16.6452 12.5117,16.4892 12.0197,16.4892 L11.3517,16.4892 L11.3517,20.4462 L11.9737,20.4462 C12.4737,20.4462 12.8577,20.2902 13.1257,19.9762 C13.3927,19.6652 13.5297,19.2152 13.5347,18.6292 L13.5347,18.3242 Z M10.3987,15.7202 L12.0197,15.7202 C12.5047,15.7202 12.9347,15.8272 13.3097,16.0442 C13.6857,16.2602 13.9767,16.5662 14.1827,16.9642 C14.3887,17.3602 14.4917,17.8152 14.4917,18.3282 L14.4917,18.6032 C14.4917,19.1232 14.3887,19.5802 14.1807,19.9752 C13.9737,20.3692 13.6787,20.6742 13.2947,20.8872 C12.9117,21.1002 12.4727,21.2072 11.9777,21.2072 L10.3987,21.2072 L10.3987,15.7202 Z M33.498,8.8018 L33.4981893,8.5018 L12.645,8.5018 L12.645,13.7098 L8.5,13.7098 L8.5,23.0728 L12.666,23.0728 L12.666,33.4898 C12.745,33.4958 12.788,33.5018 12.831,33.5018 C17.564,33.5018 22.297,33.5018 27.031,33.4938 C27.161,33.4938 27.321,33.4158 27.417,33.3218 C29.388,31.3638 31.353,29.3968 33.312,27.4238 C33.413,27.3238 33.491,27.1498 33.491,27.0068 C33.5,20.9398 33.498,14.8708 33.498,8.8018 Z M39,-0.0002 C40.657,-0.0002 42,1.3438 42,2.9998 L42,38.9998 C42,40.6568 40.657,41.9998 39,41.9998 L3,41.9998 C1.343,41.9998 0,40.6568 0,38.9998 L0,2.9998 C0,1.3438 1.343,-0.0002 3,-0.0002 L39,-0.0002 Z" fill="#7E57C5" fill-rule="evenodd"></path>
            </g>
        </g>
    </g>
</svg>