<?xml version="1.0" encoding="UTF-8"?>
<svg width="165px" height="58px" viewBox="0 0 165 58" version="1.1" xmlns="http://www.w3.org/2000/svg" xmlns:xlink="http://www.w3.org/1999/xlink">
    <!-- Generator: Sketch 43.2 (39069) - http://www.bohemiancoding.com/sketch -->
    <title>ikealogo</title>
    <desc>Created with Sketch.</desc>
    <defs></defs>
    <g id="Page-1" stroke="none" stroke-width="1" fill="none" fill-rule="evenodd">
        <g id="Artboard" transform="translate(-190.000000, -199.000000)">
            <g id="ikealogo" transform="translate(190.000000, 199.000000)">
                <g id="IKEA">
                    <polygon id="Fill-2" fill="#0065A3" points="0.413 57.276 164.627 57.276 164.627 0.672 0.413 0.672"></polygon>
                    <path d="M82.52,55.804 C127.216,55.804 163.451,43.792 163.451,28.974 C163.451,14.157 127.216,2.144 82.52,2.144 C37.825,2.144 1.59,14.157 1.59,28.974 C1.59,43.792 37.825,55.804 82.52,55.804" id="Fill-3" fill="#FFE831"></path>
                    <path d="M37.865,40.119 C38.249,40.119 38.402,39.966 38.197,39.735 C38.037,39.555 37.762,38.329 37.762,37.024 L37.762,21.781 C37.762,20.476 38.037,19.25 38.197,19.07 C38.402,18.839 38.249,18.686 37.865,18.686 L24.079,18.686 C23.696,18.686 23.542,18.839 23.747,19.07 C23.907,19.25 24.182,20.476 24.182,21.781 L24.182,37.024 C24.182,38.329 23.907,39.555 23.747,39.735 C23.542,39.966 23.696,40.119 24.079,40.119 L37.865,40.119" id="Fill-4" fill="#0060A0"></path>
                    <path d="M58.62,26.337 L63.637,19.53 C63.842,19.325 63.739,19.044 63.739,18.916 C63.739,18.788 63.739,18.686 63.842,18.686 L77.448,18.686 C77.627,18.686 77.551,18.814 77.474,18.916 L71.873,26.742 C71.617,27.075 71.668,27.382 71.924,27.714 L79.622,39.888 C79.699,39.991 79.775,40.119 79.597,40.119 L62.972,40.119 C62.87,40.119 62.87,40.016 62.87,39.888 C62.87,39.761 63.126,38.661 62.921,38.456 L58.624,31.881 L58.624,37.024 C58.624,38.329 58.899,39.555 59.059,39.735 C59.264,39.966 59.11,40.119 58.727,40.119 L45.35,40.119 C44.967,40.119 44.813,39.966 45.018,39.735 C45.178,39.555 45.452,38.329 45.452,37.024 L45.452,21.781 C45.452,20.476 45.178,19.25 45.018,19.07 C44.813,18.839 44.967,18.686 45.35,18.686 L58.727,18.686 C59.11,18.686 59.264,18.839 59.059,19.07 C58.899,19.25 58.624,20.476 58.624,21.781 L58.62,26.337" id="Fill-5" fill="#0060A0"></path>
                    <path d="M97.218,32.161 C97.218,32.076 97.251,31.777 97.603,31.777 L102.896,31.777 C103.443,31.777 105.41,31.71 105.579,31.879 C105.748,32.049 105.958,31.943 105.958,31.622 L105.958,26.485 C105.958,26.164 105.748,26.058 105.578,26.227 C105.41,26.396 103.443,26.329 102.896,26.329 L97.602,26.329 C97.251,26.329 97.218,26.03 97.218,25.945 L97.219,24.904 C97.219,24.819 97.252,24.52 97.603,24.52 L105.212,24.52 C106.502,24.52 107.715,24.791 107.894,24.95 C108.122,25.152 108.273,25.001 108.273,24.621 L108.273,18.683 L84.308,18.683 C83.929,18.683 83.777,18.874 83.979,19.102 C84.138,19.281 84.409,20.494 84.409,21.785 L84.409,36.868 C84.409,38.158 84.138,39.372 83.979,39.551 C83.777,39.778 83.928,39.93 84.307,39.93 L108.272,39.929 L108.272,33.62 C108.272,33.241 108.12,33.089 107.893,33.291 C107.714,33.45 106.501,33.722 105.21,33.722 L97.602,33.722 C97.251,33.722 97.217,33.423 97.217,33.337 L97.218,32.161" id="Fill-6" fill="#0060A0"></path>
                    <path d="M146.245,39.93 C146.245,39.93 138.285,21.014 138.171,20.7 C138.057,20.386 137.943,19.844 138.143,19.359 C138.342,18.874 138.171,18.76 137.829,18.76 L119.197,18.76 C118.855,18.76 118.684,18.874 118.884,19.359 C119.083,19.844 118.969,20.386 118.855,20.7 C118.741,21.014 111.694,39.93 111.694,39.93 L123.15,39.93 C123.421,39.93 123.478,39.801 123.392,39.616 C123.306,39.431 123.306,39.003 123.434,38.689 L124.048,36.649 C124.248,36.078 124.533,35.993 125.018,35.993 L130.054,35.993 C130.539,35.993 130.824,36.078 131.024,36.649 L131.638,38.689 C131.766,39.003 131.766,39.431 131.68,39.616 C131.595,39.801 131.652,39.93 131.923,39.93 L146.245,39.93 Z M125.939,31.813 C125.76,31.798 125.739,31.613 125.789,31.485 L127.029,28.546 C127.08,28.461 127.108,28.374 127.215,28.374 C127.322,28.374 127.351,28.461 127.4,28.546 L128.641,31.485 C128.692,31.613 128.67,31.798 128.492,31.813 L125.939,31.813 L125.939,31.813 Z" id="Fill-7" fill="#0060A0"></path>
                </g>
            </g>
        </g>
    </g>
</svg>