<?xml version="1.0" encoding="utf-8"?>
<!-- Generator: Adobe Illustrator 22.0.1, SVG Export Plug-In . SVG Version: 6.00 Build 0)  -->
<svg version="1.1" id="Layer_1" xmlns="http://www.w3.org/2000/svg" xmlns:xlink="http://www.w3.org/1999/xlink" x="0px" y="0px"
	 viewBox="0 0 15 15" style="enable-background:new 0 0 15 15;" xml:space="preserve">
<style type="text/css">
	.st0{fill:#757F8A;}
</style>
<path class="st0" d="M0,7.5C0,11.6,3.4,15,7.5,15S15,11.6,15,7.5S11.6,0,7.5,0S0,3.4,0,7.5z M7.5,11.7c0,0-0.3,0.2-0.6,0.2
	c0,0,0,0,0,0l0,0c0,0-0.1,0-0.2,0l-0.1,0C6.2,11.8,6,11.4,6.1,11l0.6-2.3l0.3-1.1c0.2-1-0.8,0.2-1-0.2C5.8,7,6.7,6.4,7.4,5.9
	c0,0,0.3-0.2,0.6-0.2c0,0,0,0,0,0l0,0c0.1,0,0.1,0,0.2,0l0.1,0c0.4,0.1,0.7,0.5,0.6,0.9L8.2,9L8,10.1c-0.2,1,0.8-0.2,1,0.2
	C9.1,10.6,8.1,11.2,7.5,11.7L7.5,11.7z M8.9,4.4C8.8,5,8.2,5.3,7.6,5.2C7,5.1,6.7,4.5,6.8,3.9s0.7-0.9,1.3-0.8
	C8.7,3.2,9.1,3.8,8.9,4.4L8.9,4.4z"/>
</svg>
