<?xml version="1.0" standalone="no"?>
<!DOCTYPE svg PUBLIC "-//W3C//DTD SVG 20010904//EN"
 "http://www.w3.org/TR/2001/REC-SVG-20010904/DTD/svg10.dtd">
<svg version="1.0" xmlns="http://www.w3.org/2000/svg"
 width="1000.000000pt" height="231.000000pt" viewBox="0 0 1000.000000 231.000000"
 preserveAspectRatio="xMidYMid meet">

<g transform="translate(0.000000,231.000000) scale(0.100000,-0.100000)"
fill="#000000" stroke="none">
<path d="M1847 2299 c-171 -23 -318 -98 -443 -224 -70 -70 -90 -98 -138 -196
-65 -132 -92 -227 -106 -382 -12 -121 -1 -296 25 -405 73 -305 267 -518 542
-594 112 -31 363 -31 474 0 187 51 327 158 422 324 37 64 86 214 93 287 l7 61
-117 0 -116 0 0 -28 c0 -15 -7 -55 -15 -87 -53 -206 -187 -339 -380 -380 -87
-18 -128 -18 -230 0 -175 31 -318 143 -394 307 -92 198 -112 439 -55 665 32
130 83 223 169 309 110 111 223 155 401 156 82 0 114 -5 178 -26 152 -52 258
-157 301 -301 l12 -40 117 -3 117 -3 -7 28 c-19 85 -29 115 -60 181 -77 160
-248 290 -446 337 -81 19 -263 27 -351 14z"/>
<path d="M800 1588 c0 -714 -2 -749 -44 -813 -50 -76 -120 -109 -236 -109
-192 -1 -274 90 -287 322 l-6 102 -114 0 -113 0 0 -82 c2 -353 177 -537 512
-538 278 0 465 131 508 359 6 33 10 317 10 747 l0 694 -115 0 -115 0 0 -682z"/>
<path d="M2830 1391 l0 -881 115 0 115 0 0 359 0 359 343 4 c294 4 350 7 397
22 135 44 219 110 272 213 48 93 62 158 62 288 0 131 -24 223 -79 306 -44 67
-83 101 -157 139 -118 61 -131 63 -620 68 l-448 4 0 -881z m892 651 c140 -56
211 -204 178 -367 -24 -120 -88 -191 -205 -228 -65 -21 -89 -22 -350 -22
l-280 0 -3 323 -2 323 302 -3 c288 -3 306 -5 360 -26z"/>
<path d="M4532 1790 c-105 -28 -167 -64 -253 -150 -55 -55 -85 -95 -112 -150
-58 -120 -72 -185 -71 -340 0 -158 23 -262 81 -373 70 -133 165 -214 310 -263
68 -24 94 -27 203 -28 140 0 204 14 304 67 84 45 149 115 196 211 21 45 42 96
45 114 l7 33 -103 -3 -102 -3 -15 -43 c-21 -63 -102 -147 -165 -170 -106 -40
-232 -37 -334 8 -54 24 -139 103 -165 155 -29 55 -48 131 -48 188 l0 47 475 0
475 0 0 63 c0 199 -91 428 -211 531 -131 112 -334 154 -517 106z m292 -193
c109 -50 197 -166 212 -279 l7 -48 -367 0 c-416 0 -380 -9 -350 91 38 129 120
213 249 256 61 20 182 10 249 -20z"/>
<path d="M5835 1795 c-97 -25 -199 -96 -246 -171 -11 -19 -25 -34 -30 -34 -5
0 -9 43 -9 95 l0 95 -95 0 -95 0 0 -635 0 -635 105 0 104 0 3 423 c3 416 3
423 26 480 33 81 109 157 186 186 175 65 334 22 394 -107 l27 -57 3 -462 3
-463 100 0 100 0 -3 498 c-4 546 -4 544 -67 644 -36 56 -93 100 -170 129 -74
28 -249 35 -336 14z"/>
<path d="M7035 1797 c-104 -28 -187 -83 -246 -165 l-39 -55 0 101 0 102 -100
0 -100 0 0 -635 0 -635 104 0 105 0 3 418 c3 408 4 418 26 474 44 109 129 185
237 213 167 43 307 -13 355 -141 19 -52 20 -76 20 -509 l0 -455 100 0 100 0 2
423 c2 232 0 458 -3 502 -15 181 -92 296 -234 346 -75 27 -255 35 -330 16z"/>
<path d="M8163 1795 c-137 -30 -279 -134 -355 -260 -20 -33 -49 -96 -65 -140
-26 -75 -28 -90 -28 -240 0 -137 3 -171 23 -240 63 -217 198 -360 388 -409
216 -56 440 -11 577 114 59 54 120 158 142 241 l13 49 -102 0 -101 0 -19 -52
c-25 -70 -102 -146 -176 -173 -78 -28 -214 -26 -293 4 -145 57 -233 181 -240
342 l-2 54 478 3 477 2 0 43 c0 76 -29 233 -55 303 -36 96 -69 149 -138 221
-125 130 -321 182 -524 138z m236 -184 c133 -41 233 -158 256 -298 l7 -43
-370 0 -369 0 4 28 c3 15 12 50 20 77 61 192 259 296 452 236z"/>
<path d="M8813 1768 c3 -7 116 -291 252 -631 l248 -619 -48 -121 c-56 -140
-93 -188 -165 -207 -37 -10 -54 -9 -102 4 -32 9 -60 16 -63 16 -3 0 -5 -42 -5
-94 l0 -95 57 -12 c78 -16 182 -5 242 25 63 32 112 89 159 183 22 43 166 409
322 813 155 404 284 739 287 743 2 4 -46 6 -108 5 l-113 -3 -175 -512 c-97
-281 -179 -514 -181 -517 -3 -3 -89 229 -190 514 l-185 520 -119 0 c-90 0
-117 -3 -113 -12z"/>
</g>
</svg>
