<?xml version="1.0" encoding="UTF-8"?>
<svg width="100px" height="24px" viewBox="0 0 100 24" version="1.1" xmlns="http://www.w3.org/2000/svg" xmlns:xlink="http://www.w3.org/1999/xlink">
    <!-- Generator: Sketch 42 (36781) - http://www.bohemiancoding.com/sketch -->
    <title>JCPLogo</title>
    <desc>Created with Sketch.</desc>
    <defs></defs>
    <g id="Symbols" stroke="none" stroke-width="1" fill="none" fill-rule="evenodd">
        <g id="logos/JCPLogo" fill="#FEFEFE">
            <g id="JCPLogo">
                <g id="jcp-logo" transform="translate(0.000000, -1.000000)">
                    <g id="Group" transform="translate(50.000000, 12.590000) scale(-1, 1) rotate(-180.000000) translate(-50.000000, -12.590000) translate(0.000000, 0.590000)" fill-rule="nonzero">
                        <path d="M18.47,22.98 C16.76,22.75 15.29,22 14.04,20.74 C13.34,20.04 13.14,19.76 12.66,18.78 C12.01,17.46 11.74,16.51 11.6,14.96 C11.48,13.75 11.59,12 11.85,10.91 C12.58,7.86 14.52,5.73 17.27,4.97 C18.39,4.66 20.9,4.66 22.01,4.97 C23.88,5.48 25.28,6.55 26.23,8.21 C26.6,8.85 27.09,10.35 27.16,11.08 L27.23,11.69 L26.06,11.69 L24.9,11.69 L24.9,11.41 C24.9,11.26 24.83,10.86 24.75,10.54 C24.22,8.48 22.88,7.15 20.95,6.74 C20.08,6.56 19.67,6.56 18.65,6.74 C16.9,7.05 15.47,8.17 14.71,9.81 C13.79,11.79 13.59,14.2 14.16,16.46 C14.48,17.76 14.99,18.69 15.85,19.55 C16.95,20.66 18.08,21.1 19.86,21.11 C20.68,21.11 21,21.06 21.64,20.85 C23.16,20.33 24.22,19.28 24.65,17.84 L24.77,17.44 L25.94,17.41 L27.11,17.38 L27.04,17.66 C26.85,18.51 26.75,18.81 26.44,19.47 C25.67,21.07 23.96,22.37 21.98,22.84 C21.17,23.03 19.35,23.11 18.47,22.98 Z" id="Shape"></path>
                        <path d="M8,15.87 C8,8.73 7.98,8.38 7.56,7.74 C7.06,6.98 6.36,6.65 5.2,6.65 C3.28,6.64 2.46,7.55 2.33,9.87 L2.27,10.89 L1.13,10.89 L5.74359349e-16,10.89 L5.74359349e-16,10.07 C0.02,6.54 1.77,4.7 5.12,4.69 C7.9,4.69 9.77,6 10.2,8.28 C10.26,8.61 10.3,11.45 10.3,15.75 L10.3,22.69 L9.15,22.69 L8,22.69 L8,15.87 Z" id="Shape"></path>
                        <path d="M28.3,13.9 L28.3,5.09 L29.45,5.09 L30.6,5.09 L30.6,8.68 L30.6,12.27 L34.03,12.31 C36.97,12.35 37.53,12.38 38,12.53 C39.35,12.97 40.19,13.63 40.72,14.66 C41.2,15.59 41.34,16.24 41.34,17.54 C41.34,18.85 41.1,19.77 40.55,20.6 C40.11,21.27 39.72,21.61 38.98,21.99 C37.8,22.6 37.67,22.62 32.78,22.67 L28.3,22.71 L28.3,13.9 Z M37.22,20.41 C38.62,19.85 39.33,18.37 39,16.74 C38.76,15.54 38.12,14.83 36.95,14.46 C36.3,14.25 36.06,14.24 33.45,14.24 L30.65,14.24 L30.62,17.47 L30.6,20.7 L33.62,20.67 C36.5,20.64 36.68,20.62 37.22,20.41 Z" id="Shape"></path>
                        <path d="M45.32,17.89 C44.27,17.61 43.65,17.25 42.79,16.39 C42.24,15.84 41.94,15.44 41.67,14.89 C41.09,13.69 40.95,13.04 40.96,11.49 C40.96,9.91 41.19,8.87 41.77,7.76 C42.47,6.43 43.42,5.62 44.87,5.13 C45.55,4.89 45.81,4.86 46.9,4.85 C48.3,4.85 48.94,4.99 49.94,5.52 C50.78,5.97 51.43,6.67 51.9,7.63 C52.11,8.08 52.32,8.59 52.35,8.77 L52.42,9.1 L51.39,9.07 L50.37,9.04 L50.22,8.61 C50.01,7.98 49.2,7.14 48.57,6.91 C47.51,6.51 46.25,6.54 45.23,6.99 C44.69,7.23 43.84,8.02 43.58,8.54 C43.29,9.09 43.1,9.85 43.1,10.42 L43.1,10.89 L47.85,10.89 L52.6,10.89 L52.6,11.52 C52.6,13.51 51.69,15.8 50.49,16.83 C49.18,17.95 47.15,18.37 45.32,17.89 Z M48.24,15.96 C49.33,15.46 50.21,14.3 50.36,13.17 L50.43,12.69 L46.76,12.69 C42.6,12.69 42.96,12.6 43.26,13.6 C43.64,14.89 44.46,15.73 45.75,16.16 C46.36,16.36 47.57,16.26 48.24,15.96 Z" id="Shape"></path>
                        <path d="M58.35,17.94 C57.38,17.69 56.36,16.98 55.89,16.23 C55.78,16.04 55.64,15.89 55.59,15.89 C55.54,15.89 55.5,16.32 55.5,16.84 L55.5,17.79 L54.55,17.79 L53.6,17.79 L53.6,11.44 L53.6,5.09 L54.65,5.09 L55.69,5.09 L55.72,9.32 C55.75,13.48 55.75,13.55 55.98,14.12 C56.31,14.93 57.07,15.69 57.84,15.98 C59.59,16.63 61.18,16.2 61.78,14.91 L62.05,14.34 L62.08,9.72 L62.11,5.09 L63.11,5.09 L64.11,5.09 L64.08,10.07 C64.04,15.53 64.04,15.51 63.41,16.51 C63.05,17.07 62.48,17.51 61.71,17.8 C60.97,18.08 59.22,18.15 58.35,17.94 Z" id="Shape"></path>
                        <path d="M70.35,17.96 C69.31,17.68 68.48,17.13 67.89,16.31 L67.5,15.76 L67.5,16.77 L67.5,17.79 L66.5,17.79 L65.5,17.79 L65.5,11.44 L65.5,5.09 L66.54,5.09 L67.59,5.09 L67.62,9.27 C67.65,13.35 67.66,13.45 67.88,14.01 C68.32,15.1 69.17,15.86 70.25,16.14 C71.92,16.57 73.32,16.01 73.8,14.73 C73.99,14.21 74,13.97 74,9.64 L74,5.09 L75,5.09 L76,5.09 L76.02,9.32 C76.04,11.64 76.02,13.9 75.99,14.34 C75.84,16.15 75.07,17.3 73.65,17.8 C72.9,18.07 71.1,18.15 70.35,17.96 Z" id="Shape"></path>
                        <path d="M81.63,17.94 C80.26,17.64 78.84,16.6 78.08,15.34 C77.88,15.01 77.59,14.38 77.43,13.94 C77.17,13.19 77.15,13.04 77.15,11.54 C77.15,10.17 77.18,9.83 77.38,9.14 C78.01,6.97 79.36,5.54 81.26,5.05 C83.42,4.49 85.66,4.94 87.03,6.19 C87.62,6.73 88.23,7.77 88.45,8.6 L88.58,9.09 L87.56,9.09 L86.55,9.09 L86.36,8.57 C86.11,7.87 85.34,7.11 84.6,6.84 C83.82,6.56 82.46,6.58 81.67,6.88 C80.22,7.45 79.34,8.69 79.27,10.3 L79.25,10.84 L84.03,10.87 L88.8,10.89 L88.8,11.32 C88.8,12.08 88.51,13.65 88.25,14.35 C87.89,15.31 87.56,15.84 86.87,16.56 C85.62,17.86 83.66,18.38 81.63,17.94 Z M83.99,16.1 C85.32,15.69 86.32,14.52 86.55,13.12 L86.62,12.69 L82.92,12.69 L79.23,12.69 L79.27,12.97 C79.3,13.12 79.39,13.47 79.47,13.74 C80.08,15.66 82.06,16.7 83.99,16.1 Z" id="Shape"></path>
                        <path d="M88.13,17.67 C88.16,17.6 89.29,14.76 90.65,11.36 L93.13,5.17 L92.65,3.96 C92.09,2.56 91.72,2.08 91,1.89 C90.63,1.79 90.46,1.8 89.98,1.93 C89.66,2.02 89.38,2.09 89.35,2.09 C89.32,2.09 89.3,1.67 89.3,1.15 L89.3,0.2 L89.87,0.08 C90.65,-0.08 91.69,0.03 92.29,0.33 C92.92,0.65 93.41,1.22 93.88,2.16 C94.1,2.59 95.54,6.25 97.1,10.29 C98.65,14.33 99.94,17.68 99.97,17.72 C99.99,17.76 99.51,17.78 98.89,17.77 L97.76,17.74 L96.01,12.62 C95.04,9.81 94.22,7.48 94.2,7.45 C94.17,7.42 93.31,9.74 92.3,12.59 L90.45,17.79 L89.26,17.79 C88.36,17.79 88.09,17.76 88.13,17.67 Z" id="Shape"></path>
                    </g>
                </g>
            </g>
        </g>
    </g>
</svg>