<svg id="Layer_1" data-name="Layer 1" xmlns="http://www.w3.org/2000/svg" viewBox="0 0 65.14 15.66"><defs><style>.cls-1{fill:#fff;fill-rule:evenodd;}</style></defs><title>jcpennylogo</title><path class="cls-1" d="M59.8,15.83h-.42a3.84,3.84,0,0,1-.52-.09v-.92a3.44,3.44,0,0,0,.74.09,1.55,1.55,0,0,0,1.29-1.2l.44-1.31L58,3.85h1.08s2.38,6.27,2.72,7.38c.25-.87,2.42-7.38,2.42-7.38h1L62.11,12.9A9.78,9.78,0,0,1,61.2,15a2,2,0,0,1-1.4.81ZM.13,9.63v-1H1v.38a3.58,3.58,0,0,0,.4,2,2.49,2.49,0,0,0,3.75,0A2.88,2.88,0,0,0,5.69,9V.5h.95V9A4.06,4.06,0,0,1,6,11.53,3.4,3.4,0,0,1,3.4,12.87a3,3,0,0,1-3.08-2A5.51,5.51,0,0,1,.13,9.63Zm57.1-2.06a4.06,4.06,0,0,0-.5-1.81,2.54,2.54,0,0,0-4.5,0,4.52,4.52,0,0,0-.69,1.84ZM58,9.51a3.71,3.71,0,0,1-3.59,3.26c-2.42,0-3.79-2.1-3.79-4.45,0-2.74,1.65-4.75,3.84-4.75,2.4,0,3.73,1.77,3.73,4.79H51.52c0,1.93,1.16,3.59,2.89,3.59a2.85,2.85,0,0,0,2.71-2.45ZM44.17,3.9V5.48a3.73,3.73,0,0,1,.65-1A3,3,0,0,1,47,3.56a2.74,2.74,0,0,1,2.41,1.15A4,4,0,0,1,49.82,7v5.59h-1V7.3a4.62,4.62,0,0,0-.2-1.72,1.78,1.78,0,0,0-1.84-1.05,2.39,2.39,0,0,0-2.23,1.36,4.89,4.89,0,0,0-.37,2.3v4.37h-1V3.9Zm-7.73,0V5.5a3.74,3.74,0,0,1,.65-1,3,3,0,0,1,2.2-.92A2.74,2.74,0,0,1,41.7,4.73,4,4,0,0,1,42.09,7v5.59h-1V7.32a4.61,4.61,0,0,0-.2-1.72,1.78,1.78,0,0,0-1.84-1.05A2.39,2.39,0,0,0,36.86,5.9a4.89,4.89,0,0,0-.37,2.3v4.37h-1V3.92Zm-2.8,3.66a4,4,0,0,0-.5-1.81,2.54,2.54,0,0,0-4.5,0,4.51,4.51,0,0,0-.69,1.84Zm.77,1.94a3.71,3.71,0,0,1-3.59,3.26c-2.42,0-3.79-2.1-3.79-4.45,0-2.74,1.65-4.75,3.84-4.75,2.4,0,3.73,1.77,3.73,4.79H27.93C28,10.31,29.09,12,30.82,12a2.84,2.84,0,0,0,2.71-2.45ZM19.93,1.39V6.45H23.3a3.21,3.21,0,0,0,2-.45,2.39,2.39,0,0,0,1.15-2.14,2.43,2.43,0,0,0-.9-2.13,4.32,4.32,0,0,0-2.28-.33Zm-1-.89h4.55a4.41,4.41,0,0,1,2.7.54,3.27,3.27,0,0,1,1.19,2.85,3.52,3.52,0,0,1-3.77,3.4H19.93v5.29h-1V.5ZM18,7.73a5.16,5.16,0,0,1-5.08,5.06c-3.3,0-5.36-2.43-5.36-6.24S9.69.17,13,.17c2.49,0,4.31,1.29,4.69,3.61h-1A3.46,3.46,0,0,0,13,1C10.34,1,8.59,3.12,8.59,6.55s1.77,5.37,4.36,5.37c2.23,0,3.77-1.69,4.05-4.19Z" transform="translate(-0.13 -0.17)"/></svg>