<svg xmlns="http://www.w3.org/2000/svg" width="42" height="42" viewBox="0 0 42 42">
    <g fill="none" fill-rule="evenodd">
        <rect width="42" height="42" fill="#139EE7" rx="3"/>
        <path fill="#FFF" d="M21.03 20.338v-4.076h.753l1.468 2.687v-2.687h.75v4.076h-.752l-1.466-2.682v2.682h-.753zm-3.962-1.923v-.202c0-.402.066-.755.195-1.06a1.59 1.59 0 0 1 .55-.703c.236-.163.506-.245.81-.245.305 0 .575.082.813.245.236.164.42.398.55.703.128.305.194.658.194 1.057v.182c0 .402-.064.753-.19 1.055-.128.303-.31.536-.547.7a1.393 1.393 0 0 1-.815.246c-.301 0-.572-.08-.81-.242a1.574 1.574 0 0 1-.552-.696 2.6 2.6 0 0 1-.198-1.04zm15.374 7.778h-6.225v6.244H13.712v-9.345h12.47v-9.394H13.71V9.55h18.732v16.644zm-5.173 5.723V27.27h4.647l-4.647 4.647zm-13.876-12.86h.755c0 .45.24.674.723.674.178 0 .318-.04.418-.121a.413.413 0 0 0 .15-.341c0-.158-.049-.28-.15-.365-.1-.085-.28-.175-.542-.268a3.692 3.692 0 0 1-.619-.28c-.416-.25-.623-.586-.623-1.01 0-.22.056-.416.167-.589a1.11 1.11 0 0 1 .48-.404 1.63 1.63 0 0 1 .701-.147c.26 0 .493.053.698.16.203.104.362.253.475.445.112.192.17.411.17.656h-.754c0-.187-.052-.332-.158-.436-.105-.103-.254-.155-.443-.155-.185 0-.328.043-.43.13a.428.428 0 0 0-.153.344c0 .132.06.242.18.332.118.09.295.174.528.253.428.142.74.322.936.534.196.212.293.478.293.795 0 .352-.119.629-.359.83-.239.2-.56.3-.965.3-.282 0-.537-.056-.768-.171a1.25 1.25 0 0 1-.528-.472 1.317 1.317 0 0 1-.182-.695zm-.77.027c0 .26-.05.49-.154.688a1.11 1.11 0 0 1-.434.46c-.189.108-.4.162-.636.162-.387 0-.687-.108-.903-.328-.215-.22-.324-.53-.324-.931h.758c0 .2.038.347.113.442.076.096.194.143.356.143a.409.409 0 0 0 .344-.166c.086-.11.127-.266.127-.47v-2.821h.753v2.821zm6.006.622a.651.651 0 0 1-.592-.344c-.137-.23-.206-.552-.206-.969v-.198c.002-.425.071-.746.209-.964a.65.65 0 0 1 .584-.33c.254 0 .45.111.587.334.137.222.206.547.206.974v.198c-.001.425-.07.747-.206.968a.645.645 0 0 1-.582.33zM12.645 8.5v5.21H8.5v9.362h4.166V33.49c.079.006.122.012.165.012 4.733 0 9.466 0 14.2-.008.13 0 .29-.078.386-.173 1.971-1.958 3.937-3.924 5.896-5.897.1-.1.178-.275.178-.417.009-6.067.007-12.136.007-18.205v-.3H12.645z"/>
    </g>
</svg>
