<svg xmlns="http://www.w3.org/2000/svg" width="80" height="65" viewBox="0 0 80 65">
	<path fill="#E1E8EE" fill-rule="evenodd" d="M67.4040066,58.1927408 L6.50990573,58.1927408 C2.9700355,58.1927408 0.100000381,55.1278222 0.100000381,51.3475847 L0.100000381,6.85406999 C0.100000381,3.07383253 2.9700355,0.0089138799 6.50990573,0.0089138799 L67.4040066,0.0089138799 C70.9438768,0.0089138799 73.8139119,3.07383253 73.8139119,6.85406999 L73.8139119,51.3475847 C73.8139119,55.1278222 70.9438768,58.1927408 67.4040066,58.1927408 L67.4040066,58.1927408 Z M70.6089592,6.85406999 C70.6089592,4.9648069 69.1731404,3.43149193 67.4040066,3.43149193 L6.50990573,3.43149193 C4.74077185,3.43149193 3.30495306,4.9648069 3.30495306,6.85406999 L3.30495306,51.3475847 C3.30495306,53.2368478 4.74077185,54.7701627 6.50990573,54.7701627 L67.4040066,54.7701627 C69.1731404,54.7701627 70.6089592,53.2368478 70.6089592,51.3475847 L70.6089592,6.85406999 L70.6089592,6.85406999 Z M64.734281,47.4372893 L54.5841959,36.5979846 L48.784834,42.7911396 L54.1274901,48.4965772 C54.7380336,49.1485783 54.7380336,50.2061549 54.1274901,50.8598673 C53.5153441,51.5118684 52.5250138,51.5118684 51.9144703,50.8598673 L28.9445745,26.3302504 L9.17963131,47.4372893 C8.56908782,48.0892904 7.57875745,48.0892904 6.96661149,47.4372893 C6.356068,46.7835769 6.356068,45.7260002 6.96661149,45.0739991 L27.6465686,22.9898142 C27.6978479,22.9076724 27.7314999,22.816974 27.7988039,22.7433886 C28.1144917,22.4062647 28.5311356,22.2522487 28.9445745,22.2625164 C29.3580134,22.2522487 29.7746572,22.4062647 30.090345,22.7433886 C30.157649,22.816974 30.1896986,22.9076724 30.2425803,22.9898142 L46.5718142,40.4278494 L53.28619,33.2575484 C53.3390717,33.1771178 53.3711213,33.0847082 53.4384253,33.0111228 C53.7541131,32.6757101 54.170757,32.5199828 54.5841959,32.5302505 C54.9976348,32.5199828 55.4142786,32.6757101 55.7299664,33.0111228 C55.7972704,33.0847082 55.82932,33.1771178 55.8822017,33.2575484 L66.9473008,45.0739991 C67.5578443,45.7260002 67.5578443,46.7835769 66.9473008,47.4372893 C66.3351548,48.0892904 65.3448245,48.0892904 64.734281,47.4372893 L64.734281,47.4372893 Z M44.9693378,20.5443822 C41.4294676,20.5443822 38.5594325,17.4794636 38.5594325,13.6992261 C38.5594325,9.91898864 41.4294676,6.85406999 44.9693378,6.85406999 C48.5092081,6.85406999 51.3792432,9.91898864 51.3792432,13.6992261 C51.3792432,17.4794636 48.5092081,20.5443822 44.9693378,20.5443822 L44.9693378,20.5443822 Z M44.9693378,10.276648 C46.7384717,10.276648 48.1742905,11.809963 48.1742905,13.6992261 C48.1742905,15.5884892 46.7384717,17.1218042 44.9693378,17.1218042 C43.200204,17.1218042 41.7643852,15.5884892 41.7643852,13.6992261 C41.7643852,11.809963 43.200204,10.276648 44.9693378,10.276648 Z M76.9325148,8.56606017 C76.9325148,7.66819728 77.6356188,6.94033559 78.5029416,6.94033559 C79.3702644,6.94033559 80.0733684,7.66819728 80.0733684,8.56606017 L80.0665711,51.7119834 C80.0722172,51.7768356 80.0774728,51.8516466 80.0829703,51.9644739 C80.1741405,53.8355988 79.9122013,56.0781888 78.9825081,58.2754071 C77.2111644,62.4617655 73.5185462,65.0089138 67.7153396,65.0089139 L8.22614231,65.0089139 C7.35881953,65.0089139 6.6557155,64.2810522 6.6557155,63.3831893 C6.6557155,62.4853264 7.35881953,61.7574647 8.22614231,61.7574647 L67.7153396,61.7574647 C72.2601986,61.7574647 74.8303738,59.9845715 76.1055436,56.9708608 C76.5023892,56.0329637 76.749756,55.0154322 76.871283,53.9749801 C76.9552946,53.2557156 76.9700903,52.620539 76.9461046,52.1282704 C76.9429052,52.062608 76.9394639,52.013622 76.9325148,51.8630785 L76.9325148,8.56606017 Z"/>
</svg>
