<?xml version="1.0" encoding="UTF-8"?>
<svg width="200px" height="60px" viewBox="0 0 200 60" version="1.1" xmlns="http://www.w3.org/2000/svg" xmlns:xlink="http://www.w3.org/1999/xlink">
    <!-- Generator: sketchtool 42 (36781) - http://www.bohemiancoding.com/sketch -->
    <title>C429847F-1810-41A5-9523-B4E4D6A6FEAA</title>
    <desc>Created with sketchtool.</desc>
    <defs>
        <polygon id="path-1" points="13.0934483 0.299508197 0.000344827586 0.299508197 0.000344827586 13.3742459 13.0934483 13.3742459 13.0934483 0.299508197"></polygon>
    </defs>
    <g id="Symbols" stroke="none" stroke-width="1" fill="none" fill-rule="evenodd">
        <g id="Logos/Loginlogo">
            <g>
                <g id="Group-3" transform="translate(0.000000, 0.387639)">
                    <mask id="mask-2" fill="white">
                        <use xlink:href="#path-1"></use>
                    </mask>
                    <g id="Clip-2"></g>
                    <path d="M13.0934483,6.83670492 C13.0934483,10.4480164 10.1624138,13.3742459 6.54517241,13.3742459 C2.93137931,13.3742459 0.000344827586,10.4480164 0.000344827586,6.83670492 C0.000344827586,3.22539344 2.93137931,0.299163934 6.54517241,0.299163934 C10.1624138,0.299163934 13.0934483,3.22539344 13.0934483,6.83670492" id="Fill-1" fill="#0CB1E7" mask="url(#mask-2)"></path>
                </g>
                <path d="M13.0934483,21.4268852 C13.0934483,25.0381967 10.1624138,27.9644262 6.54517241,27.9644262 C2.93137931,27.9644262 0.000344827586,25.0381967 0.000344827586,21.4268852 C0.000344827586,17.8155738 2.93137931,14.8893443 6.54517241,14.8893443 C10.1624138,14.8893443 13.0934483,17.8155738 13.0934483,21.4268852" id="Fill-4" fill="#36B449"></path>
                <path d="M13.0934483,35.629082 C13.0934483,39.2403934 10.1624138,42.166623 6.54517241,42.166623 C2.93137931,42.166623 0.000344827586,39.2403934 0.000344827586,35.629082 C0.000344827586,32.0177705 2.93137931,29.091541 6.54517241,29.091541 C10.1624138,29.091541 13.0934483,32.0177705 13.0934483,35.629082" id="Fill-6" fill="#785DA7"></path>
                <path d="M28.5989655,21.4268852 C28.5989655,25.0381967 25.667931,27.9644262 22.0506897,27.9644262 C18.4368966,27.9644262 15.5058621,25.0381967 15.5058621,21.4268852 C15.5058621,17.8155738 18.4368966,14.8893443 22.0506897,14.8893443 C25.667931,14.8893443 28.5989655,17.8155738 28.5989655,21.4268852" id="Fill-8" fill="#F68D1E"></path>
                <path d="M28.5989655,35.629082 C28.5989655,39.2403934 25.667931,42.166623 22.0506897,42.166623 C18.4368966,42.166623 15.5058621,39.2403934 15.5058621,35.629082 C15.5058621,32.0177705 18.4368966,29.091541 22.0506897,29.091541 C25.667931,29.091541 28.5989655,32.0177705 28.5989655,35.629082" id="Fill-10" fill="#F6D30B"></path>
                <path d="M28.5989655,49.831623 C28.5989655,53.4429344 25.667931,56.3691639 22.0506897,56.3691639 C18.4368966,56.3691639 15.5058621,53.4429344 15.5058621,49.831623 C15.5058621,46.2203115 18.4368966,43.294082 22.0506897,43.294082 C25.667931,43.294082 28.5989655,46.2203115 28.5989655,49.831623" id="Fill-12" fill="#ED204B"></path>
                <path d="M40.2106897,18.6982623 C40.2106897,16.381377 40.9244828,14.5843279 42.3486207,13.314 C43.7727586,12.0402295 45.7486207,11.4067869 48.2727586,11.4067869 C49.8624138,11.4067869 51.1555172,11.6271148 52.152069,12.0677705 C53.1486207,12.5084262 53.6451724,13.1831803 53.6451724,14.0885902 C53.6451724,14.5154754 53.527931,14.9320328 53.2865517,15.3348197 C53.0486207,15.7376066 52.852069,15.9923607 52.7003448,16.0921967 C52.2693103,15.889082 51.7417241,15.6997377 51.1106897,15.5241639 C50.4796552,15.3485902 49.7624138,15.259082 48.952069,15.259082 C46.0003448,15.259082 44.5244828,16.8220328 44.5244828,19.9444918 L44.5244828,30.9023607 L40.2106897,30.9023607 L40.2106897,18.6982623 Z" id="Fill-14" fill="#4B4E51"></path>
                <path d="M55.197931,13.9371148 C55.197931,13.231377 55.397931,12.7218689 55.8048276,12.4051475 C56.2082759,12.0918689 56.7737931,11.9335082 57.5082759,11.9335082 C57.96,11.9335082 58.3772414,11.9920328 58.7565517,12.1056393 C59.1324138,12.2192459 59.3875862,12.2984262 59.5117241,12.3500656 L59.5117241,30.9023607 L55.197931,30.9023607 L55.197931,13.9371148 Z M57.3565517,3.43367213 C58.0875862,3.43367213 58.7048276,3.68498361 59.2082759,4.18760656 C59.7151724,4.69367213 59.9668966,5.30990164 59.9668966,6.0397377 C59.9668966,6.76957377 59.7151724,7.3892459 59.2082759,7.89186885 C58.7048276,8.3944918 58.0875862,8.64580328 57.3565517,8.64580328 C56.622069,8.64580328 56.0048276,8.3944918 55.5013793,7.89186885 C54.9944828,7.3892459 54.7427586,6.76957377 54.7427586,6.0397377 C54.7427586,5.30990164 54.9944828,4.69367213 55.5013793,4.18760656 C56.0048276,3.68498361 56.622069,3.43367213 57.3565517,3.43367213 L57.3565517,3.43367213 Z" id="Fill-16" fill="#4B4E51"></path>
                <path d="M69.2768966,30.9023607 C68.0906897,28.7094098 67.0044828,26.6507213 66.0217241,24.7262951 C65.0389655,22.7984262 64.1906897,21.0771148 63.4872414,19.5658033 C62.7803448,18.0544918 62.2355172,16.7979344 61.8596552,15.7892459 C61.4803448,14.7805574 61.2906897,14.126459 61.2906897,13.8235082 C61.2906897,13.2933443 61.4665517,12.8492459 61.8217241,12.4808852 C62.1734483,12.1159672 62.7148276,11.9335082 63.4493103,11.9335082 C63.9768966,11.9335082 64.4148276,11.9851475 64.7527586,12.0849836 C65.0941379,12.1848197 65.2906897,12.2605574 65.3389655,12.3121967 C65.8458621,13.6720328 66.3872414,15.0525246 66.9665517,16.4502295 C67.5493103,17.8479344 68.1217241,19.1699016 68.6906897,20.4161311 C69.2562069,21.6623607 69.7872414,22.7984262 70.2803448,23.8174426 C70.7734483,24.836459 71.1803448,25.676459 71.5113793,26.3305574 C71.9872414,25.4251475 72.507931,24.3544918 73.0631034,23.1185902 C73.6148276,21.8861311 74.1527586,20.664 74.67,19.4521967 C75.1872414,18.2438361 75.6527586,17.1421967 76.07,16.1472787 C76.4872414,15.1523607 76.7837931,14.4294098 76.9596552,13.9749836 C77.2113793,13.3449836 77.5148276,12.8492459 77.8665517,12.4808852 C78.2217241,12.1159672 78.7768966,11.9335082 79.532069,11.9335082 C80.2389655,11.9335082 80.8148276,12.054 81.2562069,12.2949836 C81.6975862,12.5325246 81.9424138,12.6771148 81.9941379,12.7287541 C81.8424138,13.2554754 81.5837931,13.9818689 81.2182759,14.9010492 C80.8527586,15.8202295 80.4113793,16.8461311 79.8941379,17.9787541 C79.3768966,19.1148197 78.8217241,20.299082 78.2286207,21.531541 C77.6355172,22.7674426 77.0493103,23.968918 76.4665517,25.1394098 C75.8872414,26.3099016 75.3389655,27.4012131 74.8217241,28.4099016 C74.3044828,29.4151475 73.87,30.2482623 73.5148276,30.9023607 L69.2768966,30.9023607 Z" id="Fill-18" fill="#4B4E51"></path>
                <path d="M86.9893103,20.5493607 C87.5686207,20.573459 88.1237931,20.5872295 88.6548276,20.5872295 L90.2444828,20.5872295 C91.6306897,20.5872295 92.7548276,20.4977213 93.6134483,20.3221475 C94.4686207,20.1465738 95.1375862,19.9193607 95.6168966,19.6439508 C96.0962069,19.3650984 96.4134483,19.0518197 96.5651724,18.6972295 C96.7168966,18.346082 96.7927586,17.9811639 96.7927586,17.6024754 C96.7927586,16.6454262 96.4065517,15.925918 95.6375862,15.4473934 C94.8686207,14.9688689 93.9168966,14.7313279 92.7789655,14.7313279 C91.8444828,14.7313279 91.0272414,14.8931311 90.3203448,15.2201803 C89.6134483,15.5506721 89.0203448,15.9844426 88.5410345,16.5249344 C88.0617241,17.0688689 87.6893103,17.6919836 87.4237931,18.3942787 C87.1582759,19.1000164 87.0134483,19.8195246 86.9893103,20.5493607 L86.9893103,20.5493607 Z M100.272069,29.503623 C100.072069,29.631 99.7548276,29.8065738 99.3272414,30.0337869 C98.8996552,30.261 98.3617241,30.4744426 97.7203448,30.6741148 C97.0755172,30.8772295 96.3306897,31.0528033 95.4858621,31.2042787 C94.6410345,31.3557541 93.7134483,31.4314918 92.7031034,31.4314918 C91.2927586,31.4314918 89.972069,31.2180492 88.747931,30.7877213 C87.5237931,30.3608361 86.4513793,29.7239508 85.5306897,28.8805082 C84.61,28.0370656 83.8858621,27.0042787 83.3548276,25.7821475 C82.8272414,24.5600164 82.5617241,23.1554262 82.5617241,21.568377 C82.5617241,20.0570656 82.8203448,18.6800164 83.3375862,17.4337869 C83.8548276,16.1841148 84.572069,15.113459 85.4927586,14.2218197 C86.4134483,13.3267377 87.4996552,12.6347705 88.747931,12.1424754 C89.9996552,11.6501803 91.3651724,11.4057541 92.8548276,11.4057541 C94.1686207,11.4057541 95.3272414,11.5744426 96.3375862,11.9152623 C97.347931,12.256082 98.1996552,12.7105082 98.8927586,13.2750984 C99.5858621,13.8431311 100.11,14.5041148 100.461724,15.2580492 C100.816897,16.0154262 100.992759,16.821 100.992759,17.6782131 C100.992759,18.5595246 100.827241,19.3582131 100.499655,20.0777213 C100.172069,20.7937869 99.5927586,21.413459 98.7582759,21.9298525 C97.9272414,22.4462459 96.8031034,22.8490328 95.3927586,23.1382131 C93.9789655,23.4273934 92.1858621,23.5719836 90.0168966,23.5719836 C89.5134483,23.5719836 89.0375862,23.5650984 88.5962069,23.5547705 C88.1548276,23.541 87.6824138,23.5237869 87.1789655,23.4962459 C87.3789655,24.7803443 88.0031034,25.8200164 89.0513793,26.6152623 C90.0996552,27.4070656 91.5927586,27.8029672 93.5375862,27.8029672 C94.1927586,27.8029672 94.7996552,27.7547705 95.3548276,27.6514918 C95.9065517,27.5516557 96.4065517,27.4242787 96.847931,27.2762459 C97.2893103,27.1247705 97.6686207,26.9732951 97.9824138,26.8218197 C98.2996552,26.6703443 98.5341379,26.5567377 98.6858621,26.481 L100.272069,29.503623 Z" id="Fill-20" fill="#4B4E51"></path>
                <path d="M103.263103,18.6982623 C103.263103,16.381377 103.976897,14.5843279 105.401034,13.314 C106.825172,12.0402295 108.801034,11.4067869 111.325172,11.4067869 C112.914828,11.4067869 114.207931,11.6271148 115.204483,12.0677705 C116.201034,12.5084262 116.697586,13.1831803 116.697586,14.0885902 C116.697586,14.5154754 116.580345,14.9320328 116.338966,15.3348197 C116.101034,15.7376066 115.904483,15.9923607 115.752759,16.0921967 C115.321724,15.889082 114.794138,15.6997377 114.163103,15.5241639 C113.532069,15.3485902 112.814828,15.259082 112.007931,15.259082 C109.052759,15.259082 107.576897,16.8220328 107.576897,19.9444918 L107.576897,30.9023607 L103.263103,30.9023607 L103.263103,18.6982623 Z" id="Fill-22" fill="#4B4E51"></path>
                <path d="M118.175172,26.1794262 C118.351034,26.3068033 118.668276,26.4686066 119.12,26.6717213 C119.575172,26.8713934 120.137241,27.0813934 120.806207,27.2948361 C121.475172,27.5082787 122.237241,27.6907377 123.095862,27.8422131 C123.954483,27.9936885 124.885517,28.0694262 125.895862,28.0694262 C127.206207,28.0694262 128.278621,27.8972951 129.113103,27.559918 C129.944138,27.2190984 130.361379,26.6338525 130.361379,25.8007377 C130.361379,25.095 130.095862,24.5613934 129.568276,24.1964754 C129.037241,23.8315574 128.092414,23.5733607 126.726897,23.4218852 L123.775172,23.0810656 C122.768276,22.9812295 121.84069,22.7987705 120.995862,22.5336885 C120.147586,22.2686066 119.423448,21.9105738 118.82,21.4561475 C118.213103,21.0017213 117.74069,20.4440164 117.39931,19.7761475 C117.057931,19.1082787 116.888966,18.3095902 116.888966,17.3766393 C116.888966,16.5710656 117.044138,15.8068033 117.361379,15.0907377 C117.675172,14.3712295 118.175172,13.7343443 118.857931,13.180082 C119.537241,12.6292623 120.426897,12.1920492 121.523448,11.8787705 C122.623448,11.5620492 123.954483,11.4071311 125.516552,11.4071311 C128.14069,11.4071311 130.178621,11.6963115 131.630345,12.2746721 C133.082069,12.8530328 133.806207,13.6104098 133.806207,14.5433607 C133.806207,14.8428689 133.747586,15.1079508 133.637241,15.3351639 C133.523448,15.562377 133.395862,15.7654918 133.257931,15.9410656 C133.12,16.1166393 132.975172,16.2612295 132.823448,16.3748361 C132.671724,16.4884426 132.557931,16.5572951 132.482069,16.5813934 C132.378621,16.4815574 132.157931,16.3231967 131.82,16.1097541 C131.478621,15.8963115 131.016552,15.6828689 130.437241,15.4659836 C129.857931,15.252541 129.164828,15.0631967 128.354483,14.9013934 C127.547586,14.7361475 126.616552,14.6535246 125.554483,14.6535246 C122.626897,14.6535246 121.164828,15.4246721 121.164828,16.960082 C121.164828,17.6141803 121.444138,18.1133607 121.995862,18.4541803 C122.551034,18.7915574 123.347586,19.0256557 124.382069,19.1530328 L128.244138,19.6418852 C130.337241,19.9207377 131.964828,20.4922131 133.123448,21.3631967 C134.285517,22.2307377 134.864828,23.5113934 134.864828,25.1982787 C134.864828,27.0848361 134.113103,28.5961475 132.613103,29.7322131 C131.113103,30.8648361 128.947586,31.4328689 126.123448,31.4328689 C124.761379,31.4328689 123.523448,31.3295902 122.413103,31.129918 C121.302759,30.9268033 120.337241,30.6961475 119.52,30.4310656 C118.69931,30.1659836 118.037241,29.9077869 117.530345,29.6564754 C117.026897,29.4051639 116.69931,29.2158197 116.547586,29.0884426 L118.175172,26.1794262 Z" id="Fill-24" fill="#4B4E51"></path>
                <path d="M150.344828,22.4386721 C150.093103,22.3870328 149.62069,22.3112951 148.924138,22.211459 C148.231034,22.111623 147.189655,22.0599836 145.803448,22.0599836 C144.086207,22.0599836 142.837931,22.3181803 142.055172,22.8345738 C141.275862,23.3509672 140.882759,24.1634262 140.882759,25.2719508 C140.882759,25.726377 140.965517,26.1429344 141.127586,26.5181803 C141.293103,26.8968689 141.575862,27.2170328 141.97931,27.4821148 C142.382759,27.7471967 142.931034,27.9503115 143.627586,28.0880164 C144.32069,28.2257213 145.186207,28.2945738 146.22069,28.2945738 C147.37931,28.2945738 148.3,28.2532623 148.982759,28.1637541 C149.662069,28.0742459 150.117241,28.0053934 150.344828,27.9537541 L150.344828,22.4386721 Z M154.62069,30.8283443 C154.368966,30.876541 153.972414,30.9350656 153.431034,30.9970328 C152.886207,31.059 152.248276,31.1209672 151.517241,31.186377 C150.786207,31.2483443 149.965517,31.3034262 149.058621,31.3550656 C148.148276,31.4067049 147.203448,31.4308033 146.22069,31.4308033 C144.251724,31.4308033 142.644828,31.2621148 141.393103,30.9212951 C140.144828,30.5804754 139.162069,30.1294918 138.441379,29.561459 C137.724138,28.9934262 137.231034,28.3393279 136.965517,27.5957213 C136.7,26.8521148 136.568966,26.0912951 136.568966,25.3098197 C136.568966,24.2770328 136.727586,23.371623 137.041379,22.5901475 C137.355172,21.8086721 137.875862,21.1545738 138.593103,20.6244098 C139.313793,20.0976885 140.251724,19.6983443 141.413793,19.4332623 C142.572414,19.171623 143.986207,19.0373607 145.651724,19.0373607 C146.610345,19.0373607 147.517241,19.0683443 148.375862,19.1337541 C149.234483,19.1957213 149.87931,19.2508033 150.306897,19.3024426 C150.306897,18.4211311 150.162069,17.6912951 149.872414,17.1094918 C149.582759,16.5311311 149.182759,16.0767049 148.67931,15.7496557 C148.175862,15.4226066 147.568966,15.1953934 146.862069,15.071459 C146.155172,14.944082 145.375862,14.8821148 144.517241,14.8821148 C143.07931,14.8821148 141.924138,15.0473607 141.051724,15.3744098 C140.182759,15.701459 139.610345,15.9768689 139.331034,16.204082 C139.17931,16.0767049 138.972414,15.8391639 138.706897,15.4845738 C138.441379,15.1334262 138.310345,14.706541 138.310345,14.2004754 C138.310345,13.8493279 138.403448,13.501623 138.593103,13.1608033 C138.782759,12.8234262 139.117241,12.5204754 139.596552,12.2553934 C140.075862,11.9903115 140.717241,11.7837541 141.527586,11.6322787 C142.334483,11.4808033 143.355172,11.4050656 144.593103,11.4050656 C146.07931,11.4050656 147.437931,11.5496557 148.662069,11.8388361 C149.882759,12.131459 150.937931,12.5893279 151.82069,13.2193279 C152.703448,13.8493279 153.393103,14.679 153.882759,15.7117869 C154.375862,16.7445738 154.62069,17.9942459 154.62069,19.453918 L154.62069,30.8283443 Z" id="Fill-26" fill="#4B4E51"></path>
                <path d="M158.102759,19.453918 C158.102759,18.193918 158.337241,17.0681803 158.802759,16.0732623 C159.268276,15.0783443 159.913103,14.2349016 160.733793,13.5394918 C161.554483,12.8475246 162.523448,12.3173607 163.647586,11.9524426 C164.771724,11.5875246 165.99931,11.4050656 167.337241,11.4050656 C168.675172,11.4050656 169.913103,11.5875246 171.047586,11.9524426 C172.182069,12.3173607 173.161379,12.8475246 173.978621,13.5394918 C174.79931,14.2349016 175.437241,15.0783443 175.892414,16.0732623 C176.344138,17.0681803 176.571724,18.193918 176.571724,19.453918 L176.571724,30.904082 L172.257931,30.904082 L172.257931,20.5486721 C172.257931,18.8376885 171.84069,17.5329344 171.009655,16.6378525 C170.175172,15.7462131 168.951034,15.2986721 167.337241,15.2986721 C165.695862,15.2986721 164.468276,15.7462131 163.647586,16.6378525 C162.826897,17.5329344 162.416552,18.8376885 162.416552,20.5486721 L162.416552,30.904082 L158.102759,30.904082 L158.102759,19.453918 Z" id="Fill-28" fill="#4B4E51"></path>
                <path d="M195.42,21.418623 C195.42,20.5614098 195.275172,19.7558361 194.985517,19.0019016 C194.695862,18.2445246 194.295862,17.5904262 193.792414,17.0361639 C193.288966,16.4819016 192.675172,16.0481311 191.957931,15.7314098 C191.237241,15.4181311 190.451034,15.2597705 189.592414,15.2597705 C188.709655,15.2597705 187.913103,15.4181311 187.206207,15.7314098 C186.49931,16.0481311 185.888966,16.4750164 185.371724,17.0155082 C184.854483,17.5594426 184.457931,18.2066557 184.178621,18.9640328 C183.902759,19.7179672 183.764828,20.5373115 183.764828,21.418623 C183.764828,22.2999344 183.902759,23.1123934 184.178621,23.856 C184.457931,24.5996066 184.854483,25.2399344 185.371724,25.7838689 C185.888966,26.3243607 186.49931,26.7512459 187.206207,27.0679672 C187.913103,27.3812459 188.709655,27.5396066 189.592414,27.5396066 C190.451034,27.5396066 191.237241,27.3881311 191.957931,27.0851803 C192.675172,26.7856721 193.288966,26.3691148 193.792414,25.8389508 C194.295862,25.3122295 194.695862,24.668459 194.985517,23.911082 C195.275172,23.1571475 195.42,22.3240328 195.42,21.418623 L195.42,21.418623 Z M195.42,5.05583607 C195.42,4.37763934 195.616552,3.87501639 196.006207,3.54452459 C196.39931,3.21747541 196.957931,3.05567213 197.692414,3.05567213 C198.144138,3.05567213 198.561379,3.1107541 198.94069,3.22436066 C199.316552,3.33796721 199.568276,3.42059016 199.695862,3.47222951 L199.695862,20.5132131 C199.695862,22.3515738 199.437241,23.9489508 198.92,25.3122295 C198.402759,26.6720656 197.692414,27.8046885 196.782069,28.7100984 C195.875172,29.6189508 194.802759,30.2971475 193.564828,30.7515738 C192.330345,31.206 190.978621,31.4297705 189.516552,31.4297705 C188.026897,31.4297705 186.657931,31.178459 185.409655,30.6758361 C184.161379,30.1732131 183.082069,29.4812459 182.171724,28.5964918 C181.264828,27.7151803 180.551034,26.6582951 180.033793,25.4223934 C179.516552,24.1899344 179.257931,22.8541967 179.257931,21.418623 C179.257931,19.9589508 179.506207,18.6163279 179.995862,17.3941967 C180.488966,16.1720656 181.171724,15.1151803 182.04069,14.2200984 C182.913103,13.3250164 183.933793,12.6330492 185.106207,12.1407541 C186.278621,11.6519016 187.561379,11.4040328 188.947586,11.4040328 C190.409655,11.4040328 191.69931,11.6897705 192.809655,12.2543607 C193.92,12.8223934 194.788966,13.5074754 195.42,14.3164918 L195.42,5.05583607 Z" id="Fill-30" fill="#4B4E51"></path>
                <path d="M41.082069,59.0568197 C41.0993103,58.533541 41.1303448,57.7796066 41.1786207,56.7915738 C41.2234483,55.8069836 41.2751724,54.7019016 41.3406897,53.4866557 C41.4027586,52.2679672 41.4682759,50.9976393 41.5303448,49.6791148 C41.5958621,48.3605902 41.657931,47.0937049 41.7234483,45.8750164 C41.7855172,44.6563279 41.8441379,43.5581311 41.8993103,42.5838689 C41.9544828,41.6061639 41.9993103,40.8556721 42.0337931,40.3323934 C42.0717241,39.6094426 42.2889655,39.0930492 42.6889655,38.793541 C43.0855172,38.4905902 43.5406897,38.3391148 44.0475862,38.3391148 C44.6131034,38.3391148 45.0751724,38.4320656 45.4372414,38.611082 C45.7993103,38.793541 46.0544828,38.9656721 46.1993103,39.1240328 C46.4165517,39.6094426 46.7510345,40.3496066 47.1958621,41.3445246 C47.6372414,42.3428852 48.12,43.4204262 48.6372414,44.5771475 C49.1544828,45.7338689 49.6717241,46.8768197 50.1889655,48.0025574 C50.7062069,49.1317377 51.1372414,50.0681311 51.482069,50.8117377 C51.7889655,50.1266557 52.1751724,49.2763279 52.6372414,48.2607541 C53.1027586,47.2451803 53.5648276,46.2158361 54.0268966,45.1796066 C54.4889655,44.143377 54.9268966,43.1656721 55.3337931,42.2499344 C55.7441379,41.3341967 56.0544828,40.6250164 56.2751724,40.1223934 C56.5268966,39.5371475 56.8441379,39.0930492 57.2268966,38.793541 C57.6062069,38.4905902 58.0958621,38.3391148 58.6958621,38.3391148 C59.2234483,38.3391148 59.6682759,38.4148525 60.0303448,38.5663279 C60.3924138,38.7178033 60.62,38.8417377 60.7131034,38.9450164 C60.7475862,39.5061639 60.7924138,40.3220656 60.8475862,41.3892787 C60.9027586,42.4564918 60.9613793,43.6407541 61.0234483,44.938623 C61.0855172,46.2364918 61.1544828,47.5963279 61.2268966,49.0146885 C61.2993103,50.4364918 61.3751724,51.7928852 61.4441379,53.0941967 C61.52,54.3920656 61.5786207,55.5694426 61.6234483,56.6263279 C61.6682759,57.6832131 61.7096552,58.4922295 61.7441379,59.0568197 L58.5613793,59.0568197 C58.5406897,58.7332131 58.5165517,58.1755082 58.4786207,57.3802623 C58.4406897,56.5850164 58.3958621,55.6658361 58.3441379,54.6158361 C58.2889655,53.5692787 58.2337931,52.4676393 58.1786207,51.310918 C58.1234483,50.1541967 58.0717241,49.056 58.0165517,48.0197705 C57.9613793,46.983541 57.9096552,46.0678033 57.8648276,45.2691148 C57.82,44.4773115 57.7889655,43.9264918 57.7717241,43.623541 C57.6062069,43.988459 57.3889655,44.4704262 57.1165517,45.0728852 C56.8441379,45.6787869 56.5510345,46.3363279 56.2337931,47.0523934 C55.9165517,47.768459 55.582069,48.5189508 55.2372414,49.3004262 C54.8958621,50.0887869 54.5613793,50.8392787 54.2441379,51.5519016 C53.9268966,52.2679672 53.6372414,52.9323934 53.3751724,53.5451803 C53.1096552,54.1579672 52.8958621,54.6468197 52.7337931,55.0117377 L50.0648276,55.0117377 C49.8475862,54.4678033 49.5303448,53.7173115 49.1131034,52.7602623 C48.6958621,51.8032131 48.2475862,50.7807541 47.7648276,49.6963279 C47.2855172,48.608459 46.8027586,47.530918 46.3234483,46.4637049 C45.8406897,45.3964918 45.4096552,44.4704262 45.0303448,43.6855082 C45.0096552,44.1674754 44.9786207,44.8112459 44.9337931,45.6168197 C44.8889655,46.4223934 44.8441379,47.320918 44.7993103,48.3055082 C44.7510345,49.293541 44.7027586,50.3125574 44.6475862,51.3694426 C44.5958621,52.4263279 44.5441379,53.4487869 44.4993103,54.4368197 C44.4510345,55.4248525 44.4131034,56.3199344 44.3751724,57.1255082 C44.3406897,57.931082 44.3131034,58.5748525 44.2958621,59.0568197 L41.082069,59.0568197 Z" id="Fill-32" fill="#0CB1E7"></path>
                <path d="M68.8517241,55.9161148 C68.9586207,55.9574262 69.2517241,56.0021803 69.7206897,56.050377 C70.1931034,56.1020164 70.8551724,56.1261148 71.7103448,56.1261148 C74.1758621,56.1261148 76.0655172,55.4789016 77.3724138,54.1810328 C78.6793103,52.8797213 79.3344828,51.0448033 79.3344828,48.6693934 C79.3344828,47.5815246 79.1827586,46.5797213 78.8827586,45.6639836 C78.5862069,44.7482459 78.1241379,43.9633279 77.5068966,43.3092295 C76.8896552,42.6551311 76.1,42.1387377 75.137931,41.7669344 C74.1758621,41.3951311 73.0344828,41.2092295 71.7103448,41.2092295 C70.837931,41.2092295 70.162069,41.2333279 69.6827586,41.2849672 C69.2,41.3366066 68.9241379,41.3710328 68.8517241,41.3882459 L68.8517241,55.9161148 Z M65.6103448,40.3038197 C65.6103448,39.780541 65.7034483,39.3674262 65.8827586,39.0644754 C66.0655172,38.7615246 66.3862069,38.5377541 66.8482759,38.3862787 C67.3137931,38.2348033 67.9310345,38.1384098 68.7,38.0970984 C69.4724138,38.0592295 70.4586207,38.0385738 71.6551724,38.0385738 C73.3793103,38.0385738 74.9275862,38.283 76.2965517,38.7787377 C77.6689655,39.2710328 78.8275862,39.9767705 79.7827586,40.8925082 C80.7344828,41.8082459 81.4655172,42.9270984 81.9724138,44.2421803 C82.4827586,45.5641475 82.7344828,47.0375902 82.7344828,48.6693934 C82.7344828,50.3184098 82.4896552,51.805623 82,53.1241475 C81.5103448,54.4426721 80.7896552,55.5649672 79.837931,56.4910328 C78.8827586,57.4170984 77.7034483,58.1262787 76.2965517,58.6185738 C74.8896552,59.1108689 73.2689655,59.3587377 71.437931,59.3587377 C69.4965517,59.3587377 68.062069,59.3139836 67.137931,59.2244754 C66.2103448,59.1315246 65.7034483,59.0764426 65.6103448,59.0557869 L65.6103448,40.3038197 Z" id="Fill-34" fill="#0CB1E7"></path>
                <path d="M85.7848276,59.0568197 C85.802069,58.533541 85.8331034,57.7796066 85.8813793,56.7915738 C85.9262069,55.8069836 85.977931,54.7019016 86.0434483,53.4866557 C86.1055172,52.2679672 86.1710345,50.9976393 86.2331034,49.6791148 C86.2986207,48.3605902 86.3606897,47.0937049 86.4262069,45.8750164 C86.4882759,44.6563279 86.5468966,43.5581311 86.602069,42.5838689 C86.6572414,41.6061639 86.702069,40.8556721 86.7365517,40.3323934 C86.7744828,39.6094426 86.9917241,39.0930492 87.3917241,38.793541 C87.7882759,38.4905902 88.2434483,38.3391148 88.7503448,38.3391148 C89.3158621,38.3391148 89.777931,38.4320656 90.14,38.611082 C90.502069,38.793541 90.7572414,38.9656721 90.902069,39.1240328 C91.1193103,39.6094426 91.4537931,40.3496066 91.8986207,41.3445246 C92.34,42.3428852 92.8227586,43.4204262 93.34,44.5771475 C93.8572414,45.7338689 94.3744828,46.8768197 94.8917241,48.0025574 C95.4089655,49.1317377 95.84,50.0681311 96.1848276,50.8117377 C96.4917241,50.1266557 96.877931,49.2763279 97.34,48.2607541 C97.8055172,47.2451803 98.2675862,46.2158361 98.7296552,45.1796066 C99.1917241,44.143377 99.6296552,43.1656721 100.036552,42.2499344 C100.446897,41.3341967 100.757241,40.6250164 100.977931,40.1223934 C101.229655,39.5371475 101.546897,39.0930492 101.929655,38.793541 C102.308966,38.4905902 102.798621,38.3391148 103.398621,38.3391148 C103.926207,38.3391148 104.371034,38.4148525 104.733103,38.5663279 C105.095172,38.7178033 105.322759,38.8417377 105.415862,38.9450164 C105.450345,39.5061639 105.495172,40.3220656 105.550345,41.3892787 C105.605517,42.4564918 105.664138,43.6407541 105.726207,44.938623 C105.788276,46.2364918 105.857241,47.5963279 105.929655,49.0146885 C106.002069,50.4364918 106.077931,51.7928852 106.146897,53.0941967 C106.222759,54.3920656 106.281379,55.5694426 106.326207,56.6263279 C106.371034,57.6832131 106.412414,58.4922295 106.446897,59.0568197 L103.264138,59.0568197 C103.243448,58.7332131 103.21931,58.1755082 103.181379,57.3802623 C103.143448,56.5850164 103.098621,55.6658361 103.046897,54.6158361 C102.991724,53.5692787 102.936552,52.4676393 102.881379,51.310918 C102.826207,50.1541967 102.774483,49.056 102.71931,48.0197705 C102.664138,46.983541 102.612414,46.0678033 102.567586,45.2691148 C102.522759,44.4773115 102.491724,43.9264918 102.474483,43.623541 C102.308966,43.988459 102.091724,44.4704262 101.81931,45.0728852 C101.546897,45.6787869 101.253793,46.3363279 100.936552,47.0523934 C100.61931,47.768459 100.284828,48.5189508 99.94,49.3004262 C99.5986207,50.0887869 99.2641379,50.8392787 98.9468966,51.5519016 C98.6296552,52.2679672 98.34,52.9323934 98.077931,53.5451803 C97.8124138,54.1579672 97.5986207,54.6468197 97.4365517,55.0117377 L94.7675862,55.0117377 C94.5503448,54.4678033 94.2331034,53.7173115 93.8158621,52.7602623 C93.3986207,51.8032131 92.9503448,50.7807541 92.4675862,49.6963279 C91.9882759,48.608459 91.5055172,47.530918 91.0262069,46.4637049 C90.5434483,45.3964918 90.1124138,44.4704262 89.7331034,43.6855082 C89.7124138,44.1674754 89.6813793,44.8112459 89.6365517,45.6168197 C89.5917241,46.4223934 89.5468966,47.320918 89.502069,48.3055082 C89.4537931,49.293541 89.4055172,50.3125574 89.3503448,51.3694426 C89.2986207,52.4263279 89.2468966,53.4487869 89.202069,54.4368197 C89.1537931,55.4248525 89.1158621,56.3199344 89.077931,57.1255082 C89.0434483,57.931082 89.0158621,58.5748525 88.9986207,59.0568197 L85.7848276,59.0568197 Z" id="Fill-36" fill="#0CB1E7"></path>
                <path d="M125.995517,57.6680656 C125.795517,57.8298689 125.519655,58.0192131 125.164483,58.2429836 C124.812759,58.4633115 124.367931,58.6733115 123.83,58.8764262 C123.295517,59.0760984 122.664483,59.2482295 121.940345,59.389377 C121.212759,59.5305246 120.388621,59.599377 119.461034,59.599377 C118.119655,59.599377 116.847241,59.3652787 115.65069,58.8901967 C114.454138,58.4185574 113.395517,57.7300328 112.478276,56.8211803 C111.561034,55.9157705 110.836897,54.7900328 110.302414,53.4405246 C109.764483,52.0910164 109.498966,50.5418361 109.498966,48.789541 C109.498966,47.0579016 109.754138,45.5087213 110.274828,44.1385574 C110.792069,42.7683934 111.498966,41.6185574 112.395517,40.6787213 C113.295517,39.7457705 114.343793,39.0297049 115.540345,38.5374098 C116.740345,38.0416721 118.019655,37.7972459 119.381724,37.7972459 C120.688621,37.7972459 121.757586,37.9177377 122.592069,38.1587213 C123.426552,38.3997049 124.085172,38.6992131 124.567931,39.0503607 C125.047241,39.4015082 125.381724,39.7629836 125.574828,40.1382295 C125.764483,40.5100328 125.861034,40.8164262 125.861034,41.0574098 C125.861034,41.3190492 125.80931,41.5703607 125.70931,41.8147869 C125.60931,42.0557705 125.492069,42.2692131 125.357586,42.462 C125.219655,42.6547869 125.078276,42.8200328 124.933448,42.9611803 C124.788621,43.1023279 124.661034,43.2021639 124.55069,43.2641311 C124.371379,43.0403607 124.119655,42.799377 123.802414,42.5377377 C123.485172,42.2760984 123.10931,42.0351148 122.674828,41.8147869 C122.240345,41.5910164 121.75069,41.4051148 121.202414,41.2536393 C120.661034,41.1021639 120.071379,41.0264262 119.433448,41.0264262 C118.50931,41.0264262 117.647241,41.2054426 116.847241,41.5565902 C116.05069,41.9077377 115.361034,42.4206885 114.778276,43.0954426 C114.198966,43.7701967 113.740345,44.5860984 113.402414,45.5431475 C113.067931,46.5001967 112.902414,47.5811803 112.902414,48.789541 C112.902414,50.0185574 113.078276,51.099541 113.433448,52.0359344 C113.785172,52.9723279 114.271379,53.7572459 114.888621,54.3906885 C115.505862,55.0241311 116.23,55.5026557 117.064483,55.8262623 C117.898966,56.1498689 118.798966,56.3082295 119.761034,56.3082295 C120.905862,56.3082295 121.888621,56.1498689 122.716207,55.8262623 C123.540345,55.5026557 124.143793,55.2031475 124.526552,54.9208525 L125.967931,57.6680656 L125.995517,57.6680656 Z" id="Fill-38" fill="#0CB1E7"></path>
                <path d="M129.97,50.7824754 C130.387241,50.8031311 130.787241,50.813459 131.166552,50.813459 L132.311379,50.813459 C133.311379,50.813459 134.118276,50.7411639 134.735517,50.6000164 C135.352759,50.4588689 135.832069,50.2798525 136.176897,50.056082 C136.521724,49.8357541 136.74931,49.5844426 136.859655,49.3021475 C136.966552,49.0198525 137.021724,48.7272295 137.021724,48.4277213 C137.021724,47.663459 136.745862,47.088541 136.19069,46.7064098 C135.638966,46.3242787 134.952759,46.1314918 134.135517,46.1314918 C133.463103,46.1314918 132.873448,46.2623115 132.366552,46.5239508 C131.856207,46.7855902 131.432069,47.1332951 131.087241,47.5670656 C130.742414,48.0008361 130.473448,48.4965738 130.283793,49.0611639 C130.094138,49.6257541 129.987241,50.1972295 129.97,50.7824754 L129.97,50.7824754 Z M139.525172,57.9396885 C139.380345,58.0395246 139.152759,58.1806721 138.845862,58.3631311 C138.538966,58.5421475 138.152759,58.7142787 137.687241,58.876082 C137.225172,59.0378852 136.69069,59.1790328 136.083793,59.2995246 C135.473448,59.4200164 134.807931,59.478541 134.080345,59.478541 C133.063103,59.478541 132.118276,59.3098525 131.235517,58.9655902 C130.356207,58.6247705 129.583793,58.1152623 128.921724,57.4405082 C128.259655,56.7657541 127.738966,55.9429672 127.356207,54.9652623 C126.976897,53.9875574 126.783793,52.8652623 126.783793,51.598377 C126.783793,50.3900164 126.97,49.288377 127.342414,48.2900164 C127.714828,47.2950984 128.232069,46.4378852 128.894138,45.7252623 C129.556207,45.0091967 130.338966,44.4549344 131.235517,44.0624754 C132.135517,43.6700164 133.118276,43.4737869 134.19069,43.4737869 C135.132069,43.4737869 135.966552,43.6080492 136.694138,43.8800164 C137.421724,44.1519836 138.032069,44.5169016 138.532069,44.9678852 C139.032069,45.4223115 139.407931,45.9490328 139.663103,46.5549344 C139.914828,47.1573934 140.042414,47.8046066 140.042414,48.4862459 C140.042414,49.1919836 139.925172,49.8323115 139.69069,50.4037869 C139.452759,50.9787049 139.035517,51.471 138.435517,51.8841148 C137.838966,52.2972295 137.028621,52.6208361 136.014828,52.8514918 C134.997586,53.0821475 133.707931,53.1991967 132.14931,53.1991967 C131.783793,53.1991967 131.442414,53.1923115 131.125172,53.1819836 C130.807931,53.1716557 130.47,53.1578852 130.104483,53.1372295 C130.24931,54.1631311 130.701034,54.9962459 131.452759,55.6296885 C132.207931,56.2631311 133.280345,56.5798525 134.680345,56.5798525 C135.152759,56.5798525 135.587241,56.538541 135.987241,56.4593607 C136.387241,56.3801803 136.745862,56.2803443 137.063103,56.1564098 C137.380345,56.035918 137.652759,55.9154262 137.880345,55.7949344 C138.104483,55.6744426 138.273448,55.5849344 138.383793,55.5229672 L139.525172,57.9396885 Z" id="Fill-40" fill="#0CB1E7"></path>
                <path d="M142.356552,49.9066721 C142.356552,48.9014262 142.522069,47.999459 142.86,47.2042131 C143.194483,46.4089672 143.656552,45.7342131 144.249655,45.1799508 C144.83931,44.6256885 145.535862,44.2022459 146.342759,43.9130656 C147.153103,43.6204426 148.035862,43.4724098 148.997931,43.4724098 C149.96,43.4724098 150.849655,43.6204426 151.666897,43.9130656 C152.484138,44.2022459 153.187586,44.6256885 153.777241,45.1799508 C154.366897,45.7342131 154.825517,46.4089672 155.149655,47.2042131 C155.477241,47.999459 155.642759,48.9014262 155.642759,49.9066721 L155.642759,59.0571639 L152.53931,59.0571639 L152.53931,50.7810984 C152.53931,49.414377 152.23931,48.3712623 151.63931,47.6551967 C151.03931,46.9425738 150.16,46.584541 148.997931,46.584541 C147.818621,46.584541 146.935862,46.9425738 146.342759,47.6551967 C145.756552,48.3712623 145.46,49.414377 145.46,50.7810984 L145.46,59.0571639 L142.356552,59.0571639 L142.356552,49.9066721 Z" id="Fill-42" fill="#0CB1E7"></path>
                <path d="M158.881724,41.208541 C158.881724,40.6439508 159.026552,40.2377213 159.316207,39.9864098 C159.605862,39.7350984 160.005862,39.6077213 160.516207,39.6077213 C160.840345,39.6077213 161.143793,39.6524754 161.426552,39.7454262 C161.70931,39.8349344 161.895517,39.9003443 161.985172,39.9382131 L161.985172,43.8972295 L165.933448,43.8972295 C166.53,43.8972295 166.954138,44.0314918 167.198966,44.303459 C167.443793,44.5754262 167.564483,44.9747705 167.564483,45.4980492 C167.564483,45.8388689 167.519655,46.1555902 167.43,46.4482131 C167.340345,46.7408361 167.267931,46.9473934 167.212759,47.0678852 L161.985172,47.0678852 L161.985172,53.8016557 C161.985172,54.3249344 162.05069,54.7518197 162.174828,55.0857541 C162.302414,55.4162459 162.478276,55.6847705 162.705862,55.8844426 C162.933448,56.0875574 163.195517,56.2287049 163.495517,56.3078852 C163.795517,56.3905082 164.10931,56.428377 164.436897,56.428377 C164.961034,56.428377 165.45069,56.3388689 165.905862,56.1564098 C166.357586,55.9773934 166.685172,55.8052623 166.885172,55.643459 L168.136897,57.9396885 C167.992069,58.0601803 167.788621,58.2116557 167.526552,58.3941148 C167.261034,58.5731311 166.940345,58.7452623 166.557586,58.9070656 C166.178276,59.0654262 165.75069,59.2031311 165.278276,59.3132951 C164.805862,59.423459 164.288621,59.478541 163.726552,59.478541 C162.13,59.478541 160.923103,59.0206721 160.105862,58.1049344 C159.288621,57.1891967 158.881724,55.9877213 158.881724,54.4970656 L158.881724,41.208541 Z" id="Fill-44" fill="#0CB1E7"></path>
                <path d="M171.812414,50.7824754 C172.229655,50.8031311 172.629655,50.813459 173.008966,50.813459 L174.153793,50.813459 C175.153793,50.813459 175.96069,50.7411639 176.577931,50.6000164 C177.195172,50.4588689 177.674483,50.2798525 178.01931,50.056082 C178.364138,49.8357541 178.591724,49.5844426 178.702069,49.3021475 C178.808966,49.0198525 178.864138,48.7272295 178.864138,48.4277213 C178.864138,47.663459 178.588276,47.088541 178.033103,46.7064098 C177.481379,46.3242787 176.795172,46.1314918 175.977931,46.1314918 C175.305517,46.1314918 174.715862,46.2623115 174.208966,46.5239508 C173.698621,46.7855902 173.274483,47.1332951 172.929655,47.5670656 C172.584828,48.0008361 172.315862,48.4965738 172.126207,49.0611639 C171.936552,49.6257541 171.829655,50.1972295 171.812414,50.7824754 L171.812414,50.7824754 Z M181.367586,57.9396885 C181.222759,58.0395246 180.995172,58.1806721 180.688276,58.3631311 C180.381379,58.5421475 179.995172,58.7142787 179.529655,58.876082 C179.067586,59.0378852 178.533103,59.1790328 177.926207,59.2995246 C177.315862,59.4200164 176.650345,59.478541 175.922759,59.478541 C174.905517,59.478541 173.96069,59.3098525 173.077931,58.9655902 C172.198621,58.6247705 171.426207,58.1152623 170.764138,57.4405082 C170.102069,56.7657541 169.581379,55.9429672 169.198621,54.9652623 C168.81931,53.9875574 168.626207,52.8652623 168.626207,51.598377 C168.626207,50.3900164 168.812414,49.288377 169.184828,48.2900164 C169.557241,47.2950984 170.074483,46.4378852 170.736552,45.7252623 C171.398621,45.0091967 172.181379,44.4549344 173.077931,44.0624754 C173.977931,43.6700164 174.96069,43.4737869 176.033103,43.4737869 C176.974483,43.4737869 177.808966,43.6080492 178.536552,43.8800164 C179.264138,44.1519836 179.874483,44.5169016 180.374483,44.9678852 C180.874483,45.4223115 181.250345,45.9490328 181.505517,46.5549344 C181.757241,47.1573934 181.884828,47.8046066 181.884828,48.4862459 C181.884828,49.1919836 181.767586,49.8323115 181.533103,50.4037869 C181.295172,50.9787049 180.877931,51.471 180.277931,51.8841148 C179.681379,52.2972295 178.871034,52.6208361 177.857241,52.8514918 C176.84,53.0821475 175.550345,53.1991967 173.991724,53.1991967 C173.626207,53.1991967 173.284828,53.1923115 172.967586,53.1819836 C172.650345,53.1716557 172.312414,53.1578852 171.946897,53.1372295 C172.091724,54.1631311 172.543448,54.9962459 173.295172,55.6296885 C174.050345,56.2631311 175.122759,56.5798525 176.522759,56.5798525 C176.995172,56.5798525 177.429655,56.538541 177.829655,56.4593607 C178.229655,56.3801803 178.588276,56.2803443 178.905517,56.1564098 C179.222759,56.035918 179.495172,55.9154262 179.722759,55.7949344 C179.946897,55.6744426 180.115862,55.5849344 180.226207,55.5229672 L181.367586,57.9396885 Z" id="Fill-46" fill="#0CB1E7"></path>
                <path d="M184.20069,49.3021475 C184.20069,47.4500164 184.711034,46.0144426 185.738621,44.9988689 C186.762759,43.9832951 188.183448,43.4737869 190.00069,43.4737869 C191.142069,43.4737869 192.073103,43.6493607 192.790345,44.0005082 C193.507586,44.3550984 193.866207,44.8921475 193.866207,45.618541 C193.866207,45.9593607 193.78,46.2932951 193.607586,46.613459 C193.431724,46.9370656 193.293793,47.1401803 193.183448,47.2193607 C192.876552,47.0575574 192.493793,46.906082 192.042069,46.7649344 C191.586897,46.6237869 191.069655,46.5549344 190.490345,46.5549344 C188.366207,46.5549344 187.304138,47.8011639 187.304138,50.3005082 L187.304138,59.058541 L184.20069,59.058541 L184.20069,49.3021475 Z" id="Fill-48" fill="#0CB1E7"></path>
            </g>
        </g>
    </g>
</svg>