<?xml version="1.0" encoding="UTF-8"?>
<svg width="85px" height="19px" viewBox="0 0 85 19" version="1.1" xmlns="http://www.w3.org/2000/svg" xmlns:xlink="http://www.w3.org/1999/xlink">
    <!-- Generator: sketchtool 41.2 (35397) - http://www.bohemiancoding.com/sketch -->
    <title>472B71E5-5756-474C-8CEF-E67F4DEF8684</title>
    <desc>Created with sketchtool.</desc>
    <defs>
        <polygon id="path-1" points="4.03441875 0.9424375 0.00010625 0.9424375 0.00010625 4.97770625 4.03441875 4.97770625 4.03441875 0.9424375"></polygon>
        <polygon id="path-3" points="1.9114375 5.2417375 1.9114375 0.807925 0.072675 0.807925 0.072675 5.2417375"></polygon>
    </defs>
    <g id="Symbols" stroke="none" stroke-width="1" fill="none" fill-rule="evenodd">
        <g id="Tabs/TopHeader" transform="translate(-10.000000, -11.000000)">
            <g>
                <g id="TopHeader" fill="#FFFFFF">
                    <g>
                        <rect id="topheaderbg" x="0" y="0" width="1388" height="40"></rect>
                    </g>
                </g>
                <g id="Logo" transform="translate(10.000000, 10.000000)">
                    <g id="Group-3" transform="translate(0.000000, 0.119638)">
                        <mask id="mask-2" fill="white">
                            <use xlink:href="#path-1"></use>
                        </mask>
                        <g id="Clip-2"></g>
                        <path d="M4.03441875,2.96001875 C4.03441875,4.07458125 3.13129375,4.97770625 2.01673125,4.97770625 C0.90323125,4.97770625 0.00010625,4.07458125 0.00010625,2.96001875 C0.00010625,1.84545625 0.90323125,0.94233125 2.01673125,0.94233125 C3.13129375,0.94233125 4.03441875,1.84545625 4.03441875,2.96001875" id="Fill-1" fill="#0CB1E7" mask="url(#mask-2)"></path>
                    </g>
                    <path d="M4.03441875,7.463 C4.03441875,8.5775625 3.13129375,9.4806875 2.01673125,9.4806875 C0.90323125,9.4806875 0.00010625,8.5775625 0.00010625,7.463 C0.00010625,6.3484375 0.90323125,5.4453125 2.01673125,5.4453125 C3.13129375,5.4453125 4.03441875,6.3484375 4.03441875,7.463" id="Fill-4" fill="#36B449"></path>
                    <path d="M4.03441875,11.8462375 C4.03441875,12.9608 3.13129375,13.863925 2.01673125,13.863925 C0.90323125,13.863925 0.00010625,12.9608 0.00010625,11.8462375 C0.00010625,10.731675 0.90323125,9.82855 2.01673125,9.82855 C3.13129375,9.82855 4.03441875,10.731675 4.03441875,11.8462375" id="Fill-6" fill="#785DA7"></path>
                    <path d="M8.81205625,7.463 C8.81205625,8.5775625 7.90893125,9.4806875 6.79436875,9.4806875 C5.68086875,9.4806875 4.77774375,8.5775625 4.77774375,7.463 C4.77774375,6.3484375 5.68086875,5.4453125 6.79436875,5.4453125 C7.90893125,5.4453125 8.81205625,6.3484375 8.81205625,7.463" id="Fill-8" fill="#F68D1E"></path>
                    <path d="M8.81205625,11.8462375 C8.81205625,12.9608 7.90893125,13.863925 6.79436875,13.863925 C5.68086875,13.863925 4.77774375,12.9608 4.77774375,11.8462375 C4.77774375,10.731675 5.68086875,9.82855 6.79436875,9.82855 C7.90893125,9.82855 8.81205625,10.731675 8.81205625,11.8462375" id="Fill-10" fill="#F6D30B"></path>
                    <path d="M8.81205625,16.2295812 C8.81205625,17.3441437 7.90893125,18.2472687 6.79436875,18.2472687 C5.68086875,18.2472687 4.77774375,17.3441437 4.77774375,16.2295812 C4.77774375,15.1150187 5.68086875,14.2118937 6.79436875,14.2118937 C7.90893125,14.2118937 8.81205625,15.1150187 8.81205625,16.2295812" id="Fill-12" fill="#ED204B"></path>
                    <path d="M12.3899187,6.6208625 C12.3899187,5.9058 12.6098562,5.351175 13.0486687,4.9591125 C13.4874812,4.5659875 14.0962937,4.3704875 14.8740437,4.3704875 C15.3638562,4.3704875 15.7622937,4.4384875 16.0693563,4.5744875 C16.3764187,4.7104875 16.5294188,4.9187375 16.5294188,5.198175 C16.5294188,5.329925 16.4932937,5.4584875 16.4189187,5.5828 C16.3456062,5.7071125 16.2850437,5.7857375 16.2382938,5.81655 C16.1054813,5.7538625 15.9429187,5.695425 15.7484812,5.6412375 C15.5540437,5.58705 15.3330437,5.559425 15.0833562,5.559425 C14.1738562,5.559425 13.7191062,6.0418 13.7191062,7.0054875 L13.7191062,10.387425 L12.3899187,10.387425 L12.3899187,6.6208625 Z" id="Fill-14" fill="#4B4E51"></path>
                    <path d="M17.0078625,5.151425 C17.0078625,4.9336125 17.0694875,4.7763625 17.1948625,4.6786125 C17.319175,4.581925 17.493425,4.53305 17.7197375,4.53305 C17.858925,4.53305 17.9874875,4.5511125 18.1043625,4.586175 C18.220175,4.6212375 18.2988,4.645675 18.33705,4.6616125 L18.33705,10.387425 L17.0078625,10.387425 L17.0078625,5.151425 Z M17.6729875,1.9097375 C17.8982375,1.9097375 18.088425,1.9873 18.24355,2.142425 C18.3997375,2.2986125 18.4773,2.4888 18.4773,2.71405 C18.4773,2.9393 18.3997375,3.13055 18.24355,3.285675 C18.088425,3.4408 17.8982375,3.5183625 17.6729875,3.5183625 C17.446675,3.5183625 17.2564875,3.4408 17.1013625,3.285675 C16.945175,3.13055 16.8676125,2.9393 16.8676125,2.71405 C16.8676125,2.4888 16.945175,2.2986125 17.1013625,2.142425 C17.2564875,1.9873 17.446675,1.9097375 17.6729875,1.9097375 L17.6729875,1.9097375 Z" id="Fill-16" fill="#4B4E51"></path>
                    <path d="M21.3459437,10.387425 C20.9804437,9.7106125 20.6457562,9.0752375 20.3429437,8.4813 C20.0401312,7.8863 19.7787562,7.35505 19.5620062,6.8886125 C19.3441937,6.422175 19.1763187,6.0343625 19.0605062,5.72305 C18.9436312,5.4117375 18.8851937,5.2098625 18.8851937,5.1163625 C18.8851937,4.9527375 18.9393812,4.815675 19.0488187,4.7019875 C19.1571937,4.5893625 19.3240062,4.53305 19.5503187,4.53305 C19.7128812,4.53305 19.8478187,4.5489875 19.9519437,4.5798 C20.0571312,4.6106125 20.1176937,4.6339875 20.1325687,4.649925 C20.2887562,5.0696125 20.4555687,5.495675 20.6340687,5.92705 C20.8136312,6.358425 20.9900062,6.766425 21.1653187,7.15105 C21.3395687,7.535675 21.5031937,7.8863 21.6551312,8.2008 C21.8070687,8.5153 21.9324437,8.77455 22.0344437,8.976425 C22.1810687,8.6969875 22.3415062,8.36655 22.5125687,7.9851125 C22.6825687,7.6047375 22.8483187,7.22755 23.0076937,6.85355 C23.1670687,6.4806125 23.3105062,6.1406125 23.4390687,5.83355 C23.5676312,5.5264875 23.6590062,5.3033625 23.7131937,5.1631125 C23.7907562,4.968675 23.8842562,4.815675 23.9926312,4.7019875 C24.1020687,4.5893625 24.2731312,4.53305 24.5058187,4.53305 C24.7236312,4.53305 24.9010687,4.5702375 25.0370687,4.6446125 C25.1730687,4.717925 25.2485062,4.76255 25.2644437,4.7784875 C25.2176937,4.94105 25.1380062,5.1652375 25.0253812,5.448925 C24.9127562,5.7326125 24.7767562,6.0492375 24.6173812,6.3988 C24.4580062,6.749425 24.2869437,7.114925 24.1041937,7.4953 C23.9214437,7.8767375 23.7408187,8.24755 23.5612562,8.6088 C23.3827562,8.97005 23.2138187,9.3068625 23.0544437,9.618175 C22.8950687,9.928425 22.7611937,10.18555 22.6517562,10.387425 L21.3459437,10.387425 Z" id="Fill-18" fill="#4B4E51"></path>
                    <path d="M26.8035812,7.19216875 C26.9820812,7.19960625 27.1531437,7.20385625 27.3167687,7.20385625 L27.8065812,7.20385625 C28.2337062,7.20385625 28.5800812,7.17623125 28.8446437,7.12204375 C29.1081437,7.06785625 29.3142687,6.99773125 29.4619562,6.91273125 C29.6096437,6.82666875 29.7073937,6.72998125 29.7541438,6.62054375 C29.8008938,6.51216875 29.8242687,6.39954375 29.8242687,6.28266875 C29.8242687,5.98729375 29.7052688,5.76523125 29.4683312,5.61754375 C29.2313937,5.46985625 28.9381437,5.39654375 28.5875187,5.39654375 C28.2995812,5.39654375 28.0477687,5.44648125 27.8299562,5.54741875 C27.6121437,5.64941875 27.4293937,5.78329375 27.2817062,5.95010625 C27.1340187,6.11798125 27.0192687,6.31029375 26.9374562,6.52704375 C26.8556437,6.74485625 26.8110187,6.96691875 26.8035812,7.19216875 L26.8035812,7.19216875 Z M30.8963312,9.95573125 C30.8347062,9.99504375 30.7369562,10.0492313 30.6052062,10.1193563 C30.4734562,10.1894813 30.3077063,10.2553563 30.1100813,10.3169813 C29.9113937,10.3796688 29.6818937,10.4338563 29.4215812,10.4806063 C29.1612687,10.5273563 28.8754562,10.5507313 28.5641437,10.5507313 C28.1295812,10.5507313 27.7226437,10.4848562 27.3454562,10.3520437 C26.9682687,10.2202937 26.6378312,10.0237313 26.3541437,9.76341875 C26.0704562,9.50310625 25.8473312,9.18435625 25.6837062,8.80716875 C25.5211437,8.42998125 25.4393312,7.99648125 25.4393312,7.50666875 C25.4393312,7.04023125 25.5190187,6.61523125 25.6783937,6.23060625 C25.8377687,5.84491875 26.0587687,5.51448125 26.3424562,5.23929375 C26.6261437,4.96304375 26.9608312,4.74948125 27.3454562,4.59754375 C27.7311437,4.44560625 28.1518937,4.37016875 28.6108937,4.37016875 C29.0157062,4.37016875 29.3727062,4.42223125 29.6840187,4.52741875 C29.9953312,4.63260625 30.2577688,4.77285625 30.4713312,4.94710625 C30.6848938,5.12241875 30.8463938,5.32641875 30.9547687,5.55910625 C31.0642062,5.79285625 31.1183937,6.04148125 31.1183937,6.30604375 C31.1183937,6.57804375 31.0673937,6.82454375 30.9664563,7.04660625 C30.8655187,7.26760625 30.6870188,7.45885625 30.4298937,7.61823125 C30.1738312,7.77760625 29.8274562,7.90191875 29.3928937,7.99116875 C28.9572687,8.08041875 28.4047687,8.12504375 27.7364562,8.12504375 C27.5813312,8.12504375 27.4347062,8.12291875 27.2987062,8.11973125 C27.1627062,8.11548125 27.0171437,8.11016875 26.8620187,8.10166875 C26.9236437,8.49798125 27.1159562,8.81885625 27.4389562,9.06429375 C27.7619562,9.30866875 28.2220187,9.43085625 28.8212687,9.43085625 C29.0231437,9.43085625 29.2101438,9.41598125 29.3812063,9.38410625 C29.5512062,9.35329375 29.7052688,9.31398125 29.8412688,9.26829375 C29.9772688,9.22154375 30.0941438,9.17479375 30.1908312,9.12804375 C30.2885813,9.08129375 30.3608312,9.04623125 30.4075812,9.02285625 L30.8963312,9.95573125 Z" id="Fill-20" fill="#4B4E51"></path>
                    <path d="M31.8179437,6.6208625 C31.8179437,5.9058 32.0378812,5.351175 32.4766937,4.9591125 C32.9155062,4.5659875 33.5243187,4.3704875 34.3020687,4.3704875 C34.7918812,4.3704875 35.1903188,4.4384875 35.4973813,4.5744875 C35.8044438,4.7104875 35.9574438,4.9187375 35.9574438,5.198175 C35.9574438,5.329925 35.9213188,5.4584875 35.8469438,5.5828 C35.7736313,5.7071125 35.7130687,5.7857375 35.6663188,5.81655 C35.5335063,5.7538625 35.3709438,5.695425 35.1765063,5.6412375 C34.9820688,5.58705 34.7610687,5.559425 34.5124438,5.559425 C33.6018812,5.559425 33.1471313,6.0418 33.1471313,7.0054875 L33.1471313,10.387425 L31.8179437,10.387425 L31.8179437,6.6208625 Z" id="Fill-22" fill="#4B4E51"></path>
                    <path d="M36.412725,8.92978125 C36.4669125,8.96909375 36.5646625,9.01903125 36.70385,9.08171875 C36.8441,9.14334375 37.0172875,9.20815625 37.2234125,9.27403125 C37.4295375,9.33990625 37.66435,9.39621875 37.9289125,9.44296875 C38.193475,9.48971875 38.48035,9.51309375 38.7916625,9.51309375 C39.1954125,9.51309375 39.52585,9.45996875 39.782975,9.35584375 C40.0390375,9.25065625 40.1676,9.07003125 40.1676,8.81290625 C40.1676,8.59509375 40.0857875,8.43040625 39.923225,8.31778125 C39.7596,8.20515625 39.468475,8.12546875 39.047725,8.07871875 L38.138225,7.97353125 C37.827975,7.94271875 37.5421625,7.88640625 37.28185,7.80459375 C37.020475,7.72278125 36.79735,7.61228125 36.6114125,7.47203125 C36.4244125,7.33178125 36.27885,7.15965625 36.1736625,6.95353125 C36.068475,6.74740625 36.0164125,6.50090625 36.0164125,6.21296875 C36.0164125,5.96434375 36.064225,5.72846875 36.161975,5.50746875 C36.2586625,5.28540625 36.412725,5.08884375 36.6231,4.91778125 C36.8324125,4.74778125 37.1065375,4.61284375 37.4444125,4.51615625 C37.78335,4.41840625 38.193475,4.37059375 38.6747875,4.37059375 C39.48335,4.37059375 40.1112875,4.45984375 40.5586,4.63834375 C41.0059125,4.81684375 41.2290375,5.05059375 41.2290375,5.33853125 C41.2290375,5.43096875 41.210975,5.51278125 41.176975,5.58290625 C41.1419125,5.65303125 41.1026,5.71571875 41.0601,5.76990625 C41.0176,5.82409375 40.972975,5.86871875 40.926225,5.90378125 C40.879475,5.93884375 40.8444125,5.96009375 40.8210375,5.96753125 C40.7891625,5.93671875 40.7211625,5.88784375 40.6170375,5.82196875 C40.51185,5.75609375 40.369475,5.69021875 40.190975,5.62328125 C40.012475,5.55740625 39.7989125,5.49896875 39.549225,5.44903125 C39.3006,5.39803125 39.013725,5.37253125 38.686475,5.37253125 C37.7844125,5.37253125 37.3339125,5.61053125 37.3339125,6.08440625 C37.3339125,6.28628125 37.419975,6.44034375 37.589975,6.54553125 C37.7610375,6.64965625 38.006475,6.72190625 38.325225,6.76121875 L39.515225,6.91209375 C40.1601625,6.99815625 40.6616625,7.17453125 41.0186625,7.44334375 C41.376725,7.71109375 41.555225,8.10634375 41.555225,8.62696875 C41.555225,9.20921875 41.3236,9.67565625 40.8614125,10.0262813 C40.399225,10.3758438 39.731975,10.5511563 38.8617875,10.5511563 C38.4421,10.5511563 38.0606625,10.5192813 37.7185375,10.4576563 C37.3764125,10.3949688 37.0789125,10.3237812 36.8271,10.2419687 C36.574225,10.1601562 36.370225,10.0804688 36.2140375,10.0029062 C36.0589125,9.92534375 35.957975,9.86690625 35.911225,9.82759375 L36.412725,8.92978125 Z" id="Fill-24" fill="#4B4E51"></path>
                    <path d="M46.325,7.77526875 C46.2474375,7.75933125 46.101875,7.73595625 45.88725,7.70514375 C45.6736875,7.67433125 45.3528125,7.65839375 44.9256875,7.65839375 C44.3965625,7.65839375 44.0119375,7.73808125 43.77075,7.89745625 C43.530625,8.05683125 43.4095,8.30758125 43.4095,8.64970625 C43.4095,8.78995625 43.435,8.91851875 43.4849375,9.03433125 C43.5359375,9.15120625 43.6230625,9.25001875 43.747375,9.33183125 C43.8716875,9.41364375 44.040625,9.47633125 44.25525,9.51883125 C44.4688125,9.56133125 44.7355,9.58258125 45.05425,9.58258125 C45.41125,9.58258125 45.6949375,9.56983125 45.9053125,9.54220625 C46.114625,9.51458125 46.254875,9.49333125 46.325,9.47739375 L46.325,7.77526875 Z M47.6425,10.3645812 C47.5649375,10.3794562 47.44275,10.3975187 47.2759375,10.4166437 C47.1080625,10.4357687 46.9115,10.4548937 46.68625,10.4750812 C46.461,10.4942062 46.208125,10.5112062 45.9286875,10.5271437 C45.6481875,10.5430812 45.3570625,10.5505187 45.05425,10.5505187 C44.4475625,10.5505187 43.9524375,10.4984562 43.56675,10.3932687 C43.182125,10.2880812 42.8793125,10.1488937 42.65725,9.97358125 C42.43625,9.79826875 42.2843125,9.59639375 42.2025,9.36689375 C42.1206875,9.13739375 42.0803125,8.90258125 42.0803125,8.66139375 C42.0803125,8.34264375 42.1291875,8.06320625 42.225875,7.82201875 C42.3225625,7.58083125 42.483,7.37895625 42.704,7.21533125 C42.9260625,7.05276875 43.2150625,6.92951875 43.573125,6.84770625 C43.930125,6.76695625 44.36575,6.72551875 44.8789375,6.72551875 C45.1743125,6.72551875 45.45375,6.73508125 45.7183125,6.75526875 C45.982875,6.77439375 46.1815625,6.79139375 46.3133125,6.80733125 C46.3133125,6.53533125 46.2686875,6.31008125 46.1794375,6.13051875 C46.0901875,5.95201875 45.9669375,5.81176875 45.8118125,5.71083125 C45.6566875,5.60989375 45.4696875,5.53976875 45.251875,5.50151875 C45.0340625,5.46220625 44.7939375,5.44308125 44.529375,5.44308125 C44.0863125,5.44308125 43.730375,5.49408125 43.4615625,5.59501875 C43.1938125,5.69595625 43.0174375,5.78095625 42.931375,5.85108125 C42.884625,5.81176875 42.820875,5.73845625 42.7390625,5.62901875 C42.65725,5.52064375 42.616875,5.38889375 42.616875,5.23270625 C42.616875,5.12433125 42.6455625,5.01701875 42.704,4.91183125 C42.7624375,4.80770625 42.8655,4.71420625 43.0131875,4.63239375 C43.160875,4.55058125 43.3585,4.48683125 43.6081875,4.44008125 C43.8568125,4.39333125 44.1713125,4.36995625 44.55275,4.36995625 C45.0106875,4.36995625 45.4293125,4.41458125 45.8065,4.50383125 C46.182625,4.59414375 46.50775,4.73545625 46.77975,4.92989375 C47.05175,5.12433125 47.26425,5.38039375 47.415125,5.69914375 C47.5670625,6.01789375 47.6425,6.40358125 47.6425,6.85408125 L47.6425,10.3645812 Z" id="Fill-26" fill="#4B4E51"></path>
                    <path d="M48.7154125,6.85408125 C48.7154125,6.46520625 48.7876625,6.11776875 48.9311,5.81070625 C49.0745375,5.50364375 49.273225,5.24333125 49.5261,5.02870625 C49.778975,4.81514375 50.0775375,4.65151875 50.4239125,4.53889375 C50.7702875,4.42626875 51.1485375,4.36995625 51.5607875,4.36995625 C51.9730375,4.36995625 52.354475,4.42626875 52.7040375,4.53889375 C53.0536,4.65151875 53.35535,4.81514375 53.6071625,5.02870625 C53.8600375,5.24333125 54.0566,5.50364375 54.19685,5.81070625 C54.3360375,6.11776875 54.4061625,6.46520625 54.4061625,6.85408125 L54.4061625,10.3879563 L53.076975,10.3879563 L53.076975,7.19195625 C53.076975,6.66389375 52.9484125,6.26120625 52.69235,5.98495625 C52.435225,5.70976875 52.0580375,5.57164375 51.5607875,5.57164375 C51.0550375,5.57164375 50.6767875,5.70976875 50.4239125,5.98495625 C50.1710375,6.26120625 50.0446,6.66389375 50.0446,7.19195625 L50.0446,10.3879563 L48.7154125,10.3879563 L48.7154125,6.85408125 Z" id="Fill-28" fill="#4B4E51"></path>
                    <path d="M60.2137875,7.46045 C60.2137875,7.1958875 60.1691625,6.9472625 60.0799125,6.714575 C59.9906625,6.480825 59.8674125,6.27895 59.7122875,6.1078875 C59.5571625,5.936825 59.3680375,5.80295 59.1470375,5.7052 C58.924975,5.6085125 58.682725,5.5596375 58.4181625,5.5596375 C58.1461625,5.5596375 57.900725,5.6085125 57.6829125,5.7052 C57.4651,5.80295 57.2770375,5.9347 57.1176625,6.1015125 C56.9582875,6.2693875 56.8361,6.4691375 56.7500375,6.7028875 C56.6650375,6.935575 56.6225375,7.18845 56.6225375,7.46045 C56.6225375,7.73245 56.6650375,7.9832 56.7500375,8.2127 C56.8361,8.4422 56.9582875,8.639825 57.1176625,8.8077 C57.2770375,8.9745125 57.4651,9.1062625 57.6829125,9.2040125 C57.900725,9.3007 58.1461625,9.349575 58.4181625,9.349575 C58.682725,9.349575 58.924975,9.302825 59.1470375,9.209325 C59.3680375,9.1168875 59.5571625,8.988325 59.7122875,8.8247 C59.8674125,8.6621375 59.9906625,8.46345 60.0799125,8.2297 C60.1691625,7.9970125 60.2137875,7.7398875 60.2137875,7.46045 L60.2137875,7.46045 Z M60.2137875,2.4103875 C60.2137875,2.201075 60.27435,2.04595 60.3944125,1.94395 C60.5155375,1.8430125 60.6876625,1.793075 60.913975,1.793075 C61.0531625,1.793075 61.181725,1.810075 61.2986,1.8451375 C61.4144125,1.8802 61.491975,1.9057 61.5312875,1.9216375 L61.5312875,7.1810125 C61.5312875,7.7483875 61.4516,8.2413875 61.292225,8.6621375 C61.13285,9.081825 60.913975,9.4313875 60.633475,9.710825 C60.3540375,9.991325 60.0236,10.2006375 59.6421625,10.3408875 C59.2617875,10.4811375 58.8452875,10.5502 58.3947875,10.5502 C57.9357875,10.5502 57.513975,10.4726375 57.12935,10.3175125 C56.744725,10.1623875 56.4121625,9.948825 56.1316625,9.6757625 C55.852225,9.4037625 55.6322875,9.077575 55.4729125,8.6961375 C55.3135375,8.3157625 55.23385,7.9035125 55.23385,7.46045 C55.23385,7.00995 55.31035,6.595575 55.461225,6.2183875 C55.6131625,5.8412 55.8235375,5.5150125 56.0912875,5.2387625 C56.3601,4.9625125 56.6746,4.74895 57.03585,4.5970125 C57.3971,4.4461375 57.79235,4.3696375 58.219475,4.3696375 C58.669975,4.3696375 59.06735,4.457825 59.409475,4.632075 C59.7516,4.8073875 60.01935,5.018825 60.2137875,5.2685125 L60.2137875,2.4103875 Z" id="Fill-30" fill="#4B4E51"></path>
                    <path d="M12.6584125,19.0767625 C12.663725,18.9152625 12.6732875,18.682575 12.6881625,18.3776375 C12.701975,18.0737625 12.7179125,17.7327 12.7381,17.3576375 C12.757225,16.9815125 12.7774125,16.58945 12.7965375,16.1825125 C12.816725,15.775575 12.83585,15.384575 12.8560375,15.00845 C12.8751625,14.632325 12.893225,14.2933875 12.910225,13.9927 C12.927225,13.69095 12.9410375,13.459325 12.9516625,13.297825 C12.96335,13.0747 13.0302875,12.915325 13.1535375,12.8228875 C13.275725,12.7293875 13.415975,12.6826375 13.5721625,12.6826375 C13.7464125,12.6826375 13.8887875,12.711325 14.00035,12.766575 C14.1119125,12.8228875 14.1905375,12.8760125 14.2351625,12.9248875 C14.3021,13.0747 14.4051625,13.3031375 14.542225,13.6102 C14.678225,13.918325 14.826975,14.2508875 14.98635,14.6078875 C15.145725,14.9648875 15.3051,15.3176375 15.464475,15.665075 C15.62385,16.013575 15.7566625,16.302575 15.8629125,16.532075 C15.957475,16.3206375 16.076475,16.0582 16.21885,15.7447625 C16.3622875,15.431325 16.5046625,15.1136375 16.6470375,14.793825 C16.7894125,14.4740125 16.92435,14.1722625 17.049725,13.8896375 C17.1761625,13.6070125 17.2717875,13.3881375 17.3397875,13.2330125 C17.41735,13.0523875 17.5151,12.915325 17.6330375,12.8228875 C17.7499125,12.7293875 17.9007875,12.6826375 18.0856625,12.6826375 C18.248225,12.6826375 18.3852875,12.7060125 18.49685,12.7527625 C18.6084125,12.7995125 18.6785375,12.8377625 18.707225,12.8696375 C18.71785,13.042825 18.7316625,13.2946375 18.7486625,13.6240125 C18.7656625,13.9533875 18.783725,14.3188875 18.80285,14.71945 C18.821975,15.1200125 18.843225,15.5397 18.8655375,15.97745 C18.88785,16.4162625 18.911225,16.8348875 18.932475,17.2365125 C18.95585,17.637075 18.9739125,18.00045 18.987725,18.3266375 C19.0015375,18.652825 19.0142875,18.9025125 19.0249125,19.0767625 L18.044225,19.0767625 C18.03785,18.9768875 18.0304125,18.8047625 18.018725,18.559325 C18.0070375,18.3138875 17.993225,18.0302 17.9772875,17.7061375 C17.9602875,17.3831375 17.9432875,17.0431375 17.9262875,16.6861375 C17.9092875,16.3291375 17.89335,15.9902 17.87635,15.6703875 C17.85935,15.350575 17.8434125,15.06795 17.8296,14.82145 C17.8157875,14.577075 17.806225,14.407075 17.8009125,14.313575 C17.7499125,14.4262 17.682975,14.57495 17.5990375,14.7608875 C17.5151,14.9478875 17.4247875,15.150825 17.3270375,15.371825 C17.2292875,15.592825 17.126225,15.82445 17.019975,16.0656375 C16.9147875,16.30895 16.811725,16.540575 16.713975,16.7605125 C16.616225,16.9815125 16.526975,17.186575 16.446225,17.3757 C16.3644125,17.564825 16.2985375,17.7157 16.2486,17.828325 L15.426225,17.828325 C15.3592875,17.66045 15.2615375,17.428825 15.132975,17.13345 C15.0044125,16.838075 14.8662875,16.5225125 14.7175375,16.187825 C14.56985,15.852075 14.4211,15.5195125 14.2734125,15.1901375 C14.1246625,14.8607625 13.99185,14.57495 13.874975,14.3327 C13.8686,14.48145 13.8590375,14.6801375 13.845225,14.9287625 C13.8314125,15.1773875 13.8176,15.4547 13.8037875,15.758575 C13.7889125,16.0635125 13.7740375,16.3780125 13.7570375,16.7042 C13.7411,17.0303875 13.7251625,17.34595 13.71135,17.6508875 C13.696475,17.955825 13.6847875,18.232075 13.6731,18.4807 C13.662475,18.729325 13.653975,18.9280125 13.6486625,19.0767625 L12.6584125,19.0767625 Z" id="Fill-32" fill="#0CB1E7"></path>
                    <path d="M21.2149375,18.1074437 C21.247875,18.1201937 21.3381875,18.1340062 21.4826875,18.1488812 C21.62825,18.1648187 21.83225,18.1722563 22.09575,18.1722563 C22.8554375,18.1722563 23.4376875,17.9725062 23.840375,17.5719437 C24.2430625,17.1703187 24.4449375,16.6040062 24.4449375,15.8708812 C24.4449375,15.5351312 24.3981875,15.2259437 24.30575,14.9433187 C24.214375,14.6606937 24.072,14.4184437 23.8818125,14.2165687 C23.691625,14.0146937 23.4483125,13.8553187 23.151875,13.7405687 C22.8554375,13.6258187 22.50375,13.5684437 22.09575,13.5684437 C21.8269375,13.5684437 21.6186875,13.5758812 21.471,13.5918187 C21.32225,13.6077562 21.23725,13.6183812 21.2149375,13.6236937 L21.2149375,18.1074437 Z M20.2161875,13.2890062 C20.2161875,13.1275062 20.244875,13.0000062 20.300125,12.9065062 C20.3564375,12.8130062 20.45525,12.7439437 20.597625,12.6971937 C20.7410625,12.6504437 20.93125,12.6206937 21.1681875,12.6079437 C21.4061875,12.5962562 21.7100625,12.5898812 22.07875,12.5898812 C22.61,12.5898812 23.0870625,12.6653187 23.508875,12.8183187 C23.93175,12.9702562 24.28875,13.1880687 24.5830625,13.4706937 C24.8763125,13.7533187 25.1015625,14.0986312 25.25775,14.5045062 C25.415,14.9125062 25.4925625,15.3672562 25.4925625,15.8708812 C25.4925625,16.3798187 25.417125,16.8388187 25.26625,17.2457562 C25.115375,17.6526937 24.8933125,17.9990687 24.6000625,18.2848812 C24.30575,18.5706938 23.942375,18.7895688 23.508875,18.9415062 C23.075375,19.0934437 22.576,19.1699438 22.0118125,19.1699438 C21.413625,19.1699438 20.971625,19.1561312 20.686875,19.1285063 C20.4010625,19.0998187 20.244875,19.0828188 20.2161875,19.0764437 L20.2161875,13.2890062 Z" id="Fill-34" fill="#0CB1E7"></path>
                    <path d="M26.43245,19.0767625 C26.4377625,18.9152625 26.447325,18.682575 26.4622,18.3776375 C26.4760125,18.0737625 26.49195,17.7327 26.5121375,17.3576375 C26.5312625,16.9815125 26.55145,16.58945 26.570575,16.1825125 C26.5907625,15.775575 26.6098875,15.384575 26.630075,15.00845 C26.6492,14.632325 26.6672625,14.2933875 26.6842625,13.9927 C26.7012625,13.69095 26.715075,13.459325 26.7257,13.297825 C26.7373875,13.0747 26.804325,12.915325 26.927575,12.8228875 C27.0497625,12.7293875 27.1900125,12.6826375 27.3462,12.6826375 C27.52045,12.6826375 27.662825,12.711325 27.7743875,12.766575 C27.88595,12.8228875 27.964575,12.8760125 28.0092,12.9248875 C28.0761375,13.0747 28.1792,13.3031375 28.3162625,13.6102 C28.4522625,13.918325 28.6010125,14.2508875 28.7603875,14.6078875 C28.9197625,14.9648875 29.0791375,15.3176375 29.2385125,15.665075 C29.3978875,16.013575 29.5307,16.302575 29.63695,16.532075 C29.7315125,16.3206375 29.8505125,16.0582 29.9928875,15.7447625 C30.136325,15.431325 30.2787,15.1136375 30.421075,14.793825 C30.56345,14.4740125 30.6983875,14.1722625 30.8237625,13.8896375 C30.9502,13.6070125 31.045825,13.3881375 31.113825,13.2330125 C31.1913875,13.0523875 31.2891375,12.915325 31.407075,12.8228875 C31.52395,12.7293875 31.674825,12.6826375 31.8597,12.6826375 C32.0222625,12.6826375 32.159325,12.7060125 32.2708875,12.7527625 C32.38245,12.7995125 32.452575,12.8377625 32.4812625,12.8696375 C32.4918875,13.042825 32.5057,13.2946375 32.5227,13.6240125 C32.5397,13.9533875 32.5577625,14.3188875 32.5768875,14.71945 C32.5960125,15.1200125 32.6172625,15.5397 32.639575,15.97745 C32.6618875,16.4162625 32.6852625,16.8348875 32.7065125,17.2365125 C32.7298875,17.637075 32.74795,18.00045 32.7617625,18.3266375 C32.775575,18.652825 32.788325,18.9025125 32.79895,19.0767625 L31.8182625,19.0767625 C31.8118875,18.9768875 31.80445,18.8047625 31.7927625,18.559325 C31.781075,18.3138875 31.7672625,18.0302 31.751325,17.7061375 C31.734325,17.3831375 31.717325,17.0431375 31.700325,16.6861375 C31.683325,16.3291375 31.6673875,15.9902 31.6503875,15.6703875 C31.6333875,15.350575 31.61745,15.06795 31.6036375,14.82145 C31.589825,14.577075 31.5802625,14.407075 31.57495,14.313575 C31.52395,14.4262 31.4570125,14.57495 31.373075,14.7608875 C31.2891375,14.9478875 31.198825,15.150825 31.101075,15.371825 C31.003325,15.592825 30.9002625,15.82445 30.7940125,16.0656375 C30.688825,16.30895 30.5857625,16.540575 30.4880125,16.7605125 C30.3902625,16.9815125 30.3010125,17.186575 30.2202625,17.3757 C30.13845,17.564825 30.072575,17.7157 30.0226375,17.828325 L29.2002625,17.828325 C29.133325,17.66045 29.035575,17.428825 28.9070125,17.13345 C28.77845,16.838075 28.640325,16.5225125 28.491575,16.187825 C28.3438875,15.852075 28.1951375,15.5195125 28.04745,15.1901375 C27.8987,14.8607625 27.7658875,14.57495 27.6490125,14.3327 C27.6426375,14.48145 27.633075,14.6801375 27.6192625,14.9287625 C27.60545,15.1773875 27.5916375,15.4547 27.577825,15.758575 C27.56295,16.0635125 27.548075,16.3780125 27.531075,16.7042 C27.5151375,17.0303875 27.4992,17.34595 27.4853875,17.6508875 C27.4705125,17.955825 27.458825,18.232075 27.4471375,18.4807 C27.4365125,18.729325 27.4280125,18.9280125 27.4227,19.0767625 L26.43245,19.0767625 Z" id="Fill-36" fill="#0CB1E7"></path>
                    <path d="M38.8223687,18.64815 C38.7607437,18.6980875 38.6757437,18.756525 38.5663062,18.8255875 C38.4579312,18.8935875 38.3208687,18.9584 38.1551187,19.0210875 C37.9904312,19.0827125 37.7959937,19.1358375 37.5728687,19.1794 C37.3486812,19.2229625 37.0947437,19.2442125 36.8089312,19.2442125 C36.3956187,19.2442125 36.0035562,19.1719625 35.6348687,19.0253375 C35.2661812,18.879775 34.9399937,18.667275 34.6573687,18.386775 C34.3747437,18.1073375 34.1516187,17.7599 33.9869312,17.3434 C33.8211812,16.9269 33.7393687,16.448775 33.7393687,15.9079625 C33.7393687,15.373525 33.8179937,14.8954 33.9784312,14.472525 C34.1378062,14.04965 34.3556187,13.694775 34.6318687,13.4047125 C34.9091812,13.116775 35.2321812,12.895775 35.6008687,12.7438375 C35.9706187,12.5908375 36.3648062,12.5154 36.7844937,12.5154 C37.1871812,12.5154 37.5165562,12.5525875 37.7736812,12.6269625 C38.0308062,12.7013375 38.2337437,12.793775 38.3824937,12.90215 C38.5301812,13.010525 38.6332437,13.1220875 38.6927437,13.2379 C38.7511812,13.35265 38.7809312,13.4472125 38.7809312,13.5215875 C38.7809312,13.6023375 38.7649937,13.6799 38.7341812,13.7553375 C38.7033687,13.8297125 38.6672437,13.8955875 38.6258062,13.9550875 C38.5833062,14.0145875 38.5397437,14.0655875 38.4951187,14.10915 C38.4504937,14.1527125 38.4111812,14.183525 38.3771812,14.20265 C38.3219312,14.1335875 38.2443687,14.0592125 38.1466187,13.9784625 C38.0488687,13.8977125 37.9330562,13.8233375 37.7991812,13.7553375 C37.6653062,13.686275 37.5144312,13.6289 37.3454937,13.58215 C37.1786812,13.5354 36.9969937,13.512025 36.8004312,13.512025 C36.5156812,13.512025 36.2500562,13.567275 36.0035562,13.67565 C35.7581187,13.784025 35.5456187,13.9423375 35.3660562,14.1505875 C35.1875562,14.3588375 35.0462437,14.61065 34.9421187,14.906025 C34.8390562,15.2014 34.7880562,15.535025 34.7880562,15.9079625 C34.7880562,16.287275 34.8422437,16.6209 34.9516812,16.9099 C35.0600562,17.1989 35.2098687,17.44115 35.4000562,17.63665 C35.5902437,17.83215 35.8133687,17.9798375 36.0704937,18.0797125 C36.3276187,18.1795875 36.6049312,18.2284625 36.9013687,18.2284625 C37.2541187,18.2284625 37.5569312,18.1795875 37.8119312,18.0797125 C38.0658687,17.9798375 38.2518062,17.8874 38.3697437,17.800275 L38.8138687,18.64815 L38.8223687,18.64815 Z" id="Fill-38" fill="#0CB1E7"></path>
                    <path d="M40.0470062,16.5230437 C40.1755687,16.5294187 40.2988187,16.5326062 40.4156937,16.5326062 L40.7684437,16.5326062 C41.0765687,16.5326062 41.3251937,16.5102937 41.5153812,16.4667312 C41.7055687,16.4231687 41.8532562,16.3679187 41.9595062,16.2988563 C42.0657562,16.2308562 42.1358812,16.1532937 42.1698812,16.0661687 C42.2028187,15.9790437 42.2198187,15.8887312 42.2198187,15.7962937 C42.2198187,15.5604187 42.1348187,15.3829812 41.9637562,15.2650437 C41.7937562,15.1471062 41.5823187,15.0876062 41.3305062,15.0876062 C41.1233187,15.0876062 40.9416312,15.1279812 40.7854437,15.2087312 C40.6281937,15.2894812 40.4975062,15.3967937 40.3912562,15.5306687 C40.2850062,15.6645437 40.2021312,15.8175437 40.1436937,15.9917937 C40.0852562,16.1660438 40.0523187,16.3424188 40.0470062,16.5230437 L40.0470062,16.5230437 Z M42.9911937,18.7319812 C42.9465687,18.7627937 42.8764437,18.8063562 42.7818812,18.8626687 C42.6873187,18.9179187 42.5683187,18.9710437 42.4248812,19.0209812 C42.2825062,19.0709187 42.1178187,19.1144812 41.9308187,19.1516687 C41.7427562,19.1888562 41.5376937,19.2069187 41.3135062,19.2069187 C41.0000687,19.2069187 40.7089437,19.1548562 40.4369437,19.0486062 C40.1660062,18.9434187 39.9280062,18.7861687 39.7240062,18.5779187 C39.5200062,18.3696687 39.3595687,18.1157312 39.2416312,17.8139812 C39.1247562,17.5122312 39.0652562,17.1658562 39.0652562,16.7748562 C39.0652562,16.4019187 39.1226312,16.0619187 39.2373812,15.7537937 C39.3521312,15.4467312 39.5115062,15.1821687 39.7155062,14.9622312 C39.9195062,14.7412312 40.1606937,14.5701687 40.4369437,14.4490437 C40.7142562,14.3279187 41.0170687,14.2673562 41.3475062,14.2673562 C41.6375687,14.2673562 41.8946937,14.3087937 42.1188812,14.3927312 C42.3430687,14.4766687 42.5311312,14.5892937 42.6851937,14.7284812 C42.8392562,14.8687312 42.9550687,15.0312937 43.0336937,15.2182937 C43.1112562,15.4042312 43.1505687,15.6039812 43.1505687,15.8143562 C43.1505687,16.0321687 43.1144437,16.2297937 43.0421937,16.4061687 C42.9688812,16.5836062 42.8403187,16.7355437 42.6554437,16.8630437 C42.4716312,16.9905437 42.2219437,17.0904187 41.9095687,17.1616062 C41.5961312,17.2327937 41.1987562,17.2689187 40.7185062,17.2689187 C40.6058812,17.2689187 40.5006937,17.2667937 40.4029437,17.2636062 C40.3051937,17.2604187 40.2010687,17.2561687 40.0884437,17.2497937 C40.1330687,17.5664187 40.2722562,17.8235437 40.5038812,18.0190437 C40.7365687,18.2145437 41.0670062,18.3122937 41.4983812,18.3122937 C41.6439437,18.3122937 41.7778187,18.2995437 41.9010687,18.2751062 C42.0243187,18.2506687 42.1348187,18.2198562 42.2325687,18.1816062 C42.3303187,18.1444187 42.4142562,18.1072312 42.4843812,18.0700437 C42.5534437,18.0328562 42.6055062,18.0052312 42.6395062,17.9861062 L42.9911937,18.7319812 Z" id="Fill-40" fill="#0CB1E7"></path>
                    <path d="M43.8636125,16.2527438 C43.8636125,15.9424938 43.9146125,15.6641188 44.0187375,15.4186813 C44.1218,15.1732438 44.264175,14.9649938 44.446925,14.7939312 C44.6286125,14.6228688 44.8432375,14.4921812 45.0918625,14.4029312 C45.34155,14.3126188 45.61355,14.2669313 45.9099875,14.2669313 C46.206425,14.2669313 46.48055,14.3126188 46.7323625,14.4029312 C46.984175,14.4921812 47.200925,14.6228688 47.3826125,14.7939312 C47.5643,14.9649938 47.7056125,15.1732438 47.8054875,15.4186813 C47.906425,15.6641188 47.957425,15.9424938 47.957425,16.2527438 L47.957425,19.0768687 L47.001175,19.0768687 L47.001175,16.5226187 C47.001175,16.1008063 46.9087375,15.7788688 46.7238625,15.5578688 C46.5389875,15.3379313 46.26805,15.2274313 45.9099875,15.2274313 C45.5466125,15.2274313 45.2746125,15.3379313 45.0918625,15.5578688 C44.9112375,15.7788688 44.8198625,16.1008063 44.8198625,16.5226187 L44.8198625,19.0768687 L43.8636125,19.0768687 L43.8636125,16.2527438 Z" id="Fill-42" fill="#0CB1E7"></path>
                    <path d="M48.9554313,13.5682312 C48.9554313,13.3939812 49.0000563,13.2686062 49.0893062,13.1910437 C49.1785563,13.1134812 49.3018063,13.0741687 49.4590563,13.0741687 C49.5589313,13.0741687 49.6524312,13.0879812 49.7395562,13.1166687 C49.8266813,13.1442937 49.8840563,13.1644812 49.9116813,13.1761687 L49.9116813,14.3980437 L51.1282438,14.3980437 C51.3120562,14.3980437 51.4427438,14.4394812 51.5181812,14.5234187 C51.5936187,14.6073562 51.6308062,14.7306062 51.6308062,14.8921062 C51.6308062,14.9972937 51.6169938,15.0950437 51.5893687,15.1853562 C51.5617438,15.2756687 51.5394313,15.3394187 51.5224312,15.3766062 L49.9116813,15.3766062 L49.9116813,17.4548562 C49.9116813,17.6163562 49.9318687,17.7481062 49.9701187,17.8511687 C50.0094312,17.9531687 50.0636188,18.0360437 50.1337438,18.0976687 C50.2038687,18.1603562 50.2846187,18.2039187 50.3770563,18.2283562 C50.4694937,18.2538562 50.5661812,18.2655437 50.6671188,18.2655437 C50.8286188,18.2655437 50.9794938,18.2379187 51.1197437,18.1816062 C51.2589313,18.1263562 51.3598687,18.0732312 51.4214937,18.0232937 L51.8071812,18.7319812 C51.7625563,18.7691687 51.6998688,18.8159187 51.6191187,18.8722312 C51.5373063,18.9274812 51.4384938,18.9806062 51.3205563,19.0305437 C51.2036813,19.0794187 51.0719312,19.1219187 50.9263688,19.1559187 C50.7808062,19.1899187 50.6214313,19.2069187 50.4482438,19.2069187 C49.9563063,19.2069187 49.5844313,19.0656062 49.3326188,18.7829812 C49.0808063,18.5003562 48.9554313,18.1295437 48.9554313,17.6694812 L48.9554313,13.5682312 Z" id="Fill-44" fill="#0CB1E7"></path>
                    <path d="M52.9397,16.5230437 C53.0682625,16.5294187 53.1915125,16.5326062 53.3083875,16.5326062 L53.6611375,16.5326062 C53.9692625,16.5326062 54.2178875,16.5102937 54.408075,16.4667312 C54.5982625,16.4231687 54.74595,16.3679187 54.8522,16.2988563 C54.95845,16.2308562 55.028575,16.1532937 55.062575,16.0661687 C55.0955125,15.9790437 55.1125125,15.8887312 55.1125125,15.7962937 C55.1125125,15.5604187 55.0275125,15.3829812 54.85645,15.2650437 C54.68645,15.1471062 54.4750125,15.0876062 54.2232,15.0876062 C54.0160125,15.0876062 53.834325,15.1279812 53.6781375,15.2087312 C53.5208875,15.2894812 53.3902,15.3967937 53.28395,15.5306687 C53.1777,15.6645437 53.094825,15.8175437 53.0363875,15.9917937 C52.97795,16.1660438 52.9450125,16.3424188 52.9397,16.5230437 L52.9397,16.5230437 Z M55.8838875,18.7319812 C55.8392625,18.7627937 55.7691375,18.8063562 55.674575,18.8626687 C55.5800125,18.9179187 55.4610125,18.9710437 55.317575,19.0209812 C55.1752,19.0709187 55.0105125,19.1144812 54.8235125,19.1516687 C54.63545,19.1888562 54.4303875,19.2069187 54.2062,19.2069187 C53.8927625,19.2069187 53.6016375,19.1548562 53.3296375,19.0486062 C53.0587,18.9434187 52.8207,18.7861687 52.6167,18.5779187 C52.4127,18.3696687 52.2522625,18.1157312 52.134325,17.8139812 C52.01745,17.5122312 51.95795,17.1658562 51.95795,16.7748562 C51.95795,16.4019187 52.015325,16.0619187 52.130075,15.7537937 C52.244825,15.4467312 52.4042,15.1821687 52.6082,14.9622312 C52.8122,14.7412312 53.0533875,14.5701687 53.3296375,14.4490437 C53.60695,14.3279187 53.9097625,14.2673562 54.2402,14.2673562 C54.5302625,14.2673562 54.7873875,14.3087937 55.011575,14.3927312 C55.2357625,14.4766687 55.423825,14.5892937 55.5778875,14.7284812 C55.73195,14.8687312 55.8477625,15.0312937 55.9263875,15.2182937 C56.00395,15.4042312 56.0432625,15.6039812 56.0432625,15.8143562 C56.0432625,16.0321687 56.0071375,16.2297937 55.9348875,16.4061687 C55.861575,16.5836062 55.7330125,16.7355437 55.5481375,16.8630437 C55.364325,16.9905437 55.1146375,17.0904187 54.8022625,17.1616062 C54.488825,17.2327937 54.09145,17.2689187 53.6112,17.2689187 C53.498575,17.2689187 53.3933875,17.2667937 53.2956375,17.2636062 C53.1978875,17.2604187 53.0937625,17.2561687 52.9811375,17.2497937 C53.0257625,17.5664187 53.16495,17.8235437 53.396575,18.0190437 C53.6292625,18.2145437 53.9597,18.3122937 54.391075,18.3122937 C54.5366375,18.3122937 54.6705125,18.2995437 54.7937625,18.2751062 C54.9170125,18.2506687 55.0275125,18.2198562 55.1252625,18.1816062 C55.2230125,18.1444187 55.30695,18.1072312 55.377075,18.0700437 C55.4461375,18.0328562 55.4982,18.0052312 55.5322,17.9861062 L55.8838875,18.7319812 Z" id="Fill-46" fill="#0CB1E7"></path>
                    <path d="M56.7568375,16.0661687 C56.7568375,15.4945437 56.9140875,15.0514812 57.2307125,14.7380437 C57.546275,14.4246062 57.984025,14.2673562 58.5439625,14.2673562 C58.89565,14.2673562 59.182525,14.3215437 59.403525,14.4299187 C59.624525,14.5393562 59.735025,14.7051062 59.735025,14.9292937 C59.735025,15.0344812 59.7084625,15.1375437 59.6553375,15.2363562 C59.60115,15.3362312 59.55865,15.3989187 59.52465,15.4233562 C59.4300875,15.3734187 59.31215,15.3266687 59.1729625,15.2831062 C59.0327125,15.2395437 58.8733375,15.2182937 58.6948375,15.2182937 C58.0403375,15.2182937 57.7130875,15.6029187 57.7130875,16.3742937 L57.7130875,19.0772938 L56.7568375,19.0772938 L56.7568375,16.0661687 Z" id="Fill-48" fill="#0CB1E7"></path>
                    <path d="M63.8986438,12.0366375 C63.8986438,11.8942625 63.8773938,11.7646375 63.8348937,11.6467 C63.7923938,11.5277 63.7328938,11.4257 63.6585188,11.3407 C63.5841438,11.2557 63.4959563,11.189825 63.3939563,11.1420125 C63.2930188,11.0952625 63.1825188,11.0718875 63.0645813,11.0718875 C62.9466438,11.0718875 62.8372063,11.0952625 62.7362688,11.1420125 C62.6353313,11.189825 62.5482063,11.2557 62.4738313,11.3407 C62.3994563,11.4257 62.3399563,11.5277 62.2974563,11.6467 C62.2549563,11.7646375 62.2337063,11.8942625 62.2337063,12.0366375 C62.2337063,12.1790125 62.2549563,12.3097 62.2974563,12.4287 C62.3399563,12.5487625 62.3994563,12.6507625 62.4738313,12.736825 C62.5482063,12.8228875 62.6353313,12.889825 62.7362688,12.9376375 C62.8372063,12.9843875 62.9466438,13.0077625 63.0645813,13.0077625 C63.1825188,13.0077625 63.2930188,12.9843875 63.3939563,12.9376375 C63.4959563,12.889825 63.5841438,12.8228875 63.6585188,12.736825 C63.7328938,12.6507625 63.7923938,12.5487625 63.8348937,12.4287 C63.8773938,12.3097 63.8986438,12.1790125 63.8986438,12.0366375 M64.1132688,12.0366375 C64.1132688,12.2045125 64.0867063,12.3596375 64.0335813,12.503075 C63.9804563,12.6465125 63.9071438,12.7697625 63.8125813,12.8738875 C63.7190813,12.979075 63.6075188,13.059825 63.4800188,13.1182625 C63.3525188,13.1756375 63.2133313,13.2053875 63.0645813,13.2053875 C62.9158313,13.2053875 62.7777063,13.1756375 62.6491438,13.1182625 C62.5216438,13.059825 62.4111438,12.979075 62.3176438,12.8738875 C62.2252062,12.7697625 62.1518938,12.6465125 62.0987688,12.503075 C62.0456438,12.3596375 62.0190813,12.2045125 62.0190813,12.0366375 C62.0190813,11.8687625 62.0456438,11.7136375 62.0987688,11.572325 C62.1518938,11.42995 62.2252062,11.3067 62.3176438,11.2036375 C62.4111438,11.100575 62.5216438,11.019825 62.6491438,10.9613875 C62.7777063,10.9040125 62.9158313,10.8742625 63.0645813,10.8742625 C63.2133313,10.8742625 63.3525188,10.9040125 63.4800188,10.9613875 C63.6075188,11.019825 63.7190813,11.100575 63.8125813,11.2036375 C63.9071438,11.3067 63.9804563,11.42995 64.0335813,11.572325 C64.0867063,11.7136375 64.1132688,11.8687625 64.1132688,12.0366375" id="Fill-50" fill="#4B4E51"></path>
                    <path d="M65.5890813,13.14695 L65.5890813,12.256575 C65.5890813,12.078075 65.5487063,11.9388875 65.4690188,11.840075 C65.3882688,11.7412625 65.2671438,11.691325 65.1045813,11.691325 C64.9420188,11.691325 64.8208938,11.7412625 64.7412063,11.840075 C64.6615188,11.9388875 64.6222063,12.078075 64.6222063,12.256575 L64.6222063,13.14695 L64.4298938,13.14695 L64.4298938,12.1917625 C64.4298938,12.090825 64.4458313,11.997325 64.4766438,11.91445 C64.5074563,11.82945 64.5520813,11.7582625 64.6105188,11.6977 C64.6678938,11.6371375 64.7390813,11.5903875 64.8219562,11.55745 C64.9058938,11.5245125 64.9993938,11.5075125 65.1045813,11.5075125 C65.2087063,11.5075125 65.3032688,11.5245125 65.3872063,11.55745 C65.4711438,11.5903875 65.5423313,11.6371375 65.6007688,11.6977 C65.6592063,11.7582625 65.7038313,11.82945 65.7346438,11.91445 C65.7654562,11.997325 65.7813938,12.090825 65.7813938,12.1917625 L65.7813938,13.14695 L65.5890813,13.14695 Z" id="Fill-52" fill="#4B4E51"></path>
                    <path d="M67.75945,12.03345 C67.75945,11.895325 67.740325,11.7688875 67.7031375,11.6541375 C67.6648875,11.5393875 67.6053875,11.440575 67.5246375,11.3566375 C67.442825,11.274825 67.3387,11.2100125 67.2101375,11.1632625 C67.0826375,11.117575 66.9296375,11.0942 66.7511375,11.0942 C66.6406375,11.0942 66.554575,11.0973875 66.49295,11.1058875 C66.4302625,11.113325 66.3952,11.117575 66.3856375,11.1197 L66.3856375,12.9567625 C66.3983875,12.9610125 66.4366375,12.9673875 66.4972,12.9758875 C66.5577625,12.9843875 66.6502,12.9886375 66.7745125,12.9886375 C66.9392,12.9886375 67.0826375,12.9652625 67.2058875,12.919575 C67.3291375,12.872825 67.4311375,12.8080125 67.5140125,12.724075 C67.595825,12.6401375 67.65745,12.5392 67.6988875,12.422325 C67.7392625,12.30545 67.75945,12.175825 67.75945,12.03345 M67.974075,12.0366375 C67.974075,12.2087625 67.948575,12.36495 67.897575,12.5052 C67.8455125,12.6443875 67.770075,12.76445 67.6691375,12.864325 C67.5692625,12.9642 67.44495,13.0417625 67.2993875,13.0970125 C67.1527625,13.1522625 66.98595,13.178825 66.7978875,13.178825 C66.6045125,13.178825 66.456825,13.174575 66.354825,13.1650125 C66.252825,13.15545 66.1965125,13.149075 66.184825,13.14695 L66.184825,11.062325 C66.184825,10.9847625 66.223075,10.9412 66.3006375,10.9327 C66.3473875,10.926325 66.414325,10.91995 66.5003875,10.91145 C66.58645,10.9040125 66.6842,10.900825 66.7947,10.900825 C66.9848875,10.900825 67.1527625,10.92845 67.2993875,10.9847625 C67.44495,11.0400125 67.5692625,11.1186375 67.6691375,11.2185125 C67.770075,11.3183875 67.8455125,11.4373875 67.897575,11.576575 C67.948575,11.7157625 67.974075,11.8687625 67.974075,12.0366375" id="Fill-54" fill="#4B4E51"></path>
                    <path d="M68.4335,12.3206437 C68.4855625,12.3248937 68.5365625,12.3280812 68.5854375,12.3291438 C68.635375,12.3302062 68.6874375,12.3302062 68.741625,12.3302062 C68.8723125,12.3302062 68.98175,12.3217063 69.06675,12.3025812 C69.15175,12.2845188 69.21975,12.2600812 69.268625,12.2303312 C69.3175,12.2005812 69.3525625,12.1644562 69.3716875,12.1240812 C69.3908125,12.0826437 69.400375,12.0401437 69.400375,11.9944562 C69.400375,11.9349562 69.38975,11.8839562 69.3674375,11.8425187 C69.345125,11.8021437 69.3143125,11.7692062 69.277125,11.7447687 C69.2399375,11.7203312 69.196375,11.7022687 69.149625,11.6916437 C69.1018125,11.6799563 69.0529375,11.6757062 69.003,11.6757062 C68.911625,11.6757062 68.830875,11.6927062 68.7618125,11.7288312 C68.6916875,11.7638937 68.63325,11.8117062 68.5854375,11.8722687 C68.5386875,11.9317687 68.5015,12.0008312 68.4749375,12.0783938 C68.4494375,12.1559562 68.435625,12.2367062 68.4335,12.3206437 M68.439875,12.4885188 C68.4600625,12.6542687 68.52275,12.7817687 68.62475,12.8720813 C68.7278125,12.9623938 68.8638125,13.0080813 69.0316875,13.0080813 C69.1305,13.0080813 69.2144375,12.9921438 69.2835,12.9613312 C69.3515,12.9305187 69.404625,12.9028938 69.4418125,12.8795187 L69.52575,13.0335813 C69.5098125,13.0442063 69.4864375,13.0590813 69.455625,13.0771437 C69.4248125,13.0962688 69.387625,13.1132687 69.343,13.1302688 C69.298375,13.1483313 69.247375,13.1621438 69.1910625,13.1748938 C69.1358125,13.1865812 69.073125,13.1918938 69.0061875,13.1918938 C68.898875,13.1918938 68.799,13.1748938 68.7055,13.1387687 C68.6109375,13.1037063 68.5280625,13.0516438 68.4579375,12.9825812 C68.3878125,12.9135187 68.3315,12.8285187 68.291125,12.7275813 C68.2496875,12.6266437 68.2295,12.5087062 68.2295,12.3758937 C68.2295,12.2462687 68.2496875,12.1283312 68.2879375,12.0220812 C68.3261875,11.9158312 68.3814375,11.8244562 68.4505,11.7479562 C68.520625,11.6714562 68.6035,11.6119562 68.699125,11.5705187 C68.79475,11.5280187 68.8999375,11.5067687 69.0146875,11.5067687 C69.111375,11.5067687 69.1953125,11.5195187 69.268625,11.5439562 C69.340875,11.5694562 69.4014375,11.6045187 69.4503125,11.6491438 C69.498125,11.6948312 69.53425,11.7479562 69.5586875,11.8085187 C69.583125,11.8701437 69.595875,11.9360187 69.595875,12.0072062 C69.595875,12.0783938 69.5820625,12.1442687 69.5565625,12.2027063 C69.53,12.2622063 69.485375,12.3132063 69.4226875,12.3578313 C69.3589375,12.4024563 69.275,12.4364562 69.1698125,12.4608937 C69.064625,12.4853312 68.93075,12.4980813 68.7703125,12.4980813 C68.7086875,12.4980813 68.6513125,12.4980813 68.6003125,12.4970188 C68.5493125,12.4959562 68.495125,12.4927687 68.439875,12.4885188" id="Fill-56" fill="#4B4E51"></path>
                    <path d="M72.0123187,13.14695 L72.0123187,12.2108875 C72.0123187,12.0238875 71.9719437,11.8900125 71.8901312,11.810325 C71.8093813,11.7306375 71.7041937,11.691325 71.5766938,11.691325 C71.5140063,11.691325 71.4566313,11.70195 71.4024438,11.7221375 C71.3482563,11.742325 71.3004437,11.7742 71.2600688,11.818825 C71.2196938,11.8623875 71.1878188,11.9197625 71.1633813,11.9898875 C71.1410688,12.0600125 71.1293812,12.14395 71.1293812,12.2427625 L71.1293812,13.14695 L70.9370688,13.14695 L70.9370688,12.2427625 C70.9370688,12.14395 70.9264438,12.0600125 70.9030688,11.9898875 C70.8796938,11.9197625 70.8478188,11.8623875 70.8085063,11.818825 C70.7681312,11.7742 70.7213813,11.742325 70.6671937,11.7221375 C70.6130063,11.70195 70.5545688,11.691325 70.4929437,11.691325 C70.4291938,11.691325 70.3707562,11.7008875 70.3176313,11.7200125 C70.2645063,11.7391375 70.2177563,11.7710125 70.1773813,11.8135125 C70.1380688,11.857075 70.1072563,11.9112625 70.0860063,11.9782 C70.0647563,12.0451375 70.0541313,12.1258875 70.0541313,12.22045 L70.0541313,13.14695 L69.8628813,13.14695 L69.8628813,12.120575 C69.8628813,12.0196375 69.8777563,11.9303875 69.9096313,11.8538875 C69.9404438,11.77845 69.9829438,11.7136375 70.0381938,11.6626375 C70.0934438,11.610575 70.1582563,11.572325 70.2326313,11.5457625 C70.3070063,11.5202625 70.3888187,11.5075125 70.4759438,11.5075125 C70.5991938,11.5075125 70.7107563,11.5351375 70.8095687,11.59145 C70.9083813,11.6467 70.9859438,11.7327625 71.0422563,11.8496375 C71.0985687,11.738075 71.1750688,11.6520125 71.2728187,11.5946375 C71.3705688,11.5362 71.4800062,11.5075125 71.6000687,11.5075125 C71.6850687,11.5075125 71.7647562,11.5202625 71.8380687,11.5447 C71.9113813,11.5691375 71.9751313,11.606325 72.0303812,11.657325 C72.0835062,11.708325 72.1260062,11.7710125 72.1578813,11.84645 C72.1886937,11.9218875 72.2035688,12.010075 72.2035688,12.1110125 L72.2035688,13.14695 L72.0123187,13.14695 Z" id="Fill-58" fill="#4B4E51"></path>
                    <path d="M73.6275313,12.38195 C73.6094688,12.3777 73.5637813,12.3692 73.4894063,12.35645 C73.4150312,12.3437 73.3045312,12.337325 73.1589687,12.337325 C73.0877812,12.337325 73.0229687,12.3426375 72.9655937,12.3532625 C72.9071562,12.3638875 72.8572187,12.3830125 72.8147187,12.409575 C72.7732812,12.4361375 72.7414062,12.4722625 72.7201562,12.51795 C72.6967812,12.562575 72.6861562,12.6188875 72.6861562,12.685825 C72.6861562,12.8016375 72.7275937,12.8877 72.8094062,12.9418875 C72.8922812,12.9971375 73.0282812,13.0247625 73.2205938,13.0247625 C73.3459687,13.0247625 73.4405313,13.0183875 73.5021563,13.0067 C73.5648438,12.9950125 73.6062813,12.98545 73.6275313,12.979075 L73.6275313,12.38195 Z M73.0930937,11.68495 C72.9836562,11.68495 72.8965312,11.699825 72.8285312,11.729575 C72.7605312,11.7603875 72.7137812,11.7880125 72.6893437,11.8135125 C72.6755312,11.8028875 72.6638437,11.7880125 72.6521562,11.7688875 C72.6425937,11.7497625 72.6372812,11.72745 72.6372812,11.704075 C72.6372812,11.6807 72.6425937,11.6605125 72.6521562,11.64245 C72.6638437,11.62545 72.6765937,11.610575 72.6914687,11.597825 C72.7105937,11.580825 72.7541562,11.5606375 72.8200312,11.5393875 C72.8859062,11.5181375 72.9751562,11.5075125 73.0867187,11.5075125 C73.3172812,11.5075125 73.4968437,11.5606375 73.6243438,11.665825 C73.7518438,11.7710125 73.8166563,11.9410125 73.8166563,12.175825 L73.8166563,13.140575 C73.7603438,13.1512 73.6785313,13.1628875 73.5733438,13.174575 C73.4681562,13.1862625 73.3491562,13.1926375 73.2152812,13.1926375 C73.0601562,13.1926375 72.9358437,13.1767 72.8412812,13.14695 C72.7477812,13.1172 72.6744687,13.0778875 72.6224062,13.0290125 C72.5703437,12.9812 72.5352812,12.92595 72.5182812,12.86645 C72.5002187,12.8058875 72.4917187,12.745325 72.4917187,12.685825 C72.4917187,12.6082625 72.5023437,12.5381375 72.5235937,12.4743875 C72.5448437,12.4106375 72.5809687,12.35645 72.6319687,12.3107625 C72.6840312,12.2661375 72.7530937,12.2300125 72.8402187,12.2045125 C72.9273437,12.1790125 73.0367812,12.1652 73.1685312,12.1652 C73.2110313,12.1652 73.2556563,12.167325 73.3013438,12.1705125 C73.3491562,12.1737 73.3927188,12.1768875 73.4341563,12.180075 C73.4755938,12.1832625 73.5138438,12.1875125 73.5478437,12.1917625 C73.5807813,12.1960125 73.6084063,12.1992 73.6275313,12.201325 L73.6275313,12.1822 C73.6275313,12.0833875 73.6126563,12.001575 73.5829063,11.9367625 C73.5520938,11.87195 73.5127813,11.82095 73.4628438,11.7837625 C73.4139688,11.7455125 73.3576562,11.7200125 73.2928438,11.7062 C73.2290937,11.6923875 73.1621562,11.68495 73.0930937,11.68495 L73.0930937,11.68495 Z" id="Fill-60" fill="#4B4E51"></path>
                    <path d="M75.3351813,13.14695 L75.3351813,12.256575 C75.3351813,12.078075 75.2948063,11.9388875 75.2151188,11.840075 C75.1343688,11.7412625 75.0132438,11.691325 74.8506812,11.691325 C74.6881188,11.691325 74.5669937,11.7412625 74.4873063,11.840075 C74.4076187,11.9388875 74.3683063,12.078075 74.3683063,12.256575 L74.3683063,13.14695 L74.1759938,13.14695 L74.1759938,12.1917625 C74.1759938,12.090825 74.1919313,11.997325 74.2227438,11.91445 C74.2535563,11.82945 74.2981812,11.7582625 74.3566187,11.6977 C74.4139937,11.6371375 74.4851812,11.5903875 74.5680563,11.55745 C74.6519938,11.5245125 74.7454937,11.5075125 74.8506812,11.5075125 C74.9548063,11.5075125 75.0493687,11.5245125 75.1333063,11.55745 C75.2172437,11.5903875 75.2884313,11.6371375 75.3468687,11.6977 C75.4053063,11.7582625 75.4499313,11.82945 75.4807438,11.91445 C75.5115562,11.997325 75.5274938,12.090825 75.5274938,12.1917625 L75.5274938,13.14695 L75.3351813,13.14695 Z" id="Fill-62" fill="#4B4E51"></path>
                    <path d="M76.0357937,12.3497562 C76.0357937,12.4400687 76.0485437,12.5261312 76.0751062,12.6068812 C76.1006062,12.6865687 76.1388562,12.7566937 76.1877312,12.8161937 C76.2376687,12.8756937 76.2971687,12.9224437 76.3651687,12.9564437 C76.4342312,12.9915062 76.5117937,13.0085062 76.5989187,13.0085062 C76.6828562,13.0085062 76.7593562,12.9915062 76.8284187,12.9596312 C76.8985437,12.9277562 76.9580437,12.8820687 77.0058562,12.8246937 C77.0536687,12.7662562 77.0919187,12.6971937 77.1184813,12.6175062 C77.1461063,12.5378187 77.1599188,12.4506937 77.1599188,12.3561312 C77.1599188,12.2636937 77.1461063,12.1765687 77.1174187,12.0947562 C77.0897937,12.0129437 77.0504812,11.9417562 77.0016062,11.8811937 C76.9527312,11.8216937 76.8932312,11.7738812 76.8241687,11.7398812 C76.7551062,11.7048187 76.6807312,11.6878187 76.5989187,11.6878187 C76.5117937,11.6878187 76.4342312,11.7048187 76.3651687,11.7377562 C76.2971687,11.7717562 76.2376687,11.8185062 76.1877312,11.8780062 C76.1388562,11.9385687 76.1006062,12.0086937 76.0751062,12.0905062 C76.0485437,12.1701937 76.0357937,12.2573187 76.0357937,12.3497562 L76.0357937,12.3497562 Z M77.1631062,10.8781937 C77.1631062,10.8452562 77.1705437,10.8186937 77.1875438,10.7985062 C77.2034812,10.7783187 77.2311062,10.7676937 77.2672312,10.7676937 C77.2842312,10.7676937 77.3022937,10.7708812 77.3182312,10.7761937 C77.3352312,10.7815062 77.3469187,10.7868187 77.3543562,10.7910687 L77.3543562,12.2721937 C77.3543562,12.3242562 77.3532937,12.3699437 77.3501062,12.4092562 C77.3469187,12.4496312 77.3437312,12.4846937 77.3405437,12.5144437 C77.3224812,12.6196312 77.2927313,12.7141937 77.2502312,12.7981312 C77.2077312,12.8820687 77.1546062,12.9532562 77.0897937,13.0116937 C77.0260437,13.0690687 76.9527312,13.1136937 76.8698562,13.1455687 C76.7859187,13.1763812 76.6956062,13.1923187 76.5989187,13.1923187 C76.4852312,13.1923187 76.3811062,13.1700062 76.2865437,13.1264437 C76.1930437,13.0818187 76.1122937,13.0212562 76.0442937,12.9458187 C75.9762937,12.8693187 75.9231687,12.7800687 75.8859812,12.6770062 C75.8487937,12.5750062 75.8296687,12.4655687 75.8296687,12.3497562 C75.8296687,12.2318187 75.8487937,12.1213187 75.8859812,12.0193187 C75.9231687,11.9162562 75.9762937,11.8270062 76.0442937,11.7505062 C76.1122937,11.6750687 76.1930437,11.6145062 76.2865437,11.5720062 C76.3811062,11.5284437 76.4852312,11.5071937 76.5989187,11.5071937 C76.7264187,11.5071937 76.8379812,11.5358812 76.9336062,11.5911312 C77.0281687,11.6474437 77.1046687,11.7239437 77.1631062,11.8206312 L77.1631062,10.8781937 Z" id="Fill-64" fill="#4B4E51"></path>
                    <path d="M65.092575,15.790025 C65.092575,15.6338375 65.0681375,15.488275 65.0182,15.3554625 C64.9682625,15.2215875 64.8832625,15.10365 64.7632,15.0027125 C64.6431375,14.901775 64.4827,14.8220875 64.2818875,14.7647125 C64.081075,14.7073375 63.8292625,14.67865 63.52645,14.67865 C63.269325,14.67865 63.0663875,14.685025 62.9176375,14.6988375 C62.7688875,14.71265 62.6753875,14.7243375 62.6382,14.7339 L62.6382,16.8259625 C62.65095,16.8302125 62.6860125,16.8387125 62.7433875,16.8504 C62.801825,16.861025 62.8762,16.8727125 62.967575,16.8844 C63.0578875,16.8960875 63.1598875,16.9067125 63.27145,16.9152125 C63.384075,16.924775 63.5020125,16.929025 63.626325,16.929025 C63.8993875,16.929025 64.1288875,16.9024625 64.3158875,16.8504 C64.501825,16.797275 64.6537625,16.7197125 64.769575,16.618775 C64.8853875,16.5178375 64.9682625,16.397775 65.0182,16.25965 C65.0681375,16.121525 65.092575,15.9653375 65.092575,15.790025 M65.5398875,15.790025 C65.5398875,15.9972125 65.5080125,16.193775 65.4442625,16.380775 C65.37945,16.5667125 65.2721375,16.7314 65.1202,16.873775 C64.969325,17.0172125 64.7706375,17.1298375 64.5241375,17.2127125 C64.2776375,17.2955875 63.9716375,17.337025 63.6072,17.337025 C63.5083875,17.337025 63.4042625,17.332775 63.29695,17.3232125 C63.188575,17.31365 63.0887,17.303025 62.9952,17.2924 C62.9017,17.2807125 62.8220125,17.2700875 62.7561375,17.260525 C62.6902625,17.252025 62.65095,17.2445875 62.6382,17.2403375 L62.6382,19.0763375 L62.215325,19.0763375 L62.215325,14.6159625 C62.215325,14.455525 62.2982,14.3630875 62.46395,14.3397125 C62.5096375,14.33015 62.627575,14.3174 62.8177625,14.298275 C63.0090125,14.2802125 63.2555125,14.27065 63.5572625,14.27065 C63.847325,14.27065 64.1140125,14.2993375 64.3562625,14.357775 C64.5985125,14.41515 64.807825,14.5044 64.9842,14.6265875 C65.160575,14.748775 65.296575,14.9049625 65.394325,15.0962125 C65.4910125,15.2874625 65.5398875,15.518025 65.5398875,15.790025" id="Fill-66" fill="#4B4E51"></path>
                    <path d="M68.2438438,15.914125 C68.2438438,15.9598125 68.2321563,16.00125 68.2098438,16.0384375 C68.1864688,16.075625 68.1652188,16.105375 68.1439688,16.12875 C68.0738438,16.0915625 67.9845938,16.0565 67.8772813,16.024625 C67.7689063,15.99275 67.6435313,15.9768125 67.4979688,15.9768125 C67.3279687,15.9768125 67.1866563,15.999125 67.0719062,16.045875 C66.9582188,16.0915625 66.8657813,16.1595625 66.7956563,16.2488125 C66.7255313,16.339125 66.6755938,16.4506875 66.6469063,16.5845625 C66.6182187,16.717375 66.6033438,16.8693125 66.6033438,17.0393125 L66.6033438,19.0771875 L66.1932187,19.0771875 L66.1932187,16.82575 C66.1932187,16.4251875 66.3005313,16.116 66.5162188,15.897125 C66.7308438,15.67825 67.0464063,15.5688125 67.4607813,15.5688125 C67.6849688,15.5688125 67.8709063,15.5964375 68.0196563,15.6516875 C68.1694688,15.7069375 68.2438438,15.7940625 68.2438438,15.914125" id="Fill-68" fill="#4B4E51"></path>
                    <path d="M71.33285,17.3712375 C71.33285,17.1736125 71.3031,16.987675 71.245725,16.81555 C71.1872875,16.6423625 71.1044125,16.4914875 70.9971,16.362925 C70.8897875,16.2343625 70.761225,16.1344875 70.612475,16.0633 C70.4626625,15.99105 70.2969125,15.9559875 70.1141625,15.9559875 C69.932475,15.9559875 69.766725,15.99105 69.617975,16.0633 C69.4681625,16.1344875 69.3396,16.2343625 69.2322875,16.362925 C69.1239125,16.4914875 69.0410375,16.6423625 68.9836625,16.81555 C68.925225,16.987675 68.8965375,17.1736125 68.8965375,17.3712375 C68.8965375,17.5646125 68.9262875,17.7473625 68.98685,17.92055 C69.04635,18.092675 69.129225,18.2424875 69.235475,18.368925 C69.3406625,18.4953625 69.4681625,18.5963 69.617975,18.6696125 C69.766725,18.742925 69.932475,18.7801125 70.1141625,18.7801125 C70.2969125,18.7801125 70.4626625,18.742925 70.612475,18.6696125 C70.761225,18.5963 70.8897875,18.4953625 70.9971,18.368925 C71.1044125,18.2424875 71.1872875,18.092675 71.245725,17.92055 C71.3031,17.7473625 71.33285,17.5646125 71.33285,17.3712375 M71.7737875,17.3712375 C71.7737875,17.6198625 71.73235,17.8536125 71.649475,18.0724875 C71.5666,18.2903 71.45185,18.48155 71.305225,18.645175 C71.1575375,18.8088 70.982225,18.9373625 70.7792875,19.031925 C70.57635,19.1264875 70.3542875,19.1732375 70.1141625,19.1732375 C69.8740375,19.1732375 69.6530375,19.1264875 69.4490375,19.031925 C69.2471625,18.9373625 69.07185,18.8088 68.9241625,18.645175 C68.7775375,18.48155 68.6627875,18.2903 68.5799125,18.0724875 C68.4970375,17.8536125 68.4556,17.6198625 68.4556,17.3712375 C68.4556,17.1183625 68.4970375,16.8824875 68.5799125,16.6636125 C68.6627875,16.4447375 68.7775375,16.2534875 68.9241625,16.0898625 C69.07185,15.9273 69.2471625,15.7987375 69.4490375,15.7073625 C69.6530375,15.614925 69.8740375,15.5692375 70.1141625,15.5692375 C70.3542875,15.5692375 70.57635,15.614925 70.7792875,15.7073625 C70.982225,15.7987375 71.1575375,15.9273 71.305225,16.0898625 C71.45185,16.2534875 71.5666,16.4447375 71.649475,16.6636125 C71.73235,16.8824875 71.7737875,17.1183625 71.7737875,17.3712375" id="Fill-70" fill="#4B4E51"></path>
                    <path d="M72.7372625,17.3712375 C72.7372625,17.5646125 72.7648875,17.7473625 72.8212,17.92055 C72.87645,18.092675 72.9572,18.2424875 73.06345,18.368925 C73.1686375,18.4953625 73.295075,18.5963 73.4427625,18.6696125 C73.5893875,18.742925 73.7562,18.7801125 73.9432,18.7801125 C74.1206375,18.7801125 74.2842625,18.74505 74.434075,18.6759875 C74.582825,18.606925 74.7092625,18.5102375 74.8133875,18.385925 C74.91645,18.2616125 74.9972,18.1149875 75.0556375,17.943925 C75.1130125,17.773925 75.1427625,17.5879875 75.1427625,17.38505 C75.1427625,17.187425 75.11195,17.000425 75.05245,16.826175 C74.9918875,16.6508625 74.9090125,16.498925 74.803825,16.3703625 C74.697575,16.2407375 74.5711375,16.1398 74.4245125,16.0664875 C74.276825,15.9921125 74.1163875,15.9559875 73.9432,15.9559875 C73.7562,15.9559875 73.5893875,15.99105 73.4427625,16.0633 C73.295075,16.1344875 73.1686375,16.2343625 73.06345,16.362925 C72.9572,16.4914875 72.87645,16.6423625 72.8212,16.81555 C72.7648875,16.987675 72.7372625,17.1736125 72.7372625,17.3712375 L72.7372625,17.3712375 Z M75.148075,14.2219875 C75.148075,14.152925 75.1661375,14.0966125 75.2012,14.05305 C75.2362625,14.0094875 75.2936375,13.9882375 75.3722625,13.9882375 C75.40945,13.9882375 75.445575,13.99355 75.4806375,14.0052375 C75.5157,14.016925 75.5422625,14.0264875 75.5582,14.03605 L75.5582,17.2054875 C75.5582,17.3159875 75.5550125,17.4137375 75.5497,17.4987375 C75.543325,17.5837375 75.5358875,17.659175 75.5273875,17.722925 C75.4902,17.9492375 75.4253875,18.1511125 75.335075,18.330675 C75.2437,18.5102375 75.1300125,18.662175 74.99295,18.7864875 C74.8558875,18.9108 74.6986375,19.006425 74.5201375,19.0733625 C74.3427,19.1403 74.149325,19.1732375 73.9432,19.1732375 C73.698825,19.1732375 73.4757,19.1264875 73.2748875,19.031925 C73.074075,18.9373625 72.9008875,18.8088 72.755325,18.645175 C72.610825,18.48155 72.4982,18.2903 72.41745,18.0724875 C72.3367,17.8536125 72.2952625,17.6198625 72.2952625,17.3712375 C72.2952625,17.1183625 72.3367,16.8824875 72.41745,16.6636125 C72.4982,16.4447375 72.610825,16.2534875 72.755325,16.0898625 C72.9008875,15.9273 73.074075,15.7987375 73.2748875,15.7073625 C73.4757,15.614925 73.698825,15.5692375 73.9432,15.5692375 C74.2162625,15.5692375 74.4542625,15.6287375 74.6572,15.7488 C74.8601375,15.8678 75.024825,16.031425 75.148075,16.2386125 L75.148075,14.2219875 Z" id="Fill-72" fill="#4B4E51"></path>
                    <path d="M78.734225,15.9003125 C78.734225,15.83125 78.7522875,15.7749375 78.78735,15.731375 C78.8224125,15.6878125 78.878725,15.6655 78.95735,15.6655 C78.9956,15.6655 79.0306625,15.671875 79.0667875,15.6825 C79.10185,15.6941875 79.12735,15.7048125 79.14435,15.714375 L79.14435,17.70975 C79.14435,17.9265 79.1114125,18.124125 79.044475,18.3036875 C78.9786,18.48325 78.882975,18.6373125 78.7586625,18.765875 C78.63435,18.8944375 78.4824125,18.995375 78.3017875,19.0665625 C78.122225,19.13775 77.92035,19.173875 77.6961625,19.173875 C77.4730375,19.173875 77.272225,19.13775 77.093725,19.0665625 C76.915225,18.995375 76.76435,18.8944375 76.6400375,18.765875 C76.515725,18.6373125 76.4201,18.48325 76.354225,18.3036875 C76.2872875,18.124125 76.25435,17.9265 76.25435,17.70975 L76.25435,15.9003125 C76.25435,15.83125 76.2724125,15.7749375 76.307475,15.731375 C76.3425375,15.6878125 76.3999125,15.6655 76.4785375,15.6655 C76.515725,15.6655 76.55185,15.671875 76.5869125,15.6825 C76.621975,15.6941875 76.6485375,15.7048125 76.664475,15.714375 L76.664475,17.571625 C76.664475,17.9530625 76.749475,18.2505625 76.919475,18.462 C77.089475,18.6734375 77.348725,18.7796875 77.6961625,18.7796875 C78.0446625,18.7796875 78.3039125,18.6734375 78.4760375,18.462 C78.6481625,18.2505625 78.734225,17.9530625 78.734225,17.571625 L78.734225,15.9003125 Z" id="Fill-74" fill="#4B4E51"></path>
                    <path d="M81.4375437,15.962575 C81.2632937,15.962575 81.1028562,15.9902 80.9562312,16.04545 C80.8085437,16.1007 80.6810437,16.1857 80.5737312,16.30045 C80.4653562,16.4162625 80.3814187,16.561825 80.3219187,16.7392625 C80.2613562,16.9167 80.2316062,17.12495 80.2316062,17.3640125 C80.2316062,17.6126375 80.2645437,17.8272625 80.3314812,18.006825 C80.3973562,18.1863875 80.4876687,18.33195 80.6013562,18.444575 C80.7150437,18.5582625 80.8499812,18.6422 81.0051062,18.69745 C81.1612937,18.7527 81.3249187,18.780325 81.4991687,18.780325 C81.7191062,18.780325 81.8901687,18.7527 82.0123562,18.69745 C82.1345437,18.6422 82.2291062,18.593325 82.2949812,18.5518875 L82.4628562,18.890825 C82.3427937,18.9641375 82.2036062,19.0300125 82.0463562,19.0873875 C81.8891062,19.1447625 81.6819187,19.17345 81.4247937,19.17345 C81.1931687,19.17345 80.9764187,19.1341375 80.7756062,19.056575 C80.5747937,18.97795 80.4016062,18.8632 80.2571062,18.7112625 C80.1115437,18.559325 79.9978562,18.372325 79.9149812,18.151325 C79.8321062,17.930325 79.7906687,17.679575 79.7906687,17.399075 C79.7906687,17.1090125 79.8321062,16.8497625 79.9149812,16.6223875 C79.9978562,16.39395 80.1115437,16.2016375 80.2571062,16.04545 C80.4016062,15.8892625 80.5758562,15.7702625 80.7787937,15.6895125 C80.9817312,15.609825 81.2027312,15.56945 81.4439187,15.56945 C81.7169812,15.56945 81.9305437,15.6002625 82.0835437,15.6618875 C82.2365437,15.724575 82.3321687,15.77345 82.3693562,15.8106375 C82.3991062,15.8340125 82.4235437,15.8627 82.4437312,15.8967 C82.4649812,15.9317625 82.4756062,15.9742625 82.4756062,16.0252625 C82.4756062,16.0613875 82.4639187,16.10495 82.4405437,16.15595 C82.4182312,16.20695 82.3842312,16.2505125 82.3385437,16.2877 C82.2684187,16.217575 82.1568562,16.1463875 82.0059812,16.073075 C81.8551062,15.9997625 81.6649187,15.962575 81.4375437,15.962575" id="Fill-76" fill="#4B4E51"></path>
                    <g id="Group-80" transform="translate(82.875000, 13.932137)">
                        <mask id="mask-4" fill="white">
                            <use xlink:href="#path-3"></use>
                        </mask>
                        <g id="Clip-79"></g>
                        <path d="M0.4828,2.1477375 L0.4828,4.15055 C0.4828,4.407675 0.5423,4.590425 0.663425,4.6956125 C0.782425,4.8018625 0.939675,4.8549875 1.135175,4.8549875 C1.2594875,4.8549875 1.3753,4.8316125 1.4826125,4.785925 C1.5909875,4.739175 1.6738625,4.6956125 1.7312375,4.654175 L1.9118625,4.951675 C1.887425,4.9739875 1.849175,5.0016125 1.7971125,5.03455 C1.74505,5.066425 1.683425,5.0983 1.6101125,5.1312375 C1.5378625,5.1631125 1.4528625,5.189675 1.3551125,5.2098625 C1.258425,5.2311125 1.1511125,5.2417375 1.0353,5.2417375 C0.86955,5.2417375 0.727175,5.2162375 0.6071125,5.1652375 C0.48705,5.1142375 0.387175,5.0441125 0.30855,4.9548625 C0.229925,4.86455 0.170425,4.7583 0.1311125,4.6339875 C0.0918,4.509675 0.072675,4.373675 0.072675,4.2259875 L0.072675,1.0427375 C0.072675,0.973675 0.089675,0.9173625 0.1247375,0.8738 C0.1598,0.8302375 0.217175,0.807925 0.2958,0.807925 C0.3329875,0.807925 0.370175,0.8143 0.4052375,0.824925 C0.4403,0.8366125 0.4658,0.8472375 0.4828,0.8568 L0.4828,1.7333625 L1.5761125,1.7333625 C1.6632375,1.7333625 1.7227375,1.755675 1.7567375,1.7992375 C1.789675,1.8428 1.8056125,1.8969875 1.8056125,1.9618 C1.8056125,1.997925 1.802425,2.0329875 1.793925,2.0648625 C1.785425,2.0967375 1.776925,2.1243625 1.7694875,2.1477375 L0.4828,2.1477375 Z" id="Fill-78" fill="#4B4E51" mask="url(#mask-4)"></path>
                    </g>
                </g>
            </g>
        </g>
    </g>
</svg>