<?xml version="1.0" encoding="UTF-8"?>
<svg width="114px" height="25px" viewBox="0 0 114 25" version="1.1" xmlns="http://www.w3.org/2000/svg" xmlns:xlink="http://www.w3.org/1999/xlink">
    <!-- Generator: sketchtool 42 (36781) - http://www.bohemiancoding.com/sketch -->
    <title>AA48810F-F702-4F7F-82FF-7526AC83FE39</title>
    <desc>Created with sketchtool.</desc>
    <defs>
        <path d="M19.316825,18.8939125 C19.32745,18.5709125 19.346575,18.1055375 19.376325,17.4956625 C19.40395,16.8879125 19.435825,16.2057875 19.4762,15.4556625 C19.51445,14.7034125 19.554825,13.9192875 19.593075,13.1054125 C19.63345,12.2915375 19.6717,11.5095375 19.712075,10.7572875 C19.750325,10.0050375 19.78645,9.3271625 19.82045,8.7257875 C19.85445,8.1222875 19.882075,7.6590375 19.903325,7.3360375 C19.9267,6.8897875 20.060575,6.5710375 20.307075,6.3861625 C20.55145,6.1991625 20.83195,6.1056625 21.144325,6.1056625 C21.492825,6.1056625 21.777575,6.1630375 22.0007,6.2735375 C22.223825,6.3861625 22.381075,6.4924125 22.470325,6.5901625 C22.6042,6.8897875 22.810325,7.3466625 23.08445,7.9607875 C23.35645,8.5770375 23.65395,9.2421625 23.9727,9.9561625 C24.29145,10.6701625 24.6102,11.3756625 24.92895,12.0705375 C25.2477,12.7675375 25.513325,13.3455375 25.725825,13.8045375 C25.91495,13.3816625 26.15295,12.8567875 26.4377,12.2299125 C26.724575,11.6030375 27.009325,10.9676625 27.294075,10.3280375 C27.578825,9.6884125 27.8487,9.0849125 28.09945,8.5196625 C28.352325,7.9544125 28.543575,7.5166625 28.679575,7.2064125 C28.8347,6.8451625 29.0302,6.5710375 29.266075,6.3861625 C29.499825,6.1991625 29.801575,6.1056625 30.171325,6.1056625 C30.49645,6.1056625 30.770575,6.1524125 30.9937,6.2459125 C31.216825,6.3394125 31.357075,6.4159125 31.41445,6.4796625 C31.4357,6.8260375 31.463325,7.3296625 31.497325,7.9884125 C31.531325,8.6471625 31.56745,9.3781625 31.6057,10.1792875 C31.64395,10.9804125 31.68645,11.8197875 31.731075,12.6952875 C31.7757,13.5729125 31.82245,14.4101625 31.86495,15.2134125 C31.9117,16.0145375 31.947825,16.7412875 31.97545,17.3936625 C32.003075,18.0460375 32.028575,18.5454125 32.049825,18.8939125 L30.08845,18.8939125 C30.0757,18.6941625 30.060825,18.3499125 30.03745,17.8590375 C30.014075,17.3681625 29.98645,16.8007875 29.954575,16.1526625 C29.920575,15.5066625 29.886575,14.8266625 29.852575,14.1126625 C29.818575,13.3986625 29.7867,12.7207875 29.7527,12.0811625 C29.7187,11.4415375 29.686825,10.8762875 29.6592,10.3832875 C29.631575,9.8945375 29.61245,9.5545375 29.601825,9.3675375 C29.499825,9.5927875 29.36595,9.8902875 29.198075,10.2621625 C29.0302,10.6361625 28.849575,11.0420375 28.654075,11.4840375 C28.458575,11.9260375 28.25245,12.3892875 28.03995,12.8716625 C27.829575,13.3582875 27.62345,13.8215375 27.42795,14.2614125 C27.23245,14.7034125 27.05395,15.1135375 26.89245,15.4917875 C26.728825,15.8700375 26.597075,16.1717875 26.4972,16.3970375 L24.85245,16.3970375 C24.718575,16.0612875 24.523075,15.5980375 24.26595,15.0072875 C24.008825,14.4165375 23.732575,13.7854125 23.435075,13.1160375 C23.1397,12.4445375 22.8422,11.7794125 22.546825,11.1206625 C22.249325,10.4619125 21.9837,9.8902875 21.74995,9.4057875 C21.7372,9.7032875 21.718075,10.1006625 21.69045,10.5979125 C21.662825,11.0951625 21.6352,11.6497875 21.607575,12.2575375 C21.577825,12.8674125 21.548075,13.4964125 21.514075,14.1487875 C21.4822,14.8011625 21.450325,15.4322875 21.4227,16.0421625 C21.39295,16.6520375 21.369575,17.2045375 21.3462,17.7017875 C21.32495,18.1990375 21.30795,18.5964125 21.297325,18.8939125 L19.316825,18.8939125 Z M34.432375,7.3184 C34.432375,6.9954 34.48975,6.7404 34.60025,6.5534 C34.712875,6.3664 34.9105,6.228275 35.19525,6.134775 C35.482125,6.041275 35.8625,5.981775 36.336375,5.956275 C36.812375,5.9329 37.420125,5.92015 38.1575,5.92015 C39.22,5.92015 40.174125,6.071025 41.01775,6.377025 C41.8635,6.6809 42.5775,7.116525 43.166125,7.681775 C43.752625,8.247025 44.203125,8.93765 44.5155,9.7494 C44.83,10.5654 44.985125,11.4749 44.985125,12.48215 C44.985125,13.500025 44.83425,14.418025 44.5325,15.2319 C44.23075,16.045775 43.786625,16.738525 43.200125,17.31015 C42.6115,17.881775 41.88475,18.319525 41.01775,18.6234 C40.15075,18.927275 39.152,19.080275 38.023625,19.080275 C36.82725,19.080275 35.94325,19.05265 35.37375,18.9974 C34.802125,18.940025 34.48975,18.906025 34.432375,18.893275 L34.432375,7.3184 Z M36.429875,16.955275 C36.49575,16.980775 36.676375,17.0084 36.965375,17.03815 C37.2565,17.070025 37.6645,17.0849 38.1915,17.0849 C39.710875,17.0849 40.875375,16.6854 41.68075,15.884275 C42.486125,15.081025 42.889875,13.9484 42.889875,12.48215 C42.889875,11.81065 42.796375,11.192275 42.6115,10.627025 C42.42875,10.061775 42.144,9.577275 41.763625,9.173525 C41.38325,8.769775 40.896625,8.451025 40.30375,8.221525 C39.710875,7.992025 39.0075,7.877275 38.1915,7.877275 C37.653875,7.877275 37.237375,7.89215 36.942,7.924025 C36.6445,7.9559 36.4745,7.97715 36.429875,7.987775 L36.429875,16.955275 Z M46.8649,18.8939125 C46.875525,18.5709125 46.89465,18.1055375 46.9244,17.4956625 C46.952025,16.8879125 46.9839,16.2057875 47.024275,15.4556625 C47.062525,14.7034125 47.1029,13.9192875 47.14115,13.1054125 C47.181525,12.2915375 47.219775,11.5095375 47.26015,10.7572875 C47.2984,10.0050375 47.334525,9.3271625 47.368525,8.7257875 C47.402525,8.1222875 47.43015,7.6590375 47.4514,7.3360375 C47.474775,6.8897875 47.60865,6.5710375 47.85515,6.3861625 C48.099525,6.1991625 48.380025,6.1056625 48.6924,6.1056625 C49.0409,6.1056625 49.32565,6.1630375 49.548775,6.2735375 C49.7719,6.3861625 49.92915,6.4924125 50.0184,6.5901625 C50.152275,6.8897875 50.3584,7.3466625 50.632525,7.9607875 C50.904525,8.5770375 51.202025,9.2421625 51.520775,9.9561625 C51.839525,10.6701625 52.158275,11.3756625 52.477025,12.0705375 C52.795775,12.7675375 53.0614,13.3455375 53.2739,13.8045375 C53.463025,13.3816625 53.701025,12.8567875 53.985775,12.2299125 C54.27265,11.6030375 54.5574,10.9676625 54.84215,10.3280375 C55.1269,9.6884125 55.396775,9.0849125 55.647525,8.5196625 C55.9004,7.9544125 56.09165,7.5166625 56.22765,7.2064125 C56.382775,6.8451625 56.578275,6.5710375 56.81415,6.3861625 C57.0479,6.1991625 57.34965,6.1056625 57.7194,6.1056625 C58.044525,6.1056625 58.31865,6.1524125 58.541775,6.2459125 C58.7649,6.3394125 58.90515,6.4159125 58.962525,6.4796625 C58.983775,6.8260375 59.0114,7.3296625 59.0454,7.9884125 C59.0794,8.6471625 59.115525,9.3781625 59.153775,10.1792875 C59.192025,10.9804125 59.234525,11.8197875 59.27915,12.6952875 C59.323775,13.5729125 59.370525,14.4101625 59.413025,15.2134125 C59.459775,16.0145375 59.4959,16.7412875 59.523525,17.3936625 C59.55115,18.0460375 59.57665,18.5454125 59.5979,18.8939125 L57.636525,18.8939125 C57.623775,18.6941625 57.6089,18.3499125 57.585525,17.8590375 C57.56215,17.3681625 57.534525,16.8007875 57.50265,16.1526625 C57.46865,15.5066625 57.43465,14.8266625 57.40065,14.1126625 C57.36665,13.3986625 57.334775,12.7207875 57.300775,12.0811625 C57.266775,11.4415375 57.2349,10.8762875 57.207275,10.3832875 C57.17965,9.8945375 57.160525,9.5545375 57.1499,9.3675375 C57.0479,9.5927875 56.914025,9.8902875 56.74615,10.2621625 C56.578275,10.6361625 56.39765,11.0420375 56.20215,11.4840375 C56.00665,11.9260375 55.800525,12.3892875 55.588025,12.8716625 C55.37765,13.3582875 55.171525,13.8215375 54.976025,14.2614125 C54.780525,14.7034125 54.602025,15.1135375 54.440525,15.4917875 C54.2769,15.8700375 54.14515,16.1717875 54.045275,16.3970375 L52.400525,16.3970375 C52.26665,16.0612875 52.07115,15.5980375 51.814025,15.0072875 C51.5569,14.4165375 51.28065,13.7854125 50.98315,13.1160375 C50.687775,12.4445375 50.390275,11.7794125 50.0949,11.1206625 C49.7974,10.4619125 49.531775,9.8902875 49.298025,9.4057875 C49.285275,9.7032875 49.26615,10.1006625 49.238525,10.5979125 C49.2109,11.0951625 49.183275,11.6497875 49.15565,12.2575375 C49.1259,12.8674125 49.09615,13.4964125 49.06215,14.1487875 C49.030275,14.8011625 48.9984,15.4322875 48.970775,16.0421625 C48.941025,16.6520375 48.91765,17.2045375 48.894275,17.7017875 C48.873025,18.1990375 48.856025,18.5964125 48.8454,18.8939125 L46.8649,18.8939125 Z M71.6447375,18.0366875 C71.5214875,18.1365625 71.3514875,18.2534375 71.1326125,18.3915625 C70.9158625,18.5275625 70.6417375,18.6571875 70.3102375,18.7825625 C69.9808625,18.9058125 69.5919875,19.0120625 69.1457375,19.0991875 C68.6973625,19.1863125 68.1894875,19.2288125 67.6178625,19.2288125 C66.7912375,19.2288125 66.0071125,19.0843125 65.2697375,18.7910625 C64.5323625,18.4999375 63.8799875,18.0749375 63.3147375,17.5139375 C62.7494875,16.9550625 62.3032375,16.2601875 61.9738625,15.4271875 C61.6423625,14.5941875 61.4787375,13.6379375 61.4787375,12.5563125 C61.4787375,11.4874375 61.6359875,10.5311875 61.9568625,9.6854375 C62.2756125,8.8396875 62.7112375,8.1299375 63.2637375,7.5498125 C63.8183625,6.9739375 64.4643625,6.5319375 65.2017375,6.2280625 C65.9412375,5.9220625 66.7296125,5.7711875 67.5689875,5.7711875 C68.3743625,5.7711875 69.0331125,5.8455625 69.5473625,5.9943125 C70.0616125,6.1430625 70.4674875,6.3279375 70.7649875,6.5446875 C71.0603625,6.7614375 71.2664875,6.9845625 71.3854875,7.2161875 C71.5023625,7.4456875 71.5618625,7.6348125 71.5618625,7.7835625 C71.5618625,7.9450625 71.5299875,8.1001875 71.4683625,8.2510625 C71.4067375,8.3998125 71.3344875,8.5315625 71.2516125,8.6505625 C71.1666125,8.7695625 71.0794875,8.8715625 70.9902375,8.9586875 C70.9009875,9.0458125 70.8223625,9.1074375 70.7543625,9.1456875 C70.6438625,9.0075625 70.4887375,8.8588125 70.2932375,8.6973125 C70.0977375,8.5358125 69.8661125,8.3870625 69.5983625,8.2510625 C69.3306125,8.1129375 69.0288625,7.9981875 68.6909875,7.9046875 C68.3573625,7.8111875 67.9939875,7.7644375 67.6008625,7.7644375 C67.0313625,7.7644375 66.5001125,7.8749375 66.0071125,8.0916875 C65.5162375,8.3084375 65.0912375,8.6250625 64.7321125,9.0415625 C64.3751125,9.4580625 64.0924875,9.9616875 63.8842375,10.5524375 C63.6781125,11.1431875 63.5761125,11.8104375 63.5761125,12.5563125 C63.5761125,13.3149375 63.6844875,13.9821875 63.9033625,14.5601875 C64.1201125,15.1381875 64.4197375,15.6226875 64.8001125,16.0136875 C65.1804875,16.4046875 65.6267375,16.7000625 66.1409875,16.8998125 C66.6552375,17.0995625 67.2098625,17.1973125 67.8027375,17.1973125 C68.5082375,17.1973125 69.1138625,17.0995625 69.6238625,16.8998125 C70.1317375,16.7000625 70.5036125,16.5151875 70.7394875,16.3409375 L71.6277375,18.0366875 L71.6447375,18.0366875 Z M79.9823875,18.20435 C79.8931375,18.265975 79.7528875,18.3531 79.5637625,18.465725 C79.3746375,18.576225 79.1366375,18.682475 78.8497625,18.78235 C78.5650125,18.882225 78.2356375,18.96935 77.8616375,19.043725 C77.4855125,19.1181 77.0753875,19.154225 76.6270125,19.154225 C76.0001375,19.154225 75.4178875,19.0501 74.8738875,18.8376 C74.3320125,18.627225 73.8560125,18.312725 73.4480125,17.896225 C73.0400125,17.479725 72.7191375,16.97185 72.4832625,16.36835 C72.2495125,15.76485 72.1305125,15.0721 72.1305125,14.2901 C72.1305125,13.544225 72.2452625,12.864225 72.4747625,12.247975 C72.7042625,11.63385 73.0230125,11.104725 73.4310125,10.66485 C73.8390125,10.22285 74.3213875,9.880725 74.8738875,9.638475 C75.4285125,9.396225 76.0341375,9.2751 76.6950125,9.2751 C77.2751375,9.2751 77.7893875,9.357975 78.2377625,9.52585 C78.6861375,9.693725 79.0622625,9.918975 79.3703875,10.19735 C79.6785125,10.47785 79.9101375,10.802975 80.0673875,11.176975 C80.2225125,11.54885 80.3011375,11.94835 80.3011375,12.3691 C80.3011375,12.804725 80.2288875,13.199975 80.0843875,13.552725 C79.9377625,13.9076 79.6806375,14.211475 79.3108875,14.466475 C78.9432625,14.721475 78.4438875,14.921225 77.8191375,15.0636 C77.1922625,15.205975 76.3975125,15.278225 75.4370125,15.278225 C75.2117625,15.278225 75.0013875,15.273975 74.8058875,15.2676 C74.6103875,15.261225 74.4021375,15.252725 74.1768875,15.239975 C74.2661375,15.873225 74.5445125,16.387475 75.0077625,16.778475 C75.4731375,17.169475 76.1340125,17.364975 76.9967625,17.364975 C77.2878875,17.364975 77.5556375,17.339475 77.8021375,17.2906 C78.0486375,17.241725 78.2696375,17.1801 78.4651375,17.1036 C78.6606375,17.029225 78.8285125,16.95485 78.9687625,16.880475 C79.1068875,16.8061 79.2110125,16.75085 79.2790125,16.7126 L79.9823875,18.20435 Z M74.0940125,13.786475 C74.3511375,13.799225 74.5976375,13.8056 74.8313875,13.8056 L75.5368875,13.8056 C76.1531375,13.8056 76.6503875,13.760975 77.0307625,13.67385 C77.4111375,13.586725 77.7065125,13.476225 77.9190125,13.3381 C78.1315125,13.2021 78.2717625,13.046975 78.3397625,12.872725 C78.4056375,12.698475 78.4396375,12.51785 78.4396375,12.332975 C78.4396375,11.861225 78.2696375,11.50635 77.9275125,11.270475 C77.5875125,11.0346 77.1646375,10.9156 76.6610125,10.9156 C76.2466375,10.9156 75.8832625,10.99635 75.5708875,11.15785 C75.2563875,11.31935 74.9950125,11.533975 74.7825125,11.801725 C74.5700125,12.069475 74.4042625,12.375475 74.2873875,12.723975 C74.1705125,13.072475 74.1046375,13.425225 74.0940125,13.786475 Z M81.727225,13.245875 C81.727225,12.625375 81.829225,12.068625 82.037475,11.57775 C82.2436,11.086875 82.52835,10.670375 82.89385,10.32825 C83.257225,9.986125 83.686475,9.72475 84.183725,9.54625 C84.6831,9.365625 85.2271,9.27425 85.819975,9.27425 C86.41285,9.27425 86.9611,9.365625 87.464725,9.54625 C87.96835,9.72475 88.40185,9.986125 88.765225,10.32825 C89.1286,10.670375 89.411225,11.086875 89.610975,11.57775 C89.81285,12.068625 89.91485,12.625375 89.91485,13.245875 L89.91485,18.894125 L88.00235,18.894125 L88.00235,13.785625 C88.00235,12.942 87.817475,12.298125 87.447725,11.856125 C87.077975,11.41625 86.5361,11.19525 85.819975,11.19525 C85.093225,11.19525 84.549225,11.41625 84.183725,11.856125 C83.822475,12.298125 83.639725,12.942 83.639725,13.785625 L83.639725,18.894125 L81.727225,18.894125 L81.727225,13.245875 Z M91.9108625,7.87685 C91.9108625,7.52835 92.0001125,7.2776 92.1786125,7.122475 C92.3571125,6.96735 92.6036125,6.888725 92.9181125,6.888725 C93.1178625,6.888725 93.3048625,6.91635 93.4791125,6.973725 C93.6533625,7.028975 93.7681125,7.06935 93.8233625,7.092725 L93.8233625,9.536475 L96.2564875,9.536475 C96.6241125,9.536475 96.8854875,9.61935 97.0363625,9.787225 C97.1872375,9.9551 97.2616125,10.2016 97.2616125,10.5246 C97.2616125,10.734975 97.2339875,10.930475 97.1787375,11.1111 C97.1234875,11.291725 97.0788625,11.419225 97.0448625,11.4936 L93.8233625,11.4936 L93.8233625,15.6501 C93.8233625,15.9731 93.8637375,16.2366 93.9402375,16.442725 C94.0188625,16.646725 94.1272375,16.812475 94.2674875,16.935725 C94.4077375,17.0611 94.5692375,17.148225 94.7541125,17.1971 C94.9389875,17.2481 95.1323625,17.271475 95.3342375,17.271475 C95.6572375,17.271475 95.9589875,17.216225 96.2394875,17.1036 C96.5178625,16.9931 96.7197375,16.88685 96.8429875,16.786975 L97.6143625,18.20435 C97.5251125,18.278725 97.3997375,18.372225 97.2382375,18.48485 C97.0746125,18.59535 96.8769875,18.7016 96.6411125,18.801475 C96.4073625,18.899225 96.1438625,18.984225 95.8527375,19.052225 C95.5616125,19.120225 95.2428625,19.154225 94.8964875,19.154225 C93.9126125,19.154225 93.1688625,18.8716 92.6652375,18.30635 C92.1616125,17.7411 91.9108625,16.999475 91.9108625,16.07935 L91.9108625,7.87685 Z M105.767775,18.20435 C105.678525,18.265975 105.538275,18.3531 105.34915,18.465725 C105.160025,18.576225 104.922025,18.682475 104.63515,18.78235 C104.3504,18.882225 104.021025,18.96935 103.647025,19.043725 C103.2709,19.1181 102.860775,19.154225 102.4124,19.154225 C101.785525,19.154225 101.203275,19.0501 100.659275,18.8376 C100.1174,18.627225 99.6414,18.312725 99.2334,17.896225 C98.8254,17.479725 98.504525,16.97185 98.26865,16.36835 C98.0349,15.76485 97.9159,15.0721 97.9159,14.2901 C97.9159,13.544225 98.03065,12.864225 98.26015,12.247975 C98.48965,11.63385 98.8084,11.104725 99.2164,10.66485 C99.6244,10.22285 100.106775,9.880725 100.659275,9.638475 C101.2139,9.396225 101.819525,9.2751 102.4804,9.2751 C103.060525,9.2751 103.574775,9.357975 104.02315,9.52585 C104.471525,9.693725 104.84765,9.918975 105.155775,10.19735 C105.4639,10.47785 105.695525,10.802975 105.852775,11.176975 C106.0079,11.54885 106.086525,11.94835 106.086525,12.3691 C106.086525,12.804725 106.014275,13.199975 105.869775,13.552725 C105.72315,13.9076 105.466025,14.211475 105.096275,14.466475 C104.72865,14.721475 104.229275,14.921225 103.604525,15.0636 C102.97765,15.205975 102.1829,15.278225 101.2224,15.278225 C100.99715,15.278225 100.786775,15.273975 100.591275,15.2676 C100.395775,15.261225 100.187525,15.252725 99.962275,15.239975 C100.051525,15.873225 100.3299,16.387475 100.79315,16.778475 C101.258525,17.169475 101.9194,17.364975 102.78215,17.364975 C103.073275,17.364975 103.341025,17.339475 103.587525,17.2906 C103.834025,17.241725 104.055025,17.1801 104.250525,17.1036 C104.446025,17.029225 104.6139,16.95485 104.75415,16.880475 C104.892275,16.8061 104.9964,16.75085 105.0644,16.7126 L105.767775,18.20435 Z M99.8794,13.786475 C100.136525,13.799225 100.383025,13.8056 100.616775,13.8056 L101.322275,13.8056 C101.938525,13.8056 102.435775,13.760975 102.81615,13.67385 C103.196525,13.586725 103.4919,13.476225 103.7044,13.3381 C103.9169,13.2021 104.05715,13.046975 104.12515,12.872725 C104.191025,12.698475 104.225025,12.51785 104.225025,12.332975 C104.225025,11.861225 104.055025,11.50635 103.7129,11.270475 C103.3729,11.0346 102.950025,10.9156 102.4464,10.9156 C102.032025,10.9156 101.66865,10.99635 101.356275,11.15785 C101.041775,11.31935 100.7804,11.533975 100.5679,11.801725 C100.3554,12.069475 100.18965,12.375475 100.072775,12.723975 C99.9559,13.072475 99.890025,13.425225 99.8794,13.786475 Z M107.513675,12.872725 C107.513675,11.729475 107.828175,10.84335 108.461425,10.216475 C109.09255,9.5896 109.96805,9.2751 111.087925,9.2751 C111.7913,9.2751 112.36505,9.383475 112.80705,9.600225 C113.24905,9.8191 113.47005,10.1506 113.47005,10.598975 C113.47005,10.80935 113.416925,11.015475 113.310675,11.2131 C113.2023,11.41285 113.1173,11.538225 113.0493,11.5871 C112.860175,11.487225 112.6243,11.393725 112.345925,11.3066 C112.065425,11.219475 111.746675,11.176975 111.389675,11.176975 C110.080675,11.176975 109.426175,11.946225 109.426175,13.488975 L109.426175,18.894975 L107.513675,18.894975 L107.513675,12.872725 Z" id="path-1"></path>
        <mask id="mask-2" maskContentUnits="userSpaceOnUse" maskUnits="objectBoundingBox" x="-0.5" y="-0.5" width="95.153225" height="14.457625">
            <rect x="18.816825" y="5.2711875" width="95.153225" height="14.457625" fill="white"></rect>
            <use xlink:href="#path-1" fill="black"></use>
        </mask>
    </defs>
    <g id="Symbols" stroke="none" stroke-width="1" fill="none" fill-rule="evenodd">
        <g id="Logos/mainlogo">
            <g>
                <use fill="#FFFFFF" fill-rule="evenodd" xlink:href="#path-1"></use>
                <use stroke="#FFFFFF" mask="url(#mask-2)" stroke-width="1" xlink:href="#path-1"></use>
            </g>
            <g id="Group-4">
                <path d="M5.68823675,9.18412941 C5.68823675,10.7548876 4.41496456,12.0283198 2.84420634,12.0283198 C1.27328818,12.0283198 1.59938723e-05,10.7548876 1.59938723e-05,9.18412941 C1.59938723e-05,7.6133712 1.27328818,6.33993907 2.84420634,6.33993907 C4.41496456,6.33993907 5.68823675,7.6133712 5.68823675,9.18412941" id="Fill-22" fill="#33D44C"></path>
                <path d="M5.68823675,15.3642737 C5.68823675,16.9350319 4.41496456,18.208464 2.84420634,18.208464 C1.27328818,18.208464 1.59938723e-05,16.9350319 1.59938723e-05,15.3642737 C1.59938723e-05,13.7935155 1.27328818,12.5200834 2.84420634,12.5200834 C4.41496456,12.5200834 5.68823675,13.7935155 5.68823675,15.3642737" id="Fill-24" fill="#B390F0"></path>
                <path d="M12.424408,9.18412941 C12.424408,10.7548876 11.1509759,12.0283198 9.58021767,12.0283198 C8.00945945,12.0283198 6.73618726,10.7548876 6.73618726,9.18412941 C6.73618726,7.6133712 8.00945945,6.33993907 9.58021767,6.33993907 C11.1509759,6.33993907 12.424408,7.6133712 12.424408,9.18412941" id="Fill-26" fill="#FF9C31"></path>
                <path d="M12.424408,15.3642737 C12.424408,16.9350319 11.1509759,18.208464 9.58021767,18.208464 C8.00945945,18.208464 6.73618726,16.9350319 6.73618726,15.3642737 C6.73618726,13.7935155 8.00945945,12.5200834 9.58021767,12.5200834 C11.1509759,12.5200834 12.424408,13.7935155 12.424408,15.3642737" id="Fill-28" fill="#F6D30B"></path>
                <path d="M5.68823675,3.00400112 C5.68823675,4.57475934 4.41496456,5.84819147 2.84420634,5.84819147 C1.27328818,5.84819147 1.59938723e-05,4.57475934 1.59938723e-05,3.00400112 C1.59938723e-05,1.4332429 1.27328818,0.159810774 2.84420634,0.159810774 C4.41496456,0.159810774 5.68823675,1.4332429 5.68823675,3.00400112" id="Fill-1" fill="#11C5FF"></path>
                <path d="M12.424408,21.544482 C12.424408,23.1152402 11.1509759,24.3885124 9.58021767,24.3885124 C8.00945945,24.3885124 6.73618726,23.1152402 6.73618726,21.544482 C6.73618726,19.9737238 8.00945945,18.7002916 9.58021767,18.7002916 C11.1509759,18.7002916 12.424408,19.9737238 12.424408,21.544482" id="Fill-30" fill="#ED204B"></path>
            </g>
        </g>
    </g>
</svg>