<?xml version="1.0" encoding="UTF-8"?>
<svg width="114px" height="20px" viewBox="0 0 114 20" version="1.1" xmlns="http://www.w3.org/2000/svg" xmlns:xlink="http://www.w3.org/1999/xlink">
    <!-- Generator: sketchtool 42 (36781) - http://www.bohemiancoding.com/sketch -->
    <title>AA48810F-F702-4F7F-82FF-7526AC83FE39</title>
    <desc>Created with sketchtool.</desc>
    <defs></defs>
    <g id="Symbols" stroke="none" stroke-width="1" fill="none" fill-rule="evenodd">
        <g id="Logos/mainlogo" fill="#FFFFFF">
            <g>
                <path d="M19.316825,17.153525 C19.32745,16.830525 19.346575,16.36515 19.376325,15.755275 C19.40395,15.147525 19.435825,14.4654 19.4762,13.715275 C19.51445,12.963025 19.554825,12.1789 19.593075,11.365025 C19.63345,10.55115 19.6717,9.76915 19.712075,9.0169 C19.750325,8.26465 19.78645,7.586775 19.82045,6.9854 C19.85445,6.3819 19.882075,5.91865 19.903325,5.59565 C19.9267,5.1494 20.060575,4.83065 20.307075,4.645775 C20.55145,4.458775 20.83195,4.365275 21.144325,4.365275 C21.492825,4.365275 21.777575,4.42265 22.0007,4.53315 C22.223825,4.645775 22.381075,4.752025 22.470325,4.849775 C22.6042,5.1494 22.810325,5.606275 23.08445,6.2204 C23.35645,6.83665 23.65395,7.501775 23.9727,8.215775 C24.29145,8.929775 24.6102,9.635275 24.92895,10.33015 C25.2477,11.02715 25.513325,11.60515 25.725825,12.06415 C25.91495,11.641275 26.15295,11.1164 26.4377,10.489525 C26.724575,9.86265 27.009325,9.227275 27.294075,8.58765 C27.578825,7.948025 27.8487,7.344525 28.09945,6.779275 C28.352325,6.214025 28.543575,5.776275 28.679575,5.466025 C28.8347,5.104775 29.0302,4.83065 29.266075,4.645775 C29.499825,4.458775 29.801575,4.365275 30.171325,4.365275 C30.49645,4.365275 30.770575,4.412025 30.9937,4.505525 C31.216825,4.599025 31.357075,4.675525 31.41445,4.739275 C31.4357,5.08565 31.463325,5.589275 31.497325,6.248025 C31.531325,6.906775 31.56745,7.637775 31.6057,8.4389 C31.64395,9.240025 31.68645,10.0794 31.731075,10.9549 C31.7757,11.832525 31.82245,12.669775 31.86495,13.473025 C31.9117,14.27415 31.947825,15.0009 31.97545,15.653275 C32.003075,16.30565 32.028575,16.805025 32.049825,17.153525 L30.08845,17.153525 C30.0757,16.953775 30.060825,16.609525 30.03745,16.11865 C30.014075,15.627775 29.98645,15.0604 29.954575,14.412275 C29.920575,13.766275 29.886575,13.086275 29.852575,12.372275 C29.818575,11.658275 29.7867,10.9804 29.7527,10.340775 C29.7187,9.70115 29.686825,9.1359 29.6592,8.6429 C29.631575,8.15415 29.61245,7.81415 29.601825,7.62715 C29.499825,7.8524 29.36595,8.1499 29.198075,8.521775 C29.0302,8.895775 28.849575,9.30165 28.654075,9.74365 C28.458575,10.18565 28.25245,10.6489 28.03995,11.131275 C27.829575,11.6179 27.62345,12.08115 27.42795,12.521025 C27.23245,12.963025 27.05395,13.37315 26.89245,13.7514 C26.728825,14.12965 26.597075,14.4314 26.4972,14.65665 L24.85245,14.65665 C24.718575,14.3209 24.523075,13.85765 24.26595,13.2669 C24.008825,12.67615 23.732575,12.045025 23.435075,11.37565 C23.1397,10.70415 22.8422,10.039025 22.546825,9.380275 C22.249325,8.721525 21.9837,8.1499 21.74995,7.6654 C21.7372,7.9629 21.718075,8.360275 21.69045,8.857525 C21.662825,9.354775 21.6352,9.9094 21.607575,10.51715 C21.577825,11.127025 21.548075,11.756025 21.514075,12.4084 C21.4822,13.060775 21.450325,13.6919 21.4227,14.301775 C21.39295,14.91165 21.369575,15.46415 21.3462,15.9614 C21.32495,16.45865 21.30795,16.856025 21.297325,17.153525 L19.316825,17.153525 Z M34.432375,5.5780125 C34.432375,5.2550125 34.48975,5.0000125 34.60025,4.8130125 C34.712875,4.6260125 34.9105,4.4878875 35.19525,4.3943875 C35.482125,4.3008875 35.8625,4.2413875 36.336375,4.2158875 C36.812375,4.1925125 37.420125,4.1797625 38.1575,4.1797625 C39.22,4.1797625 40.174125,4.3306375 41.01775,4.6366375 C41.8635,4.9405125 42.5775,5.3761375 43.166125,5.9413875 C43.752625,6.5066375 44.203125,7.1972625 44.5155,8.0090125 C44.83,8.8250125 44.985125,9.7345125 44.985125,10.7417625 C44.985125,11.7596375 44.83425,12.6776375 44.5325,13.4915125 C44.23075,14.3053875 43.786625,14.9981375 43.200125,15.5697625 C42.6115,16.1413875 41.88475,16.5791375 41.01775,16.8830125 C40.15075,17.1868875 39.152,17.3398875 38.023625,17.3398875 C36.82725,17.3398875 35.94325,17.3122625 35.37375,17.2570125 C34.802125,17.1996375 34.48975,17.1656375 34.432375,17.1528875 L34.432375,5.5780125 Z M36.429875,15.2148875 C36.49575,15.2403875 36.676375,15.2680125 36.965375,15.2977625 C37.2565,15.3296375 37.6645,15.3445125 38.1915,15.3445125 C39.710875,15.3445125 40.875375,14.9450125 41.68075,14.1438875 C42.486125,13.3406375 42.889875,12.2080125 42.889875,10.7417625 C42.889875,10.0702625 42.796375,9.4518875 42.6115,8.8866375 C42.42875,8.3213875 42.144,7.8368875 41.763625,7.4331375 C41.38325,7.0293875 40.896625,6.7106375 40.30375,6.4811375 C39.710875,6.2516375 39.0075,6.1368875 38.1915,6.1368875 C37.653875,6.1368875 37.237375,6.1517625 36.942,6.1836375 C36.6445,6.2155125 36.4745,6.2367625 36.429875,6.2473875 L36.429875,15.2148875 Z M46.8649,17.153525 C46.875525,16.830525 46.89465,16.36515 46.9244,15.755275 C46.952025,15.147525 46.9839,14.4654 47.024275,13.715275 C47.062525,12.963025 47.1029,12.1789 47.14115,11.365025 C47.181525,10.55115 47.219775,9.76915 47.26015,9.0169 C47.2984,8.26465 47.334525,7.586775 47.368525,6.9854 C47.402525,6.3819 47.43015,5.91865 47.4514,5.59565 C47.474775,5.1494 47.60865,4.83065 47.85515,4.645775 C48.099525,4.458775 48.380025,4.365275 48.6924,4.365275 C49.0409,4.365275 49.32565,4.42265 49.548775,4.53315 C49.7719,4.645775 49.92915,4.752025 50.0184,4.849775 C50.152275,5.1494 50.3584,5.606275 50.632525,6.2204 C50.904525,6.83665 51.202025,7.501775 51.520775,8.215775 C51.839525,8.929775 52.158275,9.635275 52.477025,10.33015 C52.795775,11.02715 53.0614,11.60515 53.2739,12.06415 C53.463025,11.641275 53.701025,11.1164 53.985775,10.489525 C54.27265,9.86265 54.5574,9.227275 54.84215,8.58765 C55.1269,7.948025 55.396775,7.344525 55.647525,6.779275 C55.9004,6.214025 56.09165,5.776275 56.22765,5.466025 C56.382775,5.104775 56.578275,4.83065 56.81415,4.645775 C57.0479,4.458775 57.34965,4.365275 57.7194,4.365275 C58.044525,4.365275 58.31865,4.412025 58.541775,4.505525 C58.7649,4.599025 58.90515,4.675525 58.962525,4.739275 C58.983775,5.08565 59.0114,5.589275 59.0454,6.248025 C59.0794,6.906775 59.115525,7.637775 59.153775,8.4389 C59.192025,9.240025 59.234525,10.0794 59.27915,10.9549 C59.323775,11.832525 59.370525,12.669775 59.413025,13.473025 C59.459775,14.27415 59.4959,15.0009 59.523525,15.653275 C59.55115,16.30565 59.57665,16.805025 59.5979,17.153525 L57.636525,17.153525 C57.623775,16.953775 57.6089,16.609525 57.585525,16.11865 C57.56215,15.627775 57.534525,15.0604 57.50265,14.412275 C57.46865,13.766275 57.43465,13.086275 57.40065,12.372275 C57.36665,11.658275 57.334775,10.9804 57.300775,10.340775 C57.266775,9.70115 57.2349,9.1359 57.207275,8.6429 C57.17965,8.15415 57.160525,7.81415 57.1499,7.62715 C57.0479,7.8524 56.914025,8.1499 56.74615,8.521775 C56.578275,8.895775 56.39765,9.30165 56.20215,9.74365 C56.00665,10.18565 55.800525,10.6489 55.588025,11.131275 C55.37765,11.6179 55.171525,12.08115 54.976025,12.521025 C54.780525,12.963025 54.602025,13.37315 54.440525,13.7514 C54.2769,14.12965 54.14515,14.4314 54.045275,14.65665 L52.400525,14.65665 C52.26665,14.3209 52.07115,13.85765 51.814025,13.2669 C51.5569,12.67615 51.28065,12.045025 50.98315,11.37565 C50.687775,10.70415 50.390275,10.039025 50.0949,9.380275 C49.7974,8.721525 49.531775,8.1499 49.298025,7.6654 C49.285275,7.9629 49.26615,8.360275 49.238525,8.857525 C49.2109,9.354775 49.183275,9.9094 49.15565,10.51715 C49.1259,11.127025 49.09615,11.756025 49.06215,12.4084 C49.030275,13.060775 48.9984,13.6919 48.970775,14.301775 C48.941025,14.91165 48.91765,15.46415 48.894275,15.9614 C48.873025,16.45865 48.856025,16.856025 48.8454,17.153525 L46.8649,17.153525 Z M71.6447375,16.2963 C71.5214875,16.396175 71.3514875,16.51305 71.1326125,16.651175 C70.9158625,16.787175 70.6417375,16.9168 70.3102375,17.042175 C69.9808625,17.165425 69.5919875,17.271675 69.1457375,17.3588 C68.6973625,17.445925 68.1894875,17.488425 67.6178625,17.488425 C66.7912375,17.488425 66.0071125,17.343925 65.2697375,17.050675 C64.5323625,16.75955 63.8799875,16.33455 63.3147375,15.77355 C62.7494875,15.214675 62.3032375,14.5198 61.9738625,13.6868 C61.6423625,12.8538 61.4787375,11.89755 61.4787375,10.815925 C61.4787375,9.74705 61.6359875,8.7908 61.9568625,7.94505 C62.2756125,7.0993 62.7112375,6.38955 63.2637375,5.809425 C63.8183625,5.23355 64.4643625,4.79155 65.2017375,4.487675 C65.9412375,4.181675 66.7296125,4.0308 67.5689875,4.0308 C68.3743625,4.0308 69.0331125,4.105175 69.5473625,4.253925 C70.0616125,4.402675 70.4674875,4.58755 70.7649875,4.8043 C71.0603625,5.02105 71.2664875,5.244175 71.3854875,5.4758 C71.5023625,5.7053 71.5618625,5.894425 71.5618625,6.043175 C71.5618625,6.204675 71.5299875,6.3598 71.4683625,6.510675 C71.4067375,6.659425 71.3344875,6.791175 71.2516125,6.910175 C71.1666125,7.029175 71.0794875,7.131175 70.9902375,7.2183 C70.9009875,7.305425 70.8223625,7.36705 70.7543625,7.4053 C70.6438625,7.267175 70.4887375,7.118425 70.2932375,6.956925 C70.0977375,6.795425 69.8661125,6.646675 69.5983625,6.510675 C69.3306125,6.37255 69.0288625,6.2578 68.6909875,6.1643 C68.3573625,6.0708 67.9939875,6.02405 67.6008625,6.02405 C67.0313625,6.02405 66.5001125,6.13455 66.0071125,6.3513 C65.5162375,6.56805 65.0912375,6.884675 64.7321125,7.301175 C64.3751125,7.717675 64.0924875,8.2213 63.8842375,8.81205 C63.6781125,9.4028 63.5761125,10.07005 63.5761125,10.815925 C63.5761125,11.57455 63.6844875,12.2418 63.9033625,12.8198 C64.1201125,13.3978 64.4197375,13.8823 64.8001125,14.2733 C65.1804875,14.6643 65.6267375,14.959675 66.1409875,15.159425 C66.6552375,15.359175 67.2098625,15.456925 67.8027375,15.456925 C68.5082375,15.456925 69.1138625,15.359175 69.6238625,15.159425 C70.1317375,14.959675 70.5036125,14.7748 70.7394875,14.60055 L71.6277375,16.2963 L71.6447375,16.2963 Z M79.9823875,16.4639625 C79.8931375,16.5255875 79.7528875,16.6127125 79.5637625,16.7253375 C79.3746375,16.8358375 79.1366375,16.9420875 78.8497625,17.0419625 C78.5650125,17.1418375 78.2356375,17.2289625 77.8616375,17.3033375 C77.4855125,17.3777125 77.0753875,17.4138375 76.6270125,17.4138375 C76.0001375,17.4138375 75.4178875,17.3097125 74.8738875,17.0972125 C74.3320125,16.8868375 73.8560125,16.5723375 73.4480125,16.1558375 C73.0400125,15.7393375 72.7191375,15.2314625 72.4832625,14.6279625 C72.2495125,14.0244625 72.1305125,13.3317125 72.1305125,12.5497125 C72.1305125,11.8038375 72.2452625,11.1238375 72.4747625,10.5075875 C72.7042625,9.8934625 73.0230125,9.3643375 73.4310125,8.9244625 C73.8390125,8.4824625 74.3213875,8.1403375 74.8738875,7.8980875 C75.4285125,7.6558375 76.0341375,7.5347125 76.6950125,7.5347125 C77.2751375,7.5347125 77.7893875,7.6175875 78.2377625,7.7854625 C78.6861375,7.9533375 79.0622625,8.1785875 79.3703875,8.4569625 C79.6785125,8.7374625 79.9101375,9.0625875 80.0673875,9.4365875 C80.2225125,9.8084625 80.3011375,10.2079625 80.3011375,10.6287125 C80.3011375,11.0643375 80.2288875,11.4595875 80.0843875,11.8123375 C79.9377625,12.1672125 79.6806375,12.4710875 79.3108875,12.7260875 C78.9432625,12.9810875 78.4438875,13.1808375 77.8191375,13.3232125 C77.1922625,13.4655875 76.3975125,13.5378375 75.4370125,13.5378375 C75.2117625,13.5378375 75.0013875,13.5335875 74.8058875,13.5272125 C74.6103875,13.5208375 74.4021375,13.5123375 74.1768875,13.4995875 C74.2661375,14.1328375 74.5445125,14.6470875 75.0077625,15.0380875 C75.4731375,15.4290875 76.1340125,15.6245875 76.9967625,15.6245875 C77.2878875,15.6245875 77.5556375,15.5990875 77.8021375,15.5502125 C78.0486375,15.5013375 78.2696375,15.4397125 78.4651375,15.3632125 C78.6606375,15.2888375 78.8285125,15.2144625 78.9687625,15.1400875 C79.1068875,15.0657125 79.2110125,15.0104625 79.2790125,14.9722125 L79.9823875,16.4639625 Z M74.0940125,12.0460875 C74.3511375,12.0588375 74.5976375,12.0652125 74.8313875,12.0652125 L75.5368875,12.0652125 C76.1531375,12.0652125 76.6503875,12.0205875 77.0307625,11.9334625 C77.4111375,11.8463375 77.7065125,11.7358375 77.9190125,11.5977125 C78.1315125,11.4617125 78.2717625,11.3065875 78.3397625,11.1323375 C78.4056375,10.9580875 78.4396375,10.7774625 78.4396375,10.5925875 C78.4396375,10.1208375 78.2696375,9.7659625 77.9275125,9.5300875 C77.5875125,9.2942125 77.1646375,9.1752125 76.6610125,9.1752125 C76.2466375,9.1752125 75.8832625,9.2559625 75.5708875,9.4174625 C75.2563875,9.5789625 74.9950125,9.7935875 74.7825125,10.0613375 C74.5700125,10.3290875 74.4042625,10.6350875 74.2873875,10.9835875 C74.1705125,11.3320875 74.1046375,11.6848375 74.0940125,12.0460875 Z M81.727225,11.5054875 C81.727225,10.8849875 81.829225,10.3282375 82.037475,9.8373625 C82.2436,9.3464875 82.52835,8.9299875 82.89385,8.5878625 C83.257225,8.2457375 83.686475,7.9843625 84.183725,7.8058625 C84.6831,7.6252375 85.2271,7.5338625 85.819975,7.5338625 C86.41285,7.5338625 86.9611,7.6252375 87.464725,7.8058625 C87.96835,7.9843625 88.40185,8.2457375 88.765225,8.5878625 C89.1286,8.9299875 89.411225,9.3464875 89.610975,9.8373625 C89.81285,10.3282375 89.91485,10.8849875 89.91485,11.5054875 L89.91485,17.1537375 L88.00235,17.1537375 L88.00235,12.0452375 C88.00235,11.2016125 87.817475,10.5577375 87.447725,10.1157375 C87.077975,9.6758625 86.5361,9.4548625 85.819975,9.4548625 C85.093225,9.4548625 84.549225,9.6758625 84.183725,10.1157375 C83.822475,10.5577375 83.639725,11.2016125 83.639725,12.0452375 L83.639725,17.1537375 L81.727225,17.1537375 L81.727225,11.5054875 Z M91.9108625,6.1364625 C91.9108625,5.7879625 92.0001125,5.5372125 92.1786125,5.3820875 C92.3571125,5.2269625 92.6036125,5.1483375 92.9181125,5.1483375 C93.1178625,5.1483375 93.3048625,5.1759625 93.4791125,5.2333375 C93.6533625,5.2885875 93.7681125,5.3289625 93.8233625,5.3523375 L93.8233625,7.7960875 L96.2564875,7.7960875 C96.6241125,7.7960875 96.8854875,7.8789625 97.0363625,8.0468375 C97.1872375,8.2147125 97.2616125,8.4612125 97.2616125,8.7842125 C97.2616125,8.9945875 97.2339875,9.1900875 97.1787375,9.3707125 C97.1234875,9.5513375 97.0788625,9.6788375 97.0448625,9.7532125 L93.8233625,9.7532125 L93.8233625,13.9097125 C93.8233625,14.2327125 93.8637375,14.4962125 93.9402375,14.7023375 C94.0188625,14.9063375 94.1272375,15.0720875 94.2674875,15.1953375 C94.4077375,15.3207125 94.5692375,15.4078375 94.7541125,15.4567125 C94.9389875,15.5077125 95.1323625,15.5310875 95.3342375,15.5310875 C95.6572375,15.5310875 95.9589875,15.4758375 96.2394875,15.3632125 C96.5178625,15.2527125 96.7197375,15.1464625 96.8429875,15.0465875 L97.6143625,16.4639625 C97.5251125,16.5383375 97.3997375,16.6318375 97.2382375,16.7444625 C97.0746125,16.8549625 96.8769875,16.9612125 96.6411125,17.0610875 C96.4073625,17.1588375 96.1438625,17.2438375 95.8527375,17.3118375 C95.5616125,17.3798375 95.2428625,17.4138375 94.8964875,17.4138375 C93.9126125,17.4138375 93.1688625,17.1312125 92.6652375,16.5659625 C92.1616125,16.0007125 91.9108625,15.2590875 91.9108625,14.3389625 L91.9108625,6.1364625 Z M105.767775,16.4639625 C105.678525,16.5255875 105.538275,16.6127125 105.34915,16.7253375 C105.160025,16.8358375 104.922025,16.9420875 104.63515,17.0419625 C104.3504,17.1418375 104.021025,17.2289625 103.647025,17.3033375 C103.2709,17.3777125 102.860775,17.4138375 102.4124,17.4138375 C101.785525,17.4138375 101.203275,17.3097125 100.659275,17.0972125 C100.1174,16.8868375 99.6414,16.5723375 99.2334,16.1558375 C98.8254,15.7393375 98.504525,15.2314625 98.26865,14.6279625 C98.0349,14.0244625 97.9159,13.3317125 97.9159,12.5497125 C97.9159,11.8038375 98.03065,11.1238375 98.26015,10.5075875 C98.48965,9.8934625 98.8084,9.3643375 99.2164,8.9244625 C99.6244,8.4824625 100.106775,8.1403375 100.659275,7.8980875 C101.2139,7.6558375 101.819525,7.5347125 102.4804,7.5347125 C103.060525,7.5347125 103.574775,7.6175875 104.02315,7.7854625 C104.471525,7.9533375 104.84765,8.1785875 105.155775,8.4569625 C105.4639,8.7374625 105.695525,9.0625875 105.852775,9.4365875 C106.0079,9.8084625 106.086525,10.2079625 106.086525,10.6287125 C106.086525,11.0643375 106.014275,11.4595875 105.869775,11.8123375 C105.72315,12.1672125 105.466025,12.4710875 105.096275,12.7260875 C104.72865,12.9810875 104.229275,13.1808375 103.604525,13.3232125 C102.97765,13.4655875 102.1829,13.5378375 101.2224,13.5378375 C100.99715,13.5378375 100.786775,13.5335875 100.591275,13.5272125 C100.395775,13.5208375 100.187525,13.5123375 99.962275,13.4995875 C100.051525,14.1328375 100.3299,14.6470875 100.79315,15.0380875 C101.258525,15.4290875 101.9194,15.6245875 102.78215,15.6245875 C103.073275,15.6245875 103.341025,15.5990875 103.587525,15.5502125 C103.834025,15.5013375 104.055025,15.4397125 104.250525,15.3632125 C104.446025,15.2888375 104.6139,15.2144625 104.75415,15.1400875 C104.892275,15.0657125 104.9964,15.0104625 105.0644,14.9722125 L105.767775,16.4639625 Z M99.8794,12.0460875 C100.136525,12.0588375 100.383025,12.0652125 100.616775,12.0652125 L101.322275,12.0652125 C101.938525,12.0652125 102.435775,12.0205875 102.81615,11.9334625 C103.196525,11.8463375 103.4919,11.7358375 103.7044,11.5977125 C103.9169,11.4617125 104.05715,11.3065875 104.12515,11.1323375 C104.191025,10.9580875 104.225025,10.7774625 104.225025,10.5925875 C104.225025,10.1208375 104.055025,9.7659625 103.7129,9.5300875 C103.3729,9.2942125 102.950025,9.1752125 102.4464,9.1752125 C102.032025,9.1752125 101.66865,9.2559625 101.356275,9.4174625 C101.041775,9.5789625 100.7804,9.7935875 100.5679,10.0613375 C100.3554,10.3290875 100.18965,10.6350875 100.072775,10.9835875 C99.9559,11.3320875 99.890025,11.6848375 99.8794,12.0460875 Z M107.513675,11.1323375 C107.513675,9.9890875 107.828175,9.1029625 108.461425,8.4760875 C109.09255,7.8492125 109.96805,7.5347125 111.087925,7.5347125 C111.7913,7.5347125 112.36505,7.6430875 112.80705,7.8598375 C113.24905,8.0787125 113.47005,8.4102125 113.47005,8.8585875 C113.47005,9.0689625 113.416925,9.2750875 113.310675,9.4727125 C113.2023,9.6724625 113.1173,9.7978375 113.0493,9.8467125 C112.860175,9.7468375 112.6243,9.6533375 112.345925,9.5662125 C112.065425,9.4790875 111.746675,9.4365875 111.389675,9.4365875 C110.080675,9.4365875 109.426175,10.2058375 109.426175,11.7485875 L109.426175,17.1545875 L107.513675,17.1545875 L107.513675,11.1323375 Z M4.4826875,2.31072917 C4.4826875,3.54913194 3.47921528,4.55260417 2.2408125,4.55260417 C1.00359028,4.55260417 0.000118055556,3.54913194 0.000118055556,2.31072917 C0.000118055556,1.07232639 1.00359028,0.0688541667 2.2408125,0.0688541667 C3.47921528,0.0688541667 4.4826875,1.07232639 4.4826875,2.31072917 Z M4.48256944,7.79154335 C4.48256944,9.02994613 3.47909722,10.0334183 2.24069444,10.0334183 C1.00347222,10.0334183 0,9.02994613 0,7.79154335 C0,6.55314057 1.00347222,5.54966835 2.24069444,5.54966835 C3.47909722,5.54966835 4.48256944,6.55314057 4.48256944,7.79154335 Z M4.48256944,13.2723575 C4.48256944,14.5107603 3.47909722,15.5142325 2.24069444,15.5142325 C1.00347222,15.5142325 0,14.5107603 0,13.2723575 C0,12.0339548 1.00347222,11.0304825 2.24069444,11.0304825 C3.47909722,11.0304825 4.48256944,12.0339548 4.48256944,13.2723575 Z M9.84647146,6.76695231 C9.84647146,8.00535509 8.84299924,9.00882731 7.60459646,9.00882731 C6.36737424,9.00882731 5.36390202,8.00535509 5.36390202,6.76695231 C5.36390202,5.52854953 6.36737424,4.52507731 7.60459646,4.52507731 C8.84299924,4.52507731 9.84647146,5.52854953 9.84647146,6.76695231 Z M9.79117361,12.2615299 C9.79117361,13.4999327 8.78770139,14.5034049 7.54929861,14.5034049 C6.31207639,14.5034049 5.30860417,13.4999327 5.30860417,12.2615299 C5.30860417,11.0231271 6.31207639,10.0196549 7.54929861,10.0196549 C8.78770139,10.0196549 9.79117361,11.0231271 9.79117361,12.2615299 Z M9.79117361,17.7561075 C9.79117361,18.9945103 8.78770139,19.9979825 7.54929861,19.9979825 C6.31207639,19.9979825 5.30860417,18.9945103 5.30860417,17.7561075 C5.30860417,16.5177048 6.31207639,15.5142325 7.54929861,15.5142325 C8.78770139,15.5142325 9.79117361,16.5177048 9.79117361,17.7561075 Z"></path>
            </g>
        </g>
    </g>
</svg>