<svg width="30" height="30" viewBox="0 0 30 30" xmlns="http://www.w3.org/2000/svg"><title>A4F1B579-E008-4C31-BEF0-4FBC5F67A0B6</title><g fill="none" fill-rule="evenodd"><ellipse fill="#F5A623" cx="15" cy="15" rx="15" ry="15"/><path d="M20.814 11.467v9.11c0 .498-.245.736-.76.737h-.792a1.26 1.26 0 0 0 .192-.65c.003-3.132.002-6.263.002-9.395H20.814v.198zM9.896 21.313c-.505 0-.753-.238-.753-.726V8.86c0-.49.246-.732.748-.732h.793a1.37 1.37 0 0 0-.183.693V20.65c0 .255.083.472.196.664h-.8zm7.51-13.186h.18V9.007l-.902-.88h.723zm.18 1.823v.677h-1.341V8.642l.57.556.771.752zm1.228 1.517v9.11c0 .498-.245.736-.759.737h-6.159c-.505 0-.753-.239-.753-.727v-.583l2.342.001h2.672c.203 0 .337-.19.343-.475.005-.289-.134-.487-.345-.492H11.143V17.1H16.087c.265 0 .409-.164.413-.472.005-.317-.143-.494-.415-.494h-4.942v-.97c.78.002 1.561.001 2.342.001h.774c.633 0 1.264.002 1.898 0 .197 0 .317-.156.34-.425.026-.314-.12-.54-.355-.54-1.461-.002-2.923-.002-4.385-.002l-.614.001V8.86c0-.49.246-.732.748-.732H15.587V10.798c0 .383.09.471.478.471h2.75v.198zm-.57-2.825l.57.556 1.468 1.43h-2l-.038-.037V8.642zm3.08 2.057c-.515-.499-1.027-1-1.54-1.5-.537-.524-1.075-1.045-1.611-1.569a.423.423 0 0 0-.32-.13l-1.993.001h-.008c-2.008.001-4.018-.002-6.027.004a1.52 1.52 0 0 0-.487.078c-.53.182-.836.644-.837 1.237v5.9c0 1.977-.002 3.954 0 5.93 0 .748.546 1.287 1.308 1.287 2.779.004 5.559.004 8.339.001h2c.756 0 1.305-.538 1.306-1.274.003-3.217.002-6.435.003-9.652a.405.405 0 0 0-.133-.313z" fill="#FEFEFE"/></g></svg>