<svg id="Layer_1" data-name="Layer 1" xmlns="http://www.w3.org/2000/svg" viewBox="0 0 128.57 15.74"><defs><style>.cls-1{fill:#fff;fill-rule:evenodd;}</style></defs><title>nordstromlogo</title><path class="cls-1" d="M22.46.08c4.2,0,7,3.12,7,7.73s-2.85,7.8-7,7.8-7.05-3.32-7.05-7.8S18.33.08,22.46.08Zm0,14.51c3.05,0,4.68-2.44,4.68-6.78S25.51,1,22.46,1s-4.75,2.51-4.75,6.65c0,4.48,1.63,6.92,4.75,6.92Z" transform="translate(-0.76 0)"/><path class="cls-1" d="M58.95,7.53c0,4.81-2.71,7.8-7.39,7.8H46.81s.14-4.75.14-7.53S46.81.28,46.81.28h5.43c4.41,0,6.71,2.51,6.71,7.26Zm-2.24.07c0-4.07-1.9-6.37-5.56-6.37-1.63,0-2.24.07-2.24.07a2.78,2.78,0,0,1,.14.95C49,3.53,49,6,49,7.81c0,2,.07,4.14.07,5.43a3.75,3.75,0,0,1-.14,1.08s.61.07,2,.07c3.87,0,5.83-2.37,5.83-6.78Z" transform="translate(-0.76 0)"/><path class="cls-1" d="M104.72.08c4.27,0,7.05,3.12,7.05,7.73s-2.85,7.8-7.05,7.8-7-3.32-7-7.8,2.85-7.73,7-7.73Zm0,14.51c3.05,0,4.75-2.44,4.75-6.78S107.77,1,104.72,1,100,3.53,100,7.67c0,4.48,1.63,6.92,4.68,6.92Z" transform="translate(-0.76 0)"/><path class="cls-1" d="M2.12,10a48.59,48.59,0,0,0,.2,5.29H.76S1,9.3,1,3.47C1,2.45.9.28.9.28H2s4.2,6,7,9.83a14,14,0,0,1,1,1.7,17.28,17.28,0,0,1-.14-2V5.57A45.54,45.54,0,0,0,9.65.28h1.56S11,5.84,11,12.21c0,.61.07,3.12.07,3.12H10S5.85,9.5,3,5.57A13.75,13.75,0,0,1,2.05,4s.07,1.29.07,2V10Z" transform="translate(-0.76 0)"/><path class="cls-1" d="M65.93,14.59a2.81,2.81,0,0,0,2.78-3.19c-.2-1.29-1.15-2-2.78-3-2.1-1.15-3.32-2-3.53-4.07C62.13,1.84,64.17.08,66.68,0a9.76,9.76,0,0,1,3.19.47V2.11A4.58,4.58,0,0,0,66.81,1,2.54,2.54,0,0,0,64,3.26c0,1.29,1.08,2,2.85,3.05,2.44,1.42,3.66,2.58,3.66,4.68a4.62,4.62,0,0,1-4.81,4.61,10.11,10.11,0,0,1-3.19-.47V13.37a4.86,4.86,0,0,0,3.39,1.22Z" transform="translate(-0.76 0)"/><path class="cls-1" d="M82.54.28V1.7a10.7,10.7,0,0,0-2.92-.34h-1V5.77c0,4.2.2,9.56.2,9.56H76.51s.2-5.36.2-9.56c0-.75-.07-3.46-.07-3.46a6.47,6.47,0,0,1,.07-.95h-1a10.45,10.45,0,0,0-2.85.34V.28Z" transform="translate(-0.76 0)"/><path class="cls-1" d="M129.33,15.33H127.1S127,9.84,126.76,6V4.35s-.27.75-.61,1.56L122,15.74s-2.3-5.29-4.14-9.29c-.27-.54-.61-1.63-.88-2.1a12.51,12.51,0,0,1-.07,2.31c-.27,3.93-.34,8.68-.34,8.68h-1.42L116.11.28h1.29s2.78,6.24,4.54,10.1a10.73,10.73,0,0,1,.61,1.56,8.33,8.33,0,0,1,.54-1.56c1.63-3.87,4.14-10.1,4.14-10.1h1.29l.81,15.05Z" transform="translate(-0.76 0)"/><path class="cls-1" d="M94.61,3.81c0,2-1.22,3.39-3.46,3.93,1.42,2.65,4.34,7.6,4.34,7.6H93.12s-1.22-2.58-4.48-8.27h.2c2.44,0,3.73-1,3.73-3a2.73,2.73,0,0,0-3.05-2.85c-.61,0-1.49.07-1.49.07a4,4,0,0,1,.14,1.29v7.73c0,3.39.14,5,.14,5H86.07s.14-5.9.14-9c0-2.1-.14-6-.14-6h4.41c2.71,0,4.14,1.29,4.14,3.53Z" transform="translate(-0.76 0)"/><path class="cls-1" d="M42.26,3.81c0,2-1.29,3.39-3.46,3.93,1.42,2.65,4.27,7.6,4.27,7.6H40.7s-1.22-2.58-4.48-8.27h.27c2.37,0,3.66-1,3.66-3a2.73,2.73,0,0,0-3.05-2.85c-.54,0-1.49.07-1.49.07a4,4,0,0,1,.14,1.29v7.73c0,3.39.14,5,.14,5H33.65s.2-5.9.2-9c0-2.1-.2-6-.2-6h4.48c2.64,0,4.14,1.29,4.14,3.53Z" transform="translate(-0.76 0)"/></svg>