
<svg width="124px" height="22px" viewBox="0 0 124 22" version="1.1" xmlns="http://www.w3.org/2000/svg" xmlns:xlink="http://www.w3.org/1999/xlink">
    <!-- Generator: Sketch 44 (41411) - http://www.bohemiancoding.com/sketch -->
    <desc>Created with Sketch.</desc>
    <defs>
        <path d="M77.838706,0.516318298 L77.838706,1.12406796 L77.8491629,1.12406796 C78.0028797,1.1162694 78.1558121,1.15257304 78.2909678,1.22894512 C78.4410247,1.33005745 78.5482081,1.48575969 78.5916043,1.6648576 C78.6909451,1.99804425 78.7040162,2.3072974 78.7040162,3.13286884 L78.7040162,10.5119179 C78.7084604,10.7612028 78.6679398,11.0094121 78.5837616,11.2433688 C78.5095175,11.3996088 78.3644277,11.507713 78.197117,11.5311087 C78.1053575,11.5488571 78.0125523,11.558807 77.9197471,11.5606894 L77.9197471,12.1549933 L81.0725088,12.1549933 L81.0725088,11.5526219 C81.0725088,11.5526219 80.8450708,11.5418653 80.7117451,11.5176629 C80.5731909,11.4802836 80.457119,11.3821293 80.3951618,11.2487471 C80.3135978,11.0131769 80.2709858,10.7649676 80.2699401,10.514607 L80.2699401,0 L77.838706,0.516318298 Z M61.3219992,0.352279672 L61.3287962,0.352279672 C61.9130767,0.352279672 62.4709534,0.603715927 62.8670093,1.04608239 C63.2071207,1.4007823 63.411292,1.86950251 63.44214,2.36645887 C63.4525969,3.05488327 63.4630538,4.34567901 61.7115195,5.90270138 C61.8785688,6.26304853 63.2097349,8.57572424 63.2097349,8.60799413 C63.533638,7.80662511 63.964986,6.53196431 64.6107009,5.50739518 C64.9126445,5.0765921 65.4015055,4.8259626 65.917816,4.83779489 L65.9047449,4.85930815 C66.7439128,4.81628163 67.1465042,5.88925559 67.0889912,6.31952084 C67.0889912,6.55885589 66.8772385,7.3225767 66.1818533,7.3225767 C65.7693277,7.29434055 65.4490845,6.94125413 65.4496074,6.51582936 C65.4446403,6.42977631 65.4731354,6.03447011 65.4731354,6.03447011 C65.331967,6.10492605 65.2007327,6.19555067 65.0838766,6.30338589 C64.9003576,6.54083853 64.7482094,6.80195575 64.6316147,7.0805525 C64.5717489,7.2015646 63.7506191,9.47955018 63.7323195,9.5276861 C65.0655769,11.8726317 65.0577343,11.8618751 65.7554723,11.4100966 C65.883831,11.5418653 66.0825125,11.7007945 66.223681,11.8322943 C65.5860702,12.4131524 64.4250905,13.104266 63.0081777,10.9529397 C62.8293644,11.2632685 62.6053249,11.5434788 62.3439018,11.7838895 C61.8469367,12.2157682 61.208803,12.4376238 60.558644,12.405085 C59.6073256,12.3884122 58.7346955,11.8583792 58.2607356,11.0094121 C57.8163164,10.1300575 58.0489829,9.02481359 58.1875371,8.6483315 C58.5326155,7.67754553 59.1466982,6.92458135 60.1429814,6.2011979 C59.9286145,5.74404107 59.3221131,4.75174184 59.2436862,3.9449945 C59.1443454,3.13663366 59.2768869,2.3159027 59.6253638,1.58391395 C59.6253638,1.58391395 60.1665094,0.422197775 61.3219992,0.352279672 Z M60.8749658,4.31878743 L61.2592577,5.15780467 L61.2723288,5.14435888 C61.4778073,4.90179685 61.6613263,4.64094854 61.8213172,4.36450312 C62.0016991,3.99393717 62.107314,3.58948784 62.1324106,3.17589537 C62.1954135,2.08947561 61.9938564,1.08131035 61.2592577,1.13240435 C60.6893555,1.14827038 60.286764,2.05451656 60.5142021,3.16540765 C60.6002102,3.56017602 60.7207263,3.94633908 60.8749658,4.31878743 Z M61.023977,11.2729495 C61.0569163,11.2742941 61.0893327,11.2748319 61.1207035,11.2748319 C61.8613149,11.2748319 62.0921515,10.9126024 62.4984028,10.3371226 C61.7886393,9.23510573 61.137696,8.09382716 60.5481871,6.91947195 C59.8802512,7.5799291 59.5137361,8.49962107 59.5390942,9.45238968 C59.5495511,11.0228578 60.5298874,11.2729495 61.023977,11.2729495 Z M1.42998395,0.457156827 C1.9925663,0.447475859 3.41366187,0.361422809 3.87925628,0.361422809 C3.93703077,0.361422809 3.98016557,0.362767388 4.00500076,0.365725461 C5.59706699,0.360616062 6.3761076,1.01408141 6.60093141,1.21281017 C7.21004706,1.74257426 7.47147008,2.6840484 7.47147008,3.43136536 C7.48323412,3.83097421 7.44114501,4.23004523 7.34598703,4.61755287 C7.1708336,5.32453245 6.74497549,5.97530864 5.64673736,6.55616673 C6.01795806,6.72289451 6.36225218,6.9477081 6.66628716,7.22307786 C6.99071314,7.53179318 7.26128597,7.89590515 7.46624162,8.2990099 C7.77942641,8.94682802 7.97758506,9.64708471 8.0518292,10.3667033 C8.10646661,10.9217455 8.2403152,11.4652243 8.4491922,11.9799291 C8.56944679,12.2679379 9.02693709,13.0451045 9.44521393,13.2145215 C9.86793496,13.388241 10.3371893,13.4008801 10.7680144,13.2494805 C10.7680144,13.2494805 11.1157071,13.7951106 11.1679917,13.8870798 C9.53671199,14.2848063 8.56944679,13.905635 7.913275,13.4296541 C7.40454579,13.0504828 6.99149741,12.5516441 6.70811485,11.9748197 C6.53557565,11.6260359 6.40068137,11.2592348 6.30552339,10.8803325 C6.26108147,10.7512529 6.11468458,9.76433199 6.11468458,9.76433199 C6.11468458,9.76433199 6.02318652,9.11893412 5.91338885,8.70480381 C5.83391625,8.29443833 5.66582124,7.90746852 5.42191356,7.57266838 C5.28283651,7.40916758 5.11526435,7.27444078 4.92782404,7.17467302 C4.73306389,7.07867009 4.52157266,7.02273561 4.30563724,7.0106344 L3.87664205,7.0106344 L2.85212521,7.0106344 L2.85212521,9.7697103 C2.85473944,10.0168439 2.86964056,10.2637086 2.89656713,10.5092287 C2.9268922,10.6754187 2.9893723,10.8332722 3.07956325,10.974453 C3.34882896,11.2890845 3.68606467,11.2621929 4.20891072,11.2890845 L4.20891072,12.1442366 L0,12.1442366 L0,11.2834372 C0.0439190684,11.2812859 0.0990793269,11.2815548 0.160775161,11.2818237 C0.471345716,11.2831683 0.953409776,11.284244 1.10843363,10.974453 C1.29665821,10.6813348 1.27051591,10.2779611 1.27051591,9.76164283 L1.27051591,1.80173573 L1.27051591,1.70492605 C1.26581029,1.58256937 1.22973391,1.46397751 1.1659467,1.36071385 C1.12908605,1.30343479 1.07758571,1.25798802 1.01693557,1.22894512 C0.973277926,1.21442366 0.928574588,1.20286029 0.883871251,1.19398607 C0.591338885,1.15902701 0.296453712,1.14961496 0.00261423026,1.16413641 L0.00261423026,0.419508618 C0.00261423026,0.419508618 1.02216403,0.457156827 1.42998395,0.457156827 Z M2.85735367,6.24180418 C2.91748097,6.24287984 3.03224568,6.25148515 3.18177965,6.25148515 C3.74017923,6.25148515 4.78456422,6.12885955 5.29381628,5.02603594 C5.37485742,4.96418531 6.18265457,2.8935338 4.87553944,1.81787068 C4.06512805,1.21012101 2.85735367,1.32037648 2.85735367,1.32037648 L2.85735367,6.24180418 Z M69.7189068,0.387238724 L69.7189068,1.14289207 C69.8799434,1.14477448 70.0404571,1.1571446 70.1999252,1.18054028 C70.4670995,1.21576824 70.6932304,1.39997555 70.788127,1.65921037 C70.9162243,1.96846351 70.8874677,2.46622662 70.8874677,3.135558 L70.8874677,9.78315609 C70.8845921,10.1623273 70.924067,10.9206698 70.5972882,11.2568146 C70.3646217,11.5633786 69.8783749,11.5633786 69.7162926,11.5633786 L69.7162926,12.1816159 L73.637638,12.1816159 L73.637638,11.5606894 C73.5304545,11.5606894 72.9631666,11.5929593 72.7017435,11.264882 C72.4978336,11.025547 72.4324778,10.4608239 72.4533917,9.78046694 L72.4533917,6.68255714 C72.4533917,6.68255714 73.5487541,6.67448967 73.7788064,6.81163672 C74.4402067,6.98105366 74.5526186,7.66974697 74.6467309,8.15621562 L75.1878765,8.15621562 L75.1878765,4.24886933 L74.6650305,4.24886933 C74.5839893,4.50702848 74.6914342,5.43478792 73.7997202,5.62302897 C73.3573925,5.68945117 72.9103591,5.71446033 72.4635872,5.69832539 L72.4635872,1.33920059 C72.4635872,1.33920059 74.1578698,1.33651143 74.5160193,1.3768488 C75.0048804,1.40374037 75.6895473,1.44407774 76.0508339,1.83669478 C76.4113363,2.2290429 76.4607452,3.11942305 76.4607452,3.11942305 L77.048947,3.11942305 L76.8424228,0.387238724 L69.7189068,0.387238724 Z M97.1607433,1.68341279 L97.1607433,1.68637086 C97.1223141,2.27744774 97.5466037,2.79349713 98.1201658,2.85346535 C98.5146531,2.85346535 99.0691314,2.4794035 99.0691314,1.67265615 C99.0871696,1.1025547 98.6532073,0.524385772 98.1201658,0.524385772 C97.5866014,0.524385772 97.1421822,1.08131035 97.1607433,1.68341279 Z M121.919072,3.8479159 C122.073835,3.78095587 122.236701,3.74868598 122.397999,3.74868598 C122.719811,3.74868598 123.036133,3.87722772 123.273505,4.11978976 C123.629825,4.48443956 123.737792,5.03383449 123.546692,5.51169784 C123.355853,5.99009901 122.90333,6.30204132 122.400875,6.30338589 C122.072266,6.30473047 121.75699,6.17134825 121.525108,5.93255103 C121.292703,5.6934849 121.163037,5.36917247 121.164083,5.03168317 L121.156501,5.03168317 C121.15441,4.51455812 121.455308,4.0471825 121.919072,3.8479159 Z M121.397011,5.03168317 C121.397011,5.60044004 121.84509,6.06136169 122.397999,6.06136169 C122.951432,6.06136169 123.39925,5.60044004 123.39925,5.03168317 C123.39925,4.46265738 122.951432,4.00146681 122.397999,4.00146681 C121.84509,4.00146681 121.397011,4.46265738 121.397011,5.03168317 Z M96.6478313,4.61190564 L96.6478313,5.15000611 L96.6478313,5.15242635 C97.037613,5.13091309 97.0925119,5.20110011 97.1447965,5.24116856 C97.2650511,5.36218066 97.3643918,5.50739518 97.3382495,6.07480748 L97.3382495,10.514607 C97.3489679,11.62254 96.7631189,11.5687569 96.7631189,11.5687569 L96.7631189,12.184574 L99.4926367,12.184574 L99.4926367,11.571446 C99.4926367,11.571446 98.9044349,11.5741352 98.9044349,10.5172962 L98.9044349,3.91272461 L96.6478313,4.61190564 Z M50.2376629,4.55274416 L50.2141348,4.55543332 L50.2141348,5.15000611 C50.390334,5.11208899 50.5735915,5.13387116 50.7369809,5.21158783 C51.0820593,5.45092287 51.0974832,6.07211832 51.0974832,6.07211832 C51.0974832,6.07211832 51.1186585,6.72316343 51.1186585,6.81163672 L51.1186585,10.5199853 C51.1186585,10.5199853 51.1186585,11.1411808 50.9516092,11.3267327 C50.8222048,11.5243858 50.5947668,11.628994 50.3657602,11.5956485 L50.3657602,12.1765065 L53.5028365,12.1765065 L53.5028365,11.571446 C53.2325251,11.6244224 52.9590766,11.494805 52.8231366,11.2487471 C52.720136,11.0198998 52.6715113,10.7692703 52.6819682,10.5172962 L52.6819682,7.14778144 C52.6819682,7.14778144 52.6479832,5.24654688 53.667533,5.12284562 C53.8507906,5.0714827 54.0473807,5.11773622 54.1903791,5.24654688 C54.2829228,5.35518885 54.3370374,5.49260482 54.3446187,5.63674367 C54.4878785,5.89033126 54.786685,6.00327588 55.0556893,5.90539054 C55.223,5.87043149 55.6491196,5.63674367 55.5210223,4.93460457 C55.49488,4.703337 55.1628727,3.92348124 54.0622818,3.98264271 C53.0375035,4.12516807 52.8701928,4.45593448 52.4780582,4.95880699 C52.4780582,4.91309131 52.2976764,3.9398851 52.2976764,3.9398851 C51.6443802,4.24806258 50.9500407,4.4545899 50.2376629,4.55274416 Z M31.1825385,3.99313042 C30.2934388,4.07676323 29.4801518,4.54386994 28.9447574,5.27881677 C28.9107724,5.24412663 28.2075445,3.99877766 26.9265717,4.02029092 C26.5752191,4.04341768 26.2332778,4.14587459 25.9250601,4.32147659 C25.6557944,4.49869209 25.4142395,4.71705171 25.2090224,4.96956362 C25.1959512,4.88888889 25.101839,4.14399218 25.101839,4.03400562 C24.5060559,4.35105733 23.8483156,4.52639042 23.1777655,4.54736585 L23.1777655,5.13898056 C23.2572381,5.14140081 23.3367107,5.14866153 23.4156604,5.16049383 C23.5131712,5.19222589 23.5976109,5.25784134 23.6535554,5.34604572 C23.7931553,5.57005256 23.8684451,5.83036304 23.8705365,6.09658966 C23.8836077,6.12321232 23.8836077,6.424398 23.8836077,6.84121746 L23.8836077,10.4957829 C23.9024301,10.7719594 23.8569425,11.0484048 23.7502819,11.3025303 C23.6519869,11.4595771 23.4870289,11.5593448 23.3061242,11.571446 L23.3061242,12.1872632 L26.0063626,12.1872632 L26.0063626,11.571446 C25.8210137,11.5351424 25.6615457,11.4135925 25.5750146,11.2406796 C25.4761967,11.0086053 25.4286177,10.7569001 25.4364604,10.5038504 L25.4364604,7.5457768 C25.4181608,6.09658966 25.8416661,5.08519741 26.691291,5.05830583 C27.1014637,5.11477814 27.9252076,5.52353013 27.8650803,7.55384427 L27.8650803,10.5119179 C27.8666489,10.6681579 27.8535777,10.8238602 27.8258669,10.9771422 C27.7186835,11.5042171 27.4206612,11.5660677 27.2873355,11.5660677 L27.2873355,12.1899523 L29.9878353,12.1899523 L29.9878353,11.5606894 C29.7094198,11.5138981 29.4955758,11.2818237 29.4649893,10.9932771 C29.4341413,10.8356925 29.418456,10.6754187 29.4179331,10.514607 L29.4179331,7.55653343 C29.3996335,7.10475492 29.4519181,5.09595404 30.6727636,5.06099499 C31.9851072,5.15780467 31.8596242,7.55653343 31.8596242,7.55653343 L31.8596242,10.514607 C31.8658983,10.6797213 31.8528272,10.8448356 31.8204107,11.0069918 C31.8023725,11.3019924 31.5830386,11.5424031 31.2975647,11.5795135 L31.2975647,12.1872632 L34.0085215,12.1872632 L34.0085215,11.571446 C33.814807,11.5456301 33.6469734,11.4200464 33.5641023,11.2379905 C33.4686829,11.0099499 33.4258095,10.7625474 33.4386193,10.514607 L33.4386193,6.82239335 C33.4448934,6.31279795 33.3727407,5.80535387 33.2242524,5.31915414 C32.9178646,4.51213788 32.1626135,3.98775211 31.3302426,3.98775211 C31.2813564,3.98775211 31.2319475,3.98963452 31.1825385,3.99313042 Z M116.500557,4.96956362 C116.86655,4.55274416 117.284826,4.03400562 118.343328,4.00953429 C120.434974,4.10096565 120.651955,6.0801858 120.696135,6.80356925 C120.696135,6.91382472 120.717049,9.70517052 120.709468,9.78584525 C120.688816,10.6275516 120.722539,11.0527075 120.848022,11.2433688 C120.935599,11.418164 121.100557,11.5375626 121.289827,11.5633786 L121.289827,12.1816159 L118.586713,12.1816159 L118.586713,11.5687569 C118.789054,11.5593448 118.969698,11.4364503 119.057275,11.2487471 C119.2089,10.9394939 119.1906,10.6060384 119.182758,9.77239946 C119.161844,8.50042782 119.182758,7.04828261 119.135701,6.81432588 C119.101716,6.27649432 118.795851,5.07712994 117.959298,5.06368415 C117.10183,5.0986432 116.816879,6.26035937 116.757013,6.81432588 C116.736099,6.91651387 116.736099,10.3451901 116.736099,10.5092287 C116.715186,10.7614717 116.763287,11.0145215 116.874392,11.2406796 C116.951773,11.4216599 117.119346,11.5445545 117.310707,11.5606894 L117.310707,12.1791957 L114.613083,12.1791957 L114.613083,11.5633786 C114.812287,11.5593448 114.988487,11.4302652 115.057502,11.2379905 C115.151615,11.0069918 115.192658,10.7566312 115.178018,10.5065395 L115.178018,6.81701503 C115.178018,6.01026769 115.151615,5.62571813 114.916334,5.33797824 C114.808105,5.19276372 114.631906,5.11934971 114.456229,5.14624129 L114.456229,4.53929837 C115.128871,4.5072974 115.787918,4.33438455 116.393374,4.03104755 C116.393374,4.03104755 116.487486,4.92115878 116.500557,4.96956362 Z M90.8941719,4.96956362 C90.8811008,4.92115878 90.7869885,4.03104755 90.7869885,4.03104755 C90.1815328,4.33438455 89.5224853,4.5072974 88.8501053,4.53929837 L88.8501053,5.14651021 C89.0265658,5.11881188 89.2038106,5.19195697 89.3125626,5.33797824 C89.5478433,5.62571813 89.5739856,6.01026769 89.5739856,6.81701503 L89.5739856,10.5092287 C89.5891482,10.7593204 89.5475819,11.0094121 89.453731,11.2406796 C89.3849768,11.4332233 89.2085163,11.562034 89.0093119,11.5660677 L89.0093119,12.1816159 L91.7071975,12.1816159 L91.7071975,11.5633786 C91.5155745,11.5472436 91.3477409,11.4243491 91.2706211,11.2433688 C91.1595163,11.0172106 91.1116759,10.7641609 91.1320669,10.5119179 C91.1320669,10.3478792 91.1320669,6.91947195 91.1529807,6.81701503 C91.213108,6.26304853 91.4980591,5.10133236 92.3555266,5.0663733 C93.1918189,5.07981909 93.4976838,6.27918347 93.5319303,6.81701503 C93.5789864,7.05097176 93.5580726,8.50311698 93.5789864,9.77508862 C93.5868291,10.6087275 93.6077429,10.9421831 93.4535033,11.2514363 C93.3648809,11.4391395 93.1826691,11.5609583 92.9803277,11.5687569 L92.9803277,12.1816159 L95.6808275,12.1816159 L95.6808275,11.5633786 C95.4926029,11.5367559 95.3284293,11.4173573 95.2413754,11.2433688 C95.1164152,11.0527075 95.0821688,10.6275516 95.1030826,9.78584525 C95.1109253,9.70517052 95.0900115,6.91382472 95.0900115,6.80356925 C95.0455696,6.0801858 94.8285885,4.10096565 92.7372043,4.00953429 C91.678441,4.03400562 91.2578114,4.55274416 90.8941719,4.96956362 Z M36.8475755,4.22197775 C37.195791,4.08913336 37.5630903,4.02136658 37.9327425,4.02136658 C38.0328675,4.02136658 38.1329925,4.02647598 38.2331176,4.03642586 C38.7073389,4.09236035 39.1629993,4.25801247 39.566375,4.52047427 C40.3731264,5.0510451 40.9581912,5.87150715 41.2081116,6.82239335 L41.2054974,6.82239335 C41.4015646,7.54604572 41.4433923,8.30438822 41.3283662,9.04632685 C41.1924262,10.0512651 40.7053951,10.9709571 39.9585095,11.6335656 C39.1878344,12.2719716 38.1761273,12.513458 37.2112149,12.2894512 C36.2904831,12.0638308 35.5030769,11.4539298 35.0385282,10.6060384 C34.5520199,9.70866642 34.3525542,8.67656766 34.468626,7.65603227 C34.5488829,6.79388828 34.8712174,5.97450189 35.3966777,5.29764088 C35.7786168,4.81278572 36.2795033,4.44141303 36.8475755,4.22197775 Z M37.4276732,11.5980687 C37.5832199,11.648087 37.7437337,11.6728273 37.9034631,11.6728273 C38.1787416,11.6728273 38.4521901,11.5994133 38.6958363,11.4558122 C38.944711,11.2880088 39.1478367,11.0572791 39.2866524,10.786212 L39.2866524,10.8023469 C39.5736948,10.2430021 39.7342086,9.62449578 39.7569524,8.9925437 C39.8047928,8.34741474 39.7828333,7.69905879 39.691858,7.05930815 C39.6231038,6.5709571 39.4793211,6.09685857 39.2657385,5.65529886 C39.0641814,5.207823 38.6819809,4.87329177 38.2200464,4.74098521 C37.8200692,4.65197409 37.4023152,4.75066618 37.080242,5.00990099 C36.9649545,5.09622296 36.8632609,5.20056228 36.7796055,5.31915414 C36.3414605,5.97745997 36.0965072,6.75113067 36.0737634,7.54846596 C35.9877552,8.41679501 36.0541566,9.29372937 36.2698306,10.1381249 C36.4423698,10.7458746 36.8057478,11.3966508 37.4276732,11.5980687 Z M102.880418,4.03938394 C102.938715,4.03508129 102.996751,4.03319888 103.054787,4.03319888 C103.693966,4.03319888 104.312493,4.27952573 104.786453,4.72753942 C105.102513,4.52047427 105.622745,4.05793913 106.179576,4.03938394 L106.171995,4.06062829 C107.397808,4.08214155 107.418721,5.70935094 106.551058,5.77093265 C106.42636,5.78249603 106.302706,5.74592348 106.203104,5.66874465 C106.043636,5.50470603 105.993704,5.20889867 105.695944,5.17393962 C105.529156,5.16425865 105.363152,5.20325144 105.21754,5.28688424 C105.434521,5.56924581 105.625359,6.02102432 105.67503,6.82777167 C105.745875,7.67754553 105.604446,8.51118445 105.246296,9.04928493 C104.51954,10.1141914 103.411106,10.0630974 102.613766,10.0630974 C102.371427,10.0593326 102.129611,10.0838039 101.892239,10.1357047 C101.76571,10.1919081 101.680747,10.316685 101.672643,10.4581347 C101.674996,10.6046938 101.758129,10.7370004 101.88701,10.7996577 C102.694807,11.0336145 106.485441,10.2967852 106.524655,13.1338467 C106.616414,14.4864931 105.499876,15.1292018 104.770506,15.3981176 C103.590704,15.8160127 102.298751,15.7425987 101.170711,15.1937416 C100.859618,15.0514851 100.02045,14.4058184 100.281873,13.4834372 C100.63218,12.4481115 101.926224,12.8783767 101.884396,13.120132 C101.839954,13.2363036 101.638658,13.1634275 101.439977,13.3893167 C101.315801,13.6523163 101.347172,13.9647965 101.521018,14.1960641 C101.761527,14.5833028 102.420052,14.8817993 103.047728,14.9221367 C104.046364,15.013568 105.120552,14.4730473 105.251525,13.7036793 C105.410993,12.7546755 104.482941,12.5260971 103.087203,12.4860286 C101.871325,12.3674367 100.464869,12.3136536 100.425655,11.0228578 C100.365528,9.84500672 101.183782,9.65138736 101.617744,9.50348368 C101.011243,9.21036548 100.226974,8.58110255 100.226974,6.96760787 C100.287363,6.24960274 100.488397,4.17357291 102.880418,4.03938394 Z M102.951002,9.32062095 C102.959629,9.32088987 102.968517,9.32088987 102.977144,9.32088987 C103.871995,9.32115878 104.179952,8.22882288 104.198251,7.11040215 C104.258117,5.83009412 103.837226,4.754431 102.951002,4.754431 C102.164119,4.73291774 101.761527,5.81664833 101.790545,7.06710671 C101.790545,8.19924215 102.151047,9.32062095 102.951002,9.32062095 Z M108.91929,4.30534165 C109.376518,4.12705048 109.861197,4.03588803 110.349796,4.03588803 C110.369665,4.03588803 110.389533,4.03615695 110.409662,4.03642586 C110.947932,4.0660066 111.766186,4.10365481 112.325632,4.60383816 C112.817107,5.00990099 112.903376,5.71714949 112.903376,6.08556411 L112.903376,10.5253636 C112.903376,10.5253636 112.861549,11.1411808 113.122972,11.3049505 C113.239828,11.3686835 113.379689,11.3686835 113.496545,11.3049505 C113.60765,11.229923 113.697841,11.1258526 113.757968,11.0040337 L113.766072,10.9959663 C113.844499,11.0527075 114.019653,11.1680724 114.071937,11.2084097 C114.037952,11.3939616 113.585691,12.405085 112.780769,12.405085 C112.009571,12.3566801 111.748148,12.0447378 111.562276,11.3805158 C111.261378,11.6951473 110.906889,11.9503484 110.516584,12.13348 C109.951126,12.3464613 109.345148,12.420951 108.74675,12.3513018 C108.48768,12.302897 107.729815,12.0850752 107.635441,10.9771422 C107.583156,10.2620951 107.821313,9.55699792 108.294489,9.02992299 C108.807139,8.45471214 109.659117,7.86847574 111.334838,7.11040215 L111.334838,5.66336634 C111.324381,5.46248625 111.265038,5.26725339 111.162299,5.09595404 C110.927018,4.88646865 110.620631,4.78105366 110.31006,4.80283584 C110.31006,4.80283584 109.42645,4.703337 109.165027,5.25999267 C109.01863,5.64723139 109.178098,5.77900012 108.885305,6.24422442 C108.737862,6.46339078 108.468073,6.55724239 108.22129,6.47549199 C107.994636,6.3886322 107.830986,6.18344946 107.792818,5.93766043 C107.738965,5.65126513 107.797262,5.35465102 107.954639,5.11208899 C108.195671,4.75496883 108.530031,4.47529642 108.91929,4.30534165 Z M109.358219,10.9798313 C109.475598,11.2162083 109.71114,11.3630363 109.96655,11.3630363 C109.980667,11.3630363 109.995045,11.3624985 110.009424,11.3616917 C110.811992,11.3348001 111.316539,10.4662022 111.316539,10.4662022 L111.329348,7.93570468 C110.890942,8.15540887 110.464038,8.3995844 110.051251,8.6671556 C109.814141,8.80322699 109.616505,9.00168684 109.478473,9.24263537 C109.319267,9.53844273 109.039544,10.3021635 109.358219,10.9798313 Z M10.8673552,4.30534165 C11.3245841,4.12705048 11.8092624,4.03588803 12.2976006,4.03588803 C12.3177301,4.03588803 12.3375983,4.03615695 12.3574664,4.03642586 C12.8959979,4.0660066 13.7139905,4.10365481 14.2736972,4.60383816 C14.7651725,5.00990099 14.8514421,5.71714949 14.8514421,6.08556411 L14.8514421,10.5253636 C14.8514421,10.5253636 14.8096144,11.1411808 15.0712989,11.3049505 C15.1871093,11.3678768 15.3259249,11.3678768 15.4422581,11.3049505 C15.5533629,11.229923 15.6432925,11.1258526 15.7036812,11.0040337 L15.7141381,10.9959663 C15.792565,11.0527075 15.9677184,11.1680724 16.020003,11.2084097 C15.986018,11.3939616 15.5337562,12.405085 14.7285733,12.405085 C13.9547611,12.3566801 13.6959523,12.0447378 13.510342,11.3805158 C13.2094441,11.6951473 12.8549545,11.9500795 12.4646499,12.13348 C11.8991919,12.3464613 11.2932133,12.420951 10.694816,12.3513018 C10.4360072,12.302897 9.67788042,12.0850752 9.58376813,10.9771422 C9.53122211,10.262364 9.76990133,9.55726684 10.2425542,9.02992299 C10.7549433,8.45471214 11.6071824,7.86847574 13.282904,7.11040215 L13.282904,5.66336634 C13.272447,5.46248625 13.2128426,5.26725339 13.1103648,5.09595404 C12.8748226,4.88646865 12.5686962,4.78132258 12.2581257,4.80283584 C12.2581257,4.80283584 11.3745159,4.703337 11.1130928,5.25999267 C10.9666959,5.64723139 11.126164,5.77900012 10.8333702,6.24422442 C10.6856662,6.46339078 10.4158776,6.55724239 10.1693557,6.47549199 C9.94270195,6.3886322 9.77905113,6.18344946 9.74062195,5.93766043 C9.68755308,5.65126513 9.74558899,5.35491994 9.90270423,5.11208899 C10.1437363,4.75496883 10.4780963,4.4750275 10.8673552,4.30534165 Z M11.3039316,10.9798313 C11.4218334,11.2159394 11.657637,11.3630363 11.9133087,11.3630363 C11.9271641,11.3630363 11.9410196,11.3624985 11.954875,11.3616917 C12.7574437,11.3348001 13.2619901,10.4662022 13.2619901,10.4662022 L13.272447,7.93570468 C12.8345635,8.15540887 12.4084439,8.3995844 11.9967027,8.6671556 C11.759592,8.80322699 11.5619562,9.00168684 11.4241862,9.24263537 C11.2647182,9.53844273 10.9849956,10.3021635 11.3039316,10.9798313 Z M83.2736907,4.30534165 C83.731181,4.12705048 84.2166436,4.03588803 84.705766,4.03588803 C84.7251114,4.03588803 84.7441952,4.03615695 84.763802,4.03642586 C85.3023334,4.0660066 86.1205875,4.10365481 86.6797713,4.60383816 C87.1712466,5.00990099 87.2577776,5.71714949 87.2577776,6.08556411 L87.2577776,10.5253636 C87.2577776,10.5253636 87.2159499,11.1411808 87.477373,11.3049505 C87.5944905,11.3686835 87.7343518,11.3686835 87.8512079,11.3049505 C87.9623127,11.229923 88.0525036,11.1258526 88.1126309,11.0040337 L88.1178594,10.9959663 C88.1989005,11.0527075 88.3714397,11.1680724 88.4234629,11.2084097 C88.3923536,11.3939616 87.9400917,12.405085 87.1349088,12.405085 C86.3610967,12.3566801 86.1022879,12.0447378 85.9166775,11.3805158 C85.6155182,11.6951473 85.26129,11.9503484 84.8709854,12.13348 C84.305266,12.3464613 83.6995488,12.420951 83.1011515,12.3513018 C82.8423427,12.302897 82.0842159,12.0850752 81.9901037,10.9771422 C81.9372962,10.2620951 82.1759754,9.55699792 82.6486283,9.02992299 C83.1612788,8.45471214 84.0135179,7.86847574 85.6889781,7.11040215 L85.6889781,5.66336634 C85.6787826,5.46248625 85.6191781,5.26725339 85.5167003,5.09595404 C85.2814196,4.88646865 84.9750318,4.78105366 84.6644612,4.80283584 C84.6644612,4.80283584 83.78059,4.703337 83.5191669,5.25999267 C83.3732929,5.64723139 83.5324995,5.77900012 83.2397057,6.24422442 C83.0920017,6.46339078 82.8224746,6.55724239 82.5756912,6.47549199 C82.348776,6.38917003 82.1851252,6.18344946 82.1469575,5.93766043 C82.0936272,5.65126513 82.1519245,5.35465102 82.3090397,5.11208899 C82.5500718,4.75496883 82.8846933,4.47529642 83.2736907,4.30534165 Z M83.7128814,10.9798313 C83.8299989,11.2162083 84.0655411,11.3630363 84.3212128,11.3630363 C84.3353296,11.3630363 84.3497079,11.3624985 84.3640862,11.3616917 C85.166132,11.3348001 85.6709399,10.4662022 85.6709399,10.4662022 L85.684011,7.93570468 C85.2450818,8.15540887 84.8184394,8.3995844 84.4059138,8.6671556 C84.1688032,8.80349591 83.9709059,9.00195575 83.833136,9.24263537 C83.6736679,9.53844273 83.3942067,10.3021635 83.7128814,10.9798313 Z M46.1356742,4.22197775 L46.1356742,4.86737563 C46.3205003,4.85903924 46.503235,4.90986432 46.6587817,5.01259015 C46.7432213,5.11101332 46.798643,5.23256326 46.8182497,5.36218066 C46.8509276,5.60366703 46.861646,5.84757365 46.8496205,6.09094243 L46.8496205,9.04928493 C46.8726257,9.55914925 46.7704093,10.0668622 46.5515982,10.5253636 C46.3421984,10.9685369 45.9636579,11.3025303 45.5059061,11.4477448 C45.5059061,11.4477448 44.4288433,11.8376727 44.2118622,10.5172962 C44.1909483,10.3909058 44.1700345,9.77508862 44.1700345,9.77508862 L44.1621918,4.22197775 L41.8093846,4.22197775 L41.8093846,4.86199731 C42.0156473,4.87140936 42.2182502,4.92250336 42.4054291,5.01259015 C42.4932672,5.10429043 42.5460746,5.22557145 42.5544402,5.35411319 C42.5824124,5.59506173 42.5962679,5.83762376 42.5962679,6.0801858 L42.5962679,9.78046694 C42.5756154,10.9502506 42.8576909,12.4265982 44.7634647,12.4131524 C45.7072019,12.4295563 46.1646922,12.1816159 46.9881747,11.1895856 C47.0221597,11.30011 47.2260697,12.408043 47.2260697,12.408043 L49.3174539,11.7139714 L49.3174539,11.1764088 C48.8704205,11.213788 48.7002341,11.2030314 48.5671698,11.0551277 C48.4733189,10.8916269 48.42025,10.7068818 48.4129302,10.5172962 L48.3841737,9.77777778 L48.3841737,4.22197775 L46.1356742,4.22197775 Z M20.0014757,4.22735607 L22.2209572,4.22735607 L22.2209572,4.87813226 C22.0933828,4.87517418 21.9671155,4.90367926 21.8523507,4.96149615 C21.7328804,5.05454101 21.651055,5.18926782 21.6222985,5.3406674 C21.5961562,5.42403129 19.7923373,10.8399951 19.7531238,10.974453 C19.5936558,11.4477448 19.4237308,11.9939127 19.130937,12.6740007 C18.8164451,13.5092531 18.3505893,14.275932 17.7584662,14.9328933 C17.5231854,15.1292018 17.154579,15.5513996 16.4905645,15.5621562 C16.3475661,15.5460213 16.2116261,15.4917003 16.0958157,15.4034959 C15.9345177,15.2986188 15.8291642,15.1230167 15.8108646,14.9277839 C15.7847223,14.6946339 15.8498166,14.4606772 15.9912465,14.2767388 C16.1663999,14.0613372 16.723231,14.0538076 16.723231,14.0538076 C16.9645244,14.0454712 17.2050336,14.0185796 17.4421443,13.972864 C17.570503,13.9284928 17.6839606,13.8475492 17.7689231,13.7389072 C17.84735,13.6493583 17.9155814,13.5509351 17.9725716,13.445789 C18.1072045,13.2166728 18.2075909,12.9684635 18.2708553,12.7089598 C18.4316305,12.2372815 18.4899278,11.7354847 18.4405188,11.2379905 C18.4405188,11.2054517 16.7363021,6.16623885 16.7101598,6.07211832 C16.6393142,5.81637942 16.5457247,5.56790123 16.4304372,5.32991077 C16.3669114,5.19599071 16.2780276,5.07605427 16.1690142,4.9776311 C16.0994756,4.92008312 16.0147746,4.88431732 15.9256293,4.8754431 C15.8743904,4.87248503 15.8231515,4.87248503 15.7716512,4.8754431 L15.7716512,4.23273438 L18.7492594,4.23273438 L18.7492594,4.88888889 C18.5568521,4.87920792 18.367059,4.93702481 18.210728,5.05292751 C18.1385752,5.13575358 18.0985775,5.24278206 18.0983161,5.35411319 C18.1103416,5.46436866 18.1323011,5.57354847 18.1636718,5.67950128 C18.176743,5.72521697 18.2394845,5.96186285 18.2394845,5.96186285 L19.4341878,9.57071263 L20.6262768,6.07480748 C20.7277089,5.81019435 20.7917575,5.53240435 20.8171156,5.24950495 C20.8165927,5.1430143 20.7671838,5.04351546 20.6837898,4.98058917 C20.627061,4.93810048 20.5619667,4.9095954 20.492951,4.89695636 C20.3295616,4.88243491 20.1651265,4.88243491 20.0014757,4.89695636 L20.0014757,4.22735607 Z M121.930575,4.29996333 L122.471459,4.29996333 C122.802421,4.29996333 122.968163,4.43979954 122.968163,4.71947195 C122.980188,4.930033 122.825165,5.11128224 122.62047,5.12553478 L123.007115,5.78168928 L122.745692,5.78168928 L122.364276,5.13360225 L122.142066,5.13360225 L122.149909,5.78168928 L121.930575,5.78168928 L121.930575,4.29996333 Z M122.147295,4.49358269 L122.149909,4.94267204 L122.387804,4.94267204 C122.649227,4.94267204 122.75641,4.90798191 122.75641,4.71167339 C122.75641,4.56081164 122.670141,4.49358269 122.439827,4.49358269 L122.147295,4.49358269 Z M114.451001,5.14704804 L114.456229,5.14704804 L114.456229,5.14624129 C114.454399,5.14651021 114.452569,5.14677912 114.451001,5.14704804 Z M88.8472296,5.14704804 L88.8501053,5.14704804 L88.8501053,5.14651021 C88.8490596,5.14677912 88.8482753,5.14677912 88.8472296,5.14704804 Z M57.4218291,22 L57.9836272,22 L57.9836272,17.2345435 L57.4218291,17.2345435 L57.4218291,22 Z M107.643545,17.5034592 C106.835748,17.5034592 106.255128,17.9988021 106.255128,18.7165383 C106.255128,19.4853685 106.741636,19.7491749 107.607207,19.9643075 C108.362459,20.1444811 108.524802,20.3058306 108.524802,20.6043271 C108.524802,20.9216477 108.244818,21.1421587 107.805627,21.1421587 C107.326439,21.1386628 106.867119,20.946388 106.52204,20.6043271 L106.093307,21.1421587 C106.556548,21.5756509 107.160958,21.8144481 107.787328,21.811759 L107.792818,21.7902457 C108.645057,21.7902457 109.243454,21.3247525 109.243454,20.5427454 C109.243454,19.8513629 108.796421,19.5340423 107.9366,19.3186408 C107.15207,19.1279795 106.971688,18.9854541 106.971688,18.6627552 C106.971688,18.3938394 107.214811,18.168219 107.633088,18.168219 C108.036725,18.1832783 108.424154,18.3346779 108.736293,18.5982154 L109.11771,18.0415597 C108.712765,17.6935827 108.201422,17.5034592 107.674132,17.5034592 L107.643545,17.5034592 Z M69.9149741,17.5225523 L70.5763743,17.5225523 L72.3645078,21.7313531 L71.6092567,21.7313531 L71.1959469,20.72265 L69.2744877,20.72265 L68.8562108,21.7313531 L68.1242264,21.7313531 L69.9149741,17.5225523 Z M69.5332965,20.0718739 L70.924067,20.0772522 L70.220839,18.404596 L69.5332965,20.0718739 Z M98.2924436,17.5249725 C97.4846464,17.5249725 96.9042873,18.0203154 96.9042873,18.7380516 C96.9042873,19.5068818 97.3931483,19.7709571 98.2558443,19.9858208 C99.0110955,20.1659944 99.1734392,20.3273438 99.1734392,20.6258404 C99.1734392,20.943161 98.8937165,21.1636719 98.4545258,21.1636719 C97.9753374,21.160176 97.5162786,20.9673634 97.1706774,20.6258404 L96.742205,21.1636719 C97.2054466,21.5971642 97.8101181,21.8359614 98.4362262,21.8332722 L98.4362262,21.811759 C99.2884653,21.811759 99.887124,21.3465347 99.887124,20.5642586 C99.887124,19.8728762 99.4400906,19.5555556 98.5800089,19.340154 C97.7957398,19.1492238 97.6179722,19.0069674 97.6179722,18.6842684 C97.6179722,18.4156216 97.8610956,18.1897323 98.2793724,18.1897323 C98.6830096,18.2047916 99.0706999,18.3556533 99.3825776,18.6197286 L99.7668694,18.063073 C99.3614023,17.715096 98.8503203,17.5249725 98.3230301,17.5249725 L98.2924436,17.5249725 Z M93.733226,17.5467547 C92.9256903,17.5467547 92.3448083,18.0415597 92.3448083,18.7595648 C92.3448083,19.528664 92.8313165,19.7924704 93.6968882,20.0073341 C94.4521393,20.1875076 94.6142216,20.3488571 94.6142216,20.6473536 C94.6142216,20.9644053 94.3344989,21.1851852 93.8953083,21.1851852 C93.4161199,21.1819582 92.9565382,20.9891456 92.6117212,20.6473536 L92.1829874,21.1851852 C92.646229,21.6184085 93.2506391,21.8574746 93.8770086,21.8547855 L93.8796229,21.8332722 C94.7321234,21.8332722 95.3305207,21.3680479 95.3305207,20.585503 C95.3305207,19.8943894 94.8832259,19.5770688 94.0234055,19.3619362 C93.2391365,19.1707371 93.0587546,19.0284806 93.0587546,18.7060506 C93.0587546,18.4371348 93.301878,18.2112456 93.7201548,18.2112456 C94.123792,18.2263049 94.5114823,18.3774355 94.82336,18.6412419 L95.2076519,18.0845862 C94.8024462,17.7368781 94.291887,17.5464858 93.7648582,17.5464858 C93.7544012,17.5464858 93.7439443,17.5464858 93.733226,17.5467547 Z M23.6535554,17.5494438 C23.6823119,17.5480993 23.710807,17.5472925 23.7395636,17.5472925 C24.1442464,17.5472925 24.5358581,17.7013812 24.8378017,17.9823982 C25.0615798,18.2249603 25.1831415,18.5487349 25.1750374,18.8832661 C25.1928142,19.4912847 24.7839486,20.0250825 24.205158,20.1501283 L25.3031347,21.7313531 L24.4613525,21.7313531 L23.4627166,20.2738296 L22.5686498,20.2738296 L22.5686498,21.7313531 L21.854965,21.7313531 L21.854965,17.5494438 L23.6535554,17.5494438 Z M22.5686498,18.2190441 L22.5686498,19.6230534 L23.6195704,19.6120279 C24.1319595,19.6120279 24.4561241,19.3377338 24.4561241,18.9128468 C24.4561241,18.4637575 24.137188,18.2190441 23.6143419,18.2190441 L22.5686498,18.2190441 Z M101.596831,17.5494438 L101.594216,21.7528664 L104.634566,21.7528664 L104.634566,21.0722406 L102.307901,21.0722406 L102.307901,19.9508618 L104.344387,19.9508618 L104.344387,19.2947072 L102.307901,19.2947072 L102.307901,18.2190441 L104.60581,18.2190441 L104.60581,17.5494438 L101.596831,17.5494438 Z M87.7021968,17.5494438 L87.7021968,21.7313531 L90.7422851,21.7313531 L90.7422851,21.0722406 L88.4158816,21.0722406 L88.4158816,19.9508618 L90.4526284,19.9508618 L90.4526284,19.2947072 L88.4158816,19.2947072 L88.4158816,18.2190441 L90.7140515,18.2190441 L90.7140515,17.5494438 L87.7021968,17.5494438 Z M77.7681218,17.5494438 L77.7681218,18.2298008 L79.0749755,18.2298008 L79.0775897,21.7313531 L79.7967645,21.7313531 L79.7967645,18.2351791 L81.08558,18.2351791 L81.08558,17.5494438 L77.7681218,17.5494438 Z M73.075317,17.5494438 L73.075317,18.2298008 L74.369361,18.2298008 L74.3719753,21.7313531 L75.09115,21.7313531 L75.09115,18.2351791 L76.3799655,18.2351791 L76.3799655,17.5494438 L73.075317,17.5494438 Z M65.844879,17.5494438 L64.6080867,19.5259748 L63.3718172,17.5494438 L62.6053249,17.5494438 L62.6108147,21.7313531 L63.3137813,21.7313531 L63.3137813,18.7434299 L64.5845586,20.7011368 L64.6080867,20.7011368 L65.8916737,18.730253 L65.8916737,21.7313531 L66.6050972,21.7313531 L66.6050972,17.5494438 L65.844879,17.5494438 Z M49.9422549,17.5494438 L49.9500976,21.7313531 L52.9904474,21.7313531 L52.9904474,21.0722406 L50.6637824,21.0722406 L50.6637824,19.9508618 L52.7002678,19.9508618 L52.7002678,19.2947072 L50.6637824,19.2947072 L50.6637824,18.2190441 L52.9616908,18.2190441 L52.9616908,17.5494438 L49.9422549,17.5494438 Z M42.2668748,17.5494438 L42.2668748,19.9562401 C42.2668748,20.7253392 41.8770931,21.1206454 41.2447108,21.1206454 C40.6120671,21.1206454 40.2173183,20.7038259 40.2173183,19.9266593 L40.2173183,17.5494438 L39.5036335,17.5494438 L39.5036335,19.9562401 C39.5036335,21.1693192 40.1781049,21.795624 41.2342539,21.795624 C42.2956314,21.795624 42.9805597,21.1693192 42.9805597,19.9132135 L42.9805597,17.5494438 L42.2668748,17.5494438 Z M34.6908356,17.5494438 L34.6908356,18.2298008 L35.9796511,18.2298008 L35.9822653,21.7313531 L36.7011786,21.7313531 L36.7011786,18.2351791 L37.9899941,18.2351791 L37.9899941,17.5494438 L34.6908356,17.5494438 Z M32.4216837,21.7313531 L33.1353685,21.7313531 L33.1353685,17.5497127 L32.4216837,17.5497127 L32.4216837,21.7313531 Z M29.7708542,17.5494438 L29.7708542,20.4405574 L27.5749008,17.5494438 L26.9135005,17.5494438 L26.9318001,21.7313531 L27.6350281,21.7313531 L27.6350281,18.7568757 L29.8754234,21.7313531 L30.4740821,21.7313531 L30.4740821,17.5494438 L29.7708542,17.5494438 Z M19.2511916,17.5494438 L19.2511916,19.9562401 C19.2511916,20.7253392 18.8616713,21.1206454 18.2287662,21.1206454 C17.5963839,21.1206454 17.2016351,20.7038259 17.2016351,19.9266593 L17.2016351,17.5494438 L16.4879503,17.5494438 L16.4879503,19.9562401 C16.4879503,21.1687813 17.1618988,21.7950862 18.2172636,21.795624 C19.2778568,21.7950862 19.9622623,21.1687813 19.9622623,19.9132135 L19.9622623,17.5494438 L19.2511916,17.5494438 Z M11.9339611,17.5494438 L11.9444181,21.7313531 L12.6479074,21.7313531 L12.6479074,20.0180907 L14.6972025,20.0180907 L14.6972025,19.359247 L12.6479074,19.359247 L12.6479074,18.2190441 L14.9586255,18.2190441 L14.9586255,17.5494438 L11.9339611,17.5494438 Z M84.4396374,17.552133 C84.4699625,17.5505195 84.5002876,17.5497127 84.5303512,17.5497127 C84.9269299,17.5497127 85.3112218,17.6981543 85.6108126,17.9689525 C85.8398191,18.2139347 85.9634722,18.5436255 85.9532767,18.8832661 C85.9720992,19.4918225 85.5627107,20.0258893 84.9833973,20.1501283 L86.081374,21.7313531 L85.2395919,21.7313531 L84.2409559,20.2738296 L83.3468892,20.2738296 L83.3468892,21.7313531 L82.6332043,21.7313531 L82.6277144,17.552133 L84.4396374,17.552133 Z M83.3468892,18.2190441 L83.3468892,19.6230534 L84.3978097,19.6120279 C84.9101989,19.6120279 85.2343634,19.3377338 85.2343634,18.9128468 C85.2343634,18.4637575 84.9151659,18.2190441 84.3923198,18.2190441 L83.3468892,18.2190441 Z M46.6823098,17.5655788 C46.7134191,17.5636964 46.744267,17.5628896 46.7753764,17.5628896 C47.1722165,17.5628896 47.5567698,17.7116 47.8560991,17.9823982 C48.0798773,18.2249603 48.2011775,18.5487349 48.1933348,18.8832661 C48.2121573,19.4918225 47.8030303,20.0258893 47.2234554,20.1501283 L48.3214321,21.7313531 L47.47965,21.7313531 L46.481014,20.2738296 L45.5872087,20.2738296 L45.5872087,21.7313531 L44.8732624,21.7313531 L44.8706482,17.5655788 L46.6823098,17.5655788 Z M45.5872087,18.2190441 L45.5872087,19.6230534 L46.6378678,19.6120279 C47.150257,19.6120279 47.4741601,19.3377338 47.4741601,18.9128468 C47.4741601,18.4637575 47.1554854,18.2190441 46.6326394,18.2190441 L45.5872087,18.2190441 Z M18.2159565,21.795624 L18.2185707,21.795624 L18.2172636,21.795624 L18.2159565,21.795624 Z" id="path-1"></path>
    </defs>
    <g id="Page-1" stroke="none" stroke-width="1" fill="none" fill-rule="evenodd">
        <g id="Dashboard---Summary-View-" transform="translate(-194.000000, -9.000000)">
            <g id="Tabs/TopHeader" transform="translate(46.000000, 0.000000)">
                <g id="TopHeader">
                    <g>
                        <g>
                            <g id="logo" transform="translate(148.000000, 9.000000)">
                                <path d="M107.792691,21.7902457 C108.644929,21.7902457 109.243587,21.3250214 109.243587,20.5424765 C109.243587,19.8513629 108.796554,19.5340423 107.936474,19.3189097 C107.152205,19.1279795 106.971562,18.9854541 106.971562,18.6627552 C106.971562,18.3938394 107.214947,18.1679501 107.633223,18.1679501 C108.03686,18.1832783 108.424288,18.334409 108.736166,18.5982154 L109.117843,18.0415597 C108.704795,17.6865909 108.181688,17.4959296 107.64368,17.5037282 C106.835884,17.5037282 106.255264,17.9985332 106.255264,18.7165383 C106.255264,19.4856375 106.74151,19.7491749 107.607081,19.9643075 C108.362593,20.1444811 108.524675,20.3058306 108.524675,20.6043271 C108.524675,20.9216477 108.244691,21.1421587 107.805762,21.1421587 C107.326574,21.1386628 106.867255,20.9461191 106.522177,20.6043271 L106.093443,21.1421587 C106.556423,21.5756509 107.161094,21.8144481 107.787201,21.811759 L107.792691,21.7902457 Z M101.594358,21.7525975 L104.634705,21.7525975 L104.634705,21.0722406 L102.308042,21.0722406 L102.308042,19.9508618 L104.344525,19.9508618 L104.344525,19.2947072 L102.308042,19.2947072 L102.308042,18.2190441 L104.605948,18.2190441 L104.605948,17.5494438 L101.596973,17.5494438 L101.594358,21.7525975 Z M98.436372,21.811759 C99.2886101,21.811759 99.8872681,21.3465347 99.8872681,20.5639897 C99.8872681,19.8728762 99.4402352,19.5555556 98.5801545,19.3404229 C97.7958863,19.1494927 97.6181189,19.0069674 97.6181189,18.6842684 C97.6181189,18.4153526 97.861242,18.1894634 98.2792569,18.1894634 C98.6828936,18.2047916 99.0708449,18.3559223 99.3827222,18.6197286 L99.7670136,18.063073 C99.3537043,17.7081041 98.8308589,17.5174429 98.2923281,17.5252414 C97.4845319,17.5252414 96.9044349,18.0200464 96.9044349,18.7380516 C96.9044349,19.5071507 97.3932954,19.7706882 98.2559903,19.9858208 C99.0112406,20.1659944 99.1733226,20.3273438 99.1733226,20.6258404 C99.1733226,20.943161 98.8938618,21.1636719 98.4544102,21.1636719 C97.9754837,21.1599071 97.516164,20.9673634 97.1708246,20.6258404 L96.7420914,21.1636719 C97.2055938,21.5971642 97.8100032,21.8359614 98.436372,21.8332722 L98.436372,21.811759 Z M93.8795126,21.8332722 C94.7320121,21.8332722 95.3306701,21.3680479 95.3306701,20.585503 C95.3306701,19.8943894 94.8833758,19.5770688 94.0235565,19.3619362 C93.2392884,19.171006 93.0589067,19.0284806 93.0589067,18.7057817 C93.0589067,18.4368659 93.3017684,18.2109767 93.7203062,18.2109767 C94.1239428,18.2263049 94.5113713,18.3777044 94.82351,18.6412419 L95.20754,18.0845862 C94.7944921,17.7296174 94.2713852,17.5386872 93.7333773,17.5467547 C92.9255811,17.5467547 92.3449612,18.0415597 92.3449612,18.7595648 C92.3449612,19.528664 92.8314689,19.7922014 93.6967781,20.0073341 C94.4522898,20.1875076 94.6143719,20.3488571 94.6143719,20.6473536 C94.6143719,20.9646742 94.3346495,21.1851852 93.8954594,21.1851852 C93.4162715,21.1816893 92.9566904,20.9891456 92.6118738,20.6473536 L92.1831406,21.1851852 C92.6463816,21.6184085 93.250791,21.8574746 93.8771598,21.8547855 L93.8795126,21.8332722 Z M87.7020937,21.7310842 L90.74244,21.7310842 L90.74244,21.0722406 L88.4160392,21.0722406 L88.4160392,19.9508618 L90.4525222,19.9508618 L90.4525222,19.2947072 L88.4160392,19.2947072 L88.4160392,18.2190441 L90.7139449,18.2190441 L90.7139449,17.5494438 L87.7020937,17.5494438 L87.7020937,21.7310842 Z M83.3467912,19.6227845 L83.3467912,18.2190441 L84.3924821,18.2190441 C84.9153276,18.2190441 85.2345247,18.4637575 85.2345247,18.9128468 C85.2345247,19.3377338 84.9103605,19.6120279 84.397972,19.6120279 L83.3467912,19.6227845 Z M82.6333686,21.7310842 L83.3467912,21.7310842 L83.3467912,20.2735607 L84.2408569,20.2735607 L85.2394917,21.7310842 L86.0812729,21.7310842 L84.9835589,20.1498594 C85.5628716,20.0258893 85.9719982,19.4918225 85.9534372,18.8832661 C85.9633712,18.5436255 85.8397183,18.2139347 85.610712,17.9689525 C85.2886392,17.6774477 84.8682715,17.5276617 84.4397996,17.552133 L82.6278788,17.552133 L82.6333686,21.7310842 Z M79.0777582,21.7310842 L79.7966707,21.7310842 L79.7966707,18.2351791 L81.0857461,18.2351791 L81.0857461,17.5494438 L77.7680304,17.5494438 L77.7680304,18.2298008 L79.075144,18.2298008 L79.0777582,21.7310842 Z M74.3721493,21.7310842 L75.0910618,21.7310842 L75.0910618,18.2351791 L76.3801372,18.2351791 L76.3801372,17.5494438 L73.0754926,17.5494438 L73.0754926,18.2298008 L74.3695351,18.2298008 L74.3721493,21.7310842 Z M69.5332148,20.0718739 L70.2207565,18.404596 L70.9242451,20.0772522 L69.5332148,20.0718739 Z M68.1244077,21.7310842 L68.8563914,21.7310842 L69.2744063,20.72265 L71.1961247,20.72265 L71.6091726,21.7310842 L72.3644228,21.7310842 L70.5765528,17.5225523 L69.9148919,17.5225523 L68.1244077,21.7310842 Z M62.6110026,21.7310842 L63.3139683,21.7310842 L63.3139683,18.7434299 L64.5847441,20.7011368 L64.6082722,20.7011368 L65.8918577,18.7299841 L65.8918577,21.7310842 L66.6052803,21.7310842 L66.6052803,17.5494438 L65.8448016,17.5494438 L64.6082722,19.5259748 L63.3717427,17.5494438 L62.6055127,17.5494438 L62.6110026,21.7310842 Z M57.4217616,22 L57.9838205,22 L57.9838205,17.2345435 L57.4217616,17.2345435 L57.4217616,22 Z M49.9503003,21.7310842 L52.9906465,21.7310842 L52.9906465,21.0722406 L50.6639843,21.0722406 L50.6639843,19.9508618 L52.7004673,19.9508618 L52.7004673,19.2947072 L50.6639843,19.2947072 L50.6639843,18.2190441 L52.96189,18.2190441 L52.96189,17.5494438 L49.9421962,17.5494438 L49.9503003,21.7310842 Z M45.5871551,19.6227845 L45.5871551,18.2190441 L46.632846,18.2190441 C47.1556915,18.2190441 47.4746272,18.4637575 47.4746272,18.9128468 C47.4746272,19.3377338 47.150463,19.6120279 46.6380745,19.6120279 L45.5871551,19.6227845 Z M44.8734711,21.7310842 L45.5871551,21.7310842 L45.5871551,20.2735607 L46.4812208,20.2735607 L47.4798556,21.7310842 L48.3216368,21.7310842 L47.2236614,20.1498594 C47.8029741,20.0258893 48.2121007,19.4918225 48.1935397,18.8832661 C48.2013823,18.5487349 48.0800822,18.2249603 47.8560429,17.9823982 C47.5334473,17.6903557 47.1117724,17.5403007 46.6825163,17.5655788 L44.8708569,17.5655788 L44.8734711,21.7310842 Z M41.2342055,21.795624 C42.2955817,21.795624 42.9807706,21.1690502 42.9807706,19.9132135 L42.9807706,17.5494438 L42.2670866,17.5494438 L42.2670866,19.9562401 C42.2670866,20.7253392 41.8773053,21.1206454 41.2446624,21.1206454 C40.6122808,21.1206454 40.2175325,20.7038259 40.2175325,19.9266593 L40.2175325,17.5494438 L39.5038485,17.5494438 L39.5038485,19.9562401 C39.5038485,21.1690502 40.1780577,21.795624 41.2342055,21.795624 L41.2342055,21.795624 Z M35.9824845,21.7310842 L36.7013969,21.7310842 L36.7013969,18.2351791 L37.9902109,18.2351791 L37.9902109,17.5494438 L34.6910562,17.5494438 L34.6910562,18.2298008 L35.9798702,18.2298008 L35.9824845,21.7310842 Z M32.4216456,21.7310842 L33.1353296,21.7310842 L33.1353296,17.5494438 L32.4216456,17.5494438 L32.4216456,21.7310842 Z M26.9317685,21.7310842 L27.6349956,21.7310842 L27.6349956,18.7568757 L29.8756497,21.7310842 L30.4743078,21.7310842 L30.4743078,17.5494438 L29.7710807,17.5494438 L29.7710807,20.4402885 L27.5748684,17.5494438 L26.9137303,17.5494438 L26.9317685,21.7310842 Z M22.5688847,19.6227845 L22.5688847,18.2190441 L23.6145756,18.2190441 C24.1374211,18.2190441 24.4563568,18.4637575 24.4563568,18.9128468 C24.4563568,19.3377338 24.1321926,19.6120279 23.6198041,19.6120279 L22.5688847,19.6227845 Z M21.8552007,21.7310842 L22.5688847,21.7310842 L22.5688847,20.2735607 L23.462689,20.2735607 L24.4615852,21.7310842 L25.3033664,21.7310842 L24.205391,20.1498594 C24.7841809,20.0250825 25.1927846,19.4912847 25.1752693,18.8832661 C25.1831119,18.5487349 25.0618118,18.2249603 24.8380339,17.9823982 C24.5149155,17.6817504 24.0887964,17.5260482 23.6535276,17.5494438 L21.8552007,17.5494438 L21.8552007,21.7310842 Z M18.2161965,21.795624 C19.2775727,21.795624 19.9625002,21.1690502 19.9625002,19.9132135 L19.9625002,17.5494438 L19.2514304,17.5494438 L19.2514304,19.9562401 C19.2514304,20.7253392 18.8619106,21.1206454 18.2290062,21.1206454 C17.5966246,21.1206454 17.2018763,20.7038259 17.2018763,19.9266593 L17.2018763,17.5494438 L16.4881923,17.5494438 L16.4881923,19.9562401 C16.4881923,21.1690502 17.1626629,21.795624 18.2185493,21.795624 L18.2161965,21.795624 Z M11.944404,21.7310842 L11.9342085,17.5494438 L14.9588694,17.5494438 L14.9588694,18.2190441 L12.6478926,18.2190441 L12.6478926,19.359247 L14.6974467,19.359247 L14.6974467,20.0180907 L12.6478926,20.0180907 L12.6478926,21.7310842 L11.944404,21.7310842 Z M121.156359,5.03141425 C121.154268,4.51455812 121.455427,4.04745141 121.918929,3.84764699 C122.382432,3.64811148 122.917041,3.75567779 123.273622,4.12005867 C123.629941,4.48443956 123.737647,5.03356558 123.546808,5.51169784 C123.355708,5.98983009 122.903447,6.30231023 122.400993,6.30338589 C122.072384,6.30499939 121.757108,6.17134825 121.524965,5.93255103 C121.292822,5.6934849 121.163156,5.36917247 121.164202,5.03141425 L121.156359,5.03141425 Z M123.399366,5.03141425 C123.399366,4.46265738 122.951287,4.00146681 122.398117,4.00146681 C121.845208,4.00146681 121.397129,4.46265738 121.397129,5.03141425 C121.397129,5.60017113 121.845208,6.06136169 122.398117,6.06136169 C122.951287,6.06136169 123.399366,5.60017113 123.399366,5.03141425 L123.399366,5.03141425 Z M122.150027,5.78168928 L121.930432,5.78168928 L121.930432,4.29996333 L122.471315,4.29996333 C122.802538,4.29996333 122.96828,4.43979954 122.96828,4.71947195 C122.980305,4.930033 122.82502,5.11128224 122.620588,5.12553478 L123.007232,5.78168928 L122.745809,5.78168928 L122.364132,5.13360225 L122.142184,5.13360225 L122.150027,5.78168928 Z M122.150027,4.94267204 L122.387922,4.94267204 C122.649344,4.94267204 122.756266,4.90771299 122.756266,4.71140447 C122.756266,4.56081164 122.669997,4.49358269 122.439945,4.49358269 L122.147151,4.49358269 L122.150027,4.94267204 Z M65.9177386,4.83779489 L65.9049289,4.85930815 C66.7438344,4.81628163 67.1466868,5.88925559 67.0891738,6.31952084 C67.0891738,6.55885589 66.87716,7.3225767 66.1820369,7.3225767 C65.7692505,7.29434055 65.4490076,6.94125413 65.4497919,6.51582936 C65.4448249,6.42977631 65.47332,6.03447011 65.47332,6.03447011 C65.3318903,6.10492605 65.2009175,6.19528175 65.0840615,6.30338589 C64.9005428,6.54056961 64.7483948,6.80195575 64.6315388,7.0805525 C64.571673,7.2015646 63.7505442,9.47928126 63.7325061,9.5276861 C65.0657619,11.8726317 65.0576578,11.8618751 65.7556565,11.4100966 C65.8837536,11.5418653 66.0824349,11.7005256 66.2236032,11.8322943 C65.5859931,12.4131524 64.4250148,13.104266 63.0081037,10.9529397 C62.829552,11.2632685 62.6055127,11.5434788 62.34409,11.7838895 C61.846864,12.2157682 61.2089926,12.4378927 60.5588343,12.405085 C59.6072556,12.3884122 58.7346265,11.8581103 58.2609286,11.0094121 C57.8165099,10.1300575 58.0491762,9.02481359 58.1877302,8.6483315 C58.5328082,7.67754553 59.1468902,6.92458135 60.1429107,6.2011979 C59.9288055,5.74404107 59.3220434,4.75174184 59.243878,3.9449945 C59.1442759,3.13663366 59.2770787,2.3159027 59.6255552,1.58391395 C59.6255552,1.58391395 60.1667002,0.422197775 61.3219272,0.352279672 C61.9088212,0.350397262 62.4695729,0.602102432 62.8669354,1.04608239 C63.2070464,1.40051338 63.4112175,1.86950251 63.4423268,2.36645887 C63.4527838,3.05488327 63.4632407,4.34567901 61.711447,5.90270138 C61.8787576,6.26304853 63.2096606,8.57572424 63.2096606,8.60799413 C63.5335634,7.80662511 63.9651723,6.53196431 64.610625,5.50739518 C64.9128296,5.0765921 65.4016901,4.82623151 65.9177386,4.83779489 L65.9177386,4.83779489 Z M62.4983294,10.3371226 C61.7885667,9.23510573 61.1378856,8.09382716 60.5483774,6.91920303 C59.8801809,7.5799291 59.5139277,8.49962107 59.5390242,9.45238968 C59.5494811,11.0228578 60.5298163,11.2729495 61.0241667,11.2729495 C61.8421584,11.3052194 62.0748246,10.9368048 62.4983294,10.3371226 L62.4983294,10.3371226 Z M61.2594471,5.15780467 L61.2725183,5.14435888 C61.4777351,4.90179685 61.6612539,4.64094854 61.8212446,4.36450312 C62.0018877,3.99393717 62.1075024,3.58948784 62.132599,3.17589537 C62.1953405,2.08947561 61.994045,1.08104144 61.2594471,1.13213544 C60.6895456,1.14827038 60.2869546,2.05451656 60.514131,3.16513874 C60.6004005,3.56017602 60.7209163,3.94633908 60.8751557,4.31878743 L61.2594471,5.15780467 Z M41.2083246,6.82239335 L41.2057104,6.82239335 C41.4017774,7.54604572 41.4436051,8.30465713 41.3285791,9.04632685 C41.1926392,10.0512651 40.7056087,10.9709571 39.958724,11.6332967 C39.1880498,12.2717027 38.1763439,12.513458 37.2111712,12.2894512 C36.2907018,12.0638308 35.503558,11.4536609 35.0387484,10.6060384 C34.5519793,9.70866642 34.3527752,8.67656766 34.4688469,7.65603227 C34.5491037,6.79388828 34.8714379,5.97450189 35.3968976,5.29764088 C35.7788362,4.81278572 36.2797221,4.44141303 36.8477937,4.22197775 C37.2901209,4.05309864 37.7638189,3.98963452 38.2330726,4.03642586 C38.7072935,4.09236035 39.1632147,4.25801247 39.5665899,4.52047427 C40.373079,5.0510451 40.9584045,5.87177607 41.2083246,6.82239335 L41.2083246,6.82239335 Z M39.7574285,8.9925437 C39.8050075,8.34741474 39.7830479,7.69905879 39.6920728,7.05903924 C39.6233187,6.57068818 39.4795362,6.09712749 39.2659538,5.65529886 C39.0643969,5.20755409 38.6821969,4.87329177 38.2202629,4.74098521 C37.8202862,4.652243 37.4025327,4.75066618 37.0804599,5.00990099 C36.964911,5.09622296 36.863479,5.20056228 36.7795623,5.31915414 C36.3416793,5.97745997 36.0967262,6.75113067 36.0739824,7.54846596 C35.9877129,8.41679501 36.0543757,9.29399829 36.2700494,10.1381249 C36.4425884,10.7458746 36.805966,11.3966508 37.4278907,11.5983376 C37.8516569,11.7341401 38.3109766,11.6827772 38.6957909,11.4558122 C38.9449267,11.2877399 39.1480522,11.0572791 39.2868676,10.786212 L39.2868676,10.8023469 C39.5736483,10.2430021 39.7344233,9.62449578 39.7574285,8.9925437 L39.7574285,8.9925437 Z M15.7718941,4.23273438 L18.7494988,4.23273438 L18.7494988,4.88888889 C18.5570917,4.87947684 18.3672988,4.93729373 18.210968,5.05292751 C18.1385539,5.13575358 18.0985563,5.24278206 18.0982948,5.35411319 C18.1105817,5.46436866 18.1322798,5.57327955 18.1636505,5.67950128 C18.1769831,5.72521697 18.2394631,5.96186285 18.2394631,5.96186285 L19.4344263,9.57071263 L20.6265139,6.07480748 C20.7276845,5.81019435 20.7919945,5.53240435 20.8173525,5.24923603 C20.8165683,5.1430143 20.7671594,5.04324655 20.6840269,4.98032025 C20.6272982,4.93810048 20.5619425,4.9095954 20.4931884,4.89695636 C20.3295377,4.88243491 20.1651028,4.88243491 20.0017136,4.89695636 L20.0017136,4.22735607 L22.2209311,4.22735607 L22.2209311,4.87813226 C22.0936182,4.87517418 21.9670896,4.90367926 21.8525865,4.96149615 C21.7331163,5.05454101 21.651291,5.18953673 21.6222731,5.3406674 C21.5963922,5.42403129 19.792314,10.8399951 19.7533621,10.974453 C19.5938942,11.4477448 19.4239694,11.9936438 19.131176,12.6740007 C18.816423,13.5092531 18.3508292,14.275932 17.7587067,14.9328933 C17.5234263,15.1292018 17.1548202,15.5513996 16.4908065,15.5621562 C16.3478083,15.5460213 16.2116071,15.4914314 16.0960582,15.4034959 C15.934499,15.2986188 15.8294071,15.1230167 15.810846,14.927515 C15.7849652,14.6946339 15.849798,14.4604083 15.9912277,14.2767388 C16.1666424,14.0616062 16.7234728,14.0535387 16.7234728,14.0535387 C16.9647659,14.0454712 17.2050134,14.0188486 17.4423852,13.972864 C17.5707438,13.9287618 17.6839398,13.8475492 17.7691636,13.7389072 C17.847329,13.6493583 17.9155603,13.5509351 17.9728119,13.445789 C18.1074446,13.2166728 18.2078309,12.9684635 18.2710952,12.7089598 C18.4318702,12.2375504 18.4899061,11.7352157 18.44102,11.2379905 C18.44102,11.2057206 16.7362825,6.16623885 16.7101402,6.07211832 C16.6395561,5.81637942 16.5457053,5.56790123 16.4306793,5.32991077 C16.3668922,5.19599071 16.2782699,5.07605427 16.1692566,4.9776311 C16.0994567,4.9198142 16.0150172,4.88431732 15.925872,4.8754431 C15.8746332,4.87248503 15.8231329,4.87248503 15.7718941,4.8754431 L15.7718941,4.23273438 Z M15.7039241,11.0040337 L15.7143811,10.9959663 C15.7928079,11.0524386 15.9679611,11.1680724 16.0202456,11.2084097 C15.9862607,11.3939616 15.533738,12.405085 14.7288174,12.405085 C13.9550062,12.3566801 13.6961977,12.0447378 13.5105875,11.3805158 C13.2094286,11.6951473 12.8552008,11.9500795 12.4648967,12.13348 C11.8994393,12.3464613 11.2934615,12.420951 10.6950649,12.3513018 C10.4359949,12.302897 9.67786905,12.0850752 9.5840183,10.9771422 C9.53147233,10.262364 9.77015127,9.55699792 10.2428035,9.03019191 C10.7551921,8.45471214 11.6074301,7.86847574 13.2831498,7.11013324 L13.2831498,5.66336634 C13.2724314,5.46248625 13.2130885,5.26725339 13.1106108,5.09595404 C12.8750689,4.88673756 12.5689429,4.78132258 12.2583727,4.80283584 C12.2583727,4.80283584 11.3747639,4.703337 11.1133412,5.25999267 C10.9669445,5.64723139 11.1264123,5.77900012 10.8333575,6.24422442 C10.6859151,6.46339078 10.4161268,6.55724239 10.1696052,6.47549199 C9.94295169,6.3886322 9.77930107,6.18318054 9.74087193,5.93766043 C9.68754169,5.65126513 9.74583896,5.35491994 9.90295402,5.11208899 C10.1437243,4.75469991 10.4783454,4.4750275 10.8676038,4.30534165 C11.3433932,4.12005867 11.8489847,4.02862731 12.3574519,4.03642586 C12.8962441,4.0660066 13.7142358,4.10365481 14.2739419,4.60383816 C14.7651552,5.00990099 14.8516861,5.71714949 14.8516861,6.08556411 L14.8516861,10.5253636 C14.8516861,10.5253636 14.8098584,11.1411808 15.0712812,11.3052194 C15.1873529,11.3678768 15.3261683,11.3678768 15.4425014,11.3052194 C15.5533447,11.2296541 15.6435355,11.1261215 15.7039241,11.0040337 L15.7039241,11.0040337 Z M13.2619745,10.4662022 L13.2724314,7.93570468 C12.8348098,8.15540887 12.4086908,8.3995844 11.99695,8.6671556 C11.7595782,8.80322699 11.562204,9.00168684 11.4244342,9.24263537 C11.2649664,9.53844273 10.9849826,10.3021635 11.3041798,10.9798313 C11.4280942,11.2288473 11.6835042,11.3786334 11.9548609,11.3616917 C12.7576901,11.3348001 13.2619745,10.4662022 13.2619745,10.4662022 L13.2619745,10.4662022 Z M10.7680018,13.2494805 C10.7680018,13.2494805 11.115694,13.7953795 11.16824,13.8868109 C9.53670079,14.2848063 8.56969815,13.905635 7.9132657,13.4296541 C7.40479851,13.0504828 6.99148919,12.551913 6.70836839,11.9748197 C6.5358294,11.6260359 6.40093527,11.2592348 6.3057774,10.8803325 C6.26133554,10.7512529 6.11493882,9.76433199 6.11493882,9.76433199 C6.11493882,9.76433199 6.02344087,9.11893412 5.91364332,8.70480381 C5.8339094,8.29443833 5.66581459,7.90746852 5.42216861,7.57266838 C5.28309173,7.40916758 5.11551976,7.27444078 4.92807967,7.17467302 C4.73305833,7.07840117 4.52156735,7.02273561 4.3058936,7.0106344 L3.87716034,7.0106344 L2.85238329,7.0106344 L2.85238329,9.7697103 C2.85499751,10.0168439 2.86989861,10.2637086 2.89682515,10.5092287 C2.92715018,10.6751497 2.98936879,10.8332722 3.07982105,10.974453 C3.34908645,11.2890845 3.68632176,11.2621929 4.2091672,11.2890845 L4.2091672,12.1442366 L0,12.1442366 L0,11.2837061 C0.266651173,11.2702604 0.92308362,11.3455568 1.10869375,10.974453 C1.29665669,10.6813348 1.27077584,10.2779611 1.27077584,9.76164283 L1.27077584,1.80173573 L1.27077584,1.70492605 C1.26607023,1.58256937 1.23025532,1.46397751 1.16594533,1.36071385 C1.12934615,1.30343479 1.07784587,1.25771911 1.0171958,1.22894512 C0.973538205,1.21442366 0.92883492,1.20286029 0.883870213,1.19398607 C0.59133819,1.15929593 0.296714786,1.14934605 0.00287564991,1.16440533 L0.00287564991,0.419508618 C0.00287564991,0.419508618 1.02242425,0.457156827 1.4302437,0.457156827 C2.06288667,0.446400196 3.78017252,0.338833883 4.00525748,0.365725461 C5.59732183,0.360347146 6.37636154,1.01381249 6.60092365,1.21281017 C7.21030001,1.74257426 7.47172273,2.68377949 7.47172273,3.43136536 C7.48322533,3.83070529 7.44113627,4.22977631 7.34623982,4.61728395 C7.1710866,5.32453245 6.74496757,5.97530864 5.64699215,6.55616673 C6.01821241,6.7226256 6.36224471,6.9477081 6.66627933,7.22307786 C6.99096635,7.5320621 7.26153886,7.89590515 7.46649427,8.29874099 C7.77967869,8.94682802 7.97809854,9.64708471 8.05208117,10.3667033 C8.10645709,10.9217455 8.24030552,11.4652243 8.4494437,11.980198 C8.56969815,12.2679379 9.02718791,13.0451045 9.44546426,13.2145215 C9.86818479,13.388241 10.3371772,13.4008801 10.7680018,13.2494805 L10.7680018,13.2494805 Z M5.29381006,5.02603594 C5.37511252,4.96418531 6.18290873,2.8935338 4.87579513,1.81787068 C4.0653847,1.21012101 2.85761174,1.32037648 2.85761174,1.32037648 L2.85761174,6.24153526 C3.14230108,6.24691358 4.64835737,6.424398 5.29381006,5.02603594 L5.29381006,5.02603594 Z M26.0063321,11.571446 L26.0063321,12.1872632 L23.3060968,12.1872632 L23.3060968,11.571446 C23.4872628,11.5593448 23.6522205,11.4595771 23.7505154,11.3025303 C23.8569145,11.0486738 23.9026635,10.7716905 23.883841,10.4957829 L23.883841,6.84121746 C23.883841,6.424398 23.883841,6.12321232 23.8707699,6.09632074 C23.8684171,5.83009412 23.7933888,5.57005256 23.6535276,5.34604572 C23.5975831,5.25784134 23.513405,5.19222589 23.4158944,5.16049383 C23.3369447,5.14866153 23.2574722,5.14140081 23.1779997,5.13898056 L23.1779997,4.54736585 C23.848549,4.52639042 24.5060271,4.35105733 25.1018095,4.03373671 C25.1018095,4.14399218 25.1961831,4.88888889 25.2092542,4.96956362 C25.414471,4.71732062 25.6560256,4.49869209 25.925291,4.32147659 C26.2335084,4.1461435 26.5754493,4.04314876 26.92654,4.02029092 C28.2077728,3.99877766 28.9109999,5.24385772 28.9449849,5.27881677 C29.4803786,4.54386994 30.2934032,4.07676323 31.1827633,3.99339934 C32.0723848,3.92697714 32.9000492,4.46453979 33.2244748,5.31915414 C33.3727015,5.80535387 33.4451155,6.31279795 33.4388414,6.82239335 L33.4388414,10.514607 C33.4260317,10.7625474 33.468905,11.0099499 33.5643243,11.2379905 C33.6471953,11.4200464 33.8150287,11.5456301 34.0087429,11.571446 L34.0087429,12.1872632 L31.2977893,12.1872632 L31.2977893,11.5795135 C31.5830015,11.542672 31.8025966,11.3019924 31.8206348,11.0067229 C31.8530512,10.8448356 31.8661223,10.6797213 31.8598482,10.514607 L31.8598482,7.55653343 C31.8598482,7.55653343 31.9853311,5.15780467 30.672989,5.06099499 C29.4521449,5.09595404 29.399599,7.10475492 29.41816,7.55653343 L29.41816,10.514607 C29.4186828,10.6754187 29.4343682,10.8356925 29.4649546,10.9932771 C29.4955411,11.2818237 29.7093849,11.5138981 29.9878001,11.5606894 L29.9878001,12.1899523 L27.2875648,12.1899523 L27.2875648,11.5660677 C27.4208904,11.5660677 27.7189123,11.5042171 27.8258342,10.9771422 C27.8538064,10.8238602 27.8668776,10.667889 27.865309,10.5119179 L27.865309,7.55384427 C27.9254363,5.52353013 27.1016933,5.11477814 26.691521,5.05830583 C25.8418972,5.08519741 25.418131,6.09632074 25.436692,7.5457768 L25.436692,10.5038504 C25.4288493,10.7569001 25.4764282,11.0086053 25.575246,11.2406796 C25.6617769,11.4133236 25.8209834,11.5351424 26.0063321,11.571446 L26.0063321,11.571446 Z M44.1624013,4.22197775 L44.1699826,9.77508862 C44.1699826,9.77508862 44.1908964,10.3909058 44.2120716,10.5172962 C44.4290525,11.8376727 45.5061141,11.4477448 45.5061141,11.4477448 C45.9636039,11.3022613 46.342144,10.9685369 46.551805,10.5253636 C46.7703544,10.0668622 46.8728321,9.55914925 46.8495655,9.04901601 L46.8495655,6.09094243 C46.8615909,5.84757365 46.851134,5.60366703 46.8184562,5.36218066 C46.7988494,5.23229434 46.7434278,5.11101332 46.6587269,5.01259015 C46.5034418,4.90986432 46.3207073,4.85903924 46.1358814,4.86737563 L46.1358814,4.22197775 L48.3843782,4.22197775 L48.3843782,9.77777778 L48.4128733,10.5172962 C48.4204546,10.7068818 48.4735234,10.8916269 48.5673741,11.0551277 C48.7004383,11.2030314 48.8703631,11.213788 49.3176573,11.1761398 L49.3176573,11.7139714 L47.2262756,12.4077741 C47.2262756,12.4077741 47.0223659,11.2998411 46.9883809,11.1895856 C46.1648994,12.1818849 45.7074096,12.4292874 44.7634122,12.4131524 C42.8576405,12.4265982 42.5755654,10.9502506 42.5962178,9.78046694 L42.5962178,6.0801858 C42.5962178,5.83762376 42.5823624,5.59506173 42.5546516,5.35411319 C42.5462861,5.22557145 42.4932173,5.10455934 42.4053792,5.01259015 C42.218462,4.92250336 42.0158594,4.87114045 41.8095969,4.86199731 L41.8095969,4.22197775 L44.1624013,4.22197775 Z M50.2143373,4.55543332 L50.2376039,4.55274416 C50.9502422,4.4545899 51.644581,4.24806258 52.2978763,3.93961618 C52.2978763,3.93961618 52.478258,4.91309131 52.478258,4.95880699 C52.8703921,4.45593448 53.0377026,4.12516807 54.0624797,3.98264271 C55.1630693,3.92348124 55.4950762,4.703337 55.5212185,4.93460457 C55.6493156,5.63647476 55.2231966,5.87043149 55.055886,5.90539054 C54.7866206,6.00327588 54.4880759,5.89033126 54.3448162,5.63647476 C54.337235,5.49260482 54.282859,5.35518885 54.1903154,5.24654688 C54.0473172,5.11773622 53.8509887,5.0714827 53.66747,5.12284562 C52.6481828,5.24654688 52.6819063,7.14778144 52.6819063,7.14778144 L52.6819063,10.5172962 C52.6717108,10.7692703 52.7203355,11.0198998 52.8230746,11.2487471 C52.9592758,11.494805 53.2324626,11.6244224 53.5030351,11.571446 L53.5030351,12.1765065 L50.3659624,12.1765065 L50.3659624,11.5956485 C50.5949688,11.628994 50.8224065,11.5243858 50.9515493,11.3267327 C51.1185985,11.1411808 51.1185985,10.5199853 51.1185985,10.5199853 L51.1185985,6.81163672 C51.1185985,6.72289451 51.0976846,6.07211832 51.0976846,6.07211832 C51.0976846,6.07211832 51.0822607,5.45092287 50.7371827,5.21158783 C50.5737935,5.13387116 50.3905362,5.11208899 50.2143373,5.1497372 L50.2143373,4.55543332 Z M113.758096,11.0040337 L113.7662,10.9959663 C113.844366,11.0524386 114.019519,11.1680724 114.072065,11.2084097 C114.03808,11.3939616 113.585557,12.405085 112.780637,12.405085 C112.00944,12.3566801 111.748017,12.0447378 111.562407,11.3805158 C111.261509,11.6951473 110.90702,11.9503484 110.516716,12.13348 C109.951259,12.3464613 109.345019,12.420951 108.746623,12.3513018 C108.487814,12.302897 107.72995,12.0850752 107.635576,10.9771422 C107.58303,10.2620951 107.821448,9.55699792 108.294623,9.03019191 C108.807011,8.45471214 109.659249,7.86847574 111.334969,7.11013324 L111.334969,5.66336634 C111.324512,5.46248625 111.264908,5.26725339 111.16243,5.09595404 C110.926888,4.88646865 110.620501,4.78105366 110.310192,4.80283584 C110.310192,4.80283584 109.426583,4.703337 109.16516,5.25999267 C109.018502,5.64723139 109.178232,5.77900012 108.885438,6.24422442 C108.737734,6.46339078 108.467946,6.55724239 108.221424,6.47549199 C107.994509,6.3886322 107.830859,6.18318054 107.792691,5.93766043 C107.739099,5.65126513 107.797397,5.35465102 107.954512,5.11208899 C108.195805,4.75496883 108.530165,4.47529642 108.919423,4.30534165 C109.395212,4.12005867 109.900542,4.02862731 110.409533,4.03642586 C110.947802,4.0660066 111.766055,4.10365481 112.325761,4.60383816 C112.817236,5.00990099 112.903505,5.71714949 112.903505,6.08556411 L112.903505,10.5253636 C112.903505,10.5253636 112.861678,11.1411808 113.1231,11.3052194 C113.239956,11.3686835 113.379817,11.3686835 113.496673,11.3052194 C113.607778,11.2296541 113.697969,11.1261215 113.758096,11.0040337 L113.758096,11.0040337 Z M111.316408,10.4662022 L111.329479,7.93570468 C110.891073,8.15540887 110.46417,8.3995844 110.051383,8.6671556 C109.814012,8.80322699 109.616637,9.00168684 109.478606,9.24263537 C109.3194,9.53844273 109.039677,10.3021635 109.358352,10.9798313 C109.482005,11.2293852 109.737676,11.3791713 110.009294,11.3616917 C110.812124,11.3348001 111.316408,10.4662022 111.316408,10.4662022 L111.316408,10.4662022 Z M88.1127888,11.0040337 L88.1177559,10.9959663 C88.1990583,11.0524386 88.3715973,11.1680724 88.4236204,11.2084097 C88.3925111,11.3939616 87.9402498,12.405085 87.1348064,12.405085 C86.3612566,12.3566801 86.1021867,12.0447378 85.9165766,11.3805158 C85.615679,11.6951473 85.2611898,11.9503484 84.8708857,12.13348 C84.3054284,12.3464613 83.6997119,12.420951 83.1013153,12.3513018 C82.8425068,12.302897 82.0841195,12.0850752 81.9902688,10.9771422 C81.9374614,10.2620951 82.1761403,9.55699792 82.6487926,9.03019191 C83.1611811,8.45471214 84.0136806,7.86847574 85.6891388,7.11013324 L85.6891388,5.66336634 C85.6786819,5.46248625 85.6193389,5.26725339 85.5168612,5.09595404 C85.2815808,4.88646865 84.9751934,4.78105366 84.6643617,4.80283584 C84.6643617,4.80283584 83.780753,4.703337 83.5193302,5.25999267 C83.3731949,5.64723139 83.5324014,5.77900012 83.2398694,6.24422442 C83.0921655,6.46339078 82.8223773,6.55724239 82.5758556,6.47549199 C82.3489407,6.38917003 82.1850287,6.18344946 82.146861,5.93766043 C82.0935307,5.65126513 82.151828,5.35465102 82.3092045,5.11208899 C82.5502362,4.75496883 82.8848573,4.47529642 83.2738543,4.30534165 C83.7493822,4.12005867 84.2552352,4.02889622 84.7637024,4.03642586 C85.3024946,4.0660066 86.1207477,4.10365481 86.6799309,4.60383816 C87.1714056,5.00990099 87.2576751,5.71714949 87.2576751,6.08556411 L87.2576751,10.5253636 C87.2576751,10.5253636 87.2161089,11.1411808 87.4775316,11.3052194 C87.5943876,11.3686835 87.7342487,11.3686835 87.8513661,11.3052194 C87.9624708,11.2296541 88.0524002,11.1261215 88.1127888,11.0040337 L88.1127888,11.0040337 Z M85.6711006,10.4662022 L85.6841718,7.93570468 C85.245243,8.15540887 84.8186012,8.3995844 84.4058147,8.6671556 C84.1687043,8.80349591 83.9710687,9.00195575 83.8332989,9.24263537 C83.6735696,9.53844273 83.3941088,10.3021635 83.7130445,10.9798313 C83.836436,11.2293852 84.0923688,11.3791713 84.363987,11.3616917 C85.1662934,11.3348001 85.6711006,10.4662022 85.6711006,10.4662022 L85.6711006,10.4662022 Z M69.7188249,1.14289207 L69.7188249,0.387238724 L76.842594,0.387238724 L77.0491179,3.11942305 L76.4609168,3.11942305 C76.4609168,3.11942305 76.4115079,2.22931182 76.0507446,1.83669478 C75.6897198,1.44407774 75.0050537,1.40374037 74.5161932,1.3768488 C74.1580441,1.33651143 72.4637635,1.33920059 72.4637635,1.33920059 L72.4637635,5.69832539 C72.9105349,5.71446033 73.3575677,5.68918225 73.799895,5.62302897 C74.6913464,5.43478792 74.5841631,4.50702848 74.6649427,4.24886933 L75.1877882,4.24886933 L75.1877882,8.15621562 L74.6469046,8.15621562 C74.5527924,7.66947806 74.4403806,6.98105366 73.7789812,6.81163672 C73.5489292,6.67448967 72.4533065,6.68255714 72.4533065,6.68255714 L72.4533065,9.78046694 C72.4323927,10.4608239 72.4977484,11.025547 72.7019196,11.264882 C72.9633423,11.5929593 73.5303681,11.5606894 73.6378129,11.5606894 L73.6378129,12.1818849 L69.7164721,12.1818849 L69.7164721,11.5633786 C69.8785542,11.5633786 70.3648004,11.5633786 70.5974667,11.2568146 C70.9242451,10.9206698 70.8847702,10.1623273 70.8876459,9.78315609 L70.8876459,3.135558 C70.8876459,2.46595771 70.916141,1.96846351 70.7880438,1.65921037 C70.6934088,1.39997555 70.4672782,1.21576824 70.1998427,1.18054028 C70.0406363,1.1571446 69.8801227,1.14450556 69.7188249,1.14289207 L69.7188249,1.14289207 Z M77.838876,1.12406796 L77.838876,0.516318298 L80.2701073,0 L80.2701073,10.514607 C80.271153,10.7646987 80.3137649,11.0131769 80.3953287,11.2487471 C80.4572859,11.3821293 80.5730962,11.4802836 80.7116502,11.5176629 C80.8452372,11.5418653 81.072675,11.5526219 81.072675,11.5526219 L81.072675,12.1549933 L77.9196556,12.1549933 L77.9196556,11.5606894 C78.0127221,11.5585381 78.1052657,11.5488571 78.1970251,11.5311087 C78.3645971,11.507713 78.5094253,11.3996088 78.5839307,11.2433688 C78.6678474,11.0094121 78.7086294,10.7612028 78.7039238,10.5119179 L78.7039238,3.13286884 C78.7039238,2.3072974 78.691114,1.99804425 78.5917734,1.66458868 C78.5483772,1.48549077 78.4411939,1.33005745 78.2908759,1.22894512 C78.1559817,1.15257304 78.0030494,1.11653832 77.8493329,1.12406796 L77.838876,1.12406796 Z M88.8500009,5.14704804 L88.8500009,4.53929837 C89.5223801,4.5072974 90.1816882,4.33438455 90.7868818,4.03104755 C90.7868818,4.03104755 90.8812554,4.92115878 90.8940651,4.96956362 C91.2577041,4.55274416 91.6783333,4.03373671 92.7370953,4.00953429 C94.8284771,4.10096565 95.0454579,6.0801858 95.0898998,6.80356925 C95.0898998,6.91382472 95.1108136,9.70517052 95.1032323,9.78584525 C95.0823185,10.6275516 95.1163035,11.0524386 95.241525,11.2433688 C95.3285787,11.4173573 95.4924908,11.5367559 95.6809765,11.5633786 L95.6809765,12.1818849 L92.9804799,12.1818849 L92.9804799,11.5687569 C93.182821,11.5609583 93.3650327,11.4391395 93.4533936,11.2514363 C93.607633,10.9421831 93.5867191,10.6087275 93.5791379,9.77508862 C93.5582241,8.50311698 93.5791379,7.05097176 93.5318204,6.81701503 C93.4978354,6.27918347 93.1919708,5.07981909 92.3554181,5.0663733 C91.498213,5.10133236 91.2132623,6.26304853 91.1531351,6.81701503 C91.1322212,6.91920303 91.1322212,10.3478792 91.1322212,10.5119179 C91.1115688,10.7641609 91.1596706,11.0172106 91.2707753,11.2433688 C91.347895,11.4243491 91.5154669,11.5472436 91.7073512,11.5633786 L91.7073512,12.1818849 L89.0092073,12.1818849 L89.0092073,11.5660677 C89.2084114,11.562034 89.3848718,11.4329544 89.4538874,11.2406796 C89.5477381,11.0094121 89.5890429,10.7593204 89.5741418,10.5092287 L89.5741418,6.81701503 C89.5741418,6.01026769 89.5479996,5.62571813 89.3127191,5.33797824 C89.2034444,5.19115023 89.0246313,5.11773622 88.8471253,5.14704804 L88.8500009,5.14704804 Z M114.456095,5.14704804 L114.456095,4.53929837 C115.128735,4.5072974 115.788044,4.33438455 116.393237,4.03104755 C116.393237,4.03104755 116.487611,4.92115878 116.500682,4.96956362 C116.866674,4.55274416 117.28495,4.03373671 118.343451,4.00953429 C120.434832,4.10096565 120.651813,6.0801858 120.696255,6.80356925 C120.696255,6.91382472 120.717169,9.70517052 120.709326,9.78584525 C120.688674,10.6275516 120.722659,11.0524386 120.84788,11.2433688 C120.935457,11.418164 121.100415,11.5375626 121.289946,11.5633786 L121.289946,12.1818849 L118.586835,12.1818849 L118.586835,11.5687569 C118.788915,11.5593448 118.969819,11.4364503 119.057396,11.2487471 C119.209021,10.9394939 119.190722,10.6060384 119.182618,9.77239946 C119.161704,8.50042782 119.182618,7.04828261 119.135823,6.81432588 C119.101838,6.27649432 118.795973,5.07712994 117.959421,5.06368415 C117.101693,5.0986432 116.817003,6.26035937 116.756876,6.81432588 C116.735962,6.91651387 116.735962,10.3451901 116.735962,10.5092287 C116.71531,10.7614717 116.76315,11.0147904 116.874255,11.2406796 C116.951636,11.4216599 117.119469,11.5445545 117.310831,11.5606894 L117.310831,12.1791957 L114.61321,12.1791957 L114.61321,11.5633786 C114.812414,11.5593448 114.988613,11.4302652 115.057628,11.2379905 C115.151479,11.0067229 115.192784,10.7566312 115.177883,10.5065395 L115.177883,6.81701503 C115.177883,6.01026769 115.151479,5.62571813 114.91646,5.33797824 C114.807186,5.19115023 114.628372,5.11773622 114.451128,5.14704804 L114.456095,5.14704804 Z M97.1606291,1.68341279 C97.1423295,1.08104144 97.5867482,0.524385772 98.1200505,0.524385772 C98.6533529,0.524385772 99.0870532,1.1025547 99.069015,1.67265615 C99.069015,2.4794035 98.5147988,2.85319643 98.1200505,2.85319643 C97.5467505,2.79349713 97.1224614,2.27744774 97.1606291,1.68610194 L97.1606291,1.68341279 Z M96.6479792,5.1497372 L96.6479792,4.61190564 L98.9043187,3.91272461 L98.9043187,10.5172962 C98.9043187,11.5741352 99.4925198,11.571446 99.4925198,11.571446 L99.4925198,12.184574 L96.7632666,12.184574 L96.7632666,11.5687569 C96.7632666,11.5687569 97.3488535,11.62254 97.3383966,10.514607 L97.3383966,6.07480748 C97.3642774,5.50739518 97.2649368,5.36218066 97.1449438,5.24116856 C97.0923978,5.20083119 97.037499,5.13091309 96.6479792,5.15242635 L96.6479792,5.1497372 Z M106.179713,4.03911502 L106.17187,4.06062829 C107.397681,4.08214155 107.418595,5.70908202 106.550933,5.77093265 C106.426496,5.78249603 106.302843,5.74592348 106.203241,5.66874465 C106.043773,5.50470603 105.993841,5.20889867 105.695819,5.17393962 C105.529293,5.16398973 105.36329,5.20325144 105.217416,5.28688424 C105.434397,5.56924581 105.625497,6.02102432 105.674906,6.82777167 C105.745751,7.67754553 105.604583,8.51118445 105.246434,9.04901601 C104.519417,10.1139225 103.410985,10.0628285 102.613646,10.0628285 C102.371568,10.0593326 102.129491,10.0838039 101.89238,10.1354358 C101.765852,10.1919081 101.680889,10.3164161 101.672785,10.4581347 C101.675138,10.6046938 101.75827,10.7370004 101.88689,10.7996577 C102.694948,11.0336145 106.485578,10.2967852 106.52453,13.1338467 C106.616289,14.4864931 105.499752,15.1292018 104.770383,15.3981176 C103.590844,15.8157438 102.298631,15.7425987 101.170854,15.1937416 C100.859499,15.0512162 100.020594,14.4058184 100.282016,13.4834372 C100.632061,12.4481115 101.926365,12.8783767 101.884276,13.1204009 C101.839834,13.2360347 101.6388,13.1634275 101.439858,13.3893167 C101.315943,13.6520474 101.347314,13.9647965 101.52116,14.1960641 C101.761669,14.5833028 102.420193,14.8817993 103.047869,14.9221367 C104.046504,15.013568 105.12069,14.4730473 105.251401,13.7039482 C105.41113,12.7546755 104.483079,12.5260971 103.087082,12.4857597 C101.871467,12.3674367 100.465012,12.3136536 100.425537,11.0228578 C100.365672,9.84500672 101.183925,9.65138736 101.617886,9.50348368 C101.011386,9.21036548 100.227118,8.58110255 100.227118,6.96760787 C100.287245,6.24960274 100.48854,4.17357291 102.880558,4.03911502 C103.580648,3.99017235 104.269497,4.23891945 104.78633,4.72753942 C105.102651,4.52047427 105.622621,4.05793913 106.179713,4.03911502 L106.179713,4.03911502 Z M104.198129,7.11013324 C104.257995,5.83009412 103.837104,4.754431 102.950881,4.754431 C102.16426,4.73291774 101.761669,5.81664833 101.790425,7.06710671 C101.790425,8.19924215 102.151189,9.32062095 102.950881,9.32062095 C103.86586,9.34213421 104.179829,8.23957951 104.198129,7.11013324 L104.198129,7.11013324 Z" id="Fill-1" fill="#FFFFFF"></path>
                                <mask id="mask-2" fill="white">
                                    <use xlink:href="#path-1"></use>
                                </mask>
                                <g id="Clip-4"></g>
                            </g>
                        </g>
                    </g>
                </g>
            </g>
        </g>
    </g>
</svg>