<?xml version="1.0" encoding="UTF-8"?>
<svg width="226px" height="43px" viewBox="0 0 226 43" version="1.1" xmlns="http://www.w3.org/2000/svg" xmlns:xlink="http://www.w3.org/1999/xlink">
    <!-- Generator: sketchtool 41.2 (35397) - http://www.bohemiancoding.com/sketch -->
    <title>3F84798D-972E-403C-BADD-E1ACF5B68017</title>
    <desc>Created with sketchtool.</desc>
    <defs></defs>
    <g id="Symbols" stroke="none" stroke-width="1" fill="none" fill-rule="evenodd">
        <g id="riversandwhitelogo" fill="#FFFFFF">
            <g>
                <path d="M9.83721064,5.19987158 C9.83721064,7.91882564 7.63495532,10.1231136 4.91850851,10.1231136 C2.2020617,10.1231136 8.29787234e-05,7.91882564 8.29787234e-05,5.19987158 C8.29787234e-05,2.48091753 2.2020617,0.276629558 4.91850851,0.276629558 C7.63495532,0.276629558 9.83721064,2.48091753 9.83721064,5.19987158" id="Fill-1"></path>
                <path d="M9.83721064,15.8975895 C9.83721064,18.6165436 7.63495532,20.8208315 4.91850851,20.8208315 C2.2020617,20.8208315 8.29787234e-05,18.6165436 8.29787234e-05,15.8975895 C8.29787234e-05,13.1786355 2.2020617,10.9743475 4.91850851,10.9743475 C7.63495532,10.9743475 9.83721064,13.1786355 9.83721064,15.8975895" id="Fill-4"></path>
                <path d="M9.83721064,26.5953075 C9.83721064,29.3142615 7.63495532,31.5185495 4.91850851,31.5185495 C2.2020617,31.5185495 8.29787234e-05,29.3142615 8.29787234e-05,26.5953075 C8.29787234e-05,23.8763534 2.2020617,21.6720654 4.91850851,21.6720654 C7.63495532,21.6720654 9.83721064,23.8763534 9.83721064,26.5953075" id="Fill-6"></path>
                <path d="M21.4865383,15.8975895 C21.4865383,18.6165436 19.284283,20.8208315 16.5678362,20.8208315 C13.8513894,20.8208315 11.6494106,18.6165436 11.6494106,15.8975895 C11.6494106,13.1786355 13.8513894,10.9743475 16.5678362,10.9743475 C19.284283,10.9743475 21.4865383,13.1786355 21.4865383,15.8975895" id="Fill-8"></path>
                <path d="M21.4865383,26.5953075 C21.4865383,29.3142615 19.284283,31.5185495 16.5678362,31.5185495 C13.8513894,31.5185495 11.6494106,29.3142615 11.6494106,26.5953075 C11.6494106,23.8763534 13.8513894,21.6720654 16.5678362,21.6720654 C19.284283,21.6720654 21.4865383,23.8763534 21.4865383,26.5953075" id="Fill-10"></path>
                <path d="M21.4865383,37.2930254 C21.4865383,40.0119795 19.284283,42.2162674 16.5678362,42.2162674 C13.8513894,42.2162674 11.6494106,40.0119795 11.6494106,37.2930254 C11.6494106,34.5740713 13.8513894,32.3697834 16.5678362,32.3697834 C19.284283,32.3697834 21.4865383,34.5740713 21.4865383,37.2930254" id="Fill-12"></path>
                <path d="M28.9970255,20.1691796 C28.9970255,17.3123537 29.8735574,15.0994833 31.6268979,13.5308454 C33.3791319,11.9630379 35.807366,11.1784421 38.9104936,11.1784421 C40.8651957,11.1784421 42.4545149,11.4505867 43.6806638,11.9934915 C44.905983,12.537227 45.5189191,13.3677801 45.5189191,14.4859814 C45.5189191,15.0144901 45.3714936,15.5269414 45.0769191,16.0230584 C44.7817915,16.5202829 44.5417064,16.8311866 44.3555574,16.9546622 C43.8275362,16.7068805 43.1761532,16.4734951 42.4008553,16.2558901 C41.6247277,16.0391158 40.7407277,15.9300365 39.7480255,15.9300365 C36.1177064,15.9300365 34.3026851,17.8560891 34.3026851,21.7065334 L34.3026851,35.215203 L28.9970255,35.215203 L28.9970255,20.1691796 Z" id="Fill-15"></path>
                <path d="M47.4266277,14.2994669 C47.4266277,13.4304315 47.6744574,12.8017028 48.1712234,12.4127271 C48.6671596,12.0248588 49.3652872,11.8305093 50.2656064,11.8305093 C50.8240532,11.8305093 51.3360319,11.9002758 51.8015426,12.0403624 C52.2667766,12.1798953 52.5765638,12.2812228 52.7322872,12.3429606 L52.7322872,35.215286 L47.4266277,35.215286 L47.4266277,14.2994669 Z M50.0794574,1.34920585 C50.9789468,1.34920585 51.7387553,1.66010957 52.3597128,2.28108645 C52.980117,2.90261703 53.290734,3.66312684 53.290734,4.56372327 C53.290734,5.46459655 52.980117,6.2253832 52.3597128,6.84608323 C51.7387553,7.46789066 50.9789468,7.77768698 50.0794574,7.77768698 C49.1788617,7.77768698 48.4193298,7.46789066 47.7986489,6.84608323 C47.1779681,6.2253832 46.8679043,5.46459655 46.8679043,4.56372327 C46.8679043,3.66312684 47.1779681,2.90261703 47.7986489,2.28108645 C48.4193298,1.66010957 49.1788617,1.34920585 50.0794574,1.34920585 L50.0794574,1.34920585 Z" id="Fill-17"></path>
                <path d="M64.7395298,35.2152584 C63.2807638,32.5134691 61.9472957,29.974745 60.7371894,27.5990863 C59.527083,25.2234275 58.487083,23.1035791 57.6188489,21.2403716 C56.7497851,19.3771641 56.0829128,17.8248603 55.6174021,16.5823529 C55.1521681,15.3403991 54.9195511,14.5325478 54.9195511,14.1599063 C54.9195511,13.5076452 55.1361255,12.9564348 55.570934,12.5059982 C56.0051894,12.0561152 56.6717851,11.8304817 57.5723809,11.8304817 C58.2237638,11.8304817 58.7589766,11.89305 59.1780191,12.0170793 C59.5967851,12.1413854 59.8365936,12.2346842 59.8991043,12.2964219 C60.5195085,13.9733087 61.1866574,15.6737278 61.9005511,17.3974023 C62.6138915,19.1210769 63.3197638,20.7514527 64.0178915,22.2885296 C64.7162957,23.8258835 65.3679553,25.2234275 65.9725936,26.4808849 C66.5777851,27.738896 67.0817426,28.7718273 67.4855723,29.5785712 C68.0744447,28.4609236 68.7106149,27.1411747 69.3935298,25.6193245 C70.0758915,24.0983049 70.7350191,22.5914047 71.371466,21.1008387 C72.007083,19.6099958 72.5815723,18.2517646 73.0935511,17.024484 C73.6055298,15.7980339 73.970083,14.9051893 74.1872106,14.346227 C74.4969979,13.5702136 74.8695723,12.9564348 75.3041043,12.5059982 C75.7383596,12.0561152 76.4209979,11.8304817 77.3517426,11.8304817 C78.2202532,11.8304817 78.9264021,11.9783201 79.4693596,12.2731665 C80.0114872,12.5685665 80.3146362,12.7471354 80.3771468,12.8088732 C80.1909979,13.4611343 79.872083,14.3539789 79.4226149,15.487407 C78.9728702,16.6213889 78.4296362,17.8863213 77.7940191,19.2838653 C77.1578489,20.6816862 76.474934,22.1417986 75.7463809,23.6628182 C75.0169979,25.1849452 74.2956362,26.6672057 73.5822957,28.1115375 C72.8681255,29.5553157 72.1932319,30.8991507 71.5576149,32.1408276 C70.9214447,33.3836119 70.3859553,34.4085144 69.9519766,35.2152584 L64.7395298,35.2152584 Z" id="Fill-19"></path>
                <path d="M86.5204213,22.4516503 C87.2337617,22.4829344 87.9166766,22.4984381 88.5680596,22.4984381 L90.5224851,22.4984381 C92.2288043,22.4984381 93.6098468,22.3896356 94.664783,22.1720307 C95.7197191,21.9552564 96.5420383,21.6756368 97.1317404,21.3337258 C97.7206128,20.9923685 98.1089532,20.6045001 98.2951021,20.1692903 C98.4812511,19.7343573 98.5741872,19.2839207 98.5741872,18.8179804 C98.5741872,17.6383181 98.1006553,16.7532253 97.1549745,16.1627021 C96.2081872,15.5732862 95.0370809,15.2778862 93.6408255,15.2778862 C92.4926766,15.2778862 91.4839319,15.4799874 90.6159745,15.8833594 C89.746634,16.287285 89.0175277,16.8229918 88.4286553,17.4904797 C87.8384,18.1587981 87.3814638,18.9273366 87.055634,19.796372 C86.7300809,20.6659611 86.5508468,21.5513307 86.5204213,22.4516503 L86.5204213,22.4516503 Z M102.855889,33.4916392 C102.60723,33.6477831 102.219443,33.8642807 101.692528,34.1441771 C101.164783,34.4235198 100.505655,34.6876356 99.7148681,34.935971 C98.9232511,35.1848601 98.0079957,35.4016345 96.9688255,35.5879552 C95.9285489,35.7745528 94.7884213,35.8672979 93.548166,35.8672979 C91.8103149,35.8672979 90.1891872,35.603182 88.6842298,35.075504 C87.1795489,34.5481027 85.8607404,33.7640606 84.7283574,32.7233775 C83.5959745,31.6832482 82.7039532,30.4102871 82.0525702,28.9033869 C81.4009106,27.3975941 81.0753574,25.6661677 81.0753574,23.7093845 C81.0753574,21.8461771 81.3928894,20.145758 82.0290596,18.6084042 C82.6646766,17.0713272 83.5492298,15.7518551 84.682166,14.6488806 C85.8139957,13.5470135 87.1485702,12.6923743 88.6842298,12.0869011 C90.220166,11.481151 91.9029745,11.1785528 93.7343149,11.1785528 C95.3471447,11.1785528 96.7743787,11.3878522 98.016017,11.8072815 C99.2565489,12.226434 100.30374,12.7856731 101.157038,13.4844451 C102.010613,14.1832171 102.653974,14.9982666 103.088783,15.9298704 C103.523038,16.8614741 103.740166,17.855923 103.740166,18.9112792 C103.740166,19.9987501 103.538251,20.9843398 103.135528,21.8694325 C102.731421,22.7545253 102.018081,23.5158657 100.9944,24.1517925 C99.9704426,24.7888267 98.5899532,25.2860512 96.8521021,25.6426354 C95.1142511,26.00005 92.9117191,26.178619 90.2434,26.178619 C89.6224426,26.178619 89.0410383,26.1708671 88.4980809,26.1550866 C87.9551234,26.139583 87.373166,26.1166043 86.7533149,26.0853202 C87.0008681,27.6686313 87.7689745,28.9498979 89.0568043,29.9280126 C90.3438043,30.9061273 92.1820596,31.3958768 94.5718468,31.3958768 C95.3781234,31.3958768 96.1229957,31.3338622 96.8059106,31.209556 C97.4877191,31.0855268 98.1006553,30.9296596 98.644166,30.743062 C99.1862936,30.5567413 99.6523574,30.3709742 100.040421,30.1846535 C100.427932,29.9983327 100.715315,29.858523 100.901464,29.7652242 L102.855889,33.4916392 Z" id="Fill-21"></path>
                <path d="M106.532234,20.1691796 C106.532234,17.3123537 107.409043,15.0994833 109.162106,13.5308454 C110.91434,11.9630379 113.342851,11.1784421 116.445979,11.1784421 C118.400404,11.1784421 119.989723,11.4505867 121.216426,11.9934915 C122.441468,12.537227 123.054404,13.3677801 123.054404,14.4859814 C123.054404,15.0144901 122.906702,15.5269414 122.612128,16.0230584 C122.317277,16.5202829 122.077468,16.8311866 121.891043,16.9546622 C121.362745,16.7068805 120.711362,16.4734951 119.936064,16.2558901 C119.160213,16.0391158 118.275936,15.9300365 117.283511,15.9300365 C113.653468,15.9300365 111.837894,17.8560891 111.837894,21.7065334 L111.837894,35.215203 L106.532234,35.215203 L106.532234,20.1691796 Z" id="Fill-23"></path>
                <path d="M124.869343,29.3923335 C125.085917,29.5484775 125.473981,29.7500251 126.032704,29.9983604 C126.591428,30.2472495 127.281257,30.5030599 128.103853,30.7666221 C128.925619,31.030738 129.864385,31.255541 130.919874,31.4418618 C131.973981,31.6284594 133.122406,31.7217582 134.363215,31.7217582 C135.976874,31.7217582 137.295406,31.5121819 138.319364,31.0924757 C139.343321,30.6736001 139.8553,29.9515726 139.8553,28.9266701 C139.8553,28.0573578 139.52947,27.3976218 138.878087,26.9471851 C138.226428,26.4973022 137.063066,26.1786466 135.387172,25.992049 L131.757406,25.5728966 C130.515768,25.4491442 129.375917,25.2235106 128.336747,24.8971032 C127.29647,24.5712495 126.405279,24.1285647 125.660406,23.5696025 C124.916087,23.0109171 124.33413,22.3198969 123.91564,21.4965419 C123.496321,20.6742943 123.286938,19.6881509 123.286938,18.5386654 C123.286938,17.5453239 123.480555,16.6054146 123.868896,15.7205987 C124.256406,14.835229 124.869343,14.0514637 125.707151,13.3679185 C126.544683,12.6852039 127.638619,12.1494971 128.98813,11.7607982 C130.337917,11.3729299 131.973981,11.1785805 133.897981,11.1785805 C137.125023,11.1785805 139.629874,11.5359952 141.41447,12.2497172 C143.198236,12.9648234 144.090811,13.8964272 144.090811,15.0450821 C144.090811,15.4174468 144.020832,15.7435773 143.881151,16.0231968 C143.741747,16.3028164 143.585747,16.5517055 143.415917,16.7684798 C143.244981,16.9860848 143.066853,17.1646537 142.880704,17.3041866 C142.694555,17.4439964 142.555151,17.5298202 142.461662,17.5602738 C142.337194,17.4365214 142.065853,17.242172 141.647364,16.9780561 C141.228045,16.7147707 140.661853,16.4506548 139.948513,16.1862621 C139.234619,15.9226999 138.381321,15.6898682 137.388896,15.4872132 C136.395364,15.2856657 135.247768,15.184615 133.944726,15.184615 C130.344832,15.184615 128.545853,16.132553 128.545853,18.0262141 C128.545853,18.8340654 128.887172,19.4470136 129.569534,19.8661661 C130.251896,20.2853186 131.229109,20.5729668 132.501726,20.7280034 L137.249491,21.3337535 C139.824321,21.6756645 141.825215,22.3819115 143.252449,23.4530482 C144.679683,24.5247385 145.393853,26.1011284 145.393853,28.1811102 C145.393853,30.5108117 144.4703,32.3740192 142.624577,33.7715632 C140.778023,35.1691073 138.117449,35.8673256 134.642853,35.8673256 C132.967513,35.8673256 131.447066,35.7427426 130.081513,35.4952378 C128.716236,35.2463487 127.529364,34.9592542 126.521449,34.6334005 C125.512704,34.30727 124.698406,33.9888913 124.078279,33.6779876 C123.457321,33.3679144 123.054598,33.1353596 122.868172,32.9792156 L124.869343,29.3923335 Z" id="Fill-25"></path>
                <path d="M164.428398,24.7809088 C164.117781,24.7188942 163.536377,24.6258722 162.683079,24.5012893 C161.829504,24.3775368 160.549419,24.3149685 158.843653,24.3149685 C156.733504,24.3149685 155.197568,24.6336241 154.236398,25.2698277 C153.274121,25.906862 152.793121,26.9079553 152.793121,28.2744921 C152.793121,28.8337312 152.893526,29.3461824 153.095717,29.8118459 C153.297632,30.2775093 153.646696,30.6736832 154.142909,30.9998137 C154.639121,31.3256674 155.313738,31.5745565 156.167866,31.7453735 C157.020611,31.9159138 158.083015,32.0011839 159.355632,32.0011839 C160.782313,32.0011839 161.915526,31.9474748 162.753057,31.8381186 C163.590589,31.729593 164.149313,31.6448766 164.428398,31.5814777 L164.428398,24.7809088 Z M169.687866,35.1224025 C169.377249,35.1849709 168.888228,35.2539068 168.221632,35.3322556 C167.554206,35.4092202 166.770887,35.4870153 165.871398,35.5648105 C164.971355,35.6417751 163.963164,35.7118184 162.846547,35.7743867 C161.7291,35.8364013 160.565738,35.8674087 159.355632,35.8674087 C156.935419,35.8674087 154.95776,35.6581093 153.421823,35.23868 C151.886164,34.8198043 150.676057,34.2605652 149.791781,33.5617932 C148.907228,32.8630212 148.302589,32.0554467 147.976206,31.1393466 C147.650377,30.2238002 147.487738,29.2841678 147.487738,28.3212799 C147.487738,27.0483188 147.681355,25.9301175 148.069696,24.9672296 C148.457206,24.0048953 149.093377,23.197044 149.97793,22.544783 C150.862206,21.8927988 152.017547,21.4033261 153.444781,21.0774725 C154.872015,20.7513419 156.609866,20.5882767 158.657504,20.5882767 C159.836079,20.5882767 160.953249,20.6275895 162.008185,20.7045541 C163.063121,20.7826261 163.853909,20.8523926 164.382206,20.9144072 C164.382206,19.8277669 164.202972,18.9274473 163.846994,18.2126179 C163.489632,17.4983422 163.001164,16.9396568 162.380483,16.5354543 C161.759526,16.1323592 161.015206,15.8527397 160.146696,15.6971494 C159.277909,15.5418359 158.315909,15.4643176 157.261249,15.4643176 C155.492419,15.4643176 154.073483,15.6664189 153.002781,16.0697909 C151.932079,16.4737165 151.226483,16.8150739 150.884887,17.0946934 C150.699291,16.9396568 150.443164,16.6448105 150.117334,16.2096006 C149.791781,15.7746677 149.628866,15.2472664 149.628866,14.625459 C149.628866,14.1910797 149.745036,13.7638986 149.97793,13.3444692 C150.21027,12.9253168 150.621015,12.5526753 151.21127,12.2265447 C151.800143,11.9004142 152.591206,11.644327 153.584738,11.4577294 C154.577164,11.2716855 155.834015,11.1786636 157.354738,11.1786636 C159.184696,11.1786636 160.852291,11.3572325 162.357249,11.7140935 C163.862206,12.0715082 165.157504,12.6387759 166.243972,13.4145126 C167.329611,14.1910797 168.174887,15.2159823 168.780079,16.4892202 C169.384994,17.762735 169.687866,19.3000888 169.687866,21.1007279 L169.687866,35.1224025 Z" id="Fill-27"></path>
                <path d="M173.968434,21.100811 C173.968434,19.5479535 174.254987,18.158715 174.829477,16.9317112 C175.403136,15.7049843 176.194753,14.6648549 177.203498,13.8104926 C178.211136,12.9564071 179.40603,12.3044229 180.787072,11.8539863 C182.167009,11.4041034 183.679434,11.1784698 185.324626,11.1784698 C186.968987,11.1784698 188.489711,11.4041034 189.885413,11.8539863 C191.281668,12.3044229 192.484306,12.9564071 193.492221,13.8104926 C194.500413,14.6648549 195.284285,15.7049843 195.843009,16.9317112 C196.401179,18.158715 196.680817,19.5479535 196.680817,21.100811 L196.680817,35.2152307 L191.375157,35.2152307 L191.375157,22.4515672 C191.375157,20.3400243 190.863179,18.7329041 189.839221,17.6302064 C188.815264,16.5283392 187.309753,15.9765751 185.324626,15.9765751 C183.307136,15.9765751 181.794711,16.5283392 180.787072,17.6302064 C179.778328,18.7329041 179.274094,20.3400243 179.274094,22.4515672 L179.274094,35.2152307 L173.968434,35.2152307 L173.968434,21.100811 Z" id="Fill-29"></path>
                <path d="M219.856996,23.5232576 C219.856996,22.4679014 219.678315,21.4731757 219.321783,20.5415719 C218.964974,19.6099682 218.476506,18.8029474 217.855826,18.1194022 C217.234868,17.4364107 216.483081,16.9009807 215.598528,16.5122819 C214.714251,16.1241367 213.744506,15.9297873 212.689847,15.9297873 C211.603379,15.9297873 210.626166,16.1241367 209.757655,16.5122819 C208.889145,16.9009807 208.135974,17.4286588 207.500357,18.0961467 C206.863911,18.7641882 206.375443,19.5634572 206.034677,20.4953378 C205.693081,21.4269415 205.522698,22.4366173 205.522698,23.5232576 C205.522698,24.6107285 205.693081,25.6120987 206.034677,26.5276451 C206.375443,27.4437452 206.863911,28.2360928 207.500357,28.9033038 C208.135974,29.5718991 208.889145,30.0993003 209.757655,30.4871686 C210.626166,30.8758675 211.603379,31.0691095 212.689847,31.0691095 C213.744506,31.0691095 214.714251,30.8833425 215.598528,30.510701 C216.483081,30.1377826 217.234868,29.6256082 217.855826,28.9733471 C218.476506,28.3213629 218.964974,27.5290153 219.321783,26.5976884 C219.678315,25.6660846 219.856996,24.6409052 219.856996,23.5232576 L219.856996,23.5232576 Z M219.856996,3.3524446 C219.856996,2.5138628 220.096804,1.89316277 220.578634,1.48923711 C221.059634,1.08558829 221.749464,0.883487035 222.649506,0.883487035 C223.207677,0.883487035 223.720209,0.953253497 224.184889,1.09306327 C224.650677,1.23287305 224.959911,1.33392368 225.116464,1.39593831 L225.116464,22.4053331 C225.116464,24.6724663 224.797272,26.6439225 224.162209,28.3213629 C223.525762,29.9982497 222.649506,31.3957937 221.532336,32.5134414 C220.415719,33.6313659 219.096357,34.4702245 217.577017,35.0289099 C216.056294,35.588149 214.396166,35.8672149 212.596911,35.8672149 C210.765847,35.8672149 209.082762,35.5571417 207.547102,34.935888 C206.011166,34.3149111 204.684889,33.4613793 203.567719,32.3739085 C202.450826,31.2872681 201.574294,29.9830229 200.9384,28.4608959 C200.30223,26.9395994 199.984145,25.2934431 199.984145,23.5232576 C199.984145,21.7223416 200.287017,20.0687103 200.891655,18.5618101 C201.497123,17.0562942 202.334932,15.7517721 203.404804,14.6487975 C204.475506,13.5469304 205.732081,12.6922912 207.174528,12.086818 C208.617528,11.481068 210.191911,11.1784698 211.898783,11.1784698 C213.698038,11.1784698 215.280443,11.5278558 216.645719,12.226351 C218.010719,12.925123 219.081145,13.7720103 219.856996,14.7653518 L219.856996,3.3524446 Z" id="Fill-31"></path>
            </g>
        </g>
    </g>
</svg>