<svg width="30" height="30" viewBox="0 0 30 30" xmlns="http://www.w3.org/2000/svg"><title>D23755CC-85DE-4CEB-9313-1F91C5509A99</title><g fill="none" fill-rule="evenodd"><ellipse fill="#0BB2E8" cx="15" cy="15" rx="15" ry="15"/><path d="M17.266 10.77h2.037l-2.037-2.05v2.05zm2.57.664h-2.751c-.387 0-.476-.091-.476-.487v-2.76h-5.696c-.502 0-.748.25-.748.757v12.119c0 .503.248.75.754.75h8.158c.513 0 .758-.246.758-.762v-9.617zM9.521 15V8.903c.001-.613.308-1.09.837-1.278a1.49 1.49 0 0 1 .488-.08c2.009-.006 4.018-.004 6.027-.006.13 0 .228.041.32.135 1.049 1.06 2.1 2.116 3.152 3.171a.425.425 0 0 1 .132.323c-.001 3.325 0 6.65-.002 9.974 0 .761-.551 1.316-1.307 1.317-2.78.003-5.56.003-8.339 0-.762-.001-1.306-.559-1.307-1.332-.002-2.042 0-4.084 0-6.127zm5 2.46h2.586c.266 0 .409-.17.414-.489.005-.326-.144-.51-.415-.51h-5.172c-.042 0-.084-.003-.126.004-.164.029-.283.23-.287.485-.004.26.117.476.288.506.041.007.084.004.126.004h2.586zm-.015 3h2.671c.204 0 .338-.196.344-.49.005-.298-.134-.503-.344-.508H11.934c-.047 0-.094-.004-.14.004-.137.022-.224.148-.26.367-.057.344.09.626.33.627.882.002 1.762 0 2.643 0zm0-5h2.671c.197-.001.318-.162.34-.44.027-.324-.12-.558-.354-.558h-4.386c-.309 0-.618-.002-.927 0-.164.002-.27.125-.313.35-.067.353.079.647.327.647.88.003 1.761.001 2.642.001z" fill="#FFF"/></g></svg>