<?xml version="1.0" encoding="UTF-8"?>
<svg width="171px" height="48px" viewBox="0 0 171 48" version="1.1" xmlns="http://www.w3.org/2000/svg" xmlns:xlink="http://www.w3.org/1999/xlink">
    <!-- Generator: Sketch 44.1 (41455) - http://www.bohemiancoding.com/sketch -->
    <title>tesa-logo</title>
    <desc>Created with Sketch.</desc>
    <defs></defs>
    <g id="Page-1" stroke="none" stroke-width="1" fill="none" fill-rule="evenodd">
        <g id="Artboard" transform="translate(-43.000000, -111.000000)">
            <g id="tesa-logo" transform="translate(43.000000, 111.000000)">
                <polygon id="Fill-2" fill="#FFFFFF" points="0.598 47.486 170.677 47.486 170.677 0.628 0.598 0.628"></polygon>
                <path d="M0.604,0.625 L159.978,0.625 C159.978,0.625 151.236,20.866 130.967,22.499 C133.124,26.2 129.314,47.486 117.463,47.486 L0.604,47.486 L0.604,0.625" id="Fill-3" fill="#D9222A"></path>
                <path d="M161.106,0.625 L170.677,0.625 L170.677,47.486 L122.479,47.486 C145.056,35.289 161.106,0.625 161.106,0.625" id="Fill-4" fill="#009BD0"></path>
                <path d="M23.175,6.008 L30.288,6.008 L29.021,11.999 L41.691,12.002 L38.278,17.848 L27.561,17.848 L24.88,28.763 C24.88,28.763 23.42,32.756 26.293,33.782 C31.8,35.582 36.575,31.589 36.575,31.589 L37.793,37.29 C37.793,37.29 32.774,41.236 26.051,40.553 C20.74,40.408 16.696,37.045 17.184,32.076 C17.719,28.08 20.447,17.751 20.447,17.751 L9.632,17.751 L12.898,11.951 L21.715,11.951 L23.175,6.008" id="Fill-5" fill="#FFFFFF"></path>
                <path d="M45.197,28.08 C45.197,28.08 43.639,33.782 50.216,34.367 C56.014,34.754 56.892,30.71 56.939,30.71 C64.249,30.71 64.249,30.71 64.249,30.71 C64.249,30.71 62.348,41.188 48.95,40.503 C42.324,40.506 36.475,35.339 38.133,25.742 C38.133,25.742 39.156,10.832 54.942,11.32 C62.396,11.854 65.514,15.655 66.048,20.284 C66.438,23.843 65.127,28.08 65.127,28.08 L45.197,28.08" id="Fill-6" fill="#FFFFFF"></path>
                <path d="M110.238,22.379 C110.238,22.379 99.766,21.357 95.477,24.72 C90.021,29.056 91.092,34.754 91.092,34.754 C92.504,40.748 99.033,40.65 99.033,40.65 C104.392,40.506 107.365,38.117 107.365,38.117 L107.657,40.018 L114.331,40.018 C114.331,40.018 113.882,37.172 114.331,36.022 C114.186,35.827 117.792,20.428 117.792,20.428 C117.792,20.428 119.642,15.409 114.088,12.927 C109.898,10.684 105.222,11.609 105.222,11.609 C105.222,11.609 97.035,11.902 95.38,19.894 L103.077,19.894 C103.077,19.894 103.661,16.58 107.899,16.823 C113.258,16.678 110.238,22.379 110.238,22.379" id="Fill-7" fill="#FFFFFF"></path>
                <path d="M123.178,12.905 C122.657,13.429 122.398,14.058 122.398,14.8 C122.398,15.546 122.657,16.182 123.173,16.706 C123.694,17.233 124.324,17.494 125.068,17.494 C125.812,17.494 126.441,17.233 126.963,16.706 C127.481,16.182 127.742,15.546 127.742,14.8 C127.742,14.058 127.481,13.429 126.963,12.905 C126.438,12.378 125.809,12.116 125.068,12.116 C124.329,12.116 123.699,12.378 123.178,12.905 Z M127.271,17.007 C126.664,17.617 125.929,17.924 125.068,17.924 C124.207,17.924 123.474,17.617 122.869,17.007 C122.267,16.399 121.966,15.663 121.966,14.8 C121.966,13.944 122.27,13.211 122.874,12.604 C123.481,11.999 124.212,11.698 125.068,11.698 C125.929,11.698 126.664,11.999 127.271,12.604 C127.879,13.208 128.183,13.941 128.183,14.8 C128.183,15.661 127.879,16.396 127.271,17.007 Z M125.653,13.621 C125.502,13.537 125.26,13.493 124.928,13.493 L124.415,13.493 L124.415,14.73 L124.956,14.73 C125.212,14.73 125.402,14.705 125.53,14.655 C125.764,14.563 125.881,14.384 125.881,14.123 C125.881,13.875 125.806,13.707 125.653,13.621 Z M125.009,13.083 C125.433,13.083 125.742,13.125 125.94,13.206 C126.293,13.353 126.469,13.64 126.469,14.07 C126.469,14.377 126.357,14.599 126.135,14.744 C126.015,14.82 125.85,14.875 125.639,14.911 C125.909,14.953 126.104,15.064 126.23,15.245 C126.352,15.427 126.416,15.602 126.416,15.775 L126.416,16.026 C126.416,16.104 126.416,16.188 126.422,16.279 C126.427,16.368 126.438,16.43 126.452,16.455 L126.475,16.5 L125.912,16.5 C125.909,16.489 125.903,16.478 125.903,16.466 C125.901,16.455 125.898,16.441 125.895,16.427 L125.881,16.316 L125.881,16.046 C125.881,15.65 125.772,15.391 125.561,15.262 C125.433,15.187 125.207,15.15 124.889,15.15 L124.415,15.15 L124.415,16.5 L123.813,16.5 L123.813,13.083 L125.009,13.083 L125.009,13.083 Z" id="Fill-8" fill="#FFFFFF"></path>
                <path d="M46.27,22.184 L58.692,22.184 C58.692,22.184 60.35,16.764 53.626,16.873 C47.683,16.823 46.27,22.184 46.27,22.184" id="Fill-9" fill="#D9222A"></path>
                <path d="M109.07,27.445 C109.117,27.495 98.156,26.082 98.497,33.001 C100.301,37.338 109.023,33.977 109.07,27.445" id="Fill-10" fill="#D9222A"></path>
                <path d="M65.904,30.71 L73.017,30.71 C73.017,30.71 71.75,35.272 77.792,34.999 C83.2,34.754 81.69,31.343 81.639,31.394 C81.152,28.959 72.48,28.373 69.412,22.574 C66.976,14.484 76.136,11.854 76.523,11.902 C85.05,10.001 89.826,13.217 89.826,13.217 C93.722,15.265 92.992,19.846 92.992,19.846 L85.928,19.846 C85.928,19.846 86.463,16.678 81.494,16.628 C76.378,16.678 77.303,19.748 77.303,19.748 C77.938,22.086 85.733,23.647 87.828,26.325 C93.412,33.659 86.602,40.338 79.594,40.65 C68.827,41.041 67.478,38.104 67.219,38.017 C64.173,35.105 65.904,30.71 65.904,30.71" id="Fill-11" fill="#FFFFFF"></path>
            </g>
        </g>
    </g>
</svg>