<?xml version="1.0" encoding="UTF-8"?>
<svg width="42px" height="42px" viewBox="0 0 42 42" version="1.1" xmlns="http://www.w3.org/2000/svg" xmlns:xlink="http://www.w3.org/1999/xlink">
    <!-- Generator: Sketch 52.6 (67491) - http://www.bohemiancoding.com/sketch -->
    <title>Icons/zip</title>
    <desc>Created with Sketch.</desc>
    <g id="Icons/zip" stroke="none" stroke-width="1" fill="none" fill-rule="evenodd">
        <g id="Icons/ExcelIcon">
            <rect id="icon" fill="#F5A623" x="0" y="0" width="42" height="42" rx="3"></rect>
            <path d="M25.4177349,7 L25.4177349,13.639984 L31.9684617,13.639984 L31.935844,35 L12.0064128,35 L12.0064128,31.2681609 L22.7539538,31.2681609 C25.7765298,31.2681609 28.2391682,28.7298379 28.2391682,25.6143686 C28.2391682,22.4988993 25.7765298,19.9605763 22.7539538,19.9605763 L12.0064128,19.9605763 L12.0064128,7 L25.4177349,7 Z M26.0961914,7 L32,12.9843906 L26.0961914,12.9843906 L26.0961914,7 Z M21.7887328,24.2023028 C22.0931649,24.2023028 22.321489,24.2863532 22.4682688,24.4544541 C22.6204849,24.6225549 22.6965929,24.8354827 22.6965929,25.0932373 C22.6965929,25.350992 22.6204849,25.5583164 22.4682688,25.7264172 C22.3160527,25.8945181 22.0931649,25.9785685 21.7887328,25.9785685 L20.7286567,25.9785685 L20.7286567,24.2023028 L21.7887328,24.2023028 Z M27.5208787,25.743231 C27.5208787,28.4944818 25.3572362,30.7246199 22.6880188,30.7246199 L11,30.7246199 L11,20.7618422 L22.6880188,20.7618422 C25.3572362,20.7618422 27.5208787,22.9919803 27.5208787,25.743231 Z M17.2191133,28.5224986 L17.213677,28.5224986 L17.213677,27.8444918 L14.7292935,27.8444918 L17.1266964,23.978172 L17.1266964,23.4738694 L13.7888157,23.4738694 L13.7888157,24.1518762 L16.1590372,24.1518762 L13.7725068,27.9957826 L13.7725068,28.5224986 L17.2191133,28.5224986 Z M18.8989262,28.5224986 L18.8989262,23.4794728 L18.0834831,23.4794728 L18.0834831,28.5224986 L18.8989262,28.5224986 Z M20.8124995,26.6117522 L20.8124995,26.6061488 L21.8725757,26.6061488 C22.4107682,26.6061488 22.8347986,26.4660647 23.1392307,26.1802933 C23.4436629,25.8945218 23.5958789,25.5134932 23.5958789,25.0428108 C23.5958789,24.5777317 23.4436629,24.1967031 23.1392307,23.9109317 C22.8347986,23.6251602 22.4107682,23.4794728 21.8725757,23.4794728 L19.9970564,23.4794728 L19.9970564,28.5224986 L20.8124995,28.5224986 L20.8124995,26.6117522 Z" id="Combined-Shape" fill="#FFFFFF"></path>
        </g>
    </g>
</svg>