<?xml version="1.0" encoding="UTF-8"?>
<svg width="80px" height="15px" viewBox="0 0 80 15" version="1.1" xmlns="http://www.w3.org/2000/svg" xmlns:xlink="http://www.w3.org/1999/xlink">
    <!-- Generator: sketchtool 42 (36781) - http://www.bohemiancoding.com/sketch -->
    <title>83057C21-6701-4A6A-8C5B-1C3E2DD43545</title>
    <desc>Created with sketchtool.</desc>
    <defs></defs>
    <g id="Symbols" stroke="none" stroke-width="1" fill="none" fill-rule="evenodd">
        <g id="Logos/MainLogo">
            <g>
                <path d="M10.2610053,7.13054308 C10.2610053,6.1205492 10.57108,5.33821747 11.191523,4.78364578 C11.8116724,4.22936772 12.6708376,3.95198399 13.7690188,3.95198399 C14.4607163,3.95198399 15.0231182,4.04819719 15.4570074,4.24023207 C15.890603,4.43236484 16.1074986,4.72599616 16.1074986,5.1213218 C16.1074986,5.3081692 16.0553301,5.48924185 15.9509931,5.66473551 C15.8465583,5.84052279 15.7616988,5.95043878 15.6958275,5.99409197 C15.5089801,5.90649196 15.2784795,5.82398156 15.00413,5.74705015 C14.7294868,5.67051025 14.4166716,5.63175092 14.0653907,5.63175092 C12.7807536,5.63175092 12.138484,6.31277984 12.138484,7.67405466 L12.138484,12.4499681 L10.2610053,12.4499681 L10.2610053,7.13054308 Z" id="Fill-4" fill="#4B4E51"></path>
                <path d="M16.7825473,5.05539178 C16.7825473,4.74815554 16.8702452,4.52587663 17.0460324,4.38845717 C17.2214282,4.25123346 17.4685679,4.18262161 17.7871579,4.18262161 C17.9847718,4.18262161 18.1659423,4.20718876 18.3306695,4.25671458 C18.4952988,4.30604464 18.6049211,4.34176979 18.660026,4.36369426 L18.660026,12.4499094 L16.7825473,12.4499094 L16.7825473,5.05539178 Z M17.7212866,0.476994298 C18.039583,0.476994298 18.3084514,0.586910291 18.5281855,0.806448644 C18.7477238,1.02618275 18.8576398,1.29514904 18.8576398,1.6134454 C18.8576398,1.93193751 18.7477238,2.2009038 18.5281855,2.42034428 C18.3084514,2.64017626 18.039583,2.74970075 17.7212866,2.74970075 C17.4025987,2.74970075 17.1338282,2.64017626 16.914192,2.42034428 C16.6945558,2.2009038 16.5848355,1.93193751 16.5848355,1.6134454 C16.5848355,1.29514904 16.6945558,1.02618275 16.914192,0.806448644 C17.1338282,0.586910291 17.4025987,0.476994298 17.7212866,0.476994298 L17.7212866,0.476994298 Z" id="Fill-6" fill="#4B4E51"></path>
                <path d="M22.9089495,12.4499388 C22.3927457,11.4947561 21.9208801,10.597223 21.4926678,9.75733954 C21.0644554,8.91745607 20.6964375,8.16801106 20.3892012,7.50929812 C20.0816714,6.85048731 19.8456897,6.30169036 19.6809625,5.8624179 C19.5163332,5.42334119 19.4340186,5.13783367 19.4340186,5.00599321 C19.4340186,4.77549262 19.5106563,4.58061929 19.6645191,4.42137324 C19.8181862,4.26232294 20.0541679,4.1825531 20.3727579,4.1825531 C20.6032585,4.1825531 20.7926507,4.20467332 20.9409345,4.24842439 C21.0891204,4.29246909 21.1739799,4.32545367 21.1961001,4.34728027 C21.4157364,4.94012191 21.6517181,5.54128311 21.9043389,6.15056811 C22.1567639,6.75995098 22.4065463,7.33634927 22.653686,7.87986085 C22.9007278,8.42337243 23.1313263,8.91745607 23.3452857,9.3620139 C23.5594408,9.8066696 23.7377729,10.171947 23.8806734,10.4571609 C24.0890538,10.062031 24.3141712,9.59535292 24.5558297,9.05742034 C24.7971947,8.51958563 25.0305337,7.98684053 25.2557489,7.45996806 C25.4806705,6.93289983 25.6839613,6.45271474 25.8651318,6.01882552 C26.0463023,5.58522993 26.1753044,5.26947838 26.2521379,5.07196238 C26.3617603,4.79761284 26.4936007,4.58061929 26.6473657,4.42137324 C26.8010327,4.26232294 27.0425934,4.1825531 27.3720478,4.1825531 C27.679284,4.1825531 27.9292621,4.23481947 28.121297,4.33905859 C28.3131362,4.44349347 28.4204095,4.50652632 28.4425297,4.5284508 C28.3766584,4.75895138 28.2638061,5.07470294 28.1047558,5.47531394 C27.9456076,5.87631645 27.753377,6.32351696 27.5284554,6.8176006 C27.3032402,7.31168424 27.0617773,7.82788811 26.8037733,8.36572282 C26.5457692,8.90385116 26.2905057,9.42788519 26.0380807,9.93851007 C25.785362,10.4489392 25.5465418,10.9240347 25.3216202,11.3630135 C25.0965029,11.8023838 24.9071107,12.164627 24.7534436,12.4499388 L22.9089495,12.4499388 Z" id="Fill-8" fill="#4B4E51"></path>
                <path d="M30.6163901,7.93750068 C30.8688151,7.94856079 31.1104737,7.95404191 31.3410722,7.95404191 L32.0325739,7.95404191 C32.6363778,7.95404191 33.1251761,7.91557621 33.4983815,7.8386448 C33.8716848,7.76200703 34.1626734,7.66315115 34.3713474,7.54217504 C34.5797278,7.42159044 34.7171473,7.28446462 34.7830185,7.13050392 C34.8489877,6.97683687 34.8817765,6.81759081 34.8817765,6.65286364 C34.8817765,6.23580928 34.7142109,5.92289617 34.379667,5.71412429 C34.0445358,5.50574393 33.630222,5.40130906 33.1361383,5.40130906 C32.7297526,5.40130906 32.3727948,5.47275935 32.0656564,5.61536629 C31.7581265,5.75807112 31.5001225,5.9475612 31.2916442,6.1835429 C31.0828724,6.41981824 30.9210815,6.6915251 30.8058801,6.99876134 C30.6905809,7.30619333 30.6271565,7.61920433 30.6163901,7.93750068 L30.6163901,7.93750068 Z M36.3969142,11.8404482 C36.3089227,11.8957488 36.1717968,11.9722887 35.9852431,12.0712425 C35.7984935,12.1700005 35.5653503,12.2633752 35.2854217,12.351171 C35.0052975,12.4391625 34.6814221,12.5158003 34.3136978,12.5816716 C33.945582,12.6476408 33.5422304,12.6804296 33.1032516,12.6804296 C32.4882897,12.6804296 31.914632,12.5870548 31.3821806,12.4005011 C30.8496312,12.2140452 30.3829532,11.9368572 29.9822443,11.5689371 C29.5815354,11.2012128 29.2658817,10.7511739 29.0353811,10.2183309 C28.8048805,9.68607522 28.6895813,9.07395178 28.6895813,8.38205851 C28.6895813,7.72334557 28.8019442,7.12228225 29.0270616,6.57877067 C29.252081,6.03535696 29.5649942,5.56877679 29.9658988,5.17893227 C30.3664119,4.7892835 30.838669,4.48723474 31.3821806,4.27317751 C31.9255943,4.0590224 32.5210786,3.95204272 33.1691229,3.95204272 C33.7398443,3.95204272 34.2448902,4.02613569 34.6843584,4.17432163 C35.1232394,4.32250757 35.4938021,4.52012145 35.795753,4.76726115 C36.0978017,5.01430297 36.3254639,5.30245318 36.4793267,5.63180965 C36.6329938,5.96116611 36.7098273,6.31274069 36.7098273,6.68575035 C36.7098273,7.0703095 36.638377,7.41875201 36.4958679,7.73166512 C36.3528695,8.04457824 36.1005423,8.31374028 35.7382012,8.538564 C35.3758602,8.76377923 34.8873555,8.93956651 34.2723937,9.06563223 C33.6574318,9.19199157 32.8780364,9.25502443 31.9338159,9.25502443 C31.7140818,9.25502443 31.5083441,9.25238175 31.3162114,9.24680276 C31.1240786,9.24132164 30.9181452,9.23319784 30.6988026,9.22213772 C30.7864026,9.7818969 31.0583052,10.2348722 31.5139231,10.580672 C31.9694432,10.9264718 32.6198366,11.0996164 33.4655927,11.0996164 C33.7508066,11.0996164 34.0143896,11.0777898 34.2561461,11.0336472 C34.4973153,10.9898962 34.7142109,10.9347914 34.9065395,10.8689201 C35.0983786,10.8029509 35.2633015,10.7372754 35.4006231,10.6714041 C35.5378468,10.6054349 35.6394432,10.5561048 35.7053145,10.5231202 L36.3969142,11.8404482 Z" id="Fill-10" fill="#4B4E51"></path>
                <path d="M37.6978478,7.13054308 C37.6978478,6.1205492 38.0081182,5.33821747 38.6284633,4.78364578 C39.2485148,4.22936772 40.1078758,3.95198399 41.2059591,3.95198399 C41.8975587,3.95198399 42.4599606,4.04819719 42.8940456,4.24023207 C43.3276411,4.43236484 43.5444389,4.72599616 43.5444389,5.1213218 C43.5444389,5.3081692 43.4921726,5.48924185 43.3879334,5.66473551 C43.2834986,5.84052279 43.1986391,5.95043878 43.1327678,5.99409197 C42.9458225,5.90649196 42.715322,5.82398156 42.4409724,5.74705015 C42.1664271,5.67051025 41.853514,5.63175092 41.502331,5.63175092 C40.2176939,5.63175092 39.5753264,6.31277984 39.5753264,7.67405466 L39.5753264,12.4499681 L37.6978478,12.4499681 L37.6978478,7.13054308 Z" id="Fill-12" fill="#4B4E51"></path>
                <path d="M44.1866987,10.39127 C44.2632386,10.4463748 44.400756,10.5177272 44.5983698,10.6054251 C44.7960816,10.6935145 45.0401871,10.7839529 45.3312736,10.877132 C45.6220665,10.9705067 45.9542614,11.0499829 46.3277605,11.1158542 C46.700868,11.1818234 47.1071559,11.2149059 47.5462326,11.2149059 C48.1171498,11.2149059 48.5838278,11.140715 48.9461689,10.9924312 C49.308412,10.8442452 49.4896804,10.5889818 49.4896804,10.2266407 C49.4896804,9.91930658 49.3743812,9.68606543 49.1437827,9.52681937 C48.9132822,9.36776907 48.501611,9.25511252 47.9085736,9.18914335 L46.6241324,9.04095741 C46.184762,8.99720634 45.7814105,8.9174365 45.4136862,8.80203939 C45.0455704,8.68683803 44.7302103,8.53033254 44.4665294,8.33271866 C44.20324,8.13520265 43.9972086,7.89090139 43.8492185,7.59981487 C43.7008368,7.30911986 43.6266459,6.9604816 43.6266459,6.55409585 C43.6266459,6.20291278 43.6952578,5.87062 43.8326772,5.55780476 C43.9698031,5.24479377 44.1866987,4.96770368 44.4830706,4.7260451 C44.7795404,4.48468015 45.1666443,4.29528795 45.6442846,4.15786849 C46.121827,4.02074266 46.700868,3.95203293 47.3817012,3.95203293 C48.5235355,3.95203293 49.4098127,4.0782944 50.0413158,4.33081734 C50.6726232,4.58353603 50.9884726,4.9128925 50.9884726,5.31898462 C50.9884726,5.45062933 50.9636118,5.56592856 50.9142818,5.66478444 C50.8648538,5.76364032 50.809749,5.85163184 50.7497503,5.92826962 C50.6891644,6.00520103 50.6261315,6.06833176 50.5602603,6.11766182 C50.4942911,6.16708976 50.444961,6.19743167 50.4119764,6.20819815 C50.3679317,6.16444708 50.2719143,6.09573735 50.1237284,6.00236259 C49.9755424,5.90928146 49.7750901,5.8159067 49.5227629,5.72243406 C49.2700442,5.62925505 48.9680933,5.54694041 48.6169103,5.47529436 C48.2653357,5.40403983 47.8591457,5.36831468 47.3982424,5.36831468 C46.124274,5.36831468 45.4875834,5.70334802 45.4875834,6.37292532 C45.4875834,6.65853072 45.6084616,6.87523064 45.8499244,7.02341658 C46.0913873,7.17160252 46.4371871,7.27329684 46.8875197,7.32810802 L48.5675802,7.54226313 C49.4786203,7.66314136 50.1867612,7.91282586 50.6918071,8.29151239 C51.196853,8.67039468 51.4494738,9.22770693 51.4494738,9.96305764 C51.4494738,10.7866935 51.1226621,11.4454064 50.4695282,11.9394901 C49.8161985,12.4335737 48.8746207,12.6804198 47.6451863,12.6804198 C47.0523447,12.6804198 46.5142164,12.6363751 46.031095,12.548873 C45.5478757,12.4608814 45.1279829,12.3593829 44.7713187,12.2441815 C44.414263,12.1288823 44.1262107,12.0164215 43.9068681,11.9064076 C43.6870361,11.7966874 43.5444291,11.7145685 43.4786557,11.6593658 L44.1866987,10.39127 Z" id="Fill-14" fill="#4B4E51"></path>
                <path d="M58.1852393,8.76096037 C58.0753233,8.73903589 57.8694878,8.70614919 57.5675369,8.66210449 C57.265586,8.61835342 56.8126108,8.59623319 56.2090026,8.59623319 C55.4622982,8.59623319 54.9187866,8.70888974 54.5785658,8.93390922 C54.2381492,9.15902656 54.0679409,9.51295019 54.0679409,9.99616947 C54.0679409,10.1937834 54.1034703,10.3749539 54.1749206,10.5395832 C54.2464687,10.7042125 54.3699897,10.8442746 54.5454833,10.959476 C54.7210748,11.0747752 54.959895,11.1628646 55.2621395,11.2231569 C55.5638946,11.2834492 55.9398406,11.3135953 56.3901732,11.3135953 C56.8949254,11.3135953 57.2959279,11.2946072 57.5922998,11.2560436 C57.8887696,11.2175779 58.0864813,11.1875296 58.1852393,11.1653115 L58.1852393,8.76096037 Z M60.0463725,12.4170619 C59.9364565,12.4391821 59.7633119,12.4635535 59.5274281,12.4912527 C59.2913485,12.5184625 59.0141606,12.545966 58.6958642,12.5734695 C58.3772742,12.6006793 58.0205122,12.6255401 57.6253823,12.6475624 C57.2300566,12.6694869 56.8183855,12.6803513 56.3901732,12.6803513 C55.5337485,12.6803513 54.8339271,12.6065519 54.2904156,12.4581702 C53.746904,12.3100822 53.3186916,12.1123704 53.0057785,11.8653286 C52.6928654,11.6182868 52.4788082,11.3327793 52.3634111,11.0089039 C52.2481118,10.6853222 52.1904622,10.3530294 52.1904622,10.0127107 C52.1904622,9.56257388 52.2590741,9.16724824 52.3963956,8.82683166 C52.5336194,8.48670871 52.7587367,8.20100543 53.0716498,7.97040696 C53.3846608,7.73990637 53.7933956,7.56695753 54.2984415,7.45165829 C54.8034874,7.33635906 55.4184492,7.27870944 56.1431313,7.27870944 C56.5600878,7.27870944 56.9555113,7.29260799 57.3288146,7.31981783 C57.70202,7.34751705 57.9819486,7.37218208 58.1688939,7.39400868 C58.1688939,7.00984103 58.1054695,6.69144679 57.9794038,6.43882598 C57.8529465,6.18630304 57.6801934,5.98878703 57.4605572,5.84588646 C57.2408231,5.70337739 56.9773379,5.60452151 56.6701017,5.54951457 C56.3626697,5.49460552 56.0222531,5.46719993 55.6489498,5.46719993 C55.0230257,5.46719993 54.5209162,5.53865021 54.1420339,5.68135504 C53.7632495,5.82405986 53.513565,5.94474234 53.3926867,6.04359822 C53.3270112,5.98878703 53.2362791,5.88454791 53.1210778,5.7306851 C53.0057785,5.57701804 52.9481289,5.39046427 52.9481289,5.17063229 C52.9481289,5.01706311 52.9892373,4.86613661 53.0716498,4.71775491 C53.1538666,4.56956897 53.299312,4.43792426 53.5081817,4.32252715 C53.7165621,4.20722791 53.9964906,4.11669159 54.3480652,4.05072242 C54.6992482,3.98504688 55.1440018,3.95206229 55.6820323,3.95206229 C56.3295872,3.95206229 56.9197862,4.01529091 57.4523355,4.14135662 C57.984787,4.26781384 58.4432434,4.46826616 58.8276068,4.74251782 C59.2117744,5.01706311 59.5108869,5.37940416 59.7251399,5.82954098 C59.9390992,6.27977568 60.0463725,6.82328726 60.0463725,7.45997785 L60.0463725,12.4170619 Z" id="Fill-16" fill="#4B4E51"></path>
                <path d="M61.5610404,7.45992891 C61.5610404,6.91103409 61.662441,6.41978888 61.8657318,5.98599754 C62.0687289,5.55230407 62.3489511,5.18457978 62.705811,4.88253102 C63.0623773,4.58067802 63.4852064,4.35007955 63.9739068,4.1908335 C64.4623136,4.0317832 64.9974077,3.95201335 65.5795808,3.95201335 C66.1614602,3.95201335 66.6995885,4.0317832 67.1934764,4.1908335 C67.6875601,4.35007955 68.1130318,4.58067802 68.4698918,4.88253102 C68.826556,5.18457978 69.1039397,5.55230407 69.3016514,5.98599754 C69.4991675,6.41978888 69.5981212,6.91103409 69.5981212,7.45992891 L69.5981212,12.4498996 L67.7206425,12.4498996 L67.7206425,7.93747132 C67.7206425,7.19096261 67.539472,6.622786 67.1771309,6.23294148 C66.8148878,5.84329271 66.2820448,5.64832151 65.5795808,5.64832151 C64.8656652,5.64832151 64.3304731,5.84329271 63.9739068,6.23294148 C63.6170469,6.622786 63.4386169,7.19096261 63.4386169,7.93747132 L63.4386169,12.4498996 L61.5610404,12.4498996 L61.5610404,7.45992891 Z" id="Fill-18" fill="#4B4E51"></path>
                <path d="M77.7993713,8.3163536 C77.7993713,7.94314819 77.7361427,7.59157362 77.6098813,7.26221715 C77.4837177,6.93286068 77.3108667,6.64754891 77.0912305,6.40589033 C76.8714963,6.16442751 76.6054664,5.97513318 76.2924554,5.83761584 C75.9794444,5.70049001 75.6363851,5.63178028 75.2631797,5.63178028 C74.8787184,5.63178028 74.5329186,5.70049001 74.2254866,5.83761584 C73.9182504,5.97513318 73.651731,6.16168695 73.4267115,6.39766865 C73.2015942,6.63394399 73.0287432,6.91641733 72.9080607,7.24577379 C72.7872804,7.57522814 72.7269881,7.93218595 72.7269881,8.3163536 C72.7269881,8.70081488 72.7872804,9.05483638 72.9080607,9.37851598 C73.0287432,9.70239133 73.2015942,9.98241774 73.4267115,10.2183994 C73.651731,10.4547727 73.9182504,10.6412286 74.2254866,10.7783544 C74.5329186,10.9157738 74.8787184,10.9840921 75.2631797,10.9840921 C75.6363851,10.9840921 75.9794444,10.9184165 76.2924554,10.7866739 C76.6054664,10.6549313 76.8714963,10.4736629 77.0912305,10.2432602 C77.3108667,10.0126618 77.4837177,9.73253748 77.6098813,9.40327889 C77.7361427,9.07392242 77.7993713,8.71148349 77.7993713,8.3163536 L77.7993713,8.3163536 Z M77.7993713,1.18522326 C77.7993713,0.888753504 77.8842308,0.669313028 78.0546348,0.526510327 C78.224941,0.383805504 78.4690465,0.312355215 78.7875386,0.312355215 C78.9849567,0.312355215 79.1664209,0.337020246 79.3307566,0.386350309 C79.4956795,0.435876125 79.6051061,0.47160127 79.6605045,0.493525742 L79.6605045,7.92102796 C79.6605045,8.72264148 79.5474565,9.41952649 79.3227306,10.0126618 C79.0976133,10.6055034 78.7875386,11.0996849 78.392213,11.4948148 C77.9970831,11.8899447 77.5302093,12.1865123 76.9925703,12.3840283 C76.454442,12.5816422 75.8669836,12.6804002 75.230293,12.6804002 C74.5823465,12.6804002 73.9867643,12.5707779 73.4432528,12.3512395 C72.8997412,12.1316033 72.4304204,11.8297503 72.0350948,11.4453869 C71.6399649,11.0612192 71.3296945,10.6001202 71.1048708,10.0619918 C70.8796555,9.52415712 70.766999,8.94217983 70.766999,8.3163536 C70.766999,7.67966301 70.8742723,7.09504305 71.0883295,6.56229795 C71.3024847,6.03004224 71.5988565,5.5688453 71.9775431,5.1789029 C72.3564254,4.78935201 72.8011789,4.48720538 73.3115102,4.27314815 C73.822135,4.05899303 74.3792515,3.95201335 74.9832512,3.95201335 C75.6198439,3.95201335 76.1798967,4.07553427 76.663116,4.32247821 C77.1459438,4.56952003 77.524826,4.86882823 77.7993713,5.22010917 L77.7993713,1.18522326 Z" id="Fill-20" fill="#4B4E51"></path>
                <path d="M3.48100914,5.6203776 C3.48100914,6.58162868 2.70180948,7.36092621 1.7405584,7.36092621 C0.779209445,7.36092621 9.78771061e-06,6.58162868 9.78771061e-06,5.6203776 C9.78771061e-06,4.65912652 0.779209445,3.87982899 1.7405584,3.87982899 C2.70180948,3.87982899 3.48100914,4.65912652 3.48100914,5.6203776" id="Fill-22" fill="#36B449"></path>
                <path d="M3.48100914,9.40241757 C3.48100914,10.3636686 2.70180948,11.1429662 1.7405584,11.1429662 C0.779209445,11.1429662 9.78771061e-06,10.3636686 9.78771061e-06,9.40241757 C9.78771061e-06,8.44116649 0.779209445,7.66186896 1.7405584,7.66186896 C2.70180948,7.66186896 3.48100914,8.44116649 3.48100914,9.40241757" id="Fill-24" fill="#785DA7"></path>
                <path d="M7.60331887,5.6203776 C7.60331887,6.58162868 6.82402134,7.36092621 5.86277026,7.36092621 C4.90151918,7.36092621 4.12231952,6.58162868 4.12231952,5.6203776 C4.12231952,4.65912652 4.90151918,3.87982899 5.86277026,3.87982899 C6.82402134,3.87982899 7.60331887,4.65912652 7.60331887,5.6203776" id="Fill-26" fill="#F68D1E"></path>
                <path d="M7.60331887,9.40241757 C7.60331887,10.3636686 6.82402134,11.1429662 5.86277026,11.1429662 C4.90151918,11.1429662 4.12231952,10.3636686 4.12231952,9.40241757 C4.12231952,8.44116649 4.90151918,7.66186896 5.86277026,7.66186896 C6.82402134,7.66186896 7.60331887,8.44116649 7.60331887,9.40241757" id="Fill-28" fill="#F6D30B"></path>
                <path d="M3.48100914,1.83834742 C3.48100914,2.7995985 2.70180948,3.57889603 1.7405584,3.57889603 C0.779209445,3.57889603 9.78771061e-06,2.7995985 9.78771061e-06,1.83834742 C9.78771061e-06,0.877096341 0.779209445,0.0977988064 1.7405584,0.0977988064 C2.70180948,0.0977988064 3.48100914,0.877096341 3.48100914,1.83834742" id="Fill-1" fill="#0CB1E7"></path>
                <path d="M7.60331887,13.1844967 C7.60331887,14.1457478 6.82402134,14.9249474 5.86277026,14.9249474 C4.90151918,14.9249474 4.12231952,14.1457478 4.12231952,13.1844967 C4.12231952,12.2232456 4.90151918,11.4439481 5.86277026,11.4439481 C6.82402134,11.4439481 7.60331887,12.2232456 7.60331887,13.1844967" id="Fill-30" fill="#ED204B"></path>
            </g>
        </g>
    </g>
</svg>