<?xml version="1.0" encoding="UTF-8"?>
<svg width="42px" height="42px" viewBox="0 0 42 42" version="1.1" xmlns="http://www.w3.org/2000/svg" xmlns:xlink="http://www.w3.org/1999/xlink">
    <!-- Generator: sketchtool 42 (36781) - http://www.bohemiancoding.com/sketch -->
    <title>D9E8E4B2-3F3D-43BC-A780-2C4A792BCEF8</title>
    <desc>Created with sketchtool.</desc>
    <defs></defs>
    <g id="Symbols" stroke="none" stroke-width="1" fill="none" fill-rule="evenodd">
        <g id="Icons/ExcelIcon">
            <g>
                <rect id="icon" fill="#0DB05A" x="0" y="0" width="42" height="42" rx="3"></rect>
                <path d="M32.5,11.5 L23,11.5 L23,10 C23,9.848 22.931,9.704 22.812,9.609 C22.693,9.514 22.537,9.48 22.388,9.513 L9.388,12.513 C9.161,12.565 9,12.767 9,13 L9,30 C9,30.247 9.18,30.457 9.424,30.494 L22.424,32.494 C22.449,32.498 22.475,32.5 22.5,32.5 C22.619,32.5 22.734,32.458 22.826,32.379 C22.937,32.284 23,32.146 23,32 L23,30.5 L32.5,30.5 C32.776,30.5 33,30.276 33,30 L33,12 C33,11.723 32.776,11.5 32.5,11.5 L32.5,11.5 Z M23,18.5 L26,18.5 L26,20.5 L23,20.5 L23,18.5 L23,18.5 Z M13.076,24.735 L15.245,21.265 C15.347,21.103 15.347,20.897 15.245,20.735 L13.077,17.265 C12.93,17.031 13.001,16.722 13.235,16.576 C13.47,16.43 13.778,16.501 13.924,16.735 L15.576,19.378 C15.759,19.67 16.241,19.67 16.424,19.378 L18.076,16.735 C18.147,16.621 18.259,16.542 18.389,16.512 C18.519,16.484 18.653,16.505 18.765,16.575 C18.999,16.721 19.071,17.031 18.925,17.264 L16.756,20.734 C16.654,20.896 16.654,21.102 16.756,21.264 L18.924,24.734 C19.07,24.968 18.999,25.277 18.765,25.423 C18.538,25.564 18.217,25.489 18.076,25.263 L16.424,22.62 C16.333,22.475 16.172,22.386 16,22.386 C15.828,22.386 15.667,22.475 15.576,22.621 L13.924,25.264 C13.782,25.49 13.462,25.564 13.235,25.424 C13.001,25.278 12.93,24.968 13.076,24.735 L13.076,24.735 Z M23,21.5 L26,21.5 L26,23.5 L23,23.5 L23,21.5 L23,21.5 Z M27,21.5 L32,21.5 L32,23.5 L27,23.5 L27,21.5 L27,21.5 Z M27,20.5 L27,18.5 L32,18.5 L32,20.5 L27,20.5 L27,20.5 Z M27,17.5 L27,15.5 L32,15.5 L32,17.5 L27,17.5 L27,17.5 Z M26,17.5 L23,17.5 L23,15.5 L26,15.5 L26,17.5 L26,17.5 Z M23,24.5 L26,24.5 L26,26.5 L23,26.5 L23,24.5 L23,24.5 Z M27,24.5 L32,24.5 L32,26.5 L27,26.5 L27,24.5 L27,24.5 Z M32,14.5 L27,14.5 L27,12.5 L32,12.5 L32,14.5 L32,14.5 Z M26,12.5 L26,14.5 L23,14.5 L23,12.5 L26,12.5 L26,12.5 Z M23,27.5 L26,27.5 L26,29.5 L23,29.5 L23,27.5 L23,27.5 Z M27,29.5 L27,27.5 L32,27.5 L32,29.5 L27,29.5 L27,29.5 Z" id="Shape" fill="#FFFFFF"></path>
            </g>
        </g>
    </g>
</svg>